<svg width="62" height="36" viewBox="0 0 62 36" fill="none" xmlns="http://www.w3.org/2000/svg">
<path d="M52.5397 0H9.46032C4.23553 0 0 4.23553 0 9.46032V26.5397C0 31.7645 4.23553 36 9.46032 36H52.5397C57.7645 36 62 31.7645 62 26.5397V9.46032C62 4.23553 57.7645 0 52.5397 0Z" fill="#26A6D1"/>
<path d="M12.621 3H49.3164C50.7633 3 51.9375 4.17419 51.9375 5.62235V30.5227C51.9375 31.9696 50.7633 33.1438 49.3164 33.1438H12.621C11.1729 33.1439 10 31.9696 10 30.5229V5.62235C10 4.17419 11.1742 3 12.621 3Z" fill="#26A6D1"/>
<path d="M16.7624 13.4844L12.6211 22.6491H17.5789L18.1935 21.1878H19.5984L20.213 22.6491H25.6702V21.5338L26.1564 22.6491H28.9793L29.4656 21.5102V22.6491H40.8149L42.195 21.2258L43.4872 22.6491L49.3165 22.6609L45.162 18.0923L49.3165 13.4844H43.5776L42.2342 14.8813L40.9827 13.4844H28.636L27.5758 15.8499L26.4908 13.4844H21.5433V14.5617L20.9929 13.4844H16.7624ZM17.7217 14.7858H20.1384L22.8854 21.0004V14.7858H25.5327L27.6545 19.2416L29.6099 14.7858H32.244V21.3621H30.6412L30.6281 16.2089L28.2914 21.3621H26.8576L24.5078 16.2089V21.3621H21.2104L20.5853 19.8877H17.208L16.5842 21.3608H14.8175L17.7217 14.7858ZM33.7104 14.7858H40.2278L42.2211 16.939L44.2787 14.7858H46.2721L43.2434 18.091L46.2721 21.3582H44.1883L42.195 19.18L40.1269 21.3582H33.7104V14.7858ZM18.8974 15.8984L17.7847 18.5248H20.0088L18.8974 15.8984ZM35.3198 16.1474V17.3479H38.8753V18.6859H35.3198V19.9965H39.3079L41.1609 18.0661L39.3865 16.1462H35.3198V16.1474Z" fill="#FFFCFC"/>
</svg>
