<svg width="24" height="24" viewBox="0 0 24 24" fill="none" xmlns="http://www.w3.org/2000/svg">
<path d="M12.702 2.19756L19.702 4.82256C20.0833 4.96549 20.4119 5.22142 20.6438 5.55612C20.8758 5.89082 21.0001 6.28835 21 6.69556V12.0586C21 13.73 20.5346 15.3684 19.6559 16.7902C18.7772 18.212 17.52 19.3611 16.025 20.1086L12.671 21.7846C12.4627 21.8888 12.2329 21.943 12 21.943C11.7671 21.943 11.5373 21.8888 11.329 21.7846L7.975 20.1076C6.48004 19.3601 5.22277 18.211 4.34407 16.7892C3.46537 15.3674 2.99996 13.729 3 12.0576V6.69656C2.99975 6.28918 3.12391 5.89143 3.35587 5.55653C3.58783 5.22163 3.91653 4.96555 4.298 4.82256L11.298 2.19756C11.7506 2.0279 12.2494 2.0279 12.702 2.19756ZM12 8.00256C11.7551 8.00259 11.5187 8.09252 11.3356 8.25528C11.1526 8.41804 11.0357 8.64231 11.007 8.88556L11 9.00256V11.0026H9C8.74512 11.0028 8.49997 11.1004 8.31463 11.2754C8.1293 11.4504 8.01777 11.6895 8.00283 11.944C7.98789 12.1984 8.07067 12.4489 8.23426 12.6444C8.39786 12.8398 8.62991 12.9655 8.883 12.9956L9 13.0026H11V15.0026C11.0003 15.2574 11.0979 15.5026 11.2728 15.6879C11.4478 15.8733 11.687 15.9848 11.9414 15.9997C12.1958 16.0147 12.4464 15.9319 12.6418 15.7683C12.8373 15.6047 12.9629 15.3727 12.993 15.1196L13 15.0026V13.0026H15C15.2549 13.0023 15.5 12.9047 15.6854 12.7297C15.8707 12.5547 15.9822 12.3156 15.9972 12.0612C16.0121 11.8067 15.9293 11.5562 15.7657 11.3607C15.6021 11.1653 15.3701 11.0397 15.117 11.0096L15 11.0026H13V9.00256C13 8.73735 12.8946 8.48299 12.7071 8.29545C12.5196 8.10792 12.2652 8.00256 12 8.00256Z" fill="#00ECA3"/>
</svg>
