<svg width="24" height="24" viewBox="0 0 24 24" fill="none" xmlns="http://www.w3.org/2000/svg">
<path fill-rule="evenodd" clip-rule="evenodd" d="M8 4C5.79086 4 4 5.79086 4 8V16C4 18.2091 5.79086 20 8 20H16C18.2091 20 20 18.2091 20 16V8C20 5.79086 18.2091 4 16 4H8ZM16.509 10.6534C16.8392 10.3198 16.8392 9.77887 16.509 9.44525C16.1787 9.11163 15.6432 9.11163 15.313 9.44525L11.5425 13.254C11.4844 13.3127 11.3902 13.3129 11.3319 13.2545L9.41501 11.3349C9.08331 11.0028 8.54785 11.0051 8.21903 11.3402C7.8902 11.6753 7.89253 12.2162 8.22423 12.5483L10.1411 14.4679C10.8608 15.1886 12.0219 15.1861 12.7385 14.4622L16.509 10.6534Z" fill="#FFC54D"/>
</svg>
