<svg width="80" height="37" viewBox="0 0 80 37" fill="none" xmlns="http://www.w3.org/2000/svg">
<path d="M70.5397 0.117188H9.46032C4.23553 0.117188 0 4.35272 0 9.57751V26.6569C0 31.8817 4.23553 36.1172 9.46032 36.1172H70.5397C75.7645 36.1172 80 31.8817 80 26.6569V9.57751C80 4.35272 75.7645 0.117188 70.5397 0.117188Z" fill="white"/>
<mask id="mask0_1168_63458" style="mask-type:luminance" maskUnits="userSpaceOnUse" x="12" y="13" width="56" height="10">
<path d="M67.7898 13.3867H12.2104V22.847H67.7898V13.3867Z" fill="white"/>
</mask>
<g mask="url(#mask0_1168_63458)">
<g filter="url(#filter0_i_1168_63458)">
<path d="M41.5586 13.4277C38.9554 13.4277 36.8433 15.4886 36.8433 18.0321C36.8433 20.7365 38.8637 22.7579 41.5586 22.7579C44.1864 22.7579 46.2612 20.7096 46.2612 18.0853C46.2612 15.4764 44.2003 13.4277 41.5586 13.4277Z" fill="url(#paint0_linear_1168_63458)"/>
</g>
<path d="M14.7894 13.5947H12.2544V22.5549H14.7761C16.1141 22.5549 17.0817 22.2337 17.9306 21.5211C18.9377 20.6746 19.5349 19.3983 19.5349 18.0791C19.5349 15.4337 17.5848 13.5947 14.7894 13.5947ZM16.8053 20.3244C16.2603 20.8227 15.5585 21.0381 14.4433 21.0381H13.98V15.112H14.4433C15.5585 15.112 16.2334 15.3137 16.8053 15.8371C17.4018 16.3746 17.7575 17.2069 17.7575 18.0663C17.7575 18.9277 17.4018 19.789 16.8053 20.3244ZM20.331 22.5549H22.0539V13.5947H20.3312L20.331 22.5549ZM26.2716 17.0317C25.2362 16.643 24.9315 16.3866 24.9315 15.9046C24.9315 15.3399 25.474 14.9103 26.2177 14.9103C26.7347 14.9103 27.1589 15.1252 27.611 15.6341L28.5114 14.4403C27.769 13.7806 26.8809 13.4452 25.9121 13.4452C24.3493 13.4452 23.1551 14.5474 23.1551 16.0105C23.1551 17.2476 23.7115 17.8784 25.3296 18.4711C26.006 18.7117 26.3499 18.8722 26.5227 18.9819C26.8674 19.2104 27.0405 19.5317 27.0405 19.9076C27.0405 20.6343 26.4699 21.1709 25.6998 21.1709C24.8777 21.1709 24.2155 20.7548 23.8176 19.9757L22.7052 21.0651C23.4991 22.2458 24.4539 22.7715 25.7678 22.7715C27.5575 22.7715 28.8162 21.5607 28.8162 19.828C28.8162 18.4036 28.2344 17.7582 26.2716 17.0317ZM29.3596 18.0792C29.3596 20.7154 31.4021 22.7571 34.0279 22.7571C34.7703 22.7571 35.4066 22.6084 36.1896 22.2336V20.1769C35.4993 20.8763 34.8892 21.1577 34.1066 21.1577C32.3702 21.1577 31.1364 19.881 31.1364 18.0663C31.1364 16.3474 32.4088 14.9902 34.0279 14.9902C34.8486 14.9902 35.4728 15.2855 36.1896 15.9976V13.9411C35.4339 13.5528 34.8098 13.3926 34.0673 13.3926C31.4548 13.3926 29.3596 15.4755 29.3596 18.0792ZM50.1632 19.6135L47.803 13.5947H45.9202L49.6738 22.7838H50.6011L54.4202 13.5946H52.5513L50.1632 19.6135ZM55.2042 22.555H60.096V21.0381H56.9275V18.6179H59.9747V17.1007H56.9275V15.1118H60.096V13.5948H55.2041L55.2042 22.555ZM66.9225 16.2391C66.9225 14.5605 65.7838 13.5947 63.7938 13.5947H61.2345V22.5549H62.9599V18.9537H63.1857L65.571 22.5549H67.6925L64.9064 18.7807C66.2077 18.511 66.9225 17.6104 66.9225 16.2391ZM63.4617 17.7188H62.9599V15.0037H63.4893C64.5656 15.0037 65.1487 15.4619 65.1487 16.3339C65.1487 17.2334 64.5656 17.7188 63.4617 17.7188Z" fill="#0B1015"/>
</g>
<defs>
<filter id="filter0_i_1168_63458" x="36.8433" y="13.4277" width="10.3009" height="10.213" filterUnits="userSpaceOnUse" color-interpolation-filters="sRGB">
<feFlood flood-opacity="0" result="BackgroundImageFix"/>
<feBlend mode="normal" in="SourceGraphic" in2="BackgroundImageFix" result="shape"/>
<feColorMatrix in="SourceAlpha" type="matrix" values="0 0 0 0 0 0 0 0 0 0 0 0 0 0 0 0 0 0 127 0" result="hardAlpha"/>
<feOffset dx="0.882963" dy="0.882963"/>
<feGaussianBlur stdDeviation="0.78836"/>
<feComposite in2="hardAlpha" operator="arithmetic" k2="-1" k3="1"/>
<feColorMatrix type="matrix" values="0 0 0 0 0 0 0 0 0 0 0 0 0 0 0 0 0 0 0.5 0"/>
<feBlend mode="normal" in2="shape" result="effect1_innerShadow_1168_63458"/>
</filter>
<linearGradient id="paint0_linear_1168_63458" x1="219.682" y1="97.9872" x2="864.988" y2="770.534" gradientUnits="userSpaceOnUse">
<stop stop-color="#F34F26"/>
<stop offset="1" stop-color="#F69E35"/>
</linearGradient>
</defs>
</svg>
