<svg width="22" height="22" viewBox="0 0 22 22" fill="none" xmlns="http://www.w3.org/2000/svg">
<path d="M7.94922 13.1358C7.94922 14.3183 8.85672 15.2716 9.98422 15.2716H12.2851C13.2659 15.2716 14.0634 14.4374 14.0634 13.4108C14.0634 12.2924 13.5776 11.8983 12.8534 11.6416L9.15922 10.3583C8.43505 10.1016 7.94922 9.70744 7.94922 8.5891C7.94922 7.56244 8.74672 6.72827 9.72755 6.72827H12.0284C13.1559 6.72827 14.0634 7.6816 14.0634 8.8641" stroke="white" stroke-linecap="round" stroke-linejoin="round"/>
<path d="M11 5.5V16.5" stroke="white" stroke-linecap="round" stroke-linejoin="round"/>
<path d="M13.7502 20.1666H8.25016C3.66683 20.1666 1.8335 18.3333 1.8335 13.7499V8.24992C1.8335 3.66659 3.66683 1.83325 8.25016 1.83325H13.7502C18.3335 1.83325 20.1668 3.66659 20.1668 8.24992V13.7499C20.1668 18.3333 18.3335 20.1666 13.7502 20.1666Z" stroke="white" stroke-linecap="round" stroke-linejoin="round"/>
</svg>
