<svg width="32" height="32" viewBox="0 0 32 32" fill="none" xmlns="http://www.w3.org/2000/svg">
<g clip-path="url(#clip0_1_40945)">
<path d="M30.7917 13.2194L17.7392 13.2188C17.1629 13.2188 16.6957 13.6859 16.6957 14.2622V18.4319C16.6957 19.0082 17.1629 19.4754 17.7392 19.4754H25.0896C24.2847 21.5642 22.7824 23.3136 20.8658 24.4251L24 29.8506C29.0276 26.9429 32 21.8411 32 16.13C32 15.3168 31.9401 14.7355 31.8202 14.0809C31.7291 13.5836 31.2973 13.2194 30.7917 13.2194Z" fill="#167EE6"/>
<path d="M15.9999 25.7409C12.4028 25.7409 9.26257 23.7755 7.57601 20.8672L2.15063 23.9943C4.91157 28.7794 10.0837 32.0017 15.9999 32.0017C18.9023 32.0017 21.6408 31.2203 23.9999 29.8585V29.8511L20.8658 24.4254C19.4321 25.2569 17.7731 25.7409 15.9999 25.7409Z" fill="#12B347"/>
<path d="M24 29.8549V29.8475L20.8658 24.4219C19.4322 25.2533 17.7733 25.7373 16 25.7373V31.9982C18.9023 31.9982 21.641 31.2168 24 29.8549Z" fill="#0F993E"/>
<path d="M6.26088 16.0004C6.26088 14.2273 6.74475 12.5685 7.57606 11.1349L2.15069 8.00781C0.781375 10.3595 0 13.0906 0 16.0004C0 18.9101 0.781375 21.6413 2.15069 23.9929L7.57606 20.8658C6.74475 19.4322 6.26088 17.7734 6.26088 16.0004Z" fill="#FFD500"/>
<path d="M15.9999 6.26088C18.3456 6.26088 20.5003 7.09437 22.1832 8.48081C22.5984 8.82281 23.2018 8.79813 23.5821 8.41781L26.5365 5.46344C26.968 5.03194 26.9373 4.32562 26.4763 3.92575C23.6566 1.47956 19.9879 0 15.9999 0C10.0837 0 4.91157 3.22231 2.15063 8.00744L7.57601 11.1346C9.26257 8.22625 12.4028 6.26088 15.9999 6.26088Z" fill="#FF4B26"/>
<path d="M22.1833 8.48081C22.5984 8.82281 23.2019 8.79813 23.5822 8.41781L26.5366 5.46344C26.968 5.03194 26.9373 4.32562 26.4764 3.92575C23.6567 1.4795 19.9879 0 16 0V6.26088C18.3456 6.26088 20.5003 7.09437 22.1833 8.48081Z" fill="#D93F21"/>
</g>
<defs>
<clipPath id="clip0_1_40945">
<rect width="32" height="32" fill="white"/>
</clipPath>
</defs>
</svg>
