<svg width="56" height="36" viewBox="0 0 56 36" fill="none" xmlns="http://www.w3.org/2000/svg">
<path d="M46.5397 0H9.46032C4.23553 0 0 4.23553 0 9.46032V26.5397C0 31.7645 4.23553 36 9.46032 36H46.5397C51.7645 36 56 31.7645 56 26.5397V9.46032C56 4.23553 51.7645 0 46.5397 0Z" fill="white"/>
<mask id="mask0_1168_63444" style="mask-type:luminance" maskUnits="userSpaceOnUse" x="12" y="6" width="33" height="26">
<path d="M44.4568 6H12V31.2275H44.4568V6Z" fill="white"/>
</mask>
<g mask="url(#mask0_1168_63444)">
<path d="M32.6162 23.9151H23.8408V8.14453H32.6162V23.9151Z" fill="#6C6BBD"/>
<path d="M24.3981 16.0297C24.3981 12.8305 25.8959 9.98088 28.2285 8.14446C26.5228 6.80158 24.3699 6 22.0304 6C16.4918 6 12.002 10.4903 12.002 16.0297C12.002 21.569 16.4918 26.0594 22.0304 26.0594C24.37 26.0594 26.5228 25.2578 28.2285 23.9149C25.8959 22.0785 24.3981 19.2288 24.3981 16.0297Z" fill="#D32011"/>
<path d="M44.4551 16.0298C44.4551 21.569 39.9654 26.0594 34.4268 26.0594C32.0872 26.0594 29.9344 25.2578 28.228 23.915C30.5613 22.0785 32.0591 19.2288 32.0591 16.0298C32.0591 12.8306 30.5613 9.98087 28.228 8.14446C29.9344 6.80157 32.0873 6 34.4268 6C39.9654 6 44.4551 10.4904 44.4551 16.0298Z" fill="#0099DF"/>
<path d="M35.5856 28.3699C35.7022 28.3699 35.87 28.3922 35.9981 28.4425L35.8196 28.9884C35.6972 28.9381 35.5747 28.9215 35.4574 28.9215C35.0786 28.9215 34.8892 29.1663 34.8892 29.6063V31.0997H34.3096V28.4368H34.8835V28.7601C35.034 28.5261 35.2514 28.3699 35.5856 28.3699ZM33.4443 28.9661H32.4973V30.1693C32.4973 30.4365 32.5918 30.615 32.8819 30.615C33.0324 30.615 33.2217 30.5647 33.394 30.4645L33.5609 30.9601C33.3774 31.0881 33.0878 31.1667 32.8372 31.1667C32.1517 31.1667 31.9127 30.7987 31.9127 30.1802V28.9661H31.372V28.4368H31.9127V27.6289H32.4973V28.4368H33.4443V28.9661ZM26.0289 29.5343C26.0908 29.1498 26.3243 28.8877 26.7368 28.8877C27.1098 28.8877 27.3495 29.1216 27.4107 29.5343H26.0289ZM28.0128 29.7683C28.007 28.9379 27.4943 28.3699 26.7476 28.3699C25.9678 28.3699 25.422 28.9381 25.422 29.7682C25.422 30.6144 25.9901 31.166 26.7872 31.166C27.1883 31.166 27.5555 31.0658 27.8788 30.793L27.5944 30.3639C27.372 30.5424 27.0875 30.6425 26.8204 30.6425C26.4473 30.6425 26.1074 30.4697 26.0239 29.9909H28.0013C28.007 29.9181 28.0128 29.846 28.0128 29.7683ZM30.5582 29.1166C30.3969 29.0158 30.0684 28.8876 29.7285 28.8876C29.4109 28.8876 29.2216 29.005 29.2216 29.2001C29.2216 29.378 29.4219 29.4283 29.6725 29.4615L29.9454 29.5004C30.525 29.5846 30.8757 29.8295 30.8757 30.2976C30.8757 30.8044 30.4299 31.1666 29.6616 31.1666C29.2267 31.1666 28.8256 31.055 28.508 30.821L28.781 30.3696C28.9761 30.5201 29.2663 30.6482 29.6673 30.6482C30.0627 30.6482 30.2744 30.5316 30.2744 30.325C30.2744 30.1751 30.1239 30.0909 29.8063 30.0469L29.5334 30.008C28.9372 29.9238 28.6139 29.6566 28.6139 29.2224C28.6139 28.6932 29.0488 28.3699 29.7228 28.3699C30.1462 28.3699 30.5307 28.465 30.8087 28.6485L30.5582 29.1166ZM37.7031 28.9201C37.5839 28.9201 37.4736 28.9412 37.3709 28.9827C37.2716 29.0229 37.1813 29.0828 37.1056 29.1587C37.0294 29.2363 36.9695 29.3285 36.9296 29.4297C36.887 29.535 36.8658 29.6508 36.8659 29.7772C36.8659 29.9041 36.8869 30.0194 36.9296 30.1247C36.9724 30.23 37.0311 30.3204 37.1056 30.3957C37.1813 30.4716 37.2716 30.5314 37.3709 30.5717C37.4736 30.6137 37.5839 30.6341 37.7031 30.6341C37.8222 30.6341 37.9333 30.6139 38.0352 30.5717C38.135 30.5315 38.2257 30.4717 38.3018 30.3957C38.3777 30.3205 38.4364 30.2299 38.4798 30.1247C38.5225 30.0194 38.5436 29.9041 38.5436 29.7772C38.5436 29.6508 38.5224 29.535 38.4798 29.4297C38.4364 29.3245 38.3777 29.234 38.3018 29.1587C38.2257 29.0827 38.1351 29.0228 38.0353 28.9827C37.9297 28.9405 37.8168 28.9191 37.7031 28.9201ZM37.7032 28.37C37.9098 28.3699 38.1011 28.4058 38.2771 28.4778C38.4531 28.5493 38.6053 28.6479 38.7337 28.7737C38.8629 28.9004 38.9655 29.0517 39.0353 29.2186C39.108 29.3903 39.1443 29.5765 39.1443 29.7773C39.1443 29.9781 39.108 30.1643 39.0353 30.3359C38.9655 30.5031 38.8629 30.6547 38.7336 30.7816C38.6056 30.9072 38.453 31.0055 38.2772 31.0775C38.1011 31.1489 37.9097 31.1846 37.7032 31.1846C37.4966 31.1846 37.3053 31.1489 37.1293 31.0775C36.9533 31.0055 36.8022 30.9072 36.6747 30.7816C36.5461 30.6543 36.444 30.5028 36.3742 30.3359C36.3016 30.1643 36.2652 29.9781 36.2652 29.7773C36.2652 29.5765 36.3016 29.3903 36.3742 29.2187C36.444 29.052 36.5461 28.9007 36.6747 28.7737C36.8052 28.646 36.9597 28.5454 37.1293 28.4778C37.3053 28.4058 37.4966 28.3699 37.7032 28.37ZM22.6444 29.7682C22.6444 29.3003 22.9512 28.9158 23.4523 28.9158C23.9313 28.9158 24.2545 29.2837 24.2545 29.7683C24.2545 30.2529 23.9313 30.6202 23.4523 30.6202C22.9512 30.6202 22.6444 30.2362 22.6444 29.7682ZM24.8004 29.7683V28.4369H24.2213V28.7602C24.0371 28.5205 23.7591 28.37 23.3803 28.37C22.6336 28.37 22.0488 28.9547 22.0488 29.7683C22.0488 30.5814 22.6336 31.1667 23.3803 31.1667C23.7591 31.1667 24.037 31.0162 24.2213 30.7765V31.0998H24.8004V29.7683ZM21.536 31.0998V29.4286C21.536 28.7991 21.1349 28.3757 20.489 28.37C20.1492 28.3643 19.7977 28.4702 19.5529 28.8438C19.3693 28.5485 19.0792 28.37 18.6724 28.37C18.3886 28.37 18.1099 28.4536 17.8925 28.7653V28.4369H17.3135V31.0998H17.8982V29.6237C17.8982 29.1613 18.1545 28.9159 18.5498 28.9159C18.9344 28.9159 19.1295 29.1664 19.1295 29.618V31.0998H19.7143V29.6235C19.7143 29.1612 19.9821 28.9158 20.3659 28.9158C20.762 28.9158 20.9514 29.1663 20.9514 29.6178V31.0998H21.536Z" fill="#110F0D"/>
</g>
</svg>
