<svg width="56" height="36" viewBox="0 0 56 36" fill="none" xmlns="http://www.w3.org/2000/svg">
<path d="M46.5397 0H9.46032C4.23553 0 0 4.23553 0 9.46032V26.5397C0 31.7645 4.23553 36 9.46032 36H46.5397C51.7645 36 56 31.7645 56 26.5397V9.46032C56 4.23553 51.7645 0 46.5397 0Z" fill="white"/>
<mask id="mask0_1168_63427" style="mask-type:luminance" maskUnits="userSpaceOnUse" x="12" y="6" width="33" height="26">
<path d="M44.4568 6H12V31.2275H44.4568V6Z" fill="white"/>
</mask>
<g mask="url(#mask0_1168_63427)">
<path d="M17.9016 31.104V29.4343C17.9016 28.7941 17.5119 28.3767 16.8439 28.3767C16.51 28.3767 16.1482 28.4881 15.8977 28.8499C15.703 28.5437 15.4247 28.3767 15.0072 28.3767C14.7288 28.3767 14.4507 28.4602 14.228 28.7663V28.4324H13.6436V31.104H14.228V29.629C14.228 29.156 14.4785 28.9333 14.8682 28.9333C15.2576 28.9333 15.4526 29.1838 15.4526 29.629V31.104H16.037V29.629C16.037 29.156 16.3151 28.9333 16.6769 28.9333C17.0666 28.9333 17.2614 29.1838 17.2614 29.629V31.104H17.9016ZM26.5564 28.4324H25.6103V27.6254H25.0259V28.4324H24.4971V28.961H25.0257V30.1856C25.0257 30.798 25.2762 31.1596 25.9442 31.1596C26.1947 31.1596 26.4728 31.0762 26.6678 30.9649L26.5007 30.4639C26.3338 30.5752 26.139 30.6031 25.9998 30.6031C25.7216 30.6031 25.6103 30.4362 25.6103 30.1578V28.961H26.5564V28.4324ZM31.5101 28.3766C31.1762 28.3766 30.9536 28.5437 30.8144 28.7663V28.4324H30.2299V31.104H30.8144V29.6012C30.8144 29.156 31.0091 28.9055 31.3709 28.9055C31.4822 28.9055 31.6214 28.9334 31.7327 28.9612L31.8997 28.4046C31.7883 28.3767 31.6214 28.3766 31.5101 28.3766ZM24.024 28.6551C23.7456 28.4603 23.356 28.3769 22.9386 28.3769C22.2707 28.3769 21.8255 28.7108 21.8255 29.2396C21.8255 29.6849 22.1594 29.9353 22.7438 30.0188L23.0221 30.0467C23.3283 30.1022 23.4952 30.1858 23.4952 30.325C23.4952 30.5197 23.2726 30.6589 22.8829 30.6589C22.4932 30.6589 22.1872 30.5197 21.9923 30.3806L21.7141 30.8258C22.0202 31.0485 22.4377 31.1598 22.855 31.1598C23.6343 31.1598 24.0796 30.7981 24.0796 30.2971C24.0796 29.824 23.7178 29.5735 23.1612 29.4901L22.8829 29.4622C22.6324 29.4343 22.4377 29.3788 22.4377 29.2118C22.4377 29.0169 22.6324 28.9056 22.9386 28.9056C23.2726 28.9056 23.6065 29.0447 23.7735 29.1282L24.024 28.6551ZM39.5528 28.3769C39.2188 28.3769 38.9962 28.5438 38.857 28.7664V28.4325H38.2726V31.1041H38.857V29.6014C38.857 29.1561 39.0518 28.9056 39.4135 28.9056C39.525 28.9056 39.6642 28.9335 39.7755 28.9613L39.9424 28.4048C39.8311 28.3769 39.6642 28.3769 39.5528 28.3769ZM32.0945 29.7683C32.0945 30.5753 32.651 31.1598 33.5138 31.1598C33.9034 31.1598 34.1817 31.0763 34.4599 30.8537L34.1817 30.3806C33.9591 30.5476 33.7364 30.631 33.4859 30.631C33.0128 30.631 32.6789 30.2971 32.6789 29.7683C32.6789 29.2674 33.0128 28.9334 33.4859 28.9056C33.7364 28.9056 33.9591 28.9891 34.1817 29.1561L34.4599 28.683C34.1817 28.4603 33.9034 28.3769 33.5138 28.3769C32.651 28.3769 32.0945 28.9613 32.0945 29.7683ZM37.4934 29.7683V28.4325H36.909V28.7664C36.7142 28.5161 36.4359 28.3769 36.0741 28.3769C35.3227 28.3769 34.7383 28.9613 34.7383 29.7683C34.7383 30.5753 35.3227 31.1598 36.0741 31.1598C36.4637 31.1598 36.7421 31.0207 36.909 30.7702V31.1041H37.4934V29.7683ZM35.3505 29.7683C35.3505 29.2952 35.6567 28.9056 36.1575 28.9056C36.6306 28.9056 36.9647 29.2674 36.9647 29.7683C36.9647 30.2414 36.6306 30.631 36.1575 30.631C35.6567 30.6031 35.3505 30.2414 35.3505 29.7683ZM28.3654 28.3769C27.5861 28.3769 27.0295 28.9334 27.0295 29.7683C27.0295 30.6032 27.586 31.1598 28.3932 31.1598C28.7827 31.1598 29.1724 31.0485 29.4786 30.7981L29.2002 30.3806C28.9776 30.5476 28.6993 30.6589 28.421 30.6589C28.0592 30.6589 27.6974 30.4919 27.6139 30.0187H29.5899V29.7962C29.6178 28.9334 29.1169 28.3769 28.3654 28.3769ZM28.3653 28.8777C28.7269 28.8777 28.9776 29.1005 29.0331 29.5179H27.6417C27.6973 29.1561 27.9478 28.8777 28.3653 28.8777ZM42.8644 29.7683V27.375H42.28V28.7664C42.0851 28.5161 41.8068 28.3769 41.445 28.3769C40.6937 28.3769 40.1092 28.9613 40.1092 29.7683C40.1092 30.5753 40.6937 31.1598 41.445 31.1598C41.8347 31.1598 42.113 31.0207 42.28 30.7702V31.1041H42.8644V29.7683ZM40.7215 29.7683C40.7215 29.2952 41.0276 28.9056 41.5286 28.9056C42.0017 28.9056 42.3356 29.2674 42.3356 29.7683C42.3356 30.2414 42.0017 30.631 41.5286 30.631C41.0276 30.6031 40.7215 30.2414 40.7215 29.7683ZM21.1852 29.7683V28.4325H20.6008V28.7664C20.4059 28.5161 20.1277 28.3769 19.7659 28.3769C19.0145 28.3769 18.4301 28.9613 18.4301 29.7683C18.4301 30.5753 19.0145 31.1598 19.7659 31.1598C20.1555 31.1598 20.4338 31.0207 20.6008 30.7702V31.1041H21.1852V29.7683ZM19.0145 29.7683C19.0145 29.2952 19.3206 28.9056 19.8215 28.9056C20.2946 28.9056 20.6287 29.2674 20.6287 29.7683C20.6287 30.2414 20.2946 30.631 19.8215 30.631C19.3206 30.6031 19.0145 30.2414 19.0145 29.7683Z" fill="black"/>
<path d="M23.8291 8.14453H32.5953V23.896H23.8291V8.14453Z" fill="#FF5F00"/>
<path d="M24.3862 16.0186C24.3862 12.8183 25.889 9.97961 28.1987 8.14281C26.5013 6.80702 24.3584 6 22.0208 6C16.4825 6 12.002 10.4805 12.002 16.0186C12.002 21.5567 16.4825 26.0372 22.0206 26.0372C24.3583 26.0372 26.5011 25.2302 28.1987 23.8943C25.889 22.0854 24.3862 19.2189 24.3862 16.0186Z" fill="#EB001B"/>
<path d="M44.4233 16.0186C44.4233 21.5566 39.9428 26.0372 34.4047 26.0372C32.067 26.0372 29.9242 25.2302 28.2266 23.8943C30.5643 22.0576 32.0392 19.219 32.0392 16.0186C32.0392 12.8183 30.5364 9.9796 28.2266 8.14281C29.9241 6.80702 32.067 6 34.4047 6C39.9428 6 44.4233 10.5084 44.4233 16.0186Z" fill="#F79E1B"/>
</g>
</svg>
