<svg width="22" height="22" viewBox="0 0 22 22" fill="none" xmlns="http://www.w3.org/2000/svg">
<path fill-rule="evenodd" clip-rule="evenodd" d="M3.53442 6.37669C3.55092 7.21159 3.09662 8.34019 2.50592 8.92979C1.9578 9.47844 1.6499 10.2223 1.6499 10.9978C1.6499 11.7733 1.9578 12.5172 2.50592 13.0658C3.08892 13.6466 3.51792 14.6542 3.53442 15.477C3.54982 16.2052 3.83472 16.929 4.39022 17.4834C4.90273 17.9969 5.58833 18.301 6.31302 18.3359C7.18312 18.3799 8.32272 18.8859 8.93872 19.5019C9.48732 20.0496 10.2309 20.3574 11.0062 20.3574C11.7815 20.3574 12.525 20.0496 13.0736 19.5019C13.6896 18.8859 14.8292 18.3799 15.6993 18.3359C16.4241 18.301 17.1096 17.9969 17.6221 17.4834C18.1564 16.9498 18.4629 16.2297 18.4768 15.4748C18.4933 14.6542 18.9168 13.6532 19.4987 13.0724C20.049 12.5239 20.3587 11.7794 20.36 11.0025C20.3612 10.2256 20.0538 9.48001 19.5053 8.92979C18.9157 8.34129 18.4603 7.21159 18.4779 6.37779C18.4862 5.98412 18.4146 5.59284 18.2675 5.22759C18.1205 4.86233 17.901 4.53066 17.6221 4.25259C17.3332 3.9629 16.9865 3.73727 16.6046 3.59039C16.2227 3.44351 15.8142 3.37867 15.4056 3.40009C14.6202 3.43969 13.6291 3.05909 13.0736 2.50249C12.525 1.95437 11.7811 1.64648 11.0056 1.64648C10.2301 1.64647 9.48627 1.95437 8.93762 2.50249C8.38322 3.05799 7.39102 3.43969 6.60562 3.40009C6.19721 3.37883 5.78889 3.44375 5.40721 3.59062C5.02554 3.73749 4.67902 3.96304 4.39022 4.25259C4.11156 4.53053 3.89208 4.86203 3.745 5.22708C3.59792 5.59214 3.52628 5.98321 3.53442 6.37669ZM14.3452 7.28529C14.4716 7.3554 14.5829 7.44971 14.6727 7.56285C14.7626 7.67598 14.8294 7.80572 14.8691 7.94464C14.9088 8.08357 14.9208 8.22897 14.9043 8.37251C14.8879 8.51607 14.8433 8.65498 14.7731 8.78129L11.7283 14.2615C11.6495 14.4108 11.5373 14.5399 11.4005 14.6388C11.2018 14.7826 10.9606 14.8558 10.7155 14.8469C10.4704 14.8379 10.2352 14.7473 10.0475 14.5893L7.01262 12.1616C6.8998 12.0713 6.80587 11.9596 6.73619 11.8331C6.6665 11.7065 6.62245 11.5674 6.6065 11.4238C6.59057 11.2802 6.60309 11.1349 6.64332 10.9961C6.68356 10.8573 6.75074 10.7278 6.84102 10.615C6.9313 10.5022 7.04292 10.4082 7.16951 10.3386C7.2961 10.2689 7.43516 10.2248 7.57877 10.2089C7.7224 10.1929 7.86774 10.2055 8.00652 10.2457C8.1453 10.2859 8.2748 10.3531 8.38762 10.4434L10.4259 12.0747L12.8492 7.71209C12.9195 7.58584 13.0138 7.47464 13.127 7.38486C13.2402 7.29508 13.3699 7.22848 13.5088 7.18884C13.6478 7.14921 13.7931 7.13733 13.9366 7.15388C14.0801 7.17043 14.219 7.21508 14.3452 7.28529Z" fill="#00ECA3"/>
</svg>
