<svg width="22" height="22" viewBox="0 0 22 22" fill="none" xmlns="http://www.w3.org/2000/svg">
<path fill-rule="evenodd" clip-rule="evenodd" d="M3.14337 2.4883C2.97874 2.43051 2.79788 2.4405 2.6406 2.51605C2.48332 2.59161 2.36249 2.72655 2.30471 2.89119C2.24692 3.05584 2.2569 3.23669 2.33245 3.39398C2.40802 3.55126 2.54296 3.67208 2.7076 3.72987L2.93645 3.80965C3.52216 4.01571 3.90708 4.15161 4.19029 4.29102C4.45596 4.42167 4.57258 4.52776 4.64973 4.64C4.72865 4.75574 4.79003 4.91531 4.8251 5.2336C4.86017 5.56678 4.86193 6.0008 4.86193 6.64965V8.93111C4.86193 11.5107 4.91717 12.3612 5.67736 13.1626C6.43668 13.964 7.65895 13.964 10.1052 13.964H14.7541C16.1228 13.964 16.8076 13.964 17.2907 13.5695C17.7747 13.1749 17.9133 12.505 18.1895 11.1652L18.6278 9.03896C18.9321 7.5133 19.0838 6.75136 18.6945 6.24543C18.3052 5.73952 16.9759 5.73952 15.4986 5.73952H6.17012C6.16643 5.52339 6.15385 5.30752 6.13243 5.09243C6.08508 4.65665 5.98336 4.25946 5.7361 3.89822C5.48709 3.53346 5.15566 3.30023 4.76898 3.10996C4.40773 2.93285 3.94829 2.77151 3.40817 2.58124L3.14337 2.4883ZM10.0965 8.34365C10.2198 8.2205 10.3869 8.15132 10.5612 8.15132C10.7355 8.15132 10.9026 8.2205 11.0259 8.34365L11.8764 9.19415L12.727 8.34365C12.7871 8.27904 12.8597 8.22721 12.9404 8.19128C13.0211 8.15533 13.1081 8.13601 13.1964 8.13445C13.2847 8.13289 13.3724 8.14913 13.4543 8.18221C13.5362 8.21528 13.6106 8.26451 13.6731 8.32695C13.7355 8.3894 13.7847 8.46378 13.8178 8.54567C13.8509 8.62755 13.8671 8.71526 13.8655 8.80356C13.864 8.89185 13.8447 8.97893 13.8087 9.0596C13.7728 9.14026 13.721 9.21286 13.6563 9.27307L12.8059 10.1235L13.6563 10.9741C13.721 11.0343 13.7728 11.1069 13.8087 11.1876C13.8447 11.2682 13.864 11.3553 13.8655 11.4436C13.8671 11.5319 13.8509 11.6196 13.8178 11.7015C13.7847 11.7834 13.7355 11.8578 13.6731 11.9202C13.6106 11.9826 13.5362 12.0319 13.4543 12.065C13.3724 12.098 13.2847 12.1142 13.1964 12.1127C13.1081 12.1112 13.0211 12.0919 12.9404 12.0559C12.8597 12.0199 12.7871 11.9681 12.727 11.9035L11.8764 11.053L11.0259 11.9035C10.9657 11.9681 10.8931 12.0199 10.8125 12.0559C10.7317 12.0919 10.6447 12.1112 10.5564 12.1127C10.4681 12.1142 10.3804 12.098 10.2985 12.065C10.2167 12.0319 10.1422 11.9826 10.0798 11.9202C10.0173 11.8578 9.96816 11.7834 9.93506 11.7015C9.90197 11.6196 9.8857 11.5319 9.88733 11.4436C9.88886 11.3553 9.90818 11.2682 9.94415 11.1876C9.98002 11.1069 10.0319 11.0343 10.0965 10.9741L10.947 10.1235L10.0965 9.27307C9.97332 9.14977 9.90417 8.98263 9.90417 8.80836C9.90417 8.63409 9.97332 8.46695 10.0965 8.34365Z" fill="#00ECA3"/>
<path d="M7.05448 16.2617C7.40329 16.2617 7.73782 16.4003 7.98447 16.6469C8.23112 16.8936 8.36969 17.2281 8.36969 17.5769C8.36969 17.9258 8.23112 18.2603 7.98447 18.507C7.73782 18.7536 7.40329 18.8922 7.05448 18.8922C6.70566 18.8922 6.37113 18.7536 6.12448 18.507C5.87783 18.2603 5.73926 17.9258 5.73926 17.5769C5.73926 17.2281 5.87783 16.8936 6.12448 16.6469C6.37113 16.4003 6.70566 16.2617 7.05448 16.2617ZM14.9458 16.2617C15.2946 16.2617 15.6291 16.4003 15.8758 16.6469C16.1224 16.8936 16.261 17.2281 16.261 17.5769C16.261 17.9258 16.1224 18.2603 15.8758 18.507C15.6291 18.7536 15.2946 18.8922 14.9458 18.8922C14.5969 18.8922 14.2624 18.7536 14.0158 18.507C13.7692 18.2603 13.6306 17.9258 13.6306 17.5769C13.6306 17.2281 13.7692 16.8936 14.0158 16.6469C14.2624 16.4003 14.5969 16.2617 14.9458 16.2617Z" fill="#00ECA3"/>
</svg>
