<svg width="28" height="28" viewBox="0 0 28 28" fill="none" xmlns="http://www.w3.org/2000/svg">
<path fill-rule="evenodd" clip-rule="evenodd" d="M13.9998 5.65911C9.39283 5.65911 5.65814 9.39381 5.65814 14.0008C5.65814 18.6078 9.39283 22.3424 13.9998 22.3424C18.6068 22.3424 22.3415 18.6078 22.3415 14.0008C22.3415 9.39381 18.6068 5.65911 13.9998 5.65911ZM3.6748 14.0008C3.6748 8.29844 8.29747 3.67578 13.9998 3.67578C19.7021 3.67578 24.3248 8.29844 24.3248 14.0008C24.3248 19.7031 19.7021 24.3258 13.9998 24.3258C8.29747 24.3258 3.6748 19.7031 3.6748 14.0008Z" fill="white"/>
<path d="M18.6668 13.9987C18.6668 16.576 16.5775 18.6654 14.0002 18.6654C11.4228 18.6654 9.3335 16.576 9.3335 13.9987C9.3335 11.4214 11.4228 9.33203 14.0002 9.33203C16.5775 9.33203 18.6668 11.4214 18.6668 13.9987Z" fill="white"/>
</svg>
