<svg width="56" height="15" viewBox="0 0 56 15" fill="none" xmlns="http://www.w3.org/2000/svg">
<path d="M51.8191 0.0273438L55.5835 7.50683L47.668 14.9863L51.8191 0.0273438Z" fill="#098041"/>
<path d="M42.5407 14.9251H39.563L43.7006 0H46.6782L42.5407 14.9251ZM40.9942 0.467467C40.7907 0.182922 40.4719 0.0406493 40.0378 0.0406493H23.6776L22.8705 2.9674H37.752L36.8838 6.09063H24.9799V6.08386H22.0023L19.5333 14.9928H22.511L24.166 9.01739H37.5485C37.9691 9.01739 38.3625 8.87511 38.7287 8.59057C39.095 8.30602 39.3392 7.95373 39.4545 7.53368L41.1095 1.55823C41.2384 1.11108 41.1977 0.752013 40.9942 0.467467ZM17.7969 13.9902C17.6341 14.5796 17.0915 14.9928 16.481 14.9928H1.13148C0.710945 14.9928 0.398935 14.8506 0.19545 14.566C-0.00803496 14.2815 -0.0555149 13.9292 0.0665761 13.5091L3.8107 0.0406493H6.78837L3.44443 12.0729H15.3551L18.699 0.0406493H21.6767L17.7969 13.9902Z" fill="#70706E"/>
<path d="M49.1745 0.0273438L52.939 7.50683L45.0166 14.9863L49.1745 0.0273438Z" fill="#E97626"/>
</svg>
