<svg width="62" height="36" viewBox="0 0 62 36" fill="none" xmlns="http://www.w3.org/2000/svg">
<path d="M52.5397 0H9.46032C4.23553 0 0 4.23553 0 9.46032V26.5397C0 31.7645 4.23553 36 9.46032 36H52.5397C57.7645 36 62 31.7645 62 26.5397V9.46032C62 4.23553 57.7645 0 52.5397 0Z" fill="white"/>
<mask id="mask0_1168_63437" style="mask-type:luminance" maskUnits="userSpaceOnUse" x="11" y="11" width="40" height="14">
<path d="M50.453 11.6934H11.5474V24.3072H50.453V11.6934Z" fill="white"/>
</mask>
<g mask="url(#mask0_1168_63437)">
<path d="M31.6687 15.7098C31.6465 17.4599 33.2283 18.4365 34.42 19.0172C35.6443 19.6129 36.0555 19.9949 36.0506 20.5278C36.0415 21.3431 35.0741 21.703 34.1688 21.717C32.5893 21.7414 31.6709 21.2905 30.9409 20.9495L30.3719 23.6119C31.1044 23.9494 32.4606 24.2438 33.8671 24.2567C37.1688 24.2567 39.3288 22.627 39.3405 20.1001C39.3535 16.8932 34.9048 16.7157 34.9352 15.2823C34.9456 14.8476 35.3603 14.3838 36.2691 14.2659C36.719 14.2063 37.9608 14.1607 39.3687 14.809L39.9212 12.2331C39.1641 11.9574 38.191 11.6934 36.9795 11.6934C33.872 11.6934 31.6863 13.3454 31.6687 15.7098ZM45.2309 11.9153C44.6279 11.9153 44.1199 12.267 43.8932 12.8066L39.177 24.0675H42.4762L43.1327 22.2531H47.1642L47.5451 24.0675H50.4529L47.9155 11.9153H45.2309ZM45.6924 15.1981L46.6445 19.7614H44.0369L45.6924 15.1981ZM27.6686 11.9155L25.068 24.0674H28.2119L30.8112 11.9152L27.6686 11.9155ZM23.0177 11.9155L19.7455 20.1866L18.4218 13.1537C18.2665 12.3686 17.6531 11.9153 16.972 11.9153H11.6228L11.5479 12.2682C12.646 12.5065 13.8937 12.8908 14.6497 13.3021C15.1123 13.5533 15.2442 13.7729 15.3961 14.3698L17.9032 24.0675H21.2255L26.319 11.9153L23.0177 11.9155Z" fill="url(#paint0_linear_1168_63437)"/>
</g>
<defs>
<linearGradient id="paint0_linear_1168_63437" x1="1800.17" y1="49.4587" x2="1836.53" y2="-1240.81" gradientUnits="userSpaceOnUse">
<stop stop-color="#222357"/>
<stop offset="1" stop-color="#254AA5"/>
</linearGradient>
</defs>
</svg>
