<svg preserveAspectRatio="none" width="100%" height="100%" overflow="visible" style="display: block;" viewBox="0 0 22 22" fill="none" xmlns="http://www.w3.org/2000/svg">
<g id="message">
<path id="Vector" d="M7.79167 17.4167H7.33333C3.66667 17.4167 1.83333 16.5 1.83333 11.9167V7.33333C1.83333 3.66667 3.66667 1.83333 7.33333 1.83333H14.6667C18.3333 1.83333 20.1667 3.66667 20.1667 7.33333V11.9167C20.1667 15.5833 18.3333 17.4167 14.6667 17.4167H14.2083C13.9242 17.4167 13.6492 17.5542 13.475 17.7833L12.1 19.6167C11.495 20.4233 10.505 20.4233 9.9 19.6167L8.525 17.7833C8.37833 17.5817 8.03917 17.4167 7.79167 17.4167Z" stroke="var(--stroke-0, white)" stroke-width="1.5" stroke-miterlimit="10" stroke-linecap="round" stroke-linejoin="round"/>
<path id="Vector_2" d="M14.6634 10.0833H14.6717" stroke="var(--stroke-0, white)" stroke-width="2" stroke-linecap="round" stroke-linejoin="round"/>
<path id="Vector_3" d="M10.9959 10.0833H11.0041" stroke="var(--stroke-0, white)" stroke-width="2" stroke-linecap="round" stroke-linejoin="round"/>
<path id="Vector_4" d="M7.3283 10.0833H7.33653" stroke="var(--stroke-0, white)" stroke-width="2" stroke-linecap="round" stroke-linejoin="round"/>
<g id="Vector_5" opacity="0">
</g>
</g>
</svg>
