<svg preserveAspectRatio="none" width="100%" height="100%" overflow="visible" style="display: block;" viewBox="0 0 17.4481 20.8601" fill="none" xmlns="http://www.w3.org/2000/svg">
<g id="Group">
<path id="Vector" d="M10.6736 9.45576C10.6736 9.35942 10.7022 9.26523 10.7557 9.18512C10.8093 9.10501 10.8853 9.04257 10.9744 9.0057C11.0634 8.96883 11.1613 8.95918 11.2558 8.97798C11.3503 8.99678 11.4371 9.04317 11.5052 9.1113C11.5734 9.17943 11.6198 9.26623 11.6386 9.36073C11.6574 9.45522 11.6477 9.55317 11.6108 9.64219C11.574 9.7312 11.5115 9.80728 11.4314 9.86081C11.3513 9.91434 11.2571 9.94291 11.1608 9.94291C11.0316 9.94291 10.9077 9.89159 10.8163 9.80023C10.725 9.70887 10.6736 9.58496 10.6736 9.45576ZM6.28933 9.94291C6.38567 9.94291 6.47986 9.91434 6.55997 9.86081C6.64008 9.80728 6.70252 9.7312 6.73939 9.64219C6.77626 9.55317 6.78591 9.45522 6.76711 9.36073C6.74832 9.26623 6.70192 9.17943 6.63379 9.1113C6.56566 9.04317 6.47886 8.99678 6.38436 8.97798C6.28987 8.95918 6.19192 8.96883 6.1029 9.0057C6.01389 9.04257 5.93781 9.10501 5.88428 9.18512C5.83075 9.26523 5.80218 9.35942 5.80218 9.45576C5.80218 9.58496 5.85351 9.70887 5.94486 9.80023C6.03622 9.89159 6.16013 9.94291 6.28933 9.94291ZM8.72505 12.8658C9.23955 12.8669 9.74277 12.7151 10.1709 12.4298C10.2246 12.3939 10.2619 12.3381 10.2745 12.2747C10.2871 12.2113 10.274 12.1455 10.2381 12.0917C10.2022 12.038 10.1464 12.0007 10.083 11.9881C10.0196 11.9755 9.9538 11.9886 9.90005 12.0245C9.55021 12.2515 9.1421 12.3723 8.72505 12.3723C8.30801 12.3723 7.8999 12.2515 7.55006 12.0245C7.49631 11.9886 7.4305 11.9755 7.3671 11.9881C7.30369 12.0007 7.2479 12.038 7.21198 12.0917C7.17606 12.1455 7.16297 12.2113 7.17557 12.2747C7.18818 12.3381 7.22546 12.3939 7.27921 12.4298C7.70734 12.7151 8.21056 12.8669 8.72505 12.8658ZM0.20001 16.5194C0.201543 16.5028 0.204975 16.4865 0.21024 16.4707C0.211074 16.4593 0.212866 16.4481 0.215599 16.437V16.4336C0.225689 16.4098 0.239502 16.3878 0.256519 16.3684C0.259929 16.364 0.261878 16.3586 0.265775 16.3542C0.28694 16.3322 0.312058 16.3144 0.339821 16.3016C0.360707 16.2932 0.382686 16.2878 0.405098 16.2855C0.414841 16.2855 0.42361 16.2802 0.433353 16.2797L0.443583 16.2758C0.460144 16.2771 0.476492 16.2804 0.492297 16.2855C0.504785 16.2861 0.517188 16.2879 0.52932 16.2909C0.694293 16.3572 0.871341 16.3881 1.04902 16.3817C1.22669 16.3752 1.40103 16.3316 1.56078 16.2535C1.72052 16.1755 1.86209 16.0647 1.97636 15.9285C2.09062 15.7923 2.17502 15.6336 2.2241 15.4628C2.44283 14.8782 2.27281 14.2936 1.98589 13.331C1.61798 12.157 1.3571 10.9521 1.20645 9.731C0.830376 6.59866 1.40862 4.14393 2.92461 2.43454C3.57123 1.73326 4.35552 1.17287 5.2285 0.788396C6.10147 0.40392 7.04435 0.203616 7.99823 0.200001C10.8061 0.200001 12.0376 1.12558 12.9218 2.15102C13.3854 2.19036 13.836 2.32477 14.2454 2.54586C14.6548 2.76695 15.0143 3.07 15.3015 3.43611C16.363 4.6944 16.779 6.54799 16.4424 8.52191C16.4258 8.62177 16.3893 8.85463 16.345 9.14448C16.3408 9.16439 16.3337 9.18359 16.324 9.20147C16.45 9.3366 16.5199 9.5146 16.5194 9.69934C16.5176 10.272 16.3295 10.8286 15.9835 11.285C15.9853 11.3012 15.9853 11.3175 15.9835 11.3337C15.8155 12.1443 15.6216 12.8 15.4662 13.3266C15.1812 14.2897 15.0092 14.8714 15.228 15.4584C15.277 15.6293 15.3614 15.7879 15.4757 15.9241C15.59 16.0604 15.7315 16.1711 15.8913 16.2491C16.051 16.3272 16.2254 16.3708 16.403 16.3773C16.5807 16.3837 16.7578 16.3528 16.9227 16.2865C16.9351 16.2836 16.9476 16.2816 16.9602 16.2807C16.9755 16.2776 16.991 16.276 17.0065 16.2758H17.0138C17.0242 16.2772 17.0344 16.2793 17.0445 16.2821C17.066 16.2844 17.0872 16.2894 17.1074 16.2972L17.1122 16.3006C17.1382 16.3127 17.162 16.3292 17.1824 16.3494C17.1859 16.3542 17.1892 16.3592 17.1921 16.3645C17.2089 16.3836 17.2225 16.4053 17.2326 16.4288V16.4322C17.2353 16.4432 17.2371 16.4545 17.2379 16.4658C17.2432 16.4816 17.2466 16.4979 17.2481 16.5145C17.2487 17.2254 16.967 17.9074 16.465 18.4107C15.9629 18.914 15.2817 19.1974 14.5708 19.1987H13.1094V19.4422C13.1094 19.7652 12.9811 20.075 12.7527 20.3034C12.5243 20.5318 12.2145 20.6601 11.8915 20.6601H5.55861C5.23561 20.6601 4.92584 20.5318 4.69745 20.3034C4.46906 20.075 4.34075 19.7652 4.34075 19.4422V19.1987H2.87931C2.16895 19.1979 1.48791 18.9154 0.985613 18.4131C0.483315 17.9108 0.200784 17.2297 0.20001 16.5194ZM12.6222 19.1987C12.6211 18.418 12.3857 17.6556 11.9465 17.0101C11.5073 16.3647 10.8845 15.8658 10.1587 15.5782C10.0931 15.9102 9.91426 16.2091 9.6528 16.4239C9.39134 16.6387 9.06344 16.7561 8.72505 16.7561C8.38667 16.7561 8.05876 16.6387 7.79731 16.4239C7.53585 16.2091 7.35703 15.9102 7.29138 15.5782C6.56559 15.8658 5.94282 16.3647 5.50363 17.0101C5.06443 17.6556 4.82904 18.418 4.82789 19.1987V19.4422C4.82789 19.636 4.90488 19.8219 5.04191 19.9589C5.17895 20.096 5.36481 20.173 5.55861 20.173H5.80218V18.468C5.80218 18.4034 5.82784 18.3414 5.87352 18.2957C5.9192 18.25 5.98115 18.2244 6.04575 18.2244C6.11035 18.2244 6.17231 18.25 6.21799 18.2957C6.26366 18.3414 6.28933 18.4034 6.28933 18.468V20.173H11.1608V18.468C11.1608 18.4034 11.1864 18.3414 11.2321 18.2957C11.2778 18.25 11.3398 18.2244 11.4044 18.2244C11.469 18.2244 11.5309 18.25 11.5766 18.2957C11.6223 18.3414 11.6479 18.4034 11.6479 18.468V20.173H11.8915C12.0853 20.173 12.2712 20.096 12.4082 19.9589C12.5452 19.8219 12.6222 19.636 12.6222 19.4422V19.1987ZM3.38838 11.6445C3.89424 12.6176 4.66194 13.43 5.60488 13.9901C6.54783 14.5502 7.62852 14.8357 8.72505 14.8144C9.77296 14.8306 10.8064 14.5686 11.7201 14.0551C12.6337 13.5416 13.3948 12.795 13.9258 11.8915C14.0057 11.7483 14.0802 11.6021 14.1455 11.4531C14.1718 11.3931 14.1942 11.3318 14.2186 11.2709C14.2949 11.0775 14.3593 10.8797 14.4115 10.6785C14.449 10.5324 14.4782 10.3828 14.5021 10.2337C14.5109 10.1792 14.5226 10.1261 14.5294 10.071C14.5561 9.86702 14.5699 9.66152 14.5708 9.45576C14.5703 9.41088 14.568 9.36603 14.564 9.32131L14.5576 9.22388C14.5576 9.21852 14.5601 9.21317 14.5601 9.20781C14.555 8.61237 14.4987 8.01847 14.392 7.43265C13.9409 7.211 12.3421 6.3317 11.7614 4.75335C9.55369 6.41257 6.7034 6.59476 5.3087 6.57186C5.30262 6.63221 5.28614 6.69105 5.25999 6.74577C5.23749 6.7984 5.20463 6.84596 5.16337 6.88563C5.12211 6.9253 5.0733 6.95627 5.01983 6.97668C4.99617 6.98568 4.97192 6.993 4.94724 6.9986C4.91354 7.00737 4.87915 7.01324 4.84445 7.01614C4.82935 7.01614 4.81571 7.02345 4.80012 7.02345C4.76404 7.02261 4.72806 7.01919 4.69246 7.01322C4.48218 8.06966 4.21978 9.11505 3.90621 10.1456V10.1509C3.80162 10.6698 3.62743 11.1722 3.38838 11.6445ZM4.28667 5.61267C4.05603 5.33993 3.74269 5.14991 3.39422 5.07146C3.38181 5.07078 3.36938 5.0726 3.35769 5.07681C3.42732 5.43752 3.6221 5.76204 3.90767 5.99313C4.10242 6.19817 4.33501 6.3636 4.5926 6.48028H4.59942C4.67001 6.51521 4.74821 6.53195 4.82692 6.52899C4.82771 6.51959 4.82771 6.51014 4.82692 6.50074C4.82287 6.46211 4.8152 6.42395 4.80402 6.38675V6.37944C4.69345 6.08715 4.51632 5.82463 4.28667 5.61267ZM7.76343 15.4267C7.79241 15.6613 7.90616 15.8773 8.08328 16.0339C8.26039 16.1904 8.48865 16.2769 8.72505 16.2769C8.96146 16.2769 9.18971 16.1904 9.36683 16.0339C9.54394 15.8773 9.6577 15.6613 9.68668 15.4267C9.05646 15.2598 8.39365 15.2598 7.76343 15.4267ZM14.9985 13.1907C15.112 12.8059 15.2367 12.3811 15.3575 11.8881C15.0214 12.118 14.6372 12.268 14.2342 12.3265C13.3424 13.7384 11.9273 14.7392 10.299 15.1096C11.0475 15.3985 11.7025 15.887 12.1929 16.522C12.6833 17.157 12.9903 17.9143 13.0806 18.7115H14.5708C15.0967 18.7101 15.6045 18.5193 16.0013 18.1741C16.398 17.8289 16.6572 17.3523 16.7313 16.8316C16.6294 16.8474 16.5265 16.8556 16.4234 16.856C16.1729 16.8586 15.9248 16.8071 15.6961 16.705C15.4772 16.5976 15.2823 16.4469 15.1233 16.2622C14.9642 16.0774 14.8442 15.8623 14.7705 15.6298C14.4958 14.8908 14.6955 14.2147 14.9985 13.1907ZM16.0322 9.69934C16.0322 9.63474 16.0066 9.57278 15.9609 9.52711C15.9152 9.48143 15.8533 9.45576 15.7887 9.45576H15.0579C15.0573 10.0511 14.9585 10.6423 14.7657 11.2056C14.7535 11.2412 14.7369 11.2748 14.7238 11.3103C14.6707 11.4565 14.6156 11.6026 14.5503 11.7429C14.5469 11.7497 14.545 11.757 14.5416 11.7643C14.9755 11.6205 15.3531 11.3435 15.6207 10.9728C15.8883 10.6021 16.0323 10.1565 16.0322 9.69934ZM0.71882 16.8316C0.792929 17.3523 1.05208 17.8289 1.44883 18.1741C1.84558 18.5193 2.35339 18.7101 2.87931 18.7115H4.36949C4.46011 17.9156 4.76675 17.1597 5.25619 16.5255C5.74564 15.8914 6.39924 15.4033 7.14622 15.114C6.29517 14.9229 5.49354 14.5558 4.7929 14.0363C4.09226 13.5168 3.50812 12.8564 3.07806 12.0976C2.98023 12.219 2.85199 12.3125 2.70637 12.3684C2.68351 12.3755 2.65967 12.3789 2.63574 12.3786C2.57816 12.3788 2.5224 12.3585 2.47836 12.3214C2.43432 12.2843 2.40483 12.2328 2.39514 12.1761C2.38545 12.1193 2.39617 12.061 2.42541 12.0114C2.45465 11.9618 2.50052 11.9241 2.55487 11.9051C2.7235 11.7909 2.85708 11.632 2.94069 11.4462C3.50176 9.95266 3.93413 8.41385 4.23309 6.84661C3.98642 6.70943 3.76028 6.53823 3.56131 6.33803C3.0425 5.81971 2.65181 5.09435 3.01863 4.72753C3.38545 4.36071 4.11081 4.75189 4.62914 5.27021C4.86954 5.50399 5.06576 5.77926 5.20835 6.08277C6.5558 6.11979 9.55515 5.97121 11.7361 4.15562C11.7678 4.12926 11.8056 4.11137 11.8461 4.10362C11.8865 4.09587 11.9283 4.09851 11.9675 4.11129C12.0067 4.12408 12.042 4.14661 12.0701 4.17677C12.0982 4.20693 12.1182 4.24374 12.1283 4.28374C12.5798 6.09008 14.6833 7.03319 14.7043 7.04245C14.7398 7.05793 14.771 7.08166 14.7955 7.11165C14.82 7.14164 14.837 7.17703 14.8451 7.2149C14.9623 7.79266 15.03 8.37935 15.0477 8.96862H15.7887C15.8176 8.96983 15.8463 8.97276 15.8749 8.97739C15.9139 8.72894 15.945 8.53019 15.9606 8.44153C16.2729 6.60937 15.8963 4.89998 14.9269 3.75178C14.6752 3.42369 14.3554 3.15404 13.9895 2.96137C13.6236 2.76871 13.2203 2.65761 12.8073 2.63573C12.772 2.63555 12.7372 2.6277 12.7052 2.61273C12.6733 2.59776 12.6449 2.57602 12.6222 2.54902C11.8072 1.58203 10.6839 0.687147 7.99823 0.687147C7.1131 0.689612 6.23799 0.874566 5.42756 1.23046C4.61712 1.58635 3.88878 2.10553 3.28802 2.75557C1.868 4.35633 1.33019 6.68293 1.68921 9.67011C1.8352 10.8645 2.0904 12.0429 2.4516 13.1907C2.7546 14.2137 2.95433 14.8908 2.67958 15.6298C2.60592 15.8623 2.48593 16.0774 2.32685 16.2622C2.16777 16.4469 1.9729 16.5976 1.754 16.705C1.52526 16.8071 1.27717 16.8586 1.0267 16.856C0.923605 16.8556 0.820692 16.8474 0.71882 16.8316Z" fill="var(--fill-0, white)" stroke="var(--stroke-0, white)" stroke-width="0.4"/>
</g>
</svg>
