<svg preserveAspectRatio="none" width="100%" height="100%" overflow="visible" style="display: block;" viewBox="0 0 20.1 15.7" fill="none" xmlns="http://www.w3.org/2000/svg">
<g id="Group">
<path id="Vector" d="M7.14736 6.73533C6.19453 6.73533 5.41958 7.6527 5.41958 8.77975C5.41958 9.90679 6.19298 10.8225 7.14736 10.8225C8.10173 10.8225 8.87359 9.90679 8.87359 8.77975C8.87359 7.6527 8.09864 6.73533 7.14736 6.73533ZM7.14736 10.1754C6.52864 10.1754 6.0383 9.55295 6.0383 8.78794C6.0383 8.02292 6.53482 7.39879 7.14736 7.39879C7.75989 7.39879 8.25487 8.02128 8.25487 8.78794C8.25487 9.55459 7.75834 10.1673 7.14736 10.1673V10.1754Z" fill="var(--fill-0, white)" stroke="var(--stroke-0, white)" stroke-width="0.3"/>
<path id="Vector_2" d="M18.9959 7.12526C18.5727 5.37071 17.9754 3.66848 17.214 2.04699C17.188 1.9958 17.1503 1.9524 17.1042 1.92086C16.3566 1.44969 15.5676 1.05633 14.7484 0.746302C13.2295 0.161483 12.5117 0.150016 12.4823 0.150016C12.4073 0.149233 12.3345 0.177386 12.2776 0.229226C12.2207 0.281066 12.1835 0.353056 12.173 0.431778L12.0802 1.11489C10.7285 0.972913 9.36687 0.972913 8.01518 1.11489L7.92238 0.431778C7.91187 0.353056 7.87469 0.281066 7.81777 0.229226C7.76086 0.177386 7.68808 0.149233 7.61302 0.150016C7.58363 0.150016 6.86591 0.150016 5.34695 0.741388C4.52967 1.05338 3.74281 1.44837 2.99736 1.92086C2.95128 1.9524 2.9135 1.9958 2.88754 2.04699C2.12611 3.66845 1.52882 5.37068 1.10562 7.12526C0.305926 10.5457 0.151246 12.2576 0.151246 12.328C0.147484 12.3723 0.152263 12.4169 0.165293 12.4591C0.178322 12.5014 0.199331 12.5404 0.227039 12.5737C1.02219 13.4643 1.97997 14.1743 3.04222 14.6607C4.0202 15.1013 5.04988 15.3999 6.10334 15.5486C6.16246 15.5544 6.22191 15.542 6.27457 15.5129C6.32723 15.4839 6.37088 15.4394 6.40032 15.3848L7.2356 13.8695C8.16552 14.0372 9.10747 14.1189 10.0508 14.1136C10.9942 14.1178 11.9361 14.0351 12.866 13.8662L13.7012 15.3848C13.7282 15.4343 13.767 15.4755 13.8137 15.5042C13.8603 15.533 13.9133 15.5483 13.9673 15.5486H13.9982C15.0508 15.4019 16.08 15.1054 17.0578 14.6673C18.12 14.1809 19.0778 13.4708 19.873 12.5803C19.9007 12.5469 19.9217 12.5079 19.9347 12.4657C19.9477 12.4234 19.9525 12.3788 19.9488 12.3346C19.9503 12.2576 19.8034 10.5457 18.9959 7.12526ZM16.8211 14.0563C15.9576 14.4362 15.0547 14.7067 14.1312 14.8622L13.5001 13.7155C14.224 13.5124 15.7306 12.9849 16.8768 11.8808C16.9073 11.8519 16.9321 11.8169 16.9498 11.7778C16.9675 11.7387 16.9777 11.6963 16.9799 11.653C16.9822 11.6098 16.9763 11.5664 16.9627 11.5256C16.9492 11.4847 16.9281 11.447 16.9008 11.4148C16.8735 11.3825 16.8404 11.3562 16.8035 11.3375C16.7666 11.3188 16.7266 11.3079 16.6857 11.3055C16.6449 11.3032 16.604 11.3094 16.5653 11.3237C16.5267 11.3381 16.4912 11.3604 16.4607 11.3894C15.0686 12.7376 12.9866 13.1651 12.9649 13.17H12.9557C11.9986 13.3663 11.0256 13.4628 10.0508 13.4583C9.07622 13.4661 8.10328 13.3728 7.14588 13.1799H7.1366C7.11495 13.1799 5.04068 12.7474 3.64083 11.3992C3.57929 11.3408 3.49836 11.3106 3.41583 11.3154C3.3333 11.3201 3.25594 11.3594 3.20076 11.4246C3.14559 11.4898 3.11712 11.5755 3.12161 11.6629C3.12611 11.7503 3.1632 11.8322 3.22474 11.8906C4.37092 12.9947 5.8775 13.5288 6.60141 13.7254L5.97031 14.8721C5.04663 14.7176 4.14363 14.447 3.28042 14.0661C2.34625 13.6299 1.4986 13.0101 0.782341 12.2396C0.833385 11.7629 1.0422 10.0985 1.71042 7.2858C2.11714 5.61103 2.68307 3.98423 3.39953 2.43032C4.09048 2.0079 4.8151 1.65051 5.56505 1.36225C6.14454 1.12643 6.74448 0.951399 7.35625 0.839677L7.41038 1.23119C6.79166 1.39501 5.26806 1.86352 4.06156 2.79235C4.02875 2.81774 4.00099 2.84972 3.97986 2.88646C3.95872 2.92321 3.94463 2.96401 3.93838 3.00652C3.92576 3.09239 3.94587 3.18005 3.99427 3.25021C4.04268 3.32038 4.11543 3.36731 4.1965 3.38067C4.23665 3.38729 4.27763 3.38547 4.31711 3.37531C4.35659 3.36515 4.3938 3.34686 4.4266 3.32147C5.79088 2.27142 7.67489 1.83731 7.80791 1.80619C8.55217 1.71175 9.3012 1.6658 10.0508 1.66858C10.8009 1.66541 11.5504 1.71137 12.2952 1.80619C12.4359 1.83731 14.306 2.26978 15.6765 3.32147C15.7427 3.37274 15.8255 3.39403 15.9066 3.38067C15.9877 3.36731 16.0604 3.32038 16.1088 3.25021C16.1572 3.18005 16.1773 3.09239 16.1647 3.00652C16.1521 2.92066 16.1078 2.84362 16.0415 2.79235C14.835 1.86352 13.3176 1.39665 12.6927 1.23119L12.7468 0.839677C13.358 0.951912 13.9574 1.12693 14.5365 1.36225C15.2864 1.65051 16.0111 2.0079 16.702 2.43032C17.4227 3.98373 17.9928 5.61054 18.4035 7.2858C19.0671 10.0985 19.2759 11.7629 19.3316 12.2396C18.6108 13.0079 17.759 13.6244 16.8211 14.0563Z" fill="var(--fill-0, white)" stroke="var(--stroke-0, white)" stroke-width="0.3"/>
<path id="Vector_3" d="M12.9541 6.73533C12.0028 6.73533 11.2279 7.6527 11.2279 8.77975C11.2279 9.90679 12.0013 10.8225 12.9541 10.8225C13.9069 10.8225 14.6819 9.90679 14.6819 8.77975C14.6819 7.6527 13.9069 6.73533 12.9541 6.73533ZM12.9541 10.1754C12.3354 10.1754 11.8466 9.55295 11.8466 8.78794C11.8466 8.02292 12.3431 7.39879 12.9541 7.39879C13.5651 7.39879 14.0632 8.02128 14.0632 8.78794C14.0632 9.55459 13.5666 10.1673 12.9541 10.1673V10.1754Z" fill="var(--fill-0, white)" stroke="var(--stroke-0, white)" stroke-width="0.3"/>
</g>
</svg>
