<svg preserveAspectRatio="none" width="100%" height="100%" overflow="visible" style="display: block;" viewBox="0 0 19.7083 19.7083" fill="none" xmlns="http://www.w3.org/2000/svg">
<g id="Group">
<path id="1" d="M12.6042 0H7.10417C2.12392 0 0 2.12483 0 7.10417V12.6042C0 17.5835 2.12392 19.7083 7.10417 19.7083H12.6042C17.5844 19.7083 19.7083 17.5835 19.7083 12.6042V7.10417C19.7083 2.12483 17.5844 0 12.6042 0ZM18.3333 12.6042C18.3333 16.8337 16.8337 18.3333 12.6042 18.3333H7.10417C4.57692 18.3333 3.0305 17.7916 2.18992 16.4588L6.1985 13.7693C6.43827 13.6149 6.7203 13.5393 7.00514 13.5531C7.28997 13.5669 7.56337 13.6694 7.78708 13.8462L8.09233 14.1084C8.58189 14.5145 9.19795 14.7368 9.834 14.7368C10.4701 14.7368 11.0861 14.5145 11.5757 14.1084L15.3899 10.8359C15.6304 10.6445 15.9286 10.5403 16.236 10.5403C16.5434 10.5403 16.8416 10.6445 17.0821 10.8359L18.3352 11.9112L18.3333 12.6042ZM18.3333 10.0989L17.9749 9.79183C17.4854 9.38575 16.8693 9.1635 16.2333 9.1635C15.5972 9.1635 14.9811 9.38575 14.4916 9.79183L10.6792 13.0625C10.4389 13.2535 10.1409 13.3574 9.834 13.3574C9.52705 13.3574 9.22915 13.2535 8.98883 13.0625L8.68358 12.8003C8.23214 12.4265 7.67251 12.2077 7.08724 12.1762C6.50197 12.1447 5.92206 12.3021 5.43308 12.6253L1.64817 15.1708C1.44888 14.3303 1.35648 13.4679 1.37317 12.6042V7.10417C1.375 2.87467 2.87467 1.375 7.10417 1.375H12.6042C16.8337 1.375 18.3333 2.87467 18.3333 7.10417V10.0989ZM7.10417 3.66667C6.60559 3.66667 6.11822 3.81451 5.70367 4.0915C5.28912 4.3685 4.96602 4.7622 4.77522 5.22282C4.58442 5.68344 4.5345 6.1903 4.63177 6.67929C4.72904 7.16828 4.96912 7.61745 5.32167 7.97C5.67421 8.32254 6.12338 8.56263 6.61238 8.6599C7.10137 8.75716 7.60823 8.70724 8.06885 8.51645C8.52947 8.32565 8.92317 8.00255 9.20016 7.588C9.47716 7.17345 9.625 6.68607 9.625 6.1875C9.62451 5.51908 9.35877 4.87818 8.88613 4.40554C8.41349 3.9329 7.77258 3.66715 7.10417 3.66667ZM7.10417 7.33333C6.87754 7.33333 6.65601 7.26613 6.46758 7.14023C6.27914 7.01432 6.13228 6.83537 6.04555 6.62599C5.95883 6.41662 5.93614 6.18623 5.98035 5.96396C6.02456 5.74169 6.13369 5.53752 6.29394 5.37727C6.45419 5.21703 6.65836 5.1079 6.88063 5.06368C7.1029 5.01947 7.33328 5.04216 7.54266 5.12889C7.75203 5.21561 7.93099 5.36248 8.05689 5.55091C8.1828 5.73934 8.25 5.96088 8.25 6.1875C8.24952 6.49125 8.12864 6.78241 7.91386 6.99719C7.69908 7.21197 7.40791 7.33285 7.10417 7.33333Z" fill="var(--fill-0, white)"/>
</g>
</svg>
