<svg preserveAspectRatio="none" width="100%" height="100%" overflow="visible" style="display: block;" viewBox="0 0 22 22" fill="none" xmlns="http://www.w3.org/2000/svg">
<g id="image">
<path id="Vector" d="M20.185 15.4183L17.3158 8.70833C16.7933 7.48 16.0142 6.78333 15.125 6.7375C14.245 6.69167 13.3925 7.30583 12.7417 8.47917L11 11.605C10.6333 12.265 10.1108 12.6592 9.5425 12.705C8.965 12.76 8.3875 12.4575 7.92 11.8617L7.71833 11.605C7.0675 10.7892 6.26083 10.395 5.43583 10.4775C4.61083 10.56 3.905 11.1283 3.4375 12.0542L1.85167 15.2167C1.28333 16.3625 1.33833 17.6917 2.0075 18.7733C2.67667 19.855 3.84083 20.5058 5.115 20.5058H16.8117C18.04 20.5058 19.1858 19.8917 19.8642 18.865C20.5608 17.8383 20.6708 16.5458 20.185 15.4183Z" fill="var(--fill-0, white)"/>
<path id="Vector_2" d="M6.38917 7.68167C8.10033 7.68167 9.4875 6.2945 9.4875 4.58333C9.4875 2.87217 8.10033 1.485 6.38917 1.485C4.678 1.485 3.29083 2.87217 3.29083 4.58333C3.29083 6.2945 4.678 7.68167 6.38917 7.68167Z" fill="var(--fill-0, white)"/>
<g id="Vector_3" opacity="0">
</g>
</g>
</svg>
