<svg preserveAspectRatio="none" width="100%" height="100%" overflow="visible" style="display: block;" viewBox="0 0 18.3333 18.3343" fill="none" xmlns="http://www.w3.org/2000/svg">
<g id="Group">
<path id="Vector" d="M9.16667 0C14.2294 0 18.3333 4.10392 18.3333 9.16667C18.3333 14.2294 14.2294 18.3333 9.16667 18.3333C7.70366 18.3354 6.26159 17.9858 4.96192 17.314L1.45476 18.2921C1.25909 18.3467 1.05242 18.3483 0.855921 18.2967C0.659426 18.2452 0.480172 18.1423 0.336525 17.9986C0.192878 17.855 0.0900029 17.6757 0.0384409 17.4793C-0.0131211 17.2828 -0.0115162 17.0761 0.043091 16.8804L1.02209 13.376C0.348664 12.0752 -0.0018964 10.6315 7.71553e-06 9.16667C7.71553e-06 4.10392 4.10392 0 9.16667 0ZM9.16667 1.375C7.1002 1.375 5.11835 2.19591 3.65713 3.65713C2.19591 5.11835 1.37501 7.10019 1.37501 9.16667C1.37501 10.5142 1.71692 11.8094 2.35859 12.9598L2.49609 13.2073L1.47676 16.8584L5.13151 15.8391L5.37901 15.9766C6.41886 16.5547 7.5773 16.887 8.76549 16.9481C9.95369 17.0091 11.1401 16.7972 12.2337 16.3287C13.3273 15.8601 14.2991 15.1473 15.0745 14.245C15.85 13.3427 16.4085 12.2747 16.7072 11.1231C17.006 9.97144 17.037 8.76667 16.798 7.60117C16.5589 6.43567 16.0561 5.3404 15.3282 4.39933C14.6002 3.45826 13.6664 2.69639 12.5984 2.17216C11.5303 1.64792 10.3564 1.37523 9.16667 1.375ZM9.16667 12.375C9.40979 12.375 9.64295 12.4716 9.81486 12.6435C9.98676 12.8154 10.0833 13.0486 10.0833 13.2917C10.0833 13.5348 9.98676 13.7679 9.81486 13.9398C9.64295 14.1118 9.40979 14.2083 9.16667 14.2083C8.92356 14.2083 8.6904 14.1118 8.51849 13.9398C8.34658 13.7679 8.25001 13.5348 8.25001 13.2917C8.25001 13.0486 8.34658 12.8154 8.51849 12.6435C8.6904 12.4716 8.92356 12.375 9.16667 12.375ZM9.16667 4.35417C9.83524 4.35417 10.4764 4.61975 10.9492 5.0925C11.4219 5.56525 11.6875 6.20643 11.6875 6.875C11.6875 7.80083 11.4153 8.31783 10.7241 9.03742L10.5692 9.19417C9.99901 9.76433 9.85417 10.0063 9.85417 10.5417C9.85417 10.724 9.78174 10.8989 9.65281 11.0278C9.52388 11.1567 9.34901 11.2292 9.16667 11.2292C8.98434 11.2292 8.80947 11.1567 8.68054 11.0278C8.55161 10.8989 8.47917 10.724 8.47917 10.5417C8.47917 9.61583 8.75142 9.09883 9.44259 8.37925L9.59751 8.2225C10.1677 7.65233 10.3125 7.41033 10.3125 6.875C10.3139 6.58036 10.2017 6.29651 9.99925 6.08242C9.79681 5.86833 9.51968 5.74045 9.22542 5.72535C8.93116 5.71025 8.64239 5.80908 8.41909 6.00132C8.1958 6.19356 8.05514 6.46443 8.02634 6.75767L8.02084 6.875C8.02084 7.05734 7.94841 7.2322 7.81948 7.36114C7.69055 7.49007 7.51568 7.5625 7.33334 7.5625C7.151 7.5625 6.97614 7.49007 6.84721 7.36114C6.71827 7.2322 6.64584 7.05734 6.64584 6.875C6.64584 6.20643 6.91143 5.56525 7.38418 5.0925C7.85692 4.61975 8.49811 4.35417 9.16667 4.35417Z" fill="var(--fill-0, white)"/>
</g>
</svg>
