<svg preserveAspectRatio="none" width="100%" height="100%" overflow="visible" style="display: block;" viewBox="0 0 20.1664 20.167" fill="none" xmlns="http://www.w3.org/2000/svg">
<g id="Group">
<path id="Vector" fill-rule="evenodd" clip-rule="evenodd" d="M14.1166 10.5878C13.9829 10.5878 13.8546 10.6409 13.7601 10.7354C13.6655 10.83 13.6124 10.9582 13.6124 11.0919C13.6124 11.2256 13.6655 11.3539 13.7601 11.4484C13.8546 11.543 13.9829 11.5961 14.1166 11.5961C14.2503 11.5961 14.3785 11.543 14.4731 11.4484C14.5676 11.3539 14.6207 11.2256 14.6207 11.0919C14.6207 10.9582 14.5676 10.83 14.4731 10.7354C14.3785 10.6409 14.2503 10.5878 14.1166 10.5878ZM15.629 11.0919C15.629 11.493 15.4697 11.8778 15.1861 12.1614C14.9024 12.445 14.5177 12.6044 14.1166 12.6044C13.7154 12.6044 13.3307 12.445 13.0471 12.1614C12.7634 11.8778 12.6041 11.493 12.6041 11.0919C12.6041 10.6908 12.7634 10.3061 13.0471 10.0224C13.3307 9.73878 13.7154 9.57943 14.1166 9.57943C14.5177 9.57943 14.9024 9.73878 15.1861 10.0224C15.4697 10.3061 15.629 10.6908 15.629 11.0919ZM10.0833 10.5878C9.94958 10.5878 9.82134 10.6409 9.72679 10.7354C9.63225 10.83 9.57913 10.9582 9.57913 11.0919C9.57913 11.2256 9.63225 11.3539 9.72679 11.4484C9.82134 11.543 9.94958 11.5961 10.0833 11.5961C10.217 11.5961 10.3452 11.543 10.4398 11.4484C10.5343 11.3539 10.5874 11.2256 10.5874 11.0919C10.5874 10.9582 10.5343 10.83 10.4398 10.7354C10.3452 10.6409 10.217 10.5878 10.0833 10.5878ZM11.5958 11.0919C11.5958 11.493 11.4364 11.8778 11.1528 12.1614C10.8691 12.445 10.4844 12.6044 10.0833 12.6044C9.68216 12.6044 9.29745 12.445 9.01381 12.1614C8.73016 11.8778 8.57081 11.493 8.57081 11.0919C8.57081 10.6908 8.73016 10.3061 9.01381 10.0224C9.29745 9.73878 9.68216 9.57943 10.0833 9.57943C10.4844 9.57943 10.8691 9.73878 11.1528 10.0224C11.4364 10.3061 11.5958 10.6908 11.5958 11.0919ZM6.05001 10.5878C5.9163 10.5878 5.78806 10.6409 5.69352 10.7354C5.59897 10.83 5.54585 10.9582 5.54585 11.0919C5.54585 11.2256 5.59897 11.3539 5.69352 11.4484C5.78806 11.543 5.9163 11.5961 6.05001 11.5961C6.18372 11.5961 6.31196 11.543 6.40651 11.4484C6.50105 11.3539 6.55417 11.2256 6.55417 11.0919C6.55417 10.9582 6.50105 10.83 6.40651 10.7354C6.31196 10.6409 6.18372 10.5878 6.05001 10.5878ZM7.56249 11.0919C7.56249 11.493 7.40314 11.8778 7.1195 12.1614C6.83585 12.445 6.45115 12.6044 6.05001 12.6044C5.64888 12.6044 5.26417 12.445 4.98053 12.1614C4.69688 11.8778 4.53753 11.493 4.53753 11.0919C4.53753 10.6908 4.69688 10.3061 4.98053 10.0224C5.26417 9.73878 5.64888 9.57943 6.05001 9.57943C6.45115 9.57943 6.83585 9.73878 7.1195 10.0224C7.40314 10.3061 7.56249 10.6908 7.56249 11.0919Z" fill="var(--fill-0, white)"/>
<path id="Vector_2" fill-rule="evenodd" clip-rule="evenodd" d="M10.0832 1.00874C9.94949 1.00874 9.82125 1.06186 9.7267 1.15641C9.63215 1.25096 9.57904 1.37919 9.57904 1.5129C9.57904 1.64662 9.63215 1.77485 9.7267 1.8694C9.82125 1.96395 9.94949 2.01706 10.0832 2.01706C10.2169 2.01706 10.3451 1.96395 10.4397 1.8694C10.5342 1.77485 10.5874 1.64662 10.5874 1.5129C10.5874 1.37919 10.5342 1.25096 10.4397 1.15641C10.3451 1.06186 10.2169 1.00874 10.0832 1.00874ZM11.5957 1.5129C11.5958 1.82579 11.4989 2.13102 11.3183 2.38654C11.1377 2.64206 10.8823 2.83531 10.5874 2.93968V5.04202H15.629C16.4312 5.04202 17.2006 5.36072 17.7679 5.92801C18.3352 6.4953 18.6539 7.26471 18.6539 8.06698V8.57114C19.0551 8.57114 19.4398 8.73049 19.7234 9.01414C20.007 9.29778 20.1664 9.68249 20.1664 10.0836V12.1003C20.1664 12.5014 20.007 12.8861 19.7234 13.1697C19.4398 13.4534 19.0551 13.6127 18.6539 13.6127V19.1585C18.654 19.3749 18.5844 19.5856 18.4554 19.7594C18.3265 19.9333 18.1451 20.061 17.9379 20.1237C17.7308 20.1865 17.509 20.1809 17.3053 20.1079C17.1016 20.0348 16.9267 19.8982 16.8067 19.7181L15.3885 17.5906C15.2964 17.4526 15.1717 17.3394 15.0255 17.2612C14.8792 17.1829 14.7159 17.1419 14.5501 17.1419H4.53744C3.73517 17.1419 2.96576 16.8232 2.39847 16.2559C1.83118 15.6886 1.51248 14.9192 1.51248 14.1169V13.6127C1.11135 13.6127 0.72664 13.4534 0.442995 13.1697C0.15935 12.8861 0 12.5014 0 12.1003V10.0836C0 9.68249 0.15935 9.29778 0.442995 9.01414C0.72664 8.73049 1.11135 8.57114 1.51248 8.57114V8.06698C1.51248 7.26471 1.83118 6.4953 2.39847 5.92801C2.96576 5.36072 3.73517 5.04202 4.53744 5.04202H9.57904V2.93968C9.31745 2.84733 9.08629 2.68485 8.91083 2.46998C8.73536 2.25512 8.62235 1.99616 8.58413 1.7214C8.54592 1.44663 8.58398 1.16666 8.69416 0.91207C8.80434 0.657482 8.98239 0.438086 9.20885 0.277867C9.43531 0.117648 9.70146 0.0227725 9.9782 0.00361335C10.2549 -0.0155458 10.5316 0.0417487 10.778 0.169233C11.0244 0.296718 11.231 0.489485 11.3752 0.726461C11.5194 0.963437 11.5957 1.2355 11.5957 1.5129ZM10.0832 6.05034H4.53744C4.00259 6.05034 3.48965 6.26281 3.11146 6.641C2.73327 7.0192 2.5208 7.53214 2.5208 8.06698V14.1169C2.5208 14.6517 2.73327 15.1647 3.11146 15.5429C3.48965 15.9211 4.00259 16.1335 4.53744 16.1335H14.5501C14.882 16.1335 15.2089 16.2155 15.5016 16.3721C15.7942 16.5288 16.0437 16.7552 16.2279 17.0314L16.6373 17.646L17.6456 19.1585V8.06698C17.6456 7.53214 17.4331 7.0192 17.0549 6.641C16.6767 6.26281 16.1638 6.05034 15.629 6.05034H10.0832ZM1.51248 9.57946V12.6044C1.37877 12.6044 1.25053 12.5513 1.15598 12.4568C1.06144 12.3622 1.00832 12.234 1.00832 12.1003V10.0836C1.00832 9.94991 1.06144 9.82167 1.15598 9.72713C1.25053 9.63258 1.37877 9.57946 1.51248 9.57946ZM18.6539 12.6044V9.57946C18.7876 9.57946 18.9159 9.63258 19.0104 9.72713C19.105 9.82167 19.1581 9.94991 19.1581 10.0836V12.1003C19.1581 12.234 19.105 12.3622 19.0104 12.4568C18.9159 12.5513 18.7876 12.6044 18.6539 12.6044Z" fill="var(--fill-0, white)"/>
</g>
</svg>
