<svg width="60" height="60" viewBox="0 0 100 48" fill="none" xmlns="http://www.w3.org/2000/svg">
  <path d="M49.683 22.0141C44.4564 8.51219 24.4213 0.672345 12.226 6.77C-0.840447 13.7388 0.0306466 36.3872 12.226 42.4848C21.808 47.7114 35.7455 40.7427 49.683 30.2895C63.6205 40.7427 77.558 47.7114 87.14 42.4848C99.3353 36.3872 100.206 13.7388 87.14 6.77C74.9447 0.672345 54.9096 8.51219 49.683 22.0141Z" fill="url(#paint0_linear_sf_favicon)"/>
  <path d="M49.683 22.0141C44.4564 8.51219 24.4213 0.672345 12.226 6.77C-0.840447 13.7388 0.0306466 36.3872 12.226 42.4848C21.808 47.7114 35.7455 40.7427 49.683 30.2895C63.6205 40.7427 77.558 47.7114 87.14 42.4848C99.3353 36.3872 100.206 13.7388 87.14 6.77C74.9447 0.672345 54.9096 8.51219 49.683 22.0141Z" stroke="url(#paint1_linear_sf_favicon)" stroke-width="5.5" stroke-linecap="round"/>
  <path opacity="0.92" d="M49.683 28.7656C51.4871 28.7656 52.9496 27.3031 52.9496 25.499C52.9496 23.6949 51.4871 22.2324 49.683 22.2324C47.8789 22.2324 46.4164 23.6949 46.4164 25.499C46.4164 27.3031 47.8789 28.7656 49.683 28.7656Z" fill="#FFFFFE"/>
  <defs>
    <linearGradient id="paint0_linear_sf_favicon" x1="2.75" y1="4.67285" x2="9389.35" y2="4.67285" gradientUnits="userSpaceOnUse">
      <stop stop-color="#7F5AF0" stop-opacity="0.1"/>
      <stop offset="1" stop-color="#E53170" stop-opacity="0.1"/>
    </linearGradient>
    <linearGradient id="paint1_linear_sf_favicon" x1="2.75007" y1="994.407" x2="4880.63" y2="6777.11" gradientUnits="userSpaceOnUse">
      <stop stop-color="#7F5AF0"/>
      <stop offset="0.4" stop-color="#C850C0"/>
      <stop offset="1" stop-color="#E53170"/>
    </linearGradient>
  </defs>
</svg>
