<svg width="22" height="22" viewBox="0 0 22 22" fill="none" xmlns="http://www.w3.org/2000/svg">
<path d="M11 4.55469C7.44605 4.55469 4.55469 7.44605 4.55469 11C4.55469 14.5539 7.44605 17.4453 11 17.4453C14.5539 17.4453 17.4453 14.5539 17.4453 11C17.4453 7.44605 14.5539 4.55469 11 4.55469ZM16.0154 9.37035C16.0491 9.47427 16.0531 9.58554 16.0269 9.6916C16.0007 9.79767 15.9454 9.8943 15.8672 9.97059L13.8582 11.9287L14.3325 14.693C14.351 14.8007 14.339 14.9114 14.2979 15.0126C14.2567 15.1139 14.188 15.2015 14.0996 15.2658C13.92 15.398 13.6796 15.4146 13.4828 15.3104L11 14.0058L8.51719 15.3104C8.32199 15.4139 8.08238 15.3979 7.90035 15.2657C7.81196 15.2015 7.7433 15.1138 7.70214 15.0126C7.66098 14.9114 7.64897 14.8007 7.66746 14.693L8.14125 11.9286L6.13281 9.97059C6.05458 9.8942 5.99925 9.79746 5.97306 9.6913C5.94687 9.58514 5.95087 9.47377 5.98461 9.36977C6.01854 9.26588 6.08082 9.17355 6.16444 9.10318C6.24805 9.03281 6.34966 8.98721 6.45781 8.97152L9.23301 8.56813L10.4747 6.05328C10.6715 5.65273 11.3284 5.65273 11.5253 6.05328L12.767 8.56813L15.5421 8.97152C15.6504 8.98725 15.7521 9.03293 15.8357 9.10341C15.9193 9.17389 15.9816 9.26635 16.0154 9.37035Z" fill="#292929"/>
<path d="M11.8525 9.3629L11 7.63599L10.1474 9.3629C10.1054 9.44813 10.0433 9.52184 9.96642 9.57767C9.88956 9.63351 9.80024 9.66977 9.70621 9.68333L7.80078 9.96028L9.17981 11.305C9.24776 11.3713 9.29858 11.4531 9.32789 11.5434C9.3572 11.6337 9.36411 11.7298 9.34805 11.8234L9.02305 13.7208L10.7277 12.8253C10.8115 12.7808 10.9051 12.7575 11 12.7575C11.095 12.7575 11.1885 12.7808 11.2724 12.8253L12.977 13.7208L12.6514 11.8234C12.6353 11.7298 12.6422 11.6337 12.6716 11.5434C12.7009 11.4531 12.7517 11.3713 12.8196 11.305L14.1992 9.96028L12.2938 9.68333C12.1997 9.66978 12.1104 9.63351 12.0335 9.57768C11.9567 9.52185 11.8945 9.44813 11.8525 9.3629Z" fill="#292929"/>
<path d="M11 1C5.49875 1 1 5.49867 1 11C1 16.5013 5.49875 21 11 21C16.5013 21 21 16.5013 21 11C21 5.49867 16.5013 1 11 1ZM11 18.6172C6.8 18.6172 3.38281 15.2 3.38281 11C3.38281 6.8 6.8 3.38281 11 3.38281C15.2 3.38281 18.6172 6.8 18.6172 11C18.6172 15.2 15.2 18.6172 11 18.6172Z" fill="#292929"/>
</svg>
