<svg width="22" height="22" viewBox="0 0 22 22" fill="none" xmlns="http://www.w3.org/2000/svg">
<mask id="mask0_743_6729" style="mask-type:alpha" maskUnits="userSpaceOnUse" x="0" y="0" width="22" height="22">
<rect width="22" height="22" fill="#D9D9D9"/>
</mask>
<g mask="url(#mask0_743_6729)">
<path fill-rule="evenodd" clip-rule="evenodd" d="M7.28239 1.53983V2.41709H2.85962C2.6846 2.41709 2.51675 2.48662 2.39299 2.61038C2.26923 2.73414 2.19971 2.902 2.19971 3.07702C2.19971 3.25205 2.26923 3.4199 2.39299 3.54366C2.51675 3.66742 2.6846 3.73695 2.85962 3.73695H19.263C19.438 3.73695 19.6058 3.66742 19.7296 3.54366C19.8534 3.4199 19.9229 3.25205 19.9229 3.07702C19.9229 2.902 19.8534 2.73414 19.7296 2.61038C19.6058 2.48662 19.438 2.41709 19.263 2.41709H14.8398V1.53983C14.8398 1.13144 14.6775 0.739781 14.3888 0.451006C14.1 0.162232 13.7083 0 13.3 0H8.8222C8.41382 0 8.02216 0.162232 7.73339 0.451006C7.44462 0.739781 7.28239 1.13144 7.28239 1.53983ZM8.8222 1.31985C8.76386 1.31985 8.70791 1.34303 8.66665 1.38428C8.6254 1.42554 8.60222 1.48149 8.60222 1.53983V2.41709H13.5199V1.53983C13.5199 1.48149 13.4968 1.42554 13.4555 1.38428C13.4142 1.34303 13.3583 1.31985 13.3 1.31985H8.8222ZM3.90141 20.3469V6.47169C3.90141 6.12164 4.04047 5.78593 4.28798 5.53841C4.5355 5.29089 4.87121 5.15183 5.22125 5.15183H16.9013C17.0747 5.15183 17.2463 5.18597 17.4064 5.2523C17.5666 5.31863 17.7121 5.41585 17.8346 5.53841C17.9572 5.66097 18.0544 5.80647 18.1207 5.9666C18.187 6.12673 18.2212 6.29836 18.2212 6.47169V20.3469C18.2212 20.6969 18.0821 21.0326 17.8346 21.2802C17.5871 21.5277 17.2514 21.6667 16.9013 21.6667H5.22081C4.87077 21.6667 4.53506 21.5277 4.28754 21.2802C4.04003 21.0326 3.90141 20.6969 3.90141 20.3469ZM7.01314 9.13296C7.18816 9.13296 7.35602 9.20248 7.47978 9.32624C7.60354 9.45001 7.67306 9.61786 7.67306 9.79288V17.0257C7.67306 17.2007 7.60354 17.3686 7.47978 17.4923C7.35602 17.6161 7.18816 17.6856 7.01314 17.6856C6.83812 17.6856 6.67027 17.6161 6.54651 17.4923C6.42275 17.3686 6.35323 17.2007 6.35323 17.0257V9.79288C6.35323 9.61786 6.42275 9.45001 6.54651 9.32624C6.67027 9.20248 6.83812 9.13296 7.01314 9.13296ZM11.721 9.79288C11.721 9.61786 11.6515 9.45001 11.5277 9.32624C11.404 9.20248 11.2361 9.13296 11.0611 9.13296C10.8861 9.13296 10.7182 9.20248 10.5944 9.32624C10.4707 9.45001 10.4012 9.61786 10.4012 9.79288V17.0257C10.4012 17.2007 10.4707 17.3686 10.5944 17.4923C10.7182 17.6161 10.8861 17.6856 11.0611 17.6856C11.2361 17.6856 11.404 17.6161 11.5277 17.4923C11.6515 17.3686 11.721 17.2007 11.721 17.0257V9.79288ZM15.1086 9.13296C15.2836 9.13296 15.4514 9.20248 15.5752 9.32624C15.699 9.45001 15.7685 9.61786 15.7685 9.79288V17.0257C15.7685 17.2007 15.699 17.3686 15.5752 17.4923C15.4514 17.6161 15.2836 17.6856 15.1086 17.6856C14.9336 17.6856 14.7657 17.6161 14.6419 17.4923C14.5182 17.3686 14.4487 17.2007 14.4487 17.0257V9.79288C14.4487 9.61786 14.5182 9.45001 14.6419 9.32624C14.7657 9.20248 14.9336 9.13296 15.1086 9.13296Z" fill="url(#paint0_linear_743_6729)"/>
</g>
<defs>
<linearGradient id="paint0_linear_743_6729" x1="4.40577" y1="-2.65726e-07" x2="17.7171" y2="21.6666" gradientUnits="userSpaceOnUse">
<stop stop-color="#FF0000"/>
<stop offset="1" stop-color="#FE8D70"/>
</linearGradient>
</defs>
</svg>
