<svg width="70" height="70" viewBox="0 0 70 70" fill="none" xmlns="http://www.w3.org/2000/svg">
<mask id="mask0_1_40546" style="mask-type:alpha" maskUnits="userSpaceOnUse" x="0" y="0" width="70" height="70">
<rect width="70" height="70" fill="#D9D9D9"/>
</mask>
<g mask="url(#mask0_1_40546)">
<path fill-rule="evenodd" clip-rule="evenodd" d="M23.1722 4.89946V7.69075H9.09974C8.54285 7.69075 8.00877 7.91198 7.615 8.30576C7.22122 8.69955 7 9.23363 7 9.79052C7 10.3474 7.22122 10.8815 7.615 11.2753C8.00877 11.6691 8.54285 11.8903 9.09974 11.8903H61.2922C61.8491 11.8903 62.3832 11.6691 62.777 11.2753C63.1707 10.8815 63.392 10.3474 63.392 9.79052C63.392 9.23363 63.1707 8.69955 62.777 8.30576C62.3832 7.91198 61.8491 7.69075 61.2922 7.69075H47.2184V4.89946C47.2184 3.60004 46.7022 2.35385 45.7834 1.43502C44.8646 0.516193 43.6184 0 42.319 0H28.0716C26.7722 0 25.526 0.516193 24.6072 1.43502C23.6884 2.35385 23.1722 3.60004 23.1722 4.89946ZM28.0716 4.19954C27.8859 4.19954 27.7079 4.27328 27.5767 4.40454C27.4454 4.5358 27.3717 4.71383 27.3717 4.89946V7.69075H43.0189V4.89946C43.0189 4.71383 42.9452 4.5358 42.8139 4.40454C42.6826 4.27328 42.5046 4.19954 42.319 4.19954H28.0716ZM12.4145 64.7401V20.5917C12.4145 19.4779 12.857 18.4098 13.6445 17.6222C14.4321 16.8347 15.5002 16.3922 16.614 16.3922H53.778C54.3294 16.3922 54.8755 16.5008 55.385 16.7119C55.8945 16.9229 56.3575 17.2323 56.7474 17.6222C57.1374 18.0122 57.4467 18.4751 57.6578 18.9846C57.8688 19.4942 57.9774 20.0402 57.9774 20.5917V64.7401C57.9774 65.8539 57.535 66.9221 56.7474 67.7096C55.9599 68.4972 54.8917 68.9396 53.778 68.9396H16.6126C15.4988 68.9396 14.4307 68.4972 13.6431 67.7096C12.8556 66.9221 12.4145 65.8539 12.4145 64.7401ZM22.3155 29.0594C22.8724 29.0594 23.4064 29.2806 23.8002 29.6744C24.194 30.0682 24.4152 30.6023 24.4152 31.1592V54.1726C24.4152 54.7295 24.194 55.2636 23.8002 55.6574C23.4064 56.0512 22.8724 56.2724 22.3155 56.2724C21.7586 56.2724 21.2245 56.0512 20.8307 55.6574C20.437 55.2636 20.2157 54.7295 20.2157 54.1726V31.1592C20.2157 30.6023 20.437 30.0682 20.8307 29.6744C21.2245 29.2806 21.7586 29.0594 22.3155 29.0594ZM37.295 31.1592C37.295 30.6023 37.0738 30.0682 36.68 29.6744C36.2862 29.2806 35.7522 29.0594 35.1953 29.0594C34.6384 29.0594 34.1043 29.2806 33.7105 29.6744C33.3168 30.0682 33.0955 30.6023 33.0955 31.1592V54.1726C33.0955 54.7295 33.3168 55.2636 33.7105 55.6574C34.1043 56.0512 34.6384 56.2724 35.1953 56.2724C35.7522 56.2724 36.2862 56.0512 36.68 55.6574C37.0738 55.2636 37.295 54.7295 37.295 54.1726V31.1592ZM48.0737 29.0594C48.6306 29.0594 49.1646 29.2806 49.5584 29.6744C49.9522 30.0682 50.1734 30.6023 50.1734 31.1592V54.1726C50.1734 54.7295 49.9522 55.2636 49.5584 55.6574C49.1646 56.0512 48.6306 56.2724 48.0737 56.2724C47.5168 56.2724 46.9827 56.0512 46.5889 55.6574C46.1951 55.2636 45.9739 54.7295 45.9739 54.1726V31.1592C45.9739 30.6023 46.1951 30.0682 46.5889 29.6744C46.9827 29.2806 47.5168 29.0594 48.0737 29.0594Z" fill="#7F5AF0"/>
</g>
</svg>
