<svg width="100" height="48" viewBox="0 0 100 48" fill="none" xmlns="http://www.w3.org/2000/svg">
<path d="M49.683 22.0141C44.4564 8.51219 24.4213 0.672345 12.226 6.77C-0.840447 13.7388 0.0306466 36.3872 12.226 42.4848C21.808 47.7114 35.7455 40.7427 49.683 30.2895C63.6205 40.7427 77.558 47.7114 87.14 42.4848C99.3353 36.3872 100.206 13.7388 87.14 6.77C74.9447 0.672345 54.9096 8.51219 49.683 22.0141Z" fill="url(#paint0_linear_4033_17314)"/>
<path d="M49.683 22.0141C44.4564 8.51219 24.4213 0.672345 12.226 6.77C-0.840447 13.7388 0.0306466 36.3872 12.226 42.4848C21.808 47.7114 35.7455 40.7427 49.683 30.2895C63.6205 40.7427 77.558 47.7114 87.14 42.4848C99.3353 36.3872 100.206 13.7388 87.14 6.77C74.9447 0.672345 54.9096 8.51219 49.683 22.0141Z" stroke="url(#paint1_linear_4033_17314)" stroke-width="5.5" stroke-linecap="round"/>
<path opacity="0.28" d="M44.0208 25.9343C40.972 20.2722 31.39 13.739 24.4212 15.4811C17.4525 17.6589 16.5814 26.8054 21.8079 31.1608C27.0345 35.5163 36.6165 33.7741 44.0208 25.9343Z" stroke="#7F5AF0" stroke-width="1.6" stroke-linecap="round"/>
<path opacity="0.28" d="M55.3451 25.9343C58.3939 20.2722 67.976 13.739 74.9447 15.4811C81.9135 17.6589 82.7845 26.8054 77.558 31.1608C72.3314 35.5163 62.7494 33.7741 55.3451 25.9343Z" stroke="#E53170" stroke-width="1.6" stroke-linecap="round"/>
<path opacity="0.45" d="M10.4838 26.5879C11.3257 26.5879 12.0082 25.9054 12.0082 25.0635C12.0082 24.2216 11.3257 23.5391 10.4838 23.5391C9.64185 23.5391 8.95935 24.2216 8.95935 25.0635C8.95935 25.9054 9.64185 26.5879 10.4838 26.5879Z" fill="#7F5AF0"/>
<path opacity="0.45" d="M88.8822 26.5879C89.7241 26.5879 90.4066 25.9054 90.4066 25.0635C90.4066 24.2216 89.7241 23.5391 88.8822 23.5391C88.0403 23.5391 87.3578 24.2216 87.3578 25.0635C87.3578 25.9054 88.0403 26.5879 88.8822 26.5879Z" fill="#E53170"/>
<path opacity="0.92" d="M49.683 28.7656C51.4871 28.7656 52.9496 27.3031 52.9496 25.499C52.9496 23.6949 51.4871 22.2324 49.683 22.2324C47.8789 22.2324 46.4164 23.6949 46.4164 25.499C46.4164 27.3031 47.8789 28.7656 49.683 28.7656Z" fill="#FFFFFE"/>
<path d="M49.683 27.2412C50.6452 27.2412 51.4252 26.4612 51.4252 25.499C51.4252 24.5368 50.6452 23.7568 49.683 23.7568C48.7208 23.7568 47.9408 24.5368 47.9408 25.499C47.9408 26.4612 48.7208 27.2412 49.683 27.2412Z" fill="#FFFFFE"/>
<path opacity="0.85" d="M84.3801 8.43607C84.3801 8.43607 79.7308 5.41681 79.3686 3.71269C79.0064 2.00858 80.4388 0.368267 82.9312 1.61961C84.6991 -0.537286 86.6749 0.37858 87.0371 2.0827C87.3994 3.78681 84.3801 8.43607 84.3801 8.43607Z" fill="#E53170"/>
<defs>
<linearGradient id="paint0_linear_4033_17314" x1="2.75" y1="4.67285" x2="9389.35" y2="4.67285" gradientUnits="userSpaceOnUse">
<stop stop-color="#7F5AF0" stop-opacity="0.1"/>
<stop offset="1" stop-color="#E53170" stop-opacity="0.1"/>
</linearGradient>
<linearGradient id="paint1_linear_4033_17314" x1="2.75007" y1="994.407" x2="4880.63" y2="6777.11" gradientUnits="userSpaceOnUse">
<stop stop-color="#7F5AF0"/>
<stop offset="0.4" stop-color="#C850C0"/>
<stop offset="1" stop-color="#E53170"/>
</linearGradient>
</defs>
</svg>
