<svg width="60" height="60" viewBox="0 0 60 60" fill="none" xmlns="http://www.w3.org/2000/svg">
<g clip-path="url(#clip0_1_40529)">
<path d="M57.225 34.5488H18.5815C17.0831 34.5488 15.8651 35.767 15.8651 37.2652V46.1168C15.8651 47.6175 17.0832 48.8369 18.5815 48.8369H22.9405C23.4059 48.8369 23.7823 49.2145 23.7823 49.6798V54.3071L29.1826 49.075C29.3393 48.9223 29.5494 48.8368 29.7682 48.8369H57.225C58.7234 48.8369 59.9414 47.6175 59.9414 46.1168V37.2652C59.9414 35.767 58.7232 34.5488 57.225 34.5488ZM30.3395 42.8556C30.7423 43.0877 30.8794 43.6036 30.6473 44.0052C30.5735 44.1336 30.4672 44.2401 30.339 44.3142C30.2109 44.3884 30.0654 44.4274 29.9174 44.4273C29.77 44.427 29.6253 44.388 29.4977 44.3143L27.4812 43.1491V45.4795C27.4812 45.9448 27.1048 46.3224 26.6394 46.3224C26.1741 46.3224 25.7977 45.9448 25.7977 45.4795V43.1491L23.7811 44.3143C23.6534 44.3878 23.5088 44.4268 23.3614 44.4273C23.2134 44.4275 23.0679 44.3885 22.9397 44.3144C22.8115 44.2403 22.7052 44.1336 22.6315 44.0052C22.3982 43.6036 22.5364 43.0878 22.9393 42.8556L24.9559 41.6916L22.9393 40.5264C22.8435 40.4713 22.7595 40.3977 22.6922 40.3101C22.6248 40.2224 22.5754 40.1223 22.5468 40.0155C22.5182 39.9087 22.511 39.7973 22.5255 39.6877C22.54 39.5781 22.576 39.4725 22.6315 39.3768C22.6866 39.281 22.7601 39.197 22.8478 39.1296C22.9355 39.0622 23.0356 39.0129 23.1424 38.9843C23.2492 38.9557 23.3606 38.9484 23.4702 38.9629C23.5798 38.9775 23.6854 39.0135 23.7811 39.0689L25.7977 40.233V37.9061C25.7977 37.4407 26.1741 37.0643 26.6394 37.0643C27.1048 37.0643 27.4812 37.4407 27.4812 37.9061V40.233L29.4977 39.0689C29.5934 39.0135 29.699 38.9775 29.8086 38.9629C29.9182 38.9484 30.0296 38.9557 30.1364 38.9843C30.2432 39.0129 30.3433 39.0622 30.431 39.1296C30.5187 39.197 30.5922 39.281 30.6473 39.3768C30.8794 39.7797 30.7424 40.2943 30.3395 40.5264L28.3229 41.6916L30.3395 42.8556ZM41.6021 42.8556C41.7954 42.9675 41.9364 43.1516 41.9941 43.3673C42.0518 43.5831 42.0216 43.8129 41.91 44.0064C41.8359 44.1344 41.7295 44.2407 41.6014 44.3145C41.4732 44.3884 41.3279 44.4273 41.18 44.4272C41.0323 44.4267 40.8873 44.3878 40.7592 44.3141L38.7438 43.1489V45.4793C38.7438 45.9447 38.3662 46.3223 37.9021 46.3223C37.6785 46.3222 37.4642 46.2334 37.3061 46.0753C37.148 45.9172 37.0592 45.7029 37.0591 45.4793V43.1513L35.0474 44.3141C34.9193 44.3877 34.7743 44.4267 34.6266 44.4272C34.4787 44.4272 34.3334 44.3883 34.2053 44.3145C34.0772 44.2406 33.9707 44.1344 33.8966 44.0064C33.785 43.8129 33.7548 43.5831 33.8125 43.3673C33.8702 43.1516 34.0112 42.9675 34.2045 42.8556L36.2198 41.6916L34.2045 40.5264C33.8016 40.2944 33.6646 39.7797 33.8966 39.3768C34.1299 38.9739 34.6446 38.8356 35.0474 39.0689L37.0591 40.2305V37.9061C37.0591 37.4407 37.4367 37.0643 37.9021 37.0643C38.1253 37.0644 38.3394 37.1531 38.4972 37.3109C38.6551 37.4688 38.7438 37.6829 38.7438 37.9061V40.233L40.7592 39.0689C41.1621 38.8356 41.6767 38.9739 41.91 39.3768C42.142 39.7797 42.005 40.2943 41.6021 40.5264L39.5868 41.6916L41.6021 42.8556ZM52.8671 42.8556C53.27 43.0877 53.4083 43.6036 53.175 44.0052C53.1013 44.1336 52.995 44.2403 52.8668 44.3144C52.7386 44.3886 52.5931 44.4275 52.445 44.4273C52.2977 44.427 52.153 44.388 52.0254 44.3143L50.0088 43.1491V45.4795C50.0088 45.9448 49.6324 46.3224 49.1671 46.3224C48.7017 46.3224 48.3253 45.9448 48.3253 45.4795V43.1491L46.3088 44.3143C46.1811 44.388 46.0365 44.4269 45.8891 44.4273C45.741 44.4275 45.5956 44.3885 45.4674 44.3144C45.3392 44.2403 45.2329 44.1336 45.1591 44.0052C44.9258 43.6036 45.0641 43.0878 45.467 42.8556L47.4836 41.6916L45.467 40.5264C45.3712 40.4713 45.2872 40.3977 45.2198 40.3101C45.1524 40.2224 45.1031 40.1223 45.0745 40.0155C45.0459 39.9087 45.0386 39.7973 45.0531 39.6877C45.0677 39.5781 45.1037 39.4725 45.1591 39.3768C45.2143 39.281 45.2878 39.197 45.3755 39.1296C45.4631 39.0622 45.5633 39.0129 45.67 38.9843C45.7768 38.9557 45.8882 38.9484 45.9978 38.9629C46.1074 38.9775 46.2131 39.0135 46.3088 39.0689L48.3253 40.233V37.9061C48.3253 37.4407 48.7017 37.0643 49.1671 37.0643C49.6324 37.0643 50.0088 37.4407 50.0088 37.9061V40.233L52.0254 39.0689C52.121 39.0135 52.2267 38.9775 52.3363 38.9629C52.4459 38.9484 52.5573 38.9557 52.6641 38.9843C52.7709 39.0129 52.871 39.0622 52.9587 39.1296C53.0463 39.197 53.1199 39.281 53.175 39.3768C53.2304 39.4725 53.2665 39.5781 53.281 39.6877C53.2955 39.7973 53.2883 39.9087 53.2597 40.0155C53.2311 40.1223 53.1817 40.2224 53.1143 40.3101C53.047 40.3977 52.963 40.4713 52.8671 40.5264L50.8506 41.6916L52.8671 42.8556ZM23.5274 56.9008C23.3699 57.0528 23.1595 57.1377 22.9406 57.1376C22.8278 57.1378 22.7161 57.1149 22.6124 57.0702C22.4601 57.006 22.3301 56.8983 22.2388 56.7605C22.1474 56.6228 22.0988 56.4611 22.0989 56.2959V50.5214H18.5816C16.155 50.5214 14.1804 48.5458 14.1804 46.1167V37.2651C14.1804 34.8385 16.1549 32.864 18.5816 32.864H43.6741C43.1138 30.4349 40.9336 28.6408 38.3651 28.6408H35.9036V20.0201C35.9036 14.2337 31.1958 9.52586 25.4093 9.52586C19.6193 9.52586 14.9102 14.2336 14.9102 20.0201V28.6408H12.4487C9.44613 28.6408 7.00137 31.0867 7.00137 34.0918V53.7634C7.00137 56.766 9.44602 59.2095 12.4487 59.2095H38.365C41.3688 59.2095 43.8123 56.766 43.8123 53.7634V50.5214H30.1098L23.5274 56.9008ZM19.8525 20.0202C19.8525 16.9587 22.3453 14.4682 25.4093 14.4682C28.4708 14.4682 30.9612 16.9586 30.9612 20.0202V28.6409H19.8525V20.0202ZM1.74246 26.1358C1.74246 26.3591 1.65376 26.5732 1.49586 26.7311C1.33797 26.889 1.12382 26.9777 0.900527 26.9777C0.677233 26.9777 0.463084 26.889 0.30519 26.7311C0.147297 26.5732 0.0585938 26.3591 0.0585938 26.1358C0.0585938 12.1595 11.4291 0.789062 25.4053 0.789062C37.2571 0.789062 47.5448 9.05348 50.1316 20.5384H54.9582C55.1193 20.5384 55.277 20.5846 55.4125 20.6716C55.5481 20.7586 55.6559 20.8826 55.723 21.029C55.7903 21.1752 55.8143 21.3376 55.7921 21.497C55.77 21.6565 55.7026 21.8062 55.598 21.9285L50.3863 28.0156C50.3074 28.1081 50.2093 28.1824 50.0988 28.2333C49.9884 28.2841 49.8682 28.3104 49.7466 28.3102C49.6251 28.3102 49.5051 28.284 49.3946 28.2334C49.2842 28.1827 49.1861 28.1088 49.1068 28.0168L43.8916 21.9285C43.787 21.8062 43.7196 21.6565 43.6974 21.4971C43.6753 21.3376 43.6993 21.1752 43.7666 21.029C43.8337 20.8826 43.9415 20.7586 44.0771 20.6716C44.2126 20.5846 44.3703 20.5384 44.5314 20.5384H48.4034C45.8534 10.0103 36.3424 2.47281 25.4053 2.47281C12.3577 2.47293 1.74246 13.0881 1.74246 26.1358Z" fill="white"/>
</g>
<defs>
<clipPath id="clip0_1_40529">
<rect width="60" height="60" fill="white"/>
</clipPath>
</defs>
</svg>
