<svg width="20" height="19" viewBox="0 0 20 19" fill="none" xmlns="http://www.w3.org/2000/svg">
<path d="M14.0965 7.22313L12.1025 3.58357H13.8661L18.0026 7.22313H14.0965ZM6.09269 3.58357H4.32946L0.196826 7.22313H4.10227L6.09269 3.58357ZM13.2334 7.22313L11.2395 3.58357H6.95572L4.96495 7.22313H13.2334ZM4.88172 7.97672L9.07116 18.4615L13.3095 7.97672H4.88172ZM0 7.97672L7.85626 17.4519L4.06798 7.97672H0ZM14.1268 7.97672L10.3425 17.331L18.1913 7.97637L14.1268 7.97672ZM1.25633 1.80398H1.92183V2.46652C1.92183 2.5665 1.96172 2.66239 2.03273 2.73308C2.10374 2.80378 2.20005 2.84349 2.30047 2.84349C2.4009 2.84349 2.49721 2.80378 2.56822 2.73308C2.63923 2.66239 2.67912 2.5665 2.67912 2.46652V1.80398H3.3439C3.44227 1.80097 3.53559 1.75995 3.6041 1.68962C3.67261 1.61928 3.71092 1.52515 3.71092 1.42718C3.71092 1.32921 3.67261 1.23508 3.6041 1.16475C3.53559 1.09441 3.44227 1.05339 3.3439 1.05039H2.67912V0.38855C2.68068 0.338094 2.67204 0.287842 2.65373 0.240772C2.63541 0.193703 2.60778 0.150776 2.57248 0.114538C2.53718 0.0782996 2.49493 0.0494884 2.44824 0.0298133C2.40154 0.0101382 2.35136 0 2.30065 0C2.24995 0 2.19976 0.0101382 2.15307 0.0298133C2.10637 0.0494884 2.06413 0.0782996 2.02883 0.114538C1.99353 0.150776 1.9659 0.193703 1.94758 0.240772C1.92926 0.287842 1.92062 0.338094 1.92218 0.38855V1.05074H1.25669C1.15832 1.05375 1.065 1.09477 0.996491 1.1651C0.927981 1.23544 0.889667 1.32956 0.889667 1.42754C0.889667 1.52551 0.927981 1.61964 0.996491 1.68997C1.065 1.76031 1.15832 1.80132 1.25669 1.80433L1.25633 1.80398ZM19.633 11.7027H18.9678V11.0405C18.9648 10.9426 18.9236 10.8497 18.853 10.7815C18.7823 10.7133 18.6878 10.6751 18.5894 10.6751C18.491 10.6751 18.3964 10.7133 18.3258 10.7815C18.2551 10.8497 18.2139 10.9426 18.2109 11.0405V11.7027H17.5454C17.4947 11.7012 17.4443 11.7098 17.397 11.728C17.3497 11.7462 17.3066 11.7737 17.2702 11.8089C17.2338 11.844 17.2048 11.8861 17.1851 11.9326C17.1653 11.9791 17.1551 12.029 17.1551 12.0795C17.1551 12.13 17.1653 12.1799 17.1851 12.2264C17.2048 12.2729 17.2338 12.315 17.2702 12.3501C17.3066 12.3853 17.3497 12.4128 17.397 12.431C17.4443 12.4492 17.4947 12.4578 17.5454 12.4563H18.2109V13.1185C18.2093 13.1689 18.218 13.2192 18.2363 13.2663C18.2546 13.3133 18.2822 13.3563 18.3175 13.3925C18.3528 13.4287 18.3951 13.4575 18.4418 13.4772C18.4885 13.4969 18.5387 13.507 18.5894 13.507C18.6401 13.507 18.6903 13.4969 18.737 13.4772C18.7836 13.4575 18.8259 13.4287 18.8612 13.3925C18.8965 13.3563 18.9241 13.3133 18.9424 13.2663C18.9608 13.2192 18.9694 13.1689 18.9678 13.1185V12.4563H19.633C19.7313 12.4533 19.8247 12.4123 19.8932 12.3419C19.9617 12.2716 20 12.1775 20 12.0795C20 11.9815 19.9617 11.8874 19.8932 11.8171C19.8247 11.7467 19.7313 11.7057 19.633 11.7027Z" fill="#292929"/>
</svg>
