<svg width="16" height="16" viewBox="0 0 16 16" fill="none" xmlns="http://www.w3.org/2000/svg">
<path d="M13.0127 7.53545C13.4486 7.09045 13.8105 6.72098 14.0589 6.38884C14.3207 6.0387 14.5008 5.67348 14.5009 5.23418C14.5011 4.79488 14.3211 4.42956 14.0595 4.07927C13.8113 3.74695 13.4497 3.37727 13.0141 2.93205L12.4699 2.37576C12.0289 1.92504 11.6628 1.55081 11.3333 1.29389C10.9863 1.02348 10.6202 0.834118 10.1762 0.833984C9.73213 0.833851 9.36586 1.023 9.01886 1.29321C8.68913 1.54993 8.3228 1.92394 7.8816 2.37439L6.21742 4.0745C6.0881 4.20661 6.02344 4.27266 6.02344 4.35424C6.02342 4.43582 6.08806 4.50189 6.21734 4.63404L10.7474 9.26445C10.8819 9.40185 10.9491 9.47058 11.0332 9.47058C11.1173 9.47065 11.1845 9.40198 11.3191 9.26458L13.0127 7.53545Z" fill="#FAFAFA"/>
<path d="M9.82567 10.2292C9.95493 10.3613 10.0195 10.4274 10.0195 10.5089C10.0195 10.5905 9.95493 10.6566 9.82567 10.7886L8.6298 12.011C8.2594 12.3899 8.00533 12.6498 7.6952 12.8277C7.51533 12.931 7.32373 13.0119 7.12447 13.0688C6.78067 13.167 6.35097 13.1668 5.82528 13.1667C5.29959 13.1668 4.86993 13.167 4.52608 13.0688C4.32686 13.0119 4.13525 12.931 3.95538 12.8277C3.64525 12.6498 3.39121 12.3899 3.02074 12.011C2.64834 11.6304 2.17156 11.143 1.95219 10.86C1.72205 10.5632 1.55201 10.2554 1.51138 9.88362C1.49621 9.74482 1.49621 9.60469 1.51138 9.46582C1.55201 9.09409 1.72205 8.78628 1.95219 8.48942C2.17155 8.20648 2.48089 7.89029 2.85327 7.50969L4.72386 5.59873C4.85839 5.46129 4.92566 5.39257 5.00977 5.39258C5.09389 5.39259 5.16113 5.46133 5.29563 5.59881L9.82567 10.2292Z" fill="#FAFAFA"/>
<path fill-rule="evenodd" clip-rule="evenodd" d="M5.83337 14.5007C5.83337 14.1325 6.13185 13.834 6.50004 13.834H13.8334C14.2016 13.834 14.5 14.1325 14.5 14.5007C14.5 14.8689 14.2016 15.1673 13.8334 15.1673H6.50004C6.13185 15.1673 5.83337 14.8689 5.83337 14.5007Z" fill="#FAFAFA"/>
</svg>
