<svg width="22" height="22" viewBox="0 0 22 22" fill="none" xmlns="http://www.w3.org/2000/svg">
<path d="M5.49998 7.5625C5.68231 7.5625 5.85718 7.49007 5.98611 7.36114C6.11505 7.2322 6.18748 7.05734 6.18748 6.875V6.1875C6.18748 6.00516 6.11505 5.8303 5.98611 5.70136C5.85718 5.57243 5.68231 5.5 5.49998 5.5C5.31764 5.5 5.14277 5.57243 5.01384 5.70136C4.88491 5.8303 4.81248 6.00516 4.81248 6.1875V6.875C4.81248 7.05734 4.88491 7.2322 5.01384 7.36114C5.14277 7.49007 5.31764 7.5625 5.49998 7.5625ZM7.50335 15.125H6.18748V8.9375C6.18748 8.75516 6.11505 8.5803 5.98611 8.45136C5.85718 8.32243 5.68231 8.25 5.49998 8.25C5.31764 8.25 5.14277 8.32243 5.01384 8.45136C4.88491 8.5803 4.81248 8.75516 4.81248 8.9375V15.125H3.4966C3.43545 15.1251 3.37569 15.1432 3.32487 15.1772C3.27404 15.2112 3.23443 15.2595 3.21103 15.316C3.18764 15.3725 3.18152 15.4347 3.19343 15.4947C3.20534 15.5546 3.23477 15.6097 3.27798 15.653L5.28135 17.6564C5.31003 17.6851 5.3441 17.708 5.38162 17.7235C5.41914 17.7391 5.45936 17.7471 5.49998 17.7471C5.5406 17.7471 5.58082 17.7391 5.61834 17.7235C5.65585 17.708 5.68993 17.6851 5.7186 17.6564L7.72198 15.653C7.76519 15.6097 7.79461 15.5546 7.80653 15.4947C7.81844 15.4347 7.81231 15.3725 7.78892 15.316C7.76553 15.2595 7.72592 15.2112 7.67509 15.1772C7.62426 15.1432 7.5645 15.1251 7.50335 15.125ZM9.62498 6.875H13.75C13.9323 6.875 14.1072 6.80257 14.2361 6.67364C14.365 6.5447 14.4375 6.36984 14.4375 6.1875C14.4375 6.00516 14.365 5.8303 14.2361 5.70136C14.1072 5.57243 13.9323 5.5 13.75 5.5H9.62498C9.44264 5.5 9.26777 5.57243 9.13884 5.70136C9.00991 5.8303 8.93748 6.00516 8.93748 6.1875C8.93748 6.36984 9.00991 6.5447 9.13884 6.67364C9.26777 6.80257 9.44264 6.875 9.62498 6.875ZM9.62498 10.3125H15.125C15.3073 10.3125 15.4822 10.2401 15.6111 10.1111C15.74 9.9822 15.8125 9.80734 15.8125 9.625C15.8125 9.44266 15.74 9.2678 15.6111 9.13886C15.4822 9.00993 15.3073 8.9375 15.125 8.9375H9.62498C9.44264 8.9375 9.26777 9.00993 9.13884 9.13886C9.00991 9.2678 8.93748 9.44266 8.93748 9.625C8.93748 9.80734 9.00991 9.9822 9.13884 10.1111C9.26777 10.2401 9.44264 10.3125 9.62498 10.3125ZM9.62498 13.75H16.5C16.6823 13.75 16.8572 13.6776 16.9861 13.5486C17.115 13.4197 17.1875 13.2448 17.1875 13.0625C17.1875 12.8802 17.115 12.7053 16.9861 12.5764C16.8572 12.4474 16.6823 12.375 16.5 12.375H9.62498C9.44264 12.375 9.26777 12.4474 9.13884 12.5764C9.00991 12.7053 8.93748 12.8802 8.93748 13.0625C8.93748 13.2448 9.00991 13.4197 9.13884 13.5486C9.26777 13.6776 9.44264 13.75 9.62498 13.75ZM17.875 15.8125H9.62498C9.44264 15.8125 9.26777 15.8849 9.13884 16.0139C9.00991 16.1428 8.93748 16.3177 8.93748 16.5C8.93748 16.6823 9.00991 16.8572 9.13884 16.9861C9.26777 17.1151 9.44264 17.1875 9.62498 17.1875H17.875C18.0573 17.1875 18.2322 17.1151 18.3611 16.9861C18.49 16.8572 18.5625 16.6823 18.5625 16.5C18.5625 16.3177 18.49 16.1428 18.3611 16.0139C18.2322 15.8849 18.0573 15.8125 17.875 15.8125Z" fill="white"/>
</svg>
