<svg width="23" height="23" viewBox="0 0 23 23" fill="none" xmlns="http://www.w3.org/2000/svg">
<path d="M2.54758 22.084C2.54758 22.3092 2.63706 22.5253 2.79635 22.6846C2.95563 22.8439 3.17167 22.9333 3.39693 22.9333H18.6853C18.9106 22.9333 19.1266 22.8439 19.2859 22.6846C19.4452 22.5253 19.5347 22.3092 19.5347 22.084V19.5359H2.54758V22.084ZM21.7489 5.27102C21.6224 5.17487 21.4716 5.11597 21.3134 5.10096C21.1552 5.08596 20.996 5.11544 20.8537 5.18609L14.8844 8.17072L11.8302 0.535025C11.7673 0.377137 11.6585 0.241749 11.5178 0.146368C11.3771 0.0509871 11.2111 0 11.0411 0C10.8712 0 10.7051 0.0509871 10.5644 0.146368C10.4238 0.241749 10.315 0.377137 10.2521 0.535025L7.19779 8.17072L1.22853 5.18609C1.08631 5.11513 0.927027 5.0855 0.7688 5.10058C0.610574 5.11565 0.459752 5.17482 0.333484 5.27136C0.207217 5.3679 0.11057 5.49793 0.0545348 5.64666C-0.00150056 5.7954 -0.0146764 5.95688 0.0165054 6.11273L2.36072 17.8372H19.7215L22.0657 6.11273C22.0968 5.95697 22.0836 5.79561 22.0276 5.64698C21.9716 5.49834 21.8751 5.36839 21.7489 5.27187V5.27102ZM11.0411 14.4398C10.5369 14.3775 10.077 14.1206 9.75957 13.7239C9.44218 13.3271 9.29247 12.822 9.34241 12.3164C9.29247 11.8108 9.44218 11.3057 9.75957 10.909C10.077 10.5122 10.5369 10.2553 11.0411 10.193C11.5454 10.2553 12.0053 10.5122 12.3227 10.909C12.6401 11.3057 12.7898 11.8108 12.7398 12.3164C12.7898 12.822 12.6401 13.3271 12.3227 13.7239C12.0053 14.1206 11.5454 14.3775 11.0411 14.4398Z" fill="url(#paint0_linear_3191_24935)"/>
<defs>
<linearGradient id="paint0_linear_3191_24935" x1="11.0411" y1="0" x2="11.0411" y2="22.9333" gradientUnits="userSpaceOnUse">
<stop stop-color="#FFC54D"/>
<stop offset="1" stop-color="#FFE2A5"/>
</linearGradient>
</defs>
</svg>
