<svg width="20" height="20" viewBox="0 0 20 20" fill="none" xmlns="http://www.w3.org/2000/svg">
<path d="M9.99988 0C12.7614 0 15.2617 1.11945 17.071 2.92875C18.8814 4.73805 19.9998 7.23832 19.9998 9.99988C19.9998 12.7614 18.8814 15.2617 17.071 17.071C15.2617 18.8803 12.7614 19.9998 9.99988 19.9998C7.23832 19.9998 4.73918 18.8803 2.92875 17.071C1.11945 15.2617 0 12.7614 0 9.99988C0 7.23832 1.11945 4.73809 2.92879 2.92875C4.73918 1.11949 7.23832 0 9.99988 0Z" fill="#FFB703"/>
<path d="M10 1.96777C12.2179 1.96777 14.2265 2.86687 15.6804 4.32074C17.1331 5.77352 18.0322 7.78211 18.0322 10C18.0322 12.2179 17.1331 14.2265 15.6804 15.6793C14.2265 17.1331 12.2179 18.0322 10 18.0322C7.78211 18.0322 5.77461 17.1331 4.32074 15.6793C2.86687 14.2265 1.96777 12.2179 1.96777 10C1.96777 7.78211 2.86687 5.77352 4.32074 4.32074C5.77461 2.86687 7.78211 1.96777 10 1.96777Z" fill="#FCD227"/>
<path fill-rule="evenodd" clip-rule="evenodd" d="M10 1.96766C12.2179 1.96766 14.2265 2.86676 15.6804 4.32062L17.0711 2.92879C15.2618 1.11949 12.7616 0 10 0V1.96766Z" fill="#FFB703"/>
<path fill-rule="evenodd" clip-rule="evenodd" d="M15.6802 4.32059C17.1329 5.77336 18.0321 7.78195 18.0321 9.99984H19.9997C19.9997 7.23828 18.8813 4.73805 17.0709 2.92871L15.6802 4.32059Z" fill="#FF9831"/>
<path fill-rule="evenodd" clip-rule="evenodd" d="M18.0321 10C18.0321 12.2179 17.1329 14.2266 15.6802 15.6793L17.0709 17.0711C18.8813 15.2618 19.9997 12.7616 19.9997 10H18.0321V10Z" fill="#FFB703"/>
<path fill-rule="evenodd" clip-rule="evenodd" d="M15.6804 15.6787C14.2265 17.1326 12.2179 18.0317 10 18.0317V19.9993C12.7616 19.9993 15.2618 18.8798 17.0711 17.0705L15.6804 15.6787Z" fill="#FF9831"/>
<path fill-rule="evenodd" clip-rule="evenodd" d="M9.9998 18.0317C7.78191 18.0317 5.77441 17.1325 4.32055 15.6787L2.92871 17.0706C4.7391 18.8799 7.23824 19.9993 9.99984 19.9993V18.0317H9.9998Z" fill="#FFB703"/>
<path fill-rule="evenodd" clip-rule="evenodd" d="M4.32062 15.6793C2.86676 14.2265 1.96766 12.2179 1.96766 10H0C0 12.7616 1.11945 15.2618 2.92879 17.0711L4.32062 15.6793Z" fill="#FF9831"/>
<path fill-rule="evenodd" clip-rule="evenodd" d="M1.96766 9.99984C1.96766 7.78195 2.86676 5.77336 4.32062 4.32059L2.92879 2.92871C1.11945 4.73805 0 7.23828 0 9.99984H1.96766Z" fill="#FFB703"/>
<path fill-rule="evenodd" clip-rule="evenodd" d="M4.32059 4.32062C5.77445 2.86676 7.78195 1.96766 9.99984 1.96766V0C7.23828 0 4.73914 1.11945 2.92871 2.92875L4.32059 4.32062Z" fill="#FF9831"/>
<path d="M10.9457 5.6268L11.5901 7.62434C11.6156 7.70184 11.6621 7.76605 11.723 7.81035C11.785 7.85465 11.8603 7.88012 11.9434 7.88012L14.0417 7.87566C14.2941 7.87566 14.509 7.96094 14.675 8.09824C14.8223 8.22113 14.9286 8.38391 14.9873 8.56109C15.0449 8.74047 15.0538 8.93426 15.0072 9.11914C14.9541 9.32844 14.8301 9.52551 14.6252 9.67277L12.9255 10.903C12.858 10.9517 12.8115 11.017 12.7882 11.0879C12.765 11.1587 12.765 11.2385 12.7904 11.3182L13.4426 13.3124C13.5213 13.5505 13.5057 13.7819 13.4249 13.9823C13.3548 14.1589 13.2358 14.3118 13.0817 14.423C12.9311 14.5327 12.7484 14.6024 12.5568 14.6146C12.342 14.6279 12.1184 14.5714 11.9146 14.423L10.2194 13.1862C10.1529 13.1375 10.0765 13.1143 10.0001 13.1143C9.92372 13.1143 9.84731 13.1375 9.782 13.1862L8.08676 14.423C7.88301 14.5714 7.65825 14.6279 7.44454 14.6146C7.25188 14.6024 7.07028 14.5327 6.91969 14.423C6.76798 14.3145 6.64731 14.1617 6.57532 13.9823C6.49559 13.7819 6.48008 13.5505 6.55762 13.3124L7.20981 11.3182C7.23637 11.2385 7.23528 11.1587 7.21204 11.0879C7.18989 11.017 7.14227 10.9517 7.07583 10.903L5.37505 9.67277C5.1702 9.52551 5.04731 9.32844 4.99415 9.11914C4.94653 8.93426 4.95649 8.74047 5.01407 8.56109C5.07165 8.38391 5.17907 8.22113 5.32633 8.09824C5.4913 7.96094 5.70614 7.87566 5.95969 7.87566L8.05801 7.88012C8.13997 7.88012 8.21633 7.85465 8.27727 7.81035C8.33817 7.76605 8.38579 7.70184 8.41126 7.62434L9.05571 5.6268C9.13321 5.38762 9.28161 5.21047 9.46321 5.09531C9.62598 4.99234 9.81423 4.94141 10.0002 4.94141C10.1863 4.94141 10.3745 4.99234 10.5373 5.09531C10.7198 5.21047 10.8682 5.38762 10.9457 5.6268Z" fill="#FB8500"/>
</svg>
