<svg width="132.74" height="62.7503" overflow="visible" style="display: block;" viewBox="0 0 132.74 62.7503" fill="none" xmlns="http://www.w3.org/2000/svg">
<g id="Group">
<path id="Vector" d="M66.3702 29.8415C59.2853 11.5389 32.1265 0.911554 15.5951 9.17726C-2.1171 18.6238 -0.936281 49.325 15.5951 57.5907C28.5841 64.6756 47.4771 55.2291 66.3702 41.0593C85.2632 55.2291 104.156 64.6756 117.145 57.5907C133.677 49.325 134.857 18.6238 117.145 9.17726C100.614 0.911554 73.4551 11.5389 66.3702 29.8415Z" fill="url(#paint0_linear_0_56)"/>
<path id="Vector_2" d="M66.3702 29.8415C59.2853 11.5389 32.1265 0.911554 15.5951 9.17726C-2.1171 18.6238 -0.936281 49.325 15.5951 57.5907C28.5841 64.6756 47.4771 55.2291 66.3702 41.0593C85.2632 55.2291 104.156 64.6756 117.145 57.5907C133.677 49.325 134.857 18.6238 117.145 9.17726C100.614 0.911554 73.4551 11.5389 66.3702 29.8415Z" stroke="url(#paint1_linear_0_56)" stroke-width="5.5" stroke-linecap="round"/>
<path id="Vector_3" opacity="0.28" d="M58.6948 35.1555C54.562 27.4802 41.573 18.6241 32.1265 20.9857C22.6799 23.9377 21.4991 36.3363 28.584 42.2404C35.6689 48.1444 48.6579 45.7828 58.6948 35.1555Z" stroke="var(--stroke-0, #7F5AF0)" stroke-width="1.6" stroke-linecap="round"/>
<path id="Vector_4" opacity="0.28" d="M74.0457 35.1555C78.1785 27.4802 91.1675 18.6241 100.614 20.9857C110.061 23.9377 111.241 36.3363 104.156 42.2404C97.0716 48.1444 84.0826 45.7828 74.0457 35.1555Z" stroke="var(--stroke-0, #E53170)" stroke-width="1.6" stroke-linecap="round"/>
<path id="Vector_5" opacity="0.45" d="M13.2337 36.0402C14.3749 36.0402 15.3001 35.115 15.3001 33.9737C15.3001 32.8325 14.3749 31.9073 13.2337 31.9073C12.0924 31.9073 11.1672 32.8325 11.1672 33.9737C11.1672 35.115 12.0924 36.0402 13.2337 36.0402Z" fill="var(--fill-0, #7F5AF0)"/>
<path id="Vector_6" opacity="0.45" d="M119.507 36.0402C120.648 36.0402 121.573 35.115 121.573 33.9737C121.573 32.8325 120.648 31.9073 119.507 31.9073C118.366 31.9073 117.441 32.8325 117.441 33.9737C117.441 35.115 118.366 36.0402 119.507 36.0402Z" fill="var(--fill-0, #E53170)"/>
<path id="Vector_7" opacity="0.92" d="M66.3704 38.9922C68.8159 38.9922 70.7984 37.0097 70.7984 34.5642C70.7984 32.1186 68.8159 30.1361 66.3704 30.1361C63.9248 30.1361 61.9423 32.1186 61.9423 34.5642C61.9423 37.0097 63.9248 38.9922 66.3704 38.9922Z" fill="var(--fill-0, #FFFFFE)"/>
<path id="Vector_8" d="M66.3704 36.9271C67.6746 36.9271 68.732 35.8698 68.732 34.5655C68.732 33.2612 67.6746 32.2038 66.3704 32.2038C65.0661 32.2038 64.0087 33.2612 64.0087 34.5655C64.0087 35.8698 65.0661 36.9271 66.3704 36.9271Z" fill="var(--fill-0, #FFFFFE)"/>
<g id="Group_2">
<path id="Vector_9" opacity="0.85" d="M113.404 11.4357C113.404 11.4357 107.102 7.34294 106.611 5.03291C106.12 2.72289 108.061 0.499359 111.44 2.19562C113.836 -0.728167 116.515 0.51334 117.006 2.82336C117.497 5.13339 113.404 11.4357 113.404 11.4357Z" fill="var(--fill-0, #E53170)"/>
</g>
</g>
<defs>
<linearGradient id="paint0_linear_0_56" x1="2.74995" y1="6.33446" x2="12726.8" y2="6.33446" gradientUnits="userSpaceOnUse">
<stop stop-color="#7F5AF0" stop-opacity="0.1"/>
<stop offset="1" stop-color="#E53170" stop-opacity="0.1"/>
</linearGradient>
<linearGradient id="paint1_linear_0_56" x1="2.75005" y1="1347.97" x2="6614.98" y2="9186.74" gradientUnits="userSpaceOnUse">
<stop stop-color="#7F5AF0"/>
<stop offset="0.4" stop-color="#C850C0"/>
<stop offset="1" stop-color="#E53170"/>
</linearGradient>
</defs>
</svg>
