<svg preserveAspectRatio="none" width="100%" height="100%" overflow="visible" style="display: block;" viewBox="0 0 60 40.0002" fill="none" xmlns="http://www.w3.org/2000/svg">
<g id="Group">
<path id="Vector" d="M51.25 0H8.75C3.925 0 0 3.925 0 8.74999V31.25C0.00498069 32.5217 0.288717 33.7769 0.831228 34.9271C1.37374 36.0774 2.16183 37.0947 3.14 37.9075L56.86 2.0925C55.2978 0.750927 53.3092 0.00916438 51.25 0Z" fill="var(--fill-0, #00BCDF)"/>
<path id="Vector_2" d="M56.86 2.09277L3.14 37.9077C4.70217 39.2493 6.69084 39.9911 8.75 40.0002H51.25C56.075 40.0002 60 36.0752 60 31.2502V8.75027C59.995 7.47852 59.7113 6.22332 59.1688 5.07308C58.6263 3.92284 57.8382 2.90552 56.86 2.09277Z" fill="var(--fill-0, #1A73BA)"/>
<g id="Group_2">
<path id="Vector_3" d="M31.5951 12.5495C31.3343 12.4744 31.0561 12.4863 30.8027 12.5832C30.5492 12.6802 30.3342 12.857 30.1901 13.087L25.0001 21.392L19.8101 13.087C19.6673 12.855 19.4526 12.6761 19.1986 12.5776C18.9447 12.4791 18.6655 12.4664 18.4036 12.5415C18.1418 12.6166 17.9117 12.7753 17.7486 12.9935C17.5854 13.2116 17.4981 13.4771 17.5001 13.7495V24.9995L16.2451 13.6245C16.2135 13.3162 16.0688 13.0305 15.8388 12.8227C15.6088 12.6149 15.31 12.4997 15.0001 12.4995H12.5001C12.2681 12.4995 12.0408 12.564 11.8434 12.6859C11.646 12.8078 11.4865 12.9821 11.3826 13.1895L5.13257 25.6895C4.98405 25.9862 4.95948 26.3297 5.06427 26.6446C5.16905 26.9594 5.39461 27.2197 5.69132 27.3682C5.98803 27.5167 6.33159 27.5413 6.64642 27.4365C6.96124 27.3317 7.22155 27.1062 7.37007 26.8095L9.52257 22.4995H14.6176L15.0051 26.3745C15.0701 27.012 15.6076 27.4995 16.2501 27.4995H18.7501C19.0816 27.4995 19.3995 27.3678 19.634 27.1334C19.8684 26.8989 20.0001 26.581 20.0001 26.2495V18.107L23.9401 24.412C24.3976 25.142 25.6026 25.142 26.0601 24.412L30.0001 18.107V26.2495C30.0001 26.581 30.1318 26.8989 30.3662 27.1334C30.6006 27.3678 30.9186 27.4995 31.2501 27.4995C31.5816 27.4995 31.8995 27.3678 32.134 27.1334C32.3684 26.8989 32.5001 26.581 32.5001 26.2495V13.7495C32.4998 13.4784 32.4113 13.2147 32.2481 12.9983C32.0848 12.7818 31.8556 12.6243 31.5951 12.5495ZM10.7726 19.9995L13.2726 14.9995H13.8676L14.3676 19.9995H10.7726ZM50.3501 19.9995L54.7251 14.5295C54.9098 14.2688 54.988 13.9473 54.9435 13.6309C54.899 13.3145 54.7352 13.027 54.4858 12.8274C54.2363 12.6277 53.9199 12.531 53.6014 12.5569C53.283 12.5829 52.9864 12.7296 52.7726 12.967L48.7501 17.9995L44.7276 12.9695C44.6102 12.823 44.4614 12.7048 44.2922 12.6234C44.123 12.5421 43.9378 12.4997 43.7501 12.4995H36.2501C35.9186 12.4995 35.6006 12.6312 35.3662 12.8656C35.1318 13.1 35.0001 13.418 35.0001 13.7495V26.2495C35.0001 26.581 35.1318 26.8989 35.3662 27.1334C35.6006 27.3678 35.9186 27.4995 36.2501 27.4995H43.7501C43.9378 27.4992 44.123 27.4569 44.2922 27.3755C44.4614 27.2942 44.6102 27.1759 44.7276 27.0295L48.7501 21.9995L52.7726 27.0295C52.8733 27.1625 52.9997 27.274 53.1442 27.3573C53.2888 27.4407 53.4485 27.4943 53.6141 27.515C53.7797 27.5357 53.9477 27.523 54.1083 27.4777C54.2689 27.4324 54.4188 27.3554 54.5492 27.2512C54.6795 27.147 54.7877 27.0178 54.8674 26.8712C54.947 26.7246 54.9965 26.5635 55.0129 26.3974C55.0293 26.2314 55.0122 26.0637 54.9628 25.9043C54.9134 25.745 54.8326 25.5971 54.7251 25.4695L50.3501 19.9995ZM43.1501 24.9995H37.5001V19.9995H40.0001C40.3316 19.9995 40.6495 19.8678 40.884 19.6334C41.1184 19.399 41.2501 19.081 41.2501 18.7495C41.2501 18.418 41.1184 18.1 40.884 17.8656C40.6495 17.6312 40.3316 17.4995 40.0001 17.4995H37.5001V14.9995H43.1501L47.1501 19.9995L43.1501 24.9995Z" fill="var(--fill-0, #E2DED2)"/>
</g>
<path id="Vector_4" d="M51.25 0H8.75C3.925 0 0 3.92499 0 8.74999V31.25C0 36.075 3.925 39.9999 8.75 39.9999H51.25C56.075 39.9999 60 36.075 60 31.25V8.74999C60 3.92499 56.075 0 51.25 0Z" fill="url(#paint0_radial_0_26)" fill-opacity="0.08"/>
</g>
<defs>
<radialGradient id="paint0_radial_0_26" cx="0" cy="0" r="1" gradientUnits="userSpaceOnUse" gradientTransform="translate(8.78 5.13999) scale(49.8375 49.8374)">
<stop stop-color="white"/>
<stop offset="1" stop-color="white" stop-opacity="0"/>
</radialGradient>
</defs>
</svg>
