<svg width="58" height="40" viewBox="0 0 58 40" fill="none" xmlns="http://www.w3.org/2000/svg">
<mask id="mask0_4057_33051" style="mask-type:alpha" maskUnits="userSpaceOnUse" x="0" y="0" width="58" height="40">
<rect width="58" height="40" rx="8" fill="#D9D9D9"/>
</mask>
<g mask="url(#mask0_4057_33051)">
<path d="M58 5.00003V35C58 37.7613 55.742 40 52.9565 40H5.04351C2.25803 40 0 37.7613 0 35V5.00003C0 2.23868 2.25803 0 5.04351 0H52.9566C55.7419 0 58 2.23868 58 5.00003Z" fill="#FE7D49"/>
<path d="M50 11.25C54.4183 11.25 58 14.8317 58 19.25V35C58 37.7613 55.742 40 52.9565 40H5.04351C2.25803 40 0 37.7613 0 35V19.25C0 14.8317 3.58172 11.25 8 11.25H50Z" fill="#FE5A3A"/>
<path d="M17.5654 16.2499H7.65251C6.90814 16.2499 6.30469 15.6517 6.30469 14.9137V7.5862C6.30469 6.84825 6.90814 6.25 7.65251 6.25H17.5653C18.3097 6.25 18.9131 6.84825 18.9131 7.5862V14.9135C18.9133 15.6517 18.3098 16.2499 17.5654 16.2499Z" fill="#FED76E"/>
<path d="M15.2496 11.25C17.273 11.25 18.9133 12.8903 18.9133 14.9137C18.9133 15.6517 18.3099 16.2499 17.5655 16.2499H7.65251C6.90814 16.2499 6.30469 15.6517 6.30469 14.9137C6.30469 12.8903 7.94499 11.25 9.9684 11.25H15.2496Z" fill="#FEAF50"/>
<path d="M14.8151 30C14.8151 30.2487 14.7155 30.4871 14.5381 30.6629C14.3608 30.8387 14.1203 30.9375 13.8695 30.9375H6.30419C6.05592 30.9337 5.81912 30.8333 5.64491 30.6579C5.47069 30.4825 5.37305 30.2462 5.37305 30C5.37305 29.7539 5.47069 29.5176 5.64491 29.3422C5.81912 29.1668 6.05592 29.0663 6.30419 29.0625H13.8695C14.1202 29.0626 14.3607 29.1614 14.5381 29.3372C14.7154 29.513 14.8151 29.7514 14.8151 30ZM26.4781 29.0626H18.9129C18.6646 29.0664 18.4278 29.1669 18.2536 29.3423C18.0794 29.5177 17.9817 29.754 17.9817 30.0001C17.9817 30.2463 18.0794 30.4826 18.2536 30.658C18.4278 30.8334 18.6646 30.9338 18.9129 30.9376H26.4781C26.7264 30.9338 26.9632 30.8334 27.1374 30.658C27.3116 30.4826 27.4093 30.2463 27.4093 30.0001C27.4093 29.754 27.3116 29.5177 27.1374 29.3423C26.9632 29.1669 26.7264 29.0664 26.4781 29.0626ZM39.0868 29.0626H31.5215C31.2732 29.0664 31.0364 29.1669 30.8622 29.3423C30.688 29.5177 30.5904 29.754 30.5904 30.0001C30.5904 30.2463 30.688 30.4826 30.8622 30.658C31.0364 30.8334 31.2732 30.9338 31.5215 30.9376H39.0868C39.335 30.9338 39.5718 30.8334 39.7461 30.658C39.9203 30.4826 40.0179 30.2463 40.0179 30.0001C40.0179 29.754 39.9203 29.5177 39.7461 29.3423C39.5718 29.1669 39.335 29.0664 39.0868 29.0626ZM51.6955 29.0626H44.1303C43.882 29.0664 43.6452 29.1669 43.471 29.3423C43.2968 29.5177 43.1991 29.754 43.1991 30.0001C43.1991 30.2463 43.2968 30.4826 43.471 30.658C43.6452 30.8334 43.882 30.9338 44.1303 30.9376H51.6955C51.9438 30.9338 52.1806 30.8334 52.3548 30.658C52.529 30.4826 52.6267 30.2463 52.6267 30.0001C52.6267 29.754 52.529 29.5177 52.3548 29.3423C52.1806 29.1669 51.9438 29.0664 51.6955 29.0626Z" fill="#A62C18"/>
<path d="M13.2396 13.1251H11.9787C10.9343 13.1251 10.0874 12.2856 10.0874 11.25C10.0874 10.2146 10.9342 9.375 11.9787 9.375H13.2396C14.284 9.375 15.1309 10.2145 15.1309 11.25C15.1308 12.2855 14.284 13.1251 13.2396 13.1251Z" fill="#FEE66B"/>
<path d="M45.2021 11.2511C45.2021 11.4997 45.1024 11.7382 44.9251 11.914C44.7478 12.0898 44.5072 12.1886 44.2564 12.1886H44.1304C43.8821 12.1848 43.6453 12.0843 43.4711 11.9089C43.2969 11.7335 43.1992 11.4973 43.1992 11.2511C43.1992 11.0049 43.2969 10.7686 43.4711 10.5932C43.6453 10.4178 43.8821 10.3174 44.1304 10.3136H44.2564C44.5072 10.3136 44.7478 10.4124 44.9251 10.5882C45.1024 10.764 45.2021 11.0025 45.2021 11.2511ZM47.2523 8.27703C47.0354 8.15498 46.7787 8.1228 46.5379 8.18749C46.2972 8.25218 46.092 8.40851 45.967 8.62245C45.842 8.83639 45.8073 9.09062 45.8704 9.32981C45.9336 9.56901 46.0894 9.7738 46.3041 9.89961C46.7909 10.1793 47.0935 10.6971 47.0935 11.2512C47.0935 11.8053 46.7911 12.3231 46.3041 12.6028C46.1241 12.7063 45.9835 12.8657 45.9041 13.0565C45.8247 13.2472 45.811 13.4586 45.8651 13.6578C45.9192 13.8571 46.0381 14.033 46.2033 14.1585C46.3685 14.284 46.5709 14.3519 46.779 14.3518C46.9399 14.3518 47.1029 14.3111 47.2522 14.2254C48.3208 13.6116 48.9846 12.472 48.9846 11.2513C48.9846 10.0307 48.3209 8.89078 47.2523 8.27703ZM49.7736 6.11034C49.5565 5.98588 49.2984 5.95198 49.0562 6.01609C48.8139 6.08019 48.6072 6.23706 48.4815 6.4522C48.4193 6.55875 48.3788 6.6764 48.3625 6.79845C48.3462 6.92049 48.3542 7.04454 48.3862 7.16349C48.4183 7.28244 48.4736 7.39398 48.5491 7.49172C48.6246 7.58946 48.7188 7.6715 48.8263 7.73314C50.0908 8.45841 50.8762 9.8064 50.8762 11.251C50.8762 12.6955 50.0908 14.0437 48.8264 14.769C48.719 14.8307 48.6248 14.9127 48.5493 15.0105C48.4738 15.1082 48.4184 15.2197 48.3864 15.3387C48.3544 15.4576 48.3463 15.5817 48.3626 15.7037C48.379 15.8258 48.4194 15.9434 48.4816 16.05C48.5438 16.1566 48.6265 16.25 48.7251 16.325C48.8237 16.3999 48.9362 16.4548 49.0562 16.4865C49.1762 16.5183 49.3014 16.5262 49.4245 16.51C49.5477 16.4937 49.6663 16.4536 49.7738 16.3918C51.6204 15.3324 52.7675 13.3626 52.7675 11.251C52.7675 9.13931 51.6202 7.16971 49.7736 6.11034Z" fill="#D4E8FF"/>
</g>
</svg>
