<svg preserveAspectRatio="none" width="100%" height="100%" overflow="visible" style="display: block;" viewBox="0 0 38.6665 38.6655" fill="none" xmlns="http://www.w3.org/2000/svg">
<g id="Group">
<path id="Vector" d="M31.9999 24.6661H33.9999C34.3532 24.6671 34.6918 24.808 34.9416 25.0578C35.1914 25.3076 35.3322 25.6461 35.3333 25.9994V33.9994C35.3322 34.3527 35.1914 34.6912 34.9416 34.9411C34.6918 35.1909 34.3532 35.3317 33.9999 35.3327H11.3333V37.1661C11.3299 37.4557 11.2436 37.7383 11.0847 37.9805C10.9259 38.2226 10.701 38.4143 10.4367 38.5327C10.1724 38.6512 9.87975 38.6916 9.59325 38.6491C9.30676 38.6065 9.03842 38.4829 8.81994 38.2927L0.51994 31.1261C0.356928 30.9871 0.226021 30.8144 0.136254 30.6198C0.0464877 30.4253 0 30.2136 0 29.9994C0 29.7852 0.0464877 29.5735 0.136254 29.379C0.226021 29.1845 0.356928 29.0118 0.51994 28.8728L6.66661 23.5687L31.9999 24.6661ZM31.9999 15.0968L38.1466 9.79275C38.3096 9.65375 38.4405 9.48103 38.5303 9.28651C38.6201 9.09199 38.6665 8.88031 38.6665 8.66608C38.6665 8.45185 38.6201 8.24017 38.5303 8.04566C38.4405 7.85114 38.3096 7.67842 38.1466 7.53942L29.8466 0.37275C29.6281 0.18261 29.3598 0.058974 29.0733 0.0164466C28.7868 -0.0260808 28.4941 0.0142772 28.2298 0.132753C27.9655 0.251229 27.7407 0.442874 27.5818 0.685047C27.4229 0.92722 27.3367 1.2098 27.3333 1.49942V3.33275H4.66661C4.31331 3.3338 3.97478 3.47462 3.72496 3.72444C3.47514 3.97426 3.33433 4.31279 3.33327 4.66608V12.6661C3.33433 13.0194 3.47514 13.3579 3.72496 13.6077C3.97478 13.8575 4.31331 13.9984 4.66661 13.9994H6.66661L31.9999 15.0968Z" fill="var(--fill-0, #89D461)"/>
<path id="Vector_2" d="M29.3333 6.66608H9.33327C7.86051 6.66608 6.66661 7.85999 6.66661 9.33275V29.3328C6.66661 30.8055 7.86051 31.9994 9.33327 31.9994H29.3333C30.806 31.9994 31.9999 30.8055 31.9999 29.3328V9.33275C31.9999 7.85999 30.806 6.66608 29.3333 6.66608Z" fill="var(--fill-0, #30649D)"/>
<g id="Group_2">
<path id="Vector_3" d="M11.9999 17.9994H14.6666V26.6661H11.9999V17.9994ZM17.9999 17.9994H20.6666V26.6661H17.9999V17.9994ZM23.9999 17.9994H26.6666V26.6661H23.9999V17.9994Z" fill="var(--fill-0, #C0DADC)"/>
</g>
<path id="Vector_4" d="M27.3333 14.6661V17.9994C27.3333 18.1762 27.263 18.3458 27.138 18.4708C27.013 18.5958 26.8434 18.6661 26.6666 18.6661H11.9999C11.8231 18.6661 11.6536 18.5958 11.5285 18.4708C11.4035 18.3458 11.3333 18.1762 11.3333 17.9994V14.6661H27.3333ZM11.9999 25.9994H26.6666C27.0202 25.9994 27.3594 26.1399 27.6094 26.3899C27.8595 26.64 27.9999 26.9791 27.9999 27.3328V27.9994C27.9999 28.1762 27.9297 28.3458 27.8047 28.4708C27.6797 28.5958 27.5101 28.6661 27.3333 28.6661H11.3333C11.1565 28.6661 10.9869 28.5958 10.8619 28.4708C10.7368 28.3458 10.6666 28.1762 10.6666 27.9994V27.3328C10.6666 26.9791 10.8071 26.64 11.0571 26.3899C11.3072 26.1399 11.6463 25.9994 11.9999 25.9994Z" fill="var(--fill-0, #86A9AF)"/>
<path id="Vector_5" d="M19.0713 10.0661L10.2713 14.9994C10.1675 15.0568 10.0859 15.1471 10.0392 15.2561C9.9925 15.3651 9.98348 15.4866 10.0135 15.6013C10.0436 15.716 10.111 15.8174 10.2051 15.8895C10.2992 15.9616 10.4147 16.0003 10.5333 15.9994H28.1333C28.2519 16.0004 28.3675 15.9618 28.4617 15.8898C28.5559 15.8177 28.6235 15.7163 28.6536 15.6016C28.6837 15.4869 28.6748 15.3654 28.6281 15.2563C28.5814 15.1472 28.4997 15.0568 28.3959 14.9994L19.5959 10.0661C19.5159 10.0209 19.4255 9.9971 19.3336 9.9971C19.2417 9.9971 19.1513 10.0209 19.0713 10.0661Z" fill="var(--fill-0, #C0DADC)"/>
</g>
</svg>
