<svg width="22" height="22" viewBox="0 0 22 22" fill="none" xmlns="http://www.w3.org/2000/svg">
<path d="M10.999 6.25195C11.0296 6.25195 11.0533 6.25952 11.0664 6.2666C11.0716 6.2694 11.0743 6.27159 11.0752 6.27246L11.0762 6.27344L12.3174 8.78809L12.4336 9.02441L12.6943 9.06152L15.4697 9.46582C15.4854 9.46818 15.5005 9.47416 15.5127 9.48438L15.5391 9.52441C15.5438 9.53945 15.5448 9.55596 15.541 9.57129C15.5372 9.58652 15.5287 9.60028 15.5176 9.61133L13.5078 11.5693L13.3203 11.7529L13.3643 12.0127L13.8389 14.7764C13.8416 14.792 13.8399 14.8085 13.834 14.8232C13.828 14.838 13.8176 14.851 13.8047 14.8604L13.8027 14.8623C13.7792 14.8796 13.7448 14.8825 13.7158 14.8672H13.7148L11.2314 13.5625L10.999 13.4404L10.7666 13.5625L8.28418 14.8672L8.28223 14.8682C8.26914 14.8751 8.2537 14.878 8.23828 14.877L8.19336 14.8604C8.18045 14.851 8.17008 14.838 8.16406 14.8232C8.15812 14.8085 8.15649 14.792 8.15918 14.7764L8.63281 12.0117L8.67773 11.7529L8.48926 11.5693L6.48047 9.61133C6.46926 9.60014 6.4618 9.5857 6.45801 9.57031C6.4543 9.55512 6.45439 9.53935 6.45898 9.52441C6.46398 9.50911 6.47304 9.49474 6.48535 9.48438C6.49753 9.47417 6.51261 9.46818 6.52832 9.46582H6.5293L9.30371 9.06152L9.56445 9.02441L9.68066 8.78809L10.9219 6.27344L10.9229 6.27246C10.9237 6.27164 10.9264 6.26946 10.9316 6.2666C10.9447 6.25951 10.9684 6.25196 10.999 6.25195Z" stroke="#000000"/>
<path d="M11 1.5C16.2251 1.5 20.5 5.77482 20.5 11C20.5 16.2251 16.2251 20.5 11 20.5C5.77489 20.5 1.5 16.2251 1.5 11C1.5 5.77482 5.77489 1.5 11 1.5ZM11 2.88281C6.52386 2.88281 2.88281 6.52386 2.88281 11C2.88281 15.4761 6.52386 19.1172 11 19.1172C15.4761 19.1172 19.1172 15.4761 19.1172 11C19.1172 6.52386 15.4761 2.88281 11 2.88281Z" stroke="#000000"/>
</svg>
