<svg width="26" height="24" viewBox="0 0 26 24" fill="none" xmlns="http://www.w3.org/2000/svg">
<path d="M18.3254 9.39007L15.7332 4.65864H18.0259L23.4034 9.39007H18.3254ZM7.92049 4.65864H5.6283L0.255874 9.39007H5.33296L7.92049 4.65864ZM17.2035 9.39007L14.6113 4.65864H9.04244L6.45444 9.39007H17.2035ZM6.34624 10.3697L11.7925 24L17.3024 10.3697H6.34624ZM0 10.3697L10.2131 22.6875L5.28838 10.3697H0ZM18.3649 10.3697L13.4452 22.5303L23.6486 10.3693L18.3649 10.3697ZM1.63323 2.34517H2.49837V3.20648C2.49837 3.33645 2.55023 3.4611 2.64255 3.55301C2.73486 3.64491 2.86007 3.69654 2.99062 3.69654C3.12117 3.69654 3.24637 3.64491 3.33869 3.55301C3.431 3.4611 3.48286 3.33645 3.48286 3.20648V2.34517H4.34708C4.47495 2.34126 4.59627 2.28793 4.68533 2.1965C4.77439 2.10506 4.8242 1.9827 4.8242 1.85533C4.8242 1.72797 4.77439 1.6056 4.68533 1.51417C4.59627 1.42273 4.47495 1.36941 4.34708 1.3655H3.48286V0.505115C3.48489 0.439523 3.47366 0.374194 3.44984 0.313004C3.42603 0.251814 3.39011 0.196009 3.34422 0.148899C3.29834 0.101789 3.24341 0.0643349 3.18271 0.0387573C3.12201 0.0131797 3.05676 0 2.99085 0C2.92493 0 2.85969 0.0131797 2.79899 0.0387573C2.73829 0.0643349 2.68336 0.101789 2.63748 0.148899C2.59159 0.196009 2.55567 0.251814 2.53186 0.313004C2.50804 0.374194 2.49681 0.439523 2.49884 0.505115V1.36596H1.63369C1.50582 1.36988 1.3845 1.4232 1.29544 1.51463C1.20638 1.60607 1.15657 1.72843 1.15657 1.8558C1.15657 1.98316 1.20638 2.10553 1.29544 2.19696C1.3845 2.2884 1.50582 2.34172 1.63369 2.34563L1.63323 2.34517ZM25.5229 15.2135H24.6582V14.3527C24.6543 14.2254 24.6007 14.1046 24.5089 14.0159C24.417 13.9272 24.2941 13.8777 24.1662 13.8777C24.0382 13.8777 23.9153 13.9272 23.8235 14.0159C23.7317 14.1046 23.6781 14.2254 23.6742 14.3527V15.2135H22.809C22.7431 15.2115 22.6775 15.2227 22.6161 15.2464C22.5546 15.2701 22.4985 15.3059 22.4512 15.3515C22.4039 15.3972 22.3663 15.4519 22.3406 15.5123C22.3149 15.5728 22.3017 15.6377 22.3017 15.7034C22.3017 15.769 22.3149 15.8339 22.3406 15.8944C22.3663 15.9548 22.4039 16.0095 22.4512 16.0552C22.4985 16.1008 22.5546 16.1366 22.6161 16.1603C22.6775 16.184 22.7431 16.1952 22.809 16.1932H23.6742V17.054C23.6721 17.1196 23.6834 17.185 23.7072 17.2461C23.731 17.3073 23.7669 17.3631 23.8128 17.4102C23.8587 17.4574 23.9136 17.4948 23.9743 17.5204C24.035 17.546 24.1003 17.5591 24.1662 17.5591C24.2321 17.5591 24.2973 17.546 24.358 17.5204C24.4187 17.4948 24.4737 17.4574 24.5196 17.4102C24.5654 17.3631 24.6014 17.3073 24.6252 17.2461C24.649 17.185 24.6602 17.1196 24.6582 17.054V16.1932H25.5229C25.6507 16.1893 25.7721 16.136 25.8611 16.0445C25.9502 15.9531 26 15.8307 26 15.7034C26 15.576 25.9502 15.4536 25.8611 15.3622C25.7721 15.2708 25.6507 15.2174 25.5229 15.2135Z" fill="white"/>
</svg>
