<svg width="53" height="60" viewBox="0 0 53 60" fill="none" xmlns="http://www.w3.org/2000/svg">
<path d="M31.0904 38.9996C30.6826 39.5755 30.4977 40.2774 30.5776 40.9794C30.6574 41.6814 30.9937 42.3245 31.5233 42.7911C32.57 43.7201 34.1295 43.7537 35.2014 42.8878L35.3022 42.7995C35.794 42.3623 36.1219 41.7654 36.2228 41.1139L36.2396 40.9836C36.3153 40.2816 36.1303 39.5797 35.7184 39.008L33.3939 35.145L31.0862 38.9996H31.0904ZM20.0479 7.70072V24.2749C21.7251 21.7991 24.4153 20.4119 27.7739 20.4119C32.6078 20.7818 35.3527 24.5944 35.3527 28.3607V29.7604C35.3527 31.6352 35.8823 33.472 36.8785 35.061L38.2152 37.1963C39.0265 38.3564 39.3922 39.7772 39.2367 41.1854C39.0769 42.623 38.3918 43.9555 37.3115 44.918C35.0921 46.8853 31.7545 46.8684 29.5477 44.9138C28.4632 43.9554 27.7739 42.6314 27.6057 41.1938C27.446 39.7814 27.8033 38.3607 28.6103 37.1921L29.9597 35.2585C31.1282 33.5855 31.7503 31.5931 31.7503 29.5502V29.4914C31.7503 25.6705 30.0563 24.2623 26.6053 23.8924C22.6583 23.8924 20.0563 26.4523 20.0563 30.3153V42.3203H16.4456V9.77301L3.76796 17.066L3.73013 42.8625L26.0546 55.7966L48.4212 42.9298L48.4548 17.1375L26.1303 4.20345L20.0563 7.69651L20.0479 7.70072ZM27.9462 1.05507L50.2707 13.9891L52.0866 15.0441V17.1459L52.0488 42.9382V45.0399L50.2245 46.0866L27.8579 58.9533L26.0378 60L24.2219 58.9449L1.89744 46.0109L0.081543 44.9559V42.8541L0.12358 17.0576V14.9559L1.94787 13.9092L24.3102 1.04665L26.1303 0L27.9504 1.05507H27.9462Z" fill="#F5C663"/>
</svg>
