<svg xmlns="http://www.w3.org/2000/svg" width="242" height="60" viewBox="0 0 242 60" fill="none">
	<path d="M231.828 26.486C229.117 26.486 226.952 28.1715 226.293 30.7735H237.436C236.814 28.2094 234.615 26.486 231.828 26.486ZM231.938 42.354C226.145 42.354 221.858 38.1379 221.858 32.5683C221.858 26.9988 226.145 22.7827 231.828 22.7827C237.512 22.7827 241.837 26.9988 241.837 32.6062C241.837 33.119 241.799 33.6696 241.728 34.1446H226.259C226.881 36.8559 229.079 38.6507 232.013 38.6507C234.178 38.6507 236.045 37.6965 236.999 36.2674H241.543C240.038 39.8949 236.377 42.354 231.942 42.354" fill="#B99B6A"/>
	<path d="M210.534 41.9125L202.581 23.224H207.272L212.732 36.8558L218.155 23.224H222.737L214.821 41.9125H210.534Z" fill="#B99B6A"/>
	<path d="M193.493 38.3985C196.793 38.3985 199.247 35.868 199.247 32.5725C199.247 29.277 196.793 26.7466 193.493 26.7466C190.193 26.7466 187.701 29.277 187.701 32.5725C187.701 35.868 190.193 38.3985 193.493 38.3985ZM193.493 42.354C187.776 42.354 183.489 38.1379 183.489 32.5683C183.489 26.9988 187.776 22.7827 193.493 22.7827C199.21 22.7827 203.497 26.9988 203.497 32.5683C203.497 38.1379 199.172 42.354 193.493 42.354Z" fill="#B99B6A"/>
	<path d="M181.143 15.5233H177.037V41.9126H181.143V15.5233Z" fill="#B99B6A"/>
	<path d="M153.115 48.8776L156.154 41.7696L148.276 23.224H152.967L158.428 36.8558L163.854 23.224H168.432L157.549 48.8776H153.115Z" fill="#B99B6A"/>
	<path d="M139.294 26.486C136.583 26.486 134.418 28.1715 133.758 30.7735H144.901C144.279 28.2094 142.081 26.486 139.294 26.486ZM139.407 42.354C133.615 42.354 129.328 38.1379 129.328 32.5683C129.328 26.9988 133.615 22.7827 139.298 22.7827C144.981 22.7827 149.302 26.9988 149.302 32.6062C149.302 33.119 149.265 33.6696 149.193 34.1446H133.724C134.347 36.8559 136.545 38.6507 139.479 38.6507C141.644 38.6507 143.51 37.6965 144.464 36.2674H149.008C147.503 39.8949 143.842 42.354 139.407 42.354Z" fill="#B99B6A"/>
	<path d="M109.344 41.9168V23.224H113.451V25.6074C114.955 23.7747 117.116 22.7869 119.756 22.7869C124.19 22.7869 127.158 25.7209 127.158 30.1555V41.921H123.051V31.5132C123.051 28.6549 121.219 26.7465 118.398 26.7465C115.43 26.7465 113.451 28.6885 113.451 31.5847V41.921H109.344V41.9168Z" fill="#B99B6A"/>
	<path d="M97.0955 38.3985C100.395 38.3985 102.85 35.868 102.85 32.5725C102.85 29.277 100.395 26.7466 97.0955 26.7466C93.7958 26.7466 91.3031 29.277 91.3031 32.5725C91.3031 35.868 93.7958 38.3985 97.0955 38.3985ZM97.0955 42.354C91.3788 42.354 87.0913 38.1379 87.0913 32.5683C87.0913 26.9988 91.3788 22.7827 97.0955 22.7827C102.812 22.7827 107.1 26.9988 107.1 32.5683C107.1 38.1379 102.774 42.354 97.0955 42.354Z" fill="#B99B6A"/>
	<path d="M67.1079 41.9126V15.5233H71.2147V25.7125C72.7195 23.8083 74.8801 22.7785 77.5199 22.7785C81.9545 22.7785 84.9221 25.7125 84.9221 30.1471V41.9126H80.8153V31.5048C80.8153 28.6465 78.9827 26.7381 76.1622 26.7381C73.1945 26.7381 71.2147 28.6801 71.2147 31.5763V41.9126H67.1079Z" fill="#B99B6A"/>
	<path d="M31.0088 38.9996C30.6011 39.5755 30.4162 40.2774 30.496 40.9794C30.5759 41.6814 30.9122 42.3245 31.4418 42.7911C32.4885 43.7201 34.0479 43.7537 35.1198 42.8878L35.2207 42.7995C35.7125 42.3623 36.0404 41.7654 36.1412 41.1139L36.1581 40.9836C36.2337 40.2816 36.0488 39.5797 35.6368 39.008L33.3123 35.145L31.0046 38.9996H31.0088ZM19.9664 7.70072V24.2749C21.6436 21.7991 24.3338 20.4119 27.6923 20.4119C32.5263 20.7818 35.2711 24.5944 35.2711 28.3607V29.7604C35.2711 31.6352 35.8008 33.472 36.797 35.061L38.1337 37.1963C38.9449 38.3564 39.3106 39.7772 39.1551 41.1854C38.9954 42.623 38.3102 43.9555 37.2299 44.918C35.0105 46.8853 31.673 46.8684 29.4662 44.9138C28.3817 43.9554 27.6923 42.6314 27.5242 41.1938C27.3644 39.7814 27.7217 38.3607 28.5288 37.1921L29.8781 35.2585C31.0467 33.5855 31.6688 31.5931 31.6688 29.5502V29.4914C31.6688 25.6705 29.9748 24.2623 26.5238 23.8924C22.5767 23.8924 19.9748 26.4523 19.9748 30.3153V42.3203H16.364V9.77301L3.68642 17.066L3.64859 42.8625L25.9731 55.7966L48.3396 42.9298L48.3733 17.1375L26.0488 4.20345L19.9748 7.69651L19.9664 7.70072ZM27.8647 1.05507L50.1892 13.9891L52.0051 15.0441V17.1459L51.9672 42.9382V45.0399L50.1429 46.0866L27.7764 58.9533L25.9563 60L24.1404 58.9449L1.81589 46.0109L0 44.9559V42.8541L0.042037 17.0576V14.9559L1.86633 13.9092L24.2287 1.04665L26.0488 0L27.8689 1.05507H27.8647Z" fill="#F5C663"/>
</svg>
