<svg preserveAspectRatio="none" width="100%" height="100%" overflow="visible" style="display: block;" viewBox="0 0 19.7856 22.8" fill="none" xmlns="http://www.w3.org/2000/svg">
<g id="Group">
<path id="Vector" d="M16.9579 12.6888C10.721 13.7146 9.61224 15.0175 8.78064 22.6128C8.7528 22.8624 8.39232 22.8624 8.36472 22.6128C7.53312 15.0175 6.42432 13.7424 0.1872 12.6888C-0.0624 12.6612 -0.0624 12.301 0.1872 12.2731C6.42432 11.2476 7.53312 9.97248 8.36472 2.37696C8.39232 2.12736 8.7528 2.12736 8.78064 2.37696C9.612 9.97248 10.7208 11.22 16.9579 12.2731C17.1797 12.301 17.1797 12.6334 16.9579 12.6888ZM19.6193 3.92928C17.6784 4.3176 17.124 4.95504 16.7916 7.22808C16.764 7.47768 16.4035 7.47768 16.3759 7.22808C16.0433 4.95504 15.4889 4.31736 13.5485 3.90168C13.5012 3.89109 13.459 3.86472 13.4287 3.82692C13.3985 3.78912 13.382 3.74214 13.382 3.69372C13.382 3.6453 13.3985 3.59832 13.4287 3.56052C13.459 3.52272 13.5012 3.49635 13.5485 3.48576C15.4613 3.09768 16.0433 2.46024 16.3757 0.1872C16.4035 -0.0624 16.764 -0.0624 16.7916 0.1872C17.1242 2.46 17.6786 3.09768 19.6193 3.5136C19.841 3.5688 19.841 3.90168 19.6193 3.92928Z" fill="var(--fill-0, white)"/>
</g>
</svg>
