<svg preserveAspectRatio="none" width="100%" height="100%" overflow="visible" style="display: block;" viewBox="0 0 13.3333 13.3333" fill="none" xmlns="http://www.w3.org/2000/svg">
<g id="Group 48">
<path id="Subtract" fill-rule="evenodd" clip-rule="evenodd" d="M6.66667 0C2.98477 0 0 2.98477 0 6.66667V13.3333H6.66667C10.3486 13.3333 13.3333 10.3486 13.3333 6.66667C13.3333 2.98477 10.3486 0 6.66667 0ZM3.63669 7.80296C4.26424 7.80296 4.77297 7.29423 4.77297 6.66668C4.77297 6.03913 4.26424 5.5304 3.63669 5.5304C3.00914 5.5304 2.50041 6.03913 2.50041 6.66668C2.50041 7.29423 3.00914 7.80296 3.63669 7.80296ZM7.80288 6.66668C7.80288 7.29423 7.29414 7.80296 6.66659 7.80296C6.03904 7.80296 5.53031 7.29423 5.53031 6.66668C5.53031 6.03913 6.03904 5.5304 6.66659 5.5304C7.29414 5.5304 7.80288 6.03913 7.80288 6.66668ZM9.69705 7.80296C10.3246 7.80296 10.8333 7.29423 10.8333 6.66668C10.8333 6.03913 10.3246 5.5304 9.69705 5.5304C9.0695 5.5304 8.56077 6.03913 8.56077 6.66668C8.56077 7.29423 9.0695 7.80296 9.69705 7.80296Z" fill="var(--fill-0, white)"/>
</g>
</svg>
