<svg width="30" height="30" viewBox="0 0 30 30" fill="none" xmlns="http://www.w3.org/2000/svg">
<rect width="6" height="6" rx="3" fill="#404040"/>
<rect x="8" width="6" height="6" rx="3" fill="#404040"/>
<rect x="16" width="6" height="6" rx="3" fill="#404040"/>
<rect x="24" width="6" height="6" rx="3" fill="#404040"/>
<rect y="8" width="6" height="6" rx="3" fill="#404040"/>
<rect x="8" y="8" width="6" height="6" rx="3" fill="#404040"/>
<rect x="16" y="8" width="6" height="6" rx="3" fill="#404040"/>
<rect x="24" y="8" width="6" height="6" rx="3" fill="#404040"/>
<rect y="16" width="6" height="6" rx="3" fill="#404040"/>
<rect x="8" y="16" width="6" height="6" rx="3" fill="#404040"/>
<rect x="16" y="16" width="6" height="6" rx="3" fill="#404040"/>
<rect x="24" y="16" width="6" height="6" rx="3" fill="#404040"/>
<rect y="24" width="6" height="6" rx="3" fill="#404040"/>
<rect x="8" y="24" width="6" height="6" rx="3" fill="#404040"/>
<rect x="16" y="24" width="6" height="6" rx="3" fill="#404040"/>
<rect x="24" y="24" width="6" height="6" rx="3" fill="#404040"/>
</svg>
