<svg width="50" height="50" viewBox="0 0 50 50" fill="none" xmlns="http://www.w3.org/2000/svg">
<path fill-rule="evenodd" clip-rule="evenodd" d="M9.97617 40.7377C5.75005 36.7665 3.10938 31.1269 3.10938 24.8758C3.10938 12.8627 12.8627 3.10938 24.8758 3.10938C36.8888 3.10938 46.6418 12.8627 46.6418 24.8758C46.6418 31.1269 44.0012 36.7665 39.775 40.7377C35.8795 44.3982 30.6377 46.6418 24.8758 46.6418C19.1138 46.6418 13.8717 44.3982 9.97617 40.7377ZM39.7355 36.1519C42.2038 32.9115 43.538 28.9492 43.5325 24.8758C43.5325 14.5788 35.1724 6.21908 24.8758 6.21908C14.5788 6.21908 6.21908 14.5788 6.21908 24.8758C6.21349 28.9492 7.54756 32.9114 10.0157 36.1519C11.0769 31.3474 13.2452 28 15.6698 25.7542C15.8274 25.6083 16.0135 25.4967 16.2164 25.4263C16.4192 25.3559 16.6345 25.3282 16.8486 25.3451C17.0626 25.362 17.2709 25.4231 17.4602 25.5244C17.6495 25.6258 17.8158 25.7652 17.9486 25.934C20.1762 28.768 23.2374 29.606 24.8758 29.606C26.5138 29.606 29.5754 28.768 31.8027 25.934C31.9354 25.7652 32.1017 25.6258 32.291 25.5244C32.4803 25.4231 32.6886 25.362 32.9026 25.3451C33.1167 25.3282 33.332 25.3559 33.5348 25.4263C33.7377 25.4967 33.9238 25.6083 34.0814 25.7542C36.506 28 38.6743 31.3474 39.7355 36.1519ZM12.6769 38.9866C15.9486 41.8183 20.2135 43.5325 24.8758 43.5325C29.5377 43.5325 33.803 41.8183 37.0747 38.9862C36.5049 34.5836 34.9676 31.3948 33.0612 29.1721C30.2269 31.9183 26.803 32.7157 24.8758 32.7157C22.9486 32.7157 19.5243 31.9183 16.69 29.1721C14.7836 31.3948 13.2467 34.584 12.6769 38.9866ZM24.8758 27.0855C22.631 27.0855 17.7056 24.7818 17.7056 16.3243C17.7056 12.4769 20.9049 9.3284 24.8758 9.3284C28.8463 9.3284 32.0459 12.4769 32.0459 16.3243C32.0459 24.7818 27.1202 27.0855 24.8758 27.0855ZM24.8758 23.9762C25.3553 23.9762 26.0041 23.7053 26.637 23.1512C27.8959 22.0497 28.9362 19.918 28.9362 16.3243C28.9362 14.1657 27.1038 12.4377 24.8758 12.4377C22.6478 12.4377 20.815 14.1657 20.815 16.3243C20.815 19.918 21.8553 22.0497 23.1142 23.1512C23.7474 23.7053 24.3959 23.9762 24.8758 23.9762Z" fill="#8E8E93"/>
</svg>
