<svg width="44" height="44" viewBox="0 0 44 44" fill="none" xmlns="http://www.w3.org/2000/svg">
<path d="M31 8.50002H29.7L28.5 5.39999C28 4.29999 26.9 3.5 25.7 3.5H18.4C17.2 3.5 16.1 4.19996 15.6 5.39999L14.4 8.50002H13C12.4 8.50002 12 8.90005 12 9.49998V10.5H18V9.49998C18 8.89997 17.5999 8.50002 17 8.50002H16.5L17.4001 6.10004C17.6 5.7 17.9 5.50002 18.3 5.50002H25.6C26 5.50002 26.3999 5.7 26.5 6.10004L27.4 8.50002H27C26.3999 8.50002 26 8.90005 26 9.49998V10.5H32V9.49998C32.0001 8.90005 31.6 8.50002 31 8.50002Z" fill="#9BA7AF"/>
<path d="M41 40.5H3.00002C1.90002 40.5 1 39.6 1 38.5V16.5H43V38.5C43.0001 39.6 42.1 40.5 41 40.5Z" fill="#B06328"/>
<path d="M41 21.0996L26.0001 24.2996C25.9 23.7996 25.5001 23.4996 25.0001 23.4996H21.0001C20.4001 23.4996 20.0002 23.8996 20.0002 24.4995H19.0002L1.60002 20.7996C1.40004 20.7996 1.19998 20.6996 1 20.5996V21.5996C1.19998 21.6996 1.40004 21.7996 1.60002 21.7996L19 25.4996H20V28.4996C20 29.0996 20.4 29.4996 21 29.4996H24C25.1 29.4996 26 28.5995 26 27.4995V27.2996C26 26.0995 26.8 25.0996 28 24.7995L38 22.6996C39.6 22.3996 41 23.5996 41 25.0996V37.3996C41 37.9996 40.6 38.3996 40.0001 38.3996H3.00002C1.70005 38.3996 1.60002 40.3996 2.89999 40.3996H40.9C42 40.3996 42.9 39.4996 42.9 38.3996V20.5996L41 21.0996Z" fill="#A35425"/>
<path d="M1 38.5V35.5H3.99999C5.09999 35.5 6.00002 36.4 6.00002 37.5V40.5H3.00002C1.90002 40.5 1 39.6 1 38.5Z" fill="#F6B545"/>
<path d="M3.00007 38.5C1.7001 38.5 1.60006 40.4 2.90004 40.5H6.00006V38.5H3.00007Z" fill="#F19920"/>
<path d="M41 40.5H38V37.5C38 36.4 38.9 35.5 40 35.5H43V38.5C43 39.6 42.1 40.5 41 40.5Z" fill="#F6B545"/>
<path d="M41 35.5V37.5C41 38.1 40.6 38.5 40 38.5H38V40.5H41C42.1 40.5 43 39.6 43 38.5V35.5H41Z" fill="#F19920"/>
<path d="M4.50001 37.5H2.49998C2.19998 37.5 2 37.3 2 37C2 36.7 2.19998 36.5 2.49998 36.5H4.50001C4.80002 36.5 4.99999 36.7 4.99999 37C4.99999 37.2999 4.80002 37.5 4.50001 37.5Z" fill="#FFCB5B"/>
<path d="M42 10.5H2.00002C0.900023 10.5 0 11.4 0 12.5V18.9C0 19.8 0.699961 20.7 1.59998 20.9L19 24.5H25L42.4 20.8C43.3 20.6 44 19.8 44 18.8V12.4C44 11.4 43.1 10.5 42 10.5Z" fill="#C97629"/>
<path d="M23.9999 28.4999H20C19.4 28.4999 19 28.0999 19 27.4999V23.5C19 22.9 19.4 22.5 20 22.5H23.9999C24.5999 22.5 24.9999 22.9 24.9999 23.5V27.4999C24.9999 28.0999 24.5999 28.4999 23.9999 28.4999Z" fill="#F6B545"/>
<path d="M24 22.5V27.5H19C19 28.1 19.4 28.5 20 28.5H23.9999C24.5999 28.5 24.9999 28.0999 24.9999 27.5V23.5001C25 22.9 24.6 22.5 24 22.5Z" fill="#F19920"/>
<path d="M22.5 24.5H20.5C20.2 24.5 20 24.3 20 24C20 23.7 20.2 23.5 20.5 23.5H22.5C22.8 23.5 23 23.7 23 24C23 24.3 22.8 24.5 22.5 24.5Z" fill="#FFCB5B"/>
<path d="M2.49998 11.5H7.5C7.80001 11.5 7.99998 11.7 7.99998 12C7.99998 12.3 7.80001 12.5 7.5 12.5H2.49998C2.19998 12.5 2 12.3 2 12C2 11.7 2.19998 11.5 2.49998 11.5Z" fill="#DA8C36"/>
<path d="M2.99997 25V30C2.99997 30.3 2.79999 30.5 2.49998 30.5C2.19998 30.5 2 30.3 2 30V25C2 24.7 2.19998 24.5 2.49998 24.5C2.79999 24.5 2.99997 24.7 2.99997 25Z" fill="#C97629"/>
<path d="M9.49998 11.5H19.5C19.8 11.5 20 11.7 20 12C20 12.3 19.8 12.5 19.5 12.5H9.49998C9.19998 12.5 9 12.3 9 12C9 11.7 9.20006 11.5 9.49998 11.5Z" fill="#DA8C36"/>
<path d="M27.5 4.99962L28.9 8.49959H29.7L28.5 5.39957C28.1 4.49955 27.3 3.79959 26.4 3.59961C26.8001 3.89962 27.3001 4.3996 27.5 4.99962ZM22.6 4.49963H18.4C17.6 4.49963 16.8 4.99962 16.5 5.79961L15.4 8.49959H16.4L17.3 6.09962C17.5 5.69958 17.8 5.4996 18.2 5.4996H25C24.4 4.89959 23.5001 4.49963 22.6 4.49963ZM12 9.49956H18V10.4995H12V9.49956ZM26 9.49956H32V10.4995H26V9.49956Z" fill="#72818B"/>
</svg>
