<svg width="44" height="44" viewBox="0 0 44 44" fill="none" xmlns="http://www.w3.org/2000/svg">
<path d="M20.1934 13.095C22.7484 12.1077 25.4107 11.4242 28.1254 11.0586L26.7249 14.7719H20.8932L20.1934 13.095Z" fill="#AD6666"/>
<path d="M1.8376 24.1286C1.8376 24.1286 1.30351 28.4011 2.87289 32.7404L19.8293 39.0156V26.2368C19.8292 25.8738 19.9016 25.5144 20.0424 25.1797C20.1831 24.845 20.3893 24.5419 20.6489 24.288C21.2221 23.7274 22.1745 22.9983 23.7346 22.2261L15.3228 13.4141C15.3228 13.4141 5.81054 13.948 1.8376 24.1286Z" fill="#F9AC5F"/>
<path d="M19.8294 26.2368C19.8293 25.8738 19.9017 25.5144 20.0425 25.1797C20.1832 24.845 20.3894 24.5419 20.649 24.288C21.2221 23.7274 22.1747 22.9983 23.7347 22.2261L15.3229 13.4141C15.3229 13.4141 5.81063 13.9481 1.83769 24.1286C1.70182 25.5556 1.71878 26.993 1.88829 28.4164C3.1727 29.1249 4.12439 29.2828 4.8016 29.2172C5.1661 29.1801 5.50781 29.0225 5.77267 28.7694C6.03753 28.5162 6.21041 28.182 6.26396 27.8195C6.38477 27.0755 6.60175 26.3503 6.90946 25.6621C7.77329 25.7747 8.63698 25.5494 9.27537 24.3175C9.91376 23.0857 8.88416 21.1016 8.88416 21.1016C10.0326 18.381 13.4063 17.6259 13.4063 17.6259C15.3855 19.0652 16.4406 21.2961 16.9096 22.5609C17.1137 23.1129 17.2179 23.6968 17.2174 24.2853V30.1946C17.2174 30.5033 17.1506 30.8082 17.0215 31.0886C16.8924 31.3689 16.7041 31.618 16.4695 31.8186C16.235 32.0192 15.9597 32.1666 15.6628 32.2506C15.3658 32.3347 15.0541 32.3534 14.7492 32.3055C13.4855 32.1224 12.2784 31.6601 11.2157 30.952C10.1531 30.244 9.26153 29.3081 8.60592 28.2123C8.56304 28.1422 8.49788 28.0886 8.42088 28.06C8.34389 28.0314 8.25952 28.0295 8.1813 28.0545C8.10307 28.0796 8.03552 28.1301 7.98946 28.1981C7.94341 28.2661 7.92151 28.3476 7.92729 28.4296C7.96949 28.9912 8.04293 29.55 8.14729 30.1034L8.22377 34.7204L19.8299 39.0156L19.8294 26.2368Z" fill="#EA7F50"/>
<path d="M7.04536 12.8799C7.04536 12.8799 2.93007 16.43 1.29844 23.951C1.22482 24.287 1.21871 24.6344 1.28044 24.9728C1.34218 25.3112 1.47054 25.634 1.65808 25.9224L2.28922 26.6083C2.5143 26.798 2.75461 26.9688 3.00771 27.119C3.2835 27.1469 3.53816 27.2793 3.71948 27.489C3.80903 27.5293 3.9016 27.5689 3.9972 27.6079C4.11533 27.6558 4.24212 27.6787 4.36956 27.6752C4.497 27.6716 4.62231 27.6416 4.73755 27.587C4.8528 27.5325 4.95547 27.4547 5.03907 27.3584C5.12268 27.2622 5.18539 27.1496 5.22324 27.0279L6.20561 23.8618L6.54544 24.1161C6.66291 24.2041 6.79698 24.2673 6.93956 24.3021C7.08213 24.3368 7.23027 24.3423 7.37504 24.3183C7.5198 24.2943 7.65821 24.2412 7.7819 24.1622C7.90559 24.0832 8.01202 23.98 8.09476 23.8588C8.21023 23.6898 8.27561 23.4915 8.28337 23.2869C8.29113 23.0824 8.24096 22.8797 8.13863 22.7024L7.30574 21.2586C7.19967 21.0749 7.13866 20.8687 7.12773 20.6569C7.1168 20.4451 7.15625 20.2338 7.24284 20.0402C7.68815 19.0437 8.70338 17.1372 10.3487 16.0167L7.04536 12.8799ZM15.9626 16.1676L19.843 19.7208C19.843 19.7208 23.6279 18.0453 22.9551 14.0096L17.2739 11.4072C17.2739 11.4072 15.754 12.4725 15.9626 16.1676Z" fill="#FFCAC0"/>
<path d="M19.8429 19.7208C20.4577 19.4194 21.0182 19.0181 21.5014 18.533C18.9358 16.0544 19.4897 13.4906 19.8114 12.5696L17.274 11.4072C17.274 11.4072 15.7539 12.4725 15.9625 16.1676L19.8429 19.7208Z" fill="#EF9292"/>
<path d="M10.124 16.9385H15.184V18.6279C15.184 19.2839 14.9235 19.9129 14.4598 20.3768C13.996 20.8406 13.367 21.1013 12.7111 21.1014H12.5975C12.2727 21.1014 11.951 21.0374 11.6509 20.9131C11.3508 20.7888 11.0782 20.6066 10.8485 20.3769C10.6188 20.1473 10.4366 19.8746 10.3123 19.5745C10.188 19.2744 10.124 18.9528 10.124 18.6279V16.9385Z" fill="#AD6666"/>
<path d="M22.9549 14.0098C22.9549 14.0098 23.0876 16.9389 19.8428 19.721C19.8428 19.721 23.4336 23.1408 23.4336 26.5606V38.8038C23.4336 38.8038 34.8218 37.299 40.4302 30.8013C40.8173 29.2848 41.0518 27.7333 41.1302 26.1701L34.7254 16.6842L25.2756 14.7015C24.4805 14.5503 23.703 14.3185 22.9549 14.0098Z" fill="#6295D3"/>
<path d="M33.1858 14.8985L29.4595 15.1315C28.0556 15.1003 26.6566 14.9564 25.2757 14.7012C25.555 16.3208 26.8355 19.6276 32.691 17.8913C33.3981 18.1726 33.9786 18.7016 34.3242 19.3795C34.3242 19.3795 33.2194 21.3489 34.7324 22.7418C34.7324 22.7418 35.7171 23.8225 37.278 23.03C37.8137 23.7485 38.2052 24.5641 38.4308 25.4315C38.4308 25.4315 39.2702 27.0732 41.1297 26.1691C41.24 24.3996 41.1357 22.6231 40.8191 20.8786C40.8191 20.8786 37.7685 15.0353 33.1858 14.8985ZM34.9207 26.7525C34.9159 26.6698 34.8816 26.5916 34.8241 26.532C34.7667 26.4724 34.6897 26.4353 34.6073 26.4275C34.5249 26.4197 34.4423 26.4416 34.3747 26.4894C34.307 26.5371 34.2587 26.6075 34.2384 26.6878C33.8566 28.1995 33.1022 30.161 31.6416 31.3086C30.8443 31.9403 29.8465 32.2644 28.8302 32.2216C28.0231 32.1897 27.26 31.8455 26.7019 31.2616C26.1438 30.6777 25.8345 29.8998 25.8392 29.0922V26.522C25.8392 22.7785 23.035 20.0359 21.2443 18.2738C20.8243 18.7997 20.355 19.2841 19.8428 19.7205C19.8428 19.7205 23.4337 23.1404 23.4337 26.5602V38.8033C23.4337 38.8033 30.8848 37.8181 36.7012 34.0022L34.9283 28.989C34.9664 28.2439 34.9639 27.4973 34.9207 26.7525Z" fill="#346B99"/>
<path d="M38.4279 13.7363C40.1638 15.7478 41.5602 18.0289 42.5621 20.4897C42.8217 21.1134 42.8282 21.8137 42.5803 22.4421C42.347 22.6683 42.1741 22.9493 42.0772 23.2595C41.8476 23.5392 41.5907 23.7953 41.3105 24.0243C41.0634 24.1528 40.8373 24.3179 40.6397 24.5141L40.5565 24.5684C40.4488 24.6365 40.3281 24.6816 40.2021 24.7008C40.076 24.7199 39.9474 24.7127 39.8243 24.6796C39.7012 24.6465 39.5863 24.5881 39.4869 24.5083C39.3875 24.4285 39.3058 24.3289 39.2469 24.2158L37.7168 21.275L37.4276 21.5855C37.3276 21.693 37.207 21.7791 37.0728 21.8386C36.9387 21.8982 36.7939 21.93 36.6472 21.9321C36.5004 21.9342 36.3548 21.9065 36.219 21.8508C36.0832 21.7951 35.9602 21.7125 35.8572 21.6079C35.7135 21.4621 35.6139 21.2787 35.5699 21.0787C35.5258 20.8788 35.5392 20.6705 35.6083 20.4778L36.1711 18.9088C36.2428 18.7092 36.266 18.4954 36.239 18.285C36.212 18.0747 36.1356 17.8737 36.0158 17.6987C35.9373 17.5838 35.8569 17.4702 35.7746 17.358L38.4279 13.7363Z" fill="#CC938B"/>
<path d="M38.427 13.737C36.5219 11.555 34.9367 10.6182 34.9367 10.6182L32.2432 14.2927C33.8533 15.0094 35.0857 16.4189 35.7747 17.3587C37.8692 16.4315 38.343 14.7448 38.427 13.737Z" fill="#AD6666"/>
<path d="M34.9842 15.4506H34.0483V11.3779H34.9842C35.4941 11.378 35.9831 11.5805 36.3436 11.9411C36.7041 12.3016 36.9067 12.7906 36.9067 13.3005V13.5281C36.9067 14.038 36.7041 14.527 36.3436 14.8875C35.9831 15.248 35.4941 15.4506 34.9842 15.4506Z" fill="#EF9292"/>
<path d="M27.911 3.71653C27.911 3.71653 24.7697 3.32661 24.2702 6.39897C23.7706 9.47134 26.3548 11.4978 26.3548 11.4978L34.9285 12.4957C34.9285 12.4957 36.8369 11.7322 36.8369 9.11908C36.8369 9.11908 37.3068 3.04125 32.374 2.2191C32.374 2.2191 29.4378 1.48508 27.911 3.71653Z" fill="#F9AC5F"/>
<path d="M28.1253 16.4601H33.1853V18.1495C33.1853 18.4744 33.1214 18.796 32.997 19.0961C32.8727 19.3962 32.6906 19.6688 32.4609 19.8985C32.2312 20.1282 31.9585 20.3104 31.6584 20.4347C31.3583 20.559 31.0367 20.623 30.7119 20.623H30.5983C30.2734 20.623 29.9518 20.559 29.6517 20.4347C29.3516 20.3104 29.0789 20.1282 28.8493 19.8985C28.6196 19.6688 28.4374 19.3962 28.3131 19.0961C28.1888 18.796 28.1248 18.4744 28.1248 18.1495V16.4601H28.1253ZM25.9709 11.21H26.9068V15.2827H25.9709C25.461 15.2827 24.972 15.0801 24.6114 14.7196C24.2509 14.359 24.0483 13.87 24.0483 13.3601V13.1325C24.0483 12.6226 24.2509 12.1336 24.6114 11.7731C24.972 11.4125 25.461 11.21 25.9709 11.21Z" fill="#EF9292"/>
<path d="M26.0024 9.20738C26.0024 9.20738 26.8538 7.29869 29.3497 6.53516C29.3497 6.53516 29.8752 8.18723 33.1917 8.83351C33.4261 8.87806 33.6398 8.99734 33.8007 9.1735C33.9617 9.34966 34.0613 9.57321 34.0846 9.8107C34.1809 10.7537 34.468 11.6673 34.9284 12.4959V12.995C34.9282 14.1786 34.458 15.3136 33.621 16.1505C32.784 16.9874 31.6489 17.4575 30.4653 17.4575C29.8792 17.4575 29.2989 17.3421 28.7574 17.1178C28.216 16.8935 27.724 16.5647 27.3095 16.1503C26.8951 15.7359 26.5664 15.2439 26.3421 14.7024C26.1178 14.1609 26.0024 13.5806 26.0024 12.9945V9.20738Z" fill="#FFCAC0"/>
<path d="M30.4654 15.8021C29.8448 15.8021 29.2496 15.5556 28.8108 15.1168C28.372 14.678 28.1255 14.0828 28.1255 13.4622V12.8799H32.8053V13.4622C32.8053 14.0828 32.5588 14.678 32.1199 15.1168C31.6811 15.5556 31.086 15.8021 30.4654 15.8021Z" fill="white"/>
<path d="M34.9284 28.9894C34.9284 28.9894 38.092 28.4147 40.4305 30.8012C40.4305 30.8012 38.4799 41.3232 26.0324 41.7299C24.9836 39.9354 24.5247 38.0966 24.6556 36.2135C24.9355 36.1001 25.2098 35.9736 25.4777 35.8343L25.3184 34.9479C25.2807 34.7382 25.3158 34.5219 25.4177 34.3349C25.5197 34.1478 25.6825 34.0011 25.8792 33.9191C26.0703 33.8394 26.2824 33.8254 26.4824 33.8793C26.6823 33.9332 26.8587 34.0519 26.9839 34.2168L27.4956 34.8907C27.7163 35.1817 28.009 35.4102 28.3449 35.5536C28.6807 35.697 29.0482 35.7503 29.4109 35.7084C31.2287 35.4978 34.3913 34.3508 34.9284 28.9894Z" fill="#FFCAC0"/>
<path d="M25.9667 36.7804C25.7794 36.3294 25.1395 36.2239 24.6551 36.2129C23.4118 36.727 22.0739 36.9726 20.729 36.9335L23.9551 41.7059C24.6785 41.7447 25.3695 41.7502 26.032 41.7285C26.3536 40.2238 26.2317 37.4182 25.9667 36.7804Z" fill="#EF9292"/>
<path d="M2.87305 32.7405C2.87305 32.7405 4.64211 30.7044 8.14684 30.1035C8.14684 30.1035 9.23972 35.7976 16.6985 36.6713C16.8734 36.691 17.0503 36.66 17.2081 36.582C17.3659 36.504 17.4979 36.3823 17.5885 36.2313L18.285 35.0781C18.359 34.9555 18.4634 34.8541 18.5881 34.7836C18.7127 34.7132 18.8535 34.6761 18.9967 34.676C19.106 34.676 19.2142 34.6975 19.3152 34.7394C19.4162 34.7812 19.5079 34.8425 19.5852 34.9198C19.6625 34.9971 19.7238 35.0888 19.7656 35.1898C19.8074 35.2908 19.829 35.399 19.829 35.5083V36.7288C21.0168 37.0986 22.8969 37.1449 24.004 37.1354C24.1216 37.1342 24.2383 37.1564 24.3472 37.2006C24.4562 37.2449 24.5553 37.3102 24.6389 37.393C24.7224 37.4757 24.7887 37.5742 24.834 37.6828C24.8793 37.7913 24.9026 37.9077 24.9026 38.0253V38.2308C24.7495 38.4767 24.7738 38.7377 24.9026 39.0083V39.8638C24.8333 39.9833 24.7969 40.119 24.7969 40.2571C24.7969 40.3952 24.8333 40.5309 24.9026 40.6504C24.9028 40.9123 24.806 41.165 24.631 41.3598C24.456 41.5546 24.2151 41.6778 23.9547 41.7055C20.2367 42.1024 6.66352 42.8191 2.87305 32.7405Z" fill="#CC938B"/>
<path d="M24.9031 39.0088V38.2313C24.1806 38.2657 23.4568 38.263 22.7345 38.2231C22.6326 38.2181 22.5327 38.2535 22.4567 38.3216C22.3806 38.3897 22.3344 38.485 22.3281 38.5869C22.3218 38.6888 22.3559 38.789 22.423 38.866C22.49 38.9429 22.5847 38.9904 22.6865 38.998C22.7212 39.0002 23.2735 39.0336 23.9621 39.0336C24.2607 39.0336 24.5845 39.0266 24.9031 39.0088ZM24.9031 40.643V39.8642C24.1841 39.9136 23.4624 39.9092 22.744 39.8512C22.6414 39.8424 22.5395 39.8746 22.4607 39.9409C22.3818 40.0072 22.3326 40.102 22.3237 40.2046C22.3148 40.3072 22.3471 40.4091 22.4134 40.4879C22.4796 40.5667 22.5745 40.616 22.6771 40.6249C22.714 40.6281 23.3014 40.6778 23.9955 40.6778C24.2984 40.6789 24.6012 40.6673 24.9031 40.643Z" fill="#AD6666"/>
<path d="M4.239 24.706C4.19316 24.6837 4.14337 24.6706 4.09246 24.6675C4.04156 24.6644 3.99054 24.6713 3.94232 24.688C3.89411 24.7046 3.84964 24.7305 3.81146 24.7643C3.77328 24.7982 3.74213 24.8392 3.7198 24.885C3.39511 25.5513 3.12736 26.6053 3.00804 27.1188C3.23824 27.2556 3.47615 27.3789 3.72058 27.4883C3.79538 27.1505 4.08151 25.9158 4.41798 25.2251C4.44031 25.1793 4.4534 25.1295 4.45649 25.0786C4.45958 25.0277 4.45262 24.9767 4.436 24.9285C4.41938 24.8803 4.39343 24.8358 4.35963 24.7977C4.32583 24.7595 4.28484 24.7284 4.239 24.706ZM2.7333 23.962C2.68656 23.9417 2.63627 23.9307 2.5853 23.9298C2.53432 23.9288 2.48366 23.9379 2.4362 23.9566C2.38875 23.9752 2.34543 24.003 2.30872 24.0384C2.27201 24.0738 2.24263 24.116 2.22225 24.1628C1.99336 24.7352 1.8052 25.323 1.65918 25.922C1.73474 26.0378 1.8198 26.1472 1.91347 26.249C2.03149 26.3761 2.15707 26.4959 2.28954 26.6079C2.39851 26.1482 2.66225 25.0963 2.93402 24.4726C2.97501 24.3782 2.97689 24.2715 2.93926 24.1758C2.90163 24.0801 2.82755 24.0032 2.7333 23.962Z" fill="#EF9292"/>
<path d="M41.3105 24.0246C40.9651 22.8987 40.2018 21.5916 40.166 21.5311C40.1402 21.4869 40.106 21.4483 40.0653 21.4175C40.0247 21.3866 39.9783 21.364 39.9289 21.3511C39.8795 21.3382 39.828 21.3351 39.7774 21.3421C39.7268 21.3491 39.6781 21.366 39.634 21.3919C39.59 21.4178 39.5515 21.4521 39.5207 21.4928C39.49 21.5336 39.4675 21.58 39.4547 21.6295C39.442 21.6789 39.4391 21.7304 39.4462 21.781C39.4533 21.8316 39.4704 21.8802 39.4964 21.9242C39.5053 21.9396 40.3867 23.4492 40.6399 24.5144C40.8725 24.3639 41.0964 24.2004 41.3105 24.0246ZM42.3661 22.8608C42.4504 22.7283 42.5222 22.5882 42.5803 22.4424C42.2559 21.7766 41.876 21.1394 41.4444 20.5376C41.4144 20.4963 41.3765 20.4615 41.333 20.4349C41.2895 20.4083 41.2412 20.3905 41.1908 20.3826C41.1404 20.3747 41.089 20.3768 41.0394 20.3888C40.9899 20.4008 40.9431 20.4224 40.9019 20.4524C40.8607 20.4824 40.8258 20.5203 40.7992 20.5638C40.7726 20.6073 40.7549 20.6556 40.747 20.706C40.7391 20.7564 40.7412 20.8078 40.7531 20.8574C40.7651 20.907 40.7867 20.9537 40.8168 20.9949C40.8265 21.0078 41.7356 22.2624 42.0774 23.2596C42.1811 23.1323 42.2775 22.9991 42.3661 22.8608Z" fill="#AD6666"/>
<path d="M29.1833 11.2093C29.4571 11.2093 29.6791 10.9874 29.6791 10.7136C29.6791 10.4397 29.4571 10.2178 29.1833 10.2178C28.9095 10.2178 28.6875 10.4397 28.6875 10.7136C28.6875 10.9874 28.9095 11.2093 29.1833 11.2093Z" fill="#E58585"/>
<path d="M31.7472 11.2093C32.0211 11.2093 32.243 10.9874 32.243 10.7136C32.243 10.4397 32.0211 10.2178 31.7472 10.2178C31.4734 10.2178 31.2515 10.4397 31.2515 10.7136C31.2515 10.9874 31.4734 11.2093 31.7472 11.2093Z" fill="#E58585"/>
<path d="M10.3499 16.0164L7.04541 12.8799C7.04541 12.8799 6.19763 13.6134 5.11963 15.1142C5.9357 16.3812 7.45512 16.4601 7.45512 16.4601C7.636 17.0429 7.9652 17.5687 8.41044 17.986C8.9361 17.2205 9.59266 16.5538 10.3499 16.0164Z" fill="#EF9292"/>
<path d="M16.9861 15.1313H16.0502V11.0586H16.9861C17.496 11.0586 17.985 11.2611 18.3456 11.6217C18.7061 11.9822 18.9087 12.4712 18.9087 12.9811V13.2088C18.9087 13.7187 18.7061 14.2077 18.3456 14.5682C17.985 14.9288 17.496 15.1313 16.9861 15.1313ZM7.94842 11.0586H8.88446V15.1313H7.94842C7.43853 15.1313 6.94952 14.9288 6.58898 14.5682C6.22843 14.2077 6.02588 13.7187 6.02588 13.2088V12.9811C6.02588 12.4712 6.22843 11.9822 6.58898 11.6217C6.94952 11.2611 7.43853 11.0586 7.94842 11.0586Z" fill="#AD6666"/>
<path d="M16.1895 3.36474C14.3278 2.20003 10.606 2.20003 8.74431 3.36474C6.74451 4.61628 5.82181 7.03939 6.35485 9.338C6.61368 10.4535 7.25245 11.5059 8.68181 11.8422H16.2524C17.6817 11.5058 18.3208 10.4535 18.5795 9.338C19.1123 7.03939 18.1897 4.61628 16.1895 3.36474Z" fill="#3C3C4F"/>
<path d="M16.0907 10.6515C15.9518 10.5126 15.8439 10.3459 15.7739 10.1623C15.704 9.97871 15.6737 9.78242 15.685 9.58631L15.7453 8.53536C15.775 8.03577 15.6113 7.54391 15.2883 7.1617C14.9652 6.77948 14.5075 6.53619 14.0099 6.48224C12.985 6.37181 11.9512 6.37181 10.9263 6.48224C10.4283 6.53576 9.97011 6.77883 9.64655 7.16108C9.323 7.54333 9.15895 8.03542 9.18841 8.53536L9.24884 9.58644C9.2601 9.78254 9.22976 9.97881 9.15982 10.1624C9.08988 10.3459 8.98191 10.5126 8.84301 10.6515C8.52211 10.9724 8.34182 11.4076 8.3418 11.8614V14.2555C8.49204 15.8084 9.25971 16.7436 10.0927 17.3059C10.795 17.7765 11.6213 18.0278 12.4667 18.0278C13.312 18.0278 14.1383 17.7765 14.8406 17.3059C15.6736 16.7436 16.4412 15.8082 16.5914 14.2555V11.8614C16.5914 11.4076 16.4111 10.9724 16.0903 10.6515H16.0907Z" fill="#CC938B"/>
<path d="M12.4639 16.0161C11.8433 16.0161 11.2482 15.7695 10.8094 15.3307C10.3705 14.8919 10.124 14.2967 10.124 13.6761V13.0938H14.8038V13.6761C14.8038 14.2967 14.5573 14.8919 14.1185 15.3307C13.6797 15.7695 13.0845 16.0161 12.4639 16.0161Z" fill="white"/>
<path d="M11.1818 10.7728C11.4556 10.7728 11.6776 10.5508 11.6776 10.277C11.6776 10.0032 11.4556 9.78125 11.1818 9.78125C10.908 9.78125 10.686 10.0032 10.686 10.277C10.686 10.5508 10.908 10.7728 11.1818 10.7728Z" fill="#9B5959"/>
<path d="M13.7458 10.7728C14.0196 10.7728 14.2416 10.5508 14.2416 10.277C14.2416 10.0032 14.0196 9.78125 13.7458 9.78125C13.472 9.78125 13.25 10.0032 13.25 10.277C13.25 10.5508 13.472 10.7728 13.7458 10.7728Z" fill="#9B5959"/>
<path d="M34.9285 28.9895C34.8793 29.4919 34.7993 29.9909 34.689 30.4835C35.7839 30.7768 38.111 31.5899 39.5127 33.4397C39.9187 32.5981 40.2267 31.7127 40.4306 30.8008C38.0921 28.4147 34.9285 28.9895 34.9285 28.9895Z" fill="#EF9292"/>
<path d="M8.69554 31.5888C8.45243 31.1178 8.26814 30.6186 8.14684 30.1025C4.64211 30.7039 2.87305 32.7406 2.87305 32.7406C3.28083 33.8348 3.84153 34.8657 4.53845 35.8026C5.8754 33.4688 7.87779 32.0855 8.69554 31.5888Z" fill="#AD6666"/>
</svg>
