<svg width="44" height="44" viewBox="0 0 44 44" fill="none" xmlns="http://www.w3.org/2000/svg">
<path d="M34.0313 5.58621C33.447 5.39715 32.8282 5.27684 32.1923 5.20809C24.0798 4.38309 22.0001 12.1175 22.0001 12.1175C22.0001 12.1175 19.9204 4.38309 11.8251 5.20809C4.29697 5.96434 0.343843 15.4518 5.27666 23.4268C6.68603 25.7128 8.88603 28.1706 11.2407 30.4565C15.9673 35.0456 21.2954 38.8612 22.0001 38.8612C23.0657 38.8612 34.461 30.319 38.7235 23.444C43.2438 16.1393 40.322 7.56277 34.0313 5.58621Z" fill="#FC4F4F"/>
<path d="M38.7235 23.4266C43.2438 16.1391 40.322 7.5625 34.0313 5.58594C34.0313 5.58594 40.3048 11.6359 36.6954 17.8578C33.086 24.0797 21.0204 31.8141 19.3188 32.0891C17.9095 32.3125 14.3345 31.9859 11.2407 30.4734C15.9673 35.0625 21.2954 38.8781 22.0001 38.8781C23.0657 38.8609 34.461 30.3188 38.7235 23.4266Z" fill="black" fill-opacity="0.0823529"/>
<path opacity="0.3" d="M10.3525 12.6535C11.8772 10.8474 12.3723 8.75784 11.4583 7.98633C10.5444 7.21481 8.56753 8.05352 7.04287 9.85963C5.51821 11.6657 5.02312 13.7553 5.93705 14.5268C6.85099 15.2984 8.82786 14.4596 10.3525 12.6535Z" fill="white"/>
</svg>
