<svg width="44" height="44" viewBox="0 0 44 44" fill="none" xmlns="http://www.w3.org/2000/svg">
<path fill-rule="evenodd" clip-rule="evenodd" d="M15.7548 20.7165C19.1797 20.801 22.1075 22.1166 23.3756 24.7029C25.1092 28.2396 26.7354 31.9136 28.3969 35.4934C29.7485 38.4062 25.345 40.4496 23.9933 37.5368C22.397 34.096 20.7989 30.657 19.1947 27.2197V39.618C19.1947 40.8078 18.2241 41.7793 17.0334 41.7793H7.02958C5.83982 41.7793 4.8683 40.8086 4.8683 39.618V38.0217H1.69678C0.764863 38.0217 0.00454317 37.264 0.00190317 36.3321C-0.00601683 33.6454 0.0133432 29.5411 0.0133432 27.7961C0.0133432 23.1638 3.70406 20.837 8.28974 20.7174L8.28622 20.7121L9.55254 16.3631L14.8281 16.1836L15.7583 20.7121L15.7548 20.7165Z" fill="#07A0B6"/>
<path fill-rule="evenodd" clip-rule="evenodd" d="M15.7549 20.7164C19.1798 20.8009 22.1076 22.1165 23.3757 24.7028C25.1093 28.2395 26.7355 31.9135 28.3969 35.4933C28.7322 36.2167 28.7129 36.8864 28.4735 37.4399C27.3577 38.0392 25.8203 37.8693 25.1145 36.3487C23.5182 32.9079 21.9201 29.4689 20.3159 26.0316V29.6264C19.9419 28.8238 19.5679 28.0221 19.1939 27.2196V39.6179C19.1939 39.8925 19.142 40.1547 19.0478 40.3967C18.775 40.5208 18.4732 40.5903 18.1546 40.5903H8.15165C6.96189 40.5903 5.99037 39.6197 5.99037 38.429V27.2733C5.99037 26.9327 5.71493 26.6573 5.37437 26.6573C5.03381 26.6573 4.75837 26.9327 4.75837 27.2733V36.8327H2.81885C1.88693 36.8327 1.12661 36.075 1.12397 35.1431C1.11605 32.4565 1.13541 28.3521 1.13541 26.6071C1.13541 25.0169 1.57013 23.6996 2.32693 22.6489C3.77805 21.4609 5.79677 20.8229 8.04605 20.7252C8.38837 20.7102 8.72629 20.7146 9.08093 20.7049L9.07741 20.6997L10.3358 16.3357L14.8282 16.1826L15.7584 20.7111L15.7549 20.7164Z" fill="#00B2CA"/>
<path fill-rule="evenodd" clip-rule="evenodd" d="M12.0123 2.42293C13.9527 2.42293 14.1084 3.51061 17.9857 2.30853C19.1649 1.94333 20.0766 3.80013 19.5319 6.46213C19.1297 8.42717 19.4157 10.6413 19.4157 11.6242C19.4157 15.7127 15.9837 18.9335 12.652 18.981C9.32036 19.0285 5.31812 17.5123 4.60884 11.6242C3.89868 5.73701 7.92292 2.42293 12.0123 2.42293Z" fill="#E2BC92"/>
<path fill-rule="evenodd" clip-rule="evenodd" d="M12.012 2.42293C13.9524 2.42293 14.1082 3.51061 17.9854 2.30853C19.1646 1.94333 20.0763 3.80013 19.5316 6.46213C19.1294 8.42717 19.4154 10.6413 19.4154 11.6242C19.4154 14.207 18.0462 16.4431 16.1973 17.7517C15.4678 18.0667 14.7004 18.2436 13.9392 18.2541C10.6075 18.3017 6.60528 16.7854 5.896 10.8973C5.45248 7.22245 6.85432 4.55077 8.96456 3.06093C9.92549 2.64032 10.9631 2.4231 12.012 2.42293Z" fill="#FAD1A3"/>
<path fill-rule="evenodd" clip-rule="evenodd" d="M7.82084 21.1119C7.6026 20.8531 7.63604 20.4659 7.89564 20.2477C8.15436 20.0295 8.54156 20.0629 8.7598 20.3225L11.3945 23.4553C11.6128 23.714 11.5793 24.1012 11.3197 24.3195C11.061 24.5377 10.6738 24.5043 10.4556 24.2447L7.82084 21.1119ZM15.395 20.1782C15.4998 20.0539 15.6497 19.9763 15.8116 19.9623C15.9736 19.9482 16.1345 19.999 16.2592 20.1034C16.3834 20.2082 16.4611 20.358 16.4751 20.52C16.4891 20.682 16.4384 20.8429 16.334 20.9675L13.6992 24.1003C13.5944 24.2246 13.4446 24.3023 13.2826 24.3163C13.1206 24.3303 12.9597 24.2795 12.8351 24.1751C12.7108 24.0703 12.6332 23.9205 12.6192 23.7585C12.6051 23.5965 12.6559 23.4356 12.7603 23.311L15.395 20.1782Z" fill="#C1D6DF"/>
<path fill-rule="evenodd" clip-rule="evenodd" d="M11.0204 23.7061L9.42236 26.0926L10.7652 26.9357L9.54292 34.2221L12.0307 37.6153L14.7059 34.2141L13.4853 26.9357L14.8282 26.0926L13.2301 23.7061H11.0204Z" fill="#E5A624"/>
<path fill-rule="evenodd" clip-rule="evenodd" d="M12.7504 36.7011L14.7058 34.2151L13.4852 26.9357C13.9332 26.655 14.3802 26.3743 14.8281 26.0936L13.23 23.707H11.3926L10.2803 25.3676L11.6232 26.2097L10.4017 33.4962L12.7504 36.7011Z" fill="#FDB714"/>
<path fill-rule="evenodd" clip-rule="evenodd" d="M12.005 2.38175C7.99222 2.38175 4.04014 5.57615 4.57166 11.2636C7.41846 10.8949 9.32014 9.13927 9.63078 6.99295C11.8167 7.85095 16.486 8.93775 19.375 7.39159C19.4085 7.06511 19.4551 6.73951 19.5211 6.41919C20.0658 3.75807 19.1541 1.90303 17.9758 2.26735C14.1003 3.46855 13.9445 2.38175 12.005 2.38175Z" fill="#7889A4"/>
<path fill-rule="evenodd" clip-rule="evenodd" d="M26.7731 37.0218H17.2559V22.9453H28.7531C29.4245 22.9453 30.0607 23.1002 30.6283 23.3765C31.1951 23.1002 31.8313 22.9453 32.5036 22.9453H43.9999V37.0218H34.4827C33.6934 37.0218 33.8395 38.4544 33.0501 38.4544H28.2057C27.4163 38.4544 27.5624 37.0218 26.7731 37.0218Z" fill="#D1C4A0"/>
<path fill-rule="evenodd" clip-rule="evenodd" d="M27.3275 36.7525C27.1163 36.3363 26.9834 35.8004 26.5011 35.8004H17.2559V22.9453H28.7531C29.4245 22.9453 30.0607 23.1002 30.6283 23.3765C31.1951 23.1002 31.8313 22.9453 32.5036 22.9453H42.9114V35.8012H33.3942C32.6048 35.8012 32.7509 37.2339 31.9615 37.2339H28.365C28.0209 37.2339 27.4955 37.0843 27.3275 36.7525Z" fill="#E8DAB2"/>
<path fill-rule="evenodd" clip-rule="evenodd" d="M28.7533 21.4004H19.6787V34.6004H28.7533C29.4749 34.6004 30.3188 35.0782 30.6286 35.9688C30.9383 35.0782 31.7814 34.6004 32.5038 34.6004H41.5784V21.4004H32.503C31.4716 21.4004 30.6277 22.2443 30.6277 23.2757C30.6286 22.2443 29.7846 21.4004 28.7533 21.4004Z" fill="#CFD0D0"/>
<path fill-rule="evenodd" clip-rule="evenodd" d="M28.7533 21.4004H19.6787V33.445H27.5653C28.2622 33.445 29.0727 33.4784 29.4062 34.31C29.4256 34.317 29.4458 34.325 29.4652 34.3329C29.7926 33.4854 30.6118 33.4441 31.315 33.4441H40.3895V21.4004H32.503C31.4716 21.4004 30.6277 22.2443 30.6277 23.2757C30.6277 22.5189 30.1727 21.8633 29.5233 21.5676C29.4687 21.7427 29.4397 21.9284 29.4397 22.1211C29.4397 21.9011 29.401 21.6899 29.3306 21.4928C29.1444 21.431 28.9494 21.3998 28.7533 21.4004Z" fill="#E6E6E5"/>
<path fill-rule="evenodd" clip-rule="evenodd" d="M30.7704 10.8574C33.8161 10.8574 36.2854 13.3267 36.2854 16.3715C36.2854 18.4615 34.8571 20.2593 33.7184 21.9023H27.8444C26.6995 20.2505 25.2563 18.4765 25.2563 16.3715C25.2563 13.3267 27.7256 10.8574 30.7704 10.8574Z" fill="#E3A037"/>
<path fill-rule="evenodd" clip-rule="evenodd" d="M32.5304 21.9028H27.8444C26.6995 20.2501 25.2563 18.476 25.2563 16.3711C25.2563 13.526 27.4106 11.1844 30.1764 10.8887C32.9423 11.1852 35.0974 13.526 35.0974 16.3711C35.0974 18.4611 33.6691 20.2589 32.5304 21.9028Z" fill="#FCB13C"/>
<path fill-rule="evenodd" clip-rule="evenodd" d="M30.0145 5.80965C30.0145 5.47085 30.289 5.19629 30.6278 5.19629C30.9666 5.19629 31.2412 5.47085 31.2412 5.80965V7.96565C31.2412 8.30445 30.9666 8.57901 30.6278 8.57901C30.289 8.57901 30.0145 8.30445 30.0145 7.96565V5.80965ZM20.5738 16.4779C20.235 16.4779 19.9604 16.2033 19.9604 15.8645C19.9604 15.5257 20.235 15.2512 20.5738 15.2512H22.7298C23.0686 15.2512 23.3432 15.5257 23.3432 15.8645C23.3432 16.2033 23.0686 16.4779 22.7298 16.4779H20.5738ZM23.0827 9.19061C22.8424 8.95037 22.8424 8.55965 23.0827 8.31941C23.3229 8.07917 23.7136 8.07917 23.9539 8.31941L25.478 9.84357C25.7183 10.0838 25.7183 10.4745 25.478 10.7148C25.2378 10.955 24.8471 10.955 24.6068 10.7148L23.0827 9.19061ZM40.6827 15.2485C41.0232 15.2485 41.2987 15.524 41.2987 15.8645C41.2987 16.2051 41.0232 16.4805 40.6827 16.4805H38.5267C38.1861 16.4805 37.9107 16.2051 37.9107 15.8645C37.9107 15.524 38.1861 15.2485 38.5267 15.2485H40.6827ZM37.3026 8.31941C37.5429 8.07917 37.9336 8.07917 38.1738 8.31941C38.4141 8.55965 38.4141 8.95037 38.1738 9.19061L36.6497 10.7148C36.4094 10.955 36.0187 10.955 35.7785 10.7148C35.5382 10.4745 35.5382 10.0838 35.7785 9.84357L37.3026 8.31941Z" fill="#FDB714"/>
<path fill-rule="evenodd" clip-rule="evenodd" d="M27.5615 21.9023H33.9802C35.1418 21.9023 35.1418 24.8257 33.9802 24.8257H33.4786L32.8609 26.5039C32.6074 27.192 32.2176 27.5713 31.7644 27.5713H29.7782C29.325 27.5713 28.9343 27.192 28.6818 26.5039L28.064 24.8257H27.5624C26.3999 24.8248 26.3999 21.9023 27.5615 21.9023Z" fill="#686969"/>
<path fill-rule="evenodd" clip-rule="evenodd" d="M27.5618 21.9023H33.9805C34.0624 21.9023 34.138 21.9173 34.2084 21.9446C34.4698 22.8105 34.2128 24.1164 33.4367 24.1164H32.9351L32.3173 25.7946C32.0639 26.4827 31.674 26.862 31.2208 26.862H29.2347C29.0692 26.862 28.9135 26.8119 28.7683 26.7151C28.7384 26.6482 28.7093 26.5787 28.682 26.5047L27.8029 24.1173H27.018C26.94 24.1176 26.8627 24.1032 26.79 24.0751C26.5278 23.2074 26.7856 21.9023 27.5618 21.9023ZM22.302 31.8455C21.9615 31.8455 21.686 31.57 21.686 31.2295C21.686 30.8889 21.9615 30.6135 22.302 30.6135H25.2773C25.6179 30.6135 25.8933 30.8889 25.8933 31.2295C25.8933 31.57 25.6179 31.8455 25.2773 31.8455H22.302ZM22.302 29.0523C21.9615 29.0523 21.686 28.7769 21.686 28.4363C21.686 28.0958 21.9615 27.8203 22.302 27.8203H24.6904C25.0309 27.8203 25.3064 28.0958 25.3064 28.4363C25.3064 28.7769 25.0309 29.0523 24.6904 29.0523H22.302ZM38.8504 30.6135C39.191 30.6135 39.4664 30.8889 39.4664 31.2295C39.4664 31.57 39.191 31.8455 38.8504 31.8455H35.8752C35.5346 31.8455 35.2592 31.57 35.2592 31.2295C35.2592 30.8889 35.5346 30.6135 35.8752 30.6135H38.8504ZM38.8504 27.8203C39.191 27.8203 39.4664 28.0958 39.4664 28.4363C39.4664 28.7769 39.191 29.0523 38.8504 29.0523H36.4621C36.1216 29.0523 35.8461 28.7769 35.8461 28.4363C35.8461 28.0958 36.1216 27.8203 36.4621 27.8203H38.8504Z" fill="#818181"/>
</svg>
