<svg width="44" height="44" viewBox="0 0 44 44" fill="none" xmlns="http://www.w3.org/2000/svg">
<path d="M39.5992 30.497C39.5992 30.497 42.8316 26.9577 41.6313 21.1551C41.6313 21.1551 40.4591 15.7711 34.0928 15.7452C34.0928 15.7452 28.5792 10.2202 23.6608 16.3061L23.7441 13.5377C23.7441 13.5377 23.7721 12.9407 22.7905 12.6321C22.7905 12.6321 22.5662 10.9495 24.5013 10.641C24.5013 10.641 25.7914 11.0055 25.7353 12.0432C25.7353 12.0432 27.3619 10.248 25.0902 9.09849C24.5956 8.91533 24.0518 8.91533 23.5573 9.09849C23.5573 9.09849 24.922 6.93897 23.1551 4.33074L22.1102 2.22754C22.1102 2.22754 21.1306 4.12781 20.6 4.52724C20.0695 4.92668 18.644 7.13548 20.4369 9.09867C20.4369 9.09867 17.9667 8.31335 17.9106 10.6692C17.9106 10.6692 20.9149 9.97277 21.2778 12.7048C21.2778 12.7048 19.7336 12.6885 20.2384 15.7734C20.2384 15.7734 14.6294 10.3928 9.49705 16.098C9.49705 16.098 5.34635 14.8196 3.01858 19.5313C3.01858 19.5313 0.129978 25.8978 4.44893 30.2729L3.66362 30.9251C3.66362 30.9251 5.75626 32.2358 5.81777 35.0963C5.81777 35.0963 5.37443 36.8915 7.16927 37.0875L9.14549 42.0331H36.4881L36.686 36.9907C36.686 36.9907 37.9988 37.1713 38.1352 35.4885C38.2716 33.8058 38.3472 32.067 40.3146 31.0855C40.3146 31.086 40.2819 30.7214 39.5992 30.497ZM7.5585 24.0208L6.25117 30.4945C6.25117 30.4945 3.53866 27.6814 3.85757 23.254C4.19241 18.6032 8.19096 18.3019 8.19096 18.3019L7.5585 24.0208ZM9.84113 21.0744C9.84113 21.0744 9.62923 18.4503 12.5298 16.7428C15.4304 15.0353 19.8186 16.639 20.5246 21.0744C20.5246 21.0744 15.9611 17.0666 9.84113 21.0744ZM34.2631 21.0744C28.143 17.0666 23.5799 21.0744 23.5799 21.0744C24.2859 16.6392 28.6739 15.0354 31.5746 16.7428C34.4752 18.4502 34.2631 21.0744 34.2631 21.0744ZM37.8529 30.4945L36.5456 24.0208L35.913 18.3019C35.913 18.3019 39.9115 18.6032 40.2464 23.254C40.5655 27.6814 37.8529 30.4945 37.8529 30.4945Z" fill="#FFDA76"/>
<path d="M10.1288 29.1263C10.3805 28.8163 10.6823 28.5507 11.0218 28.3406C11.3273 28.1515 11.6656 28.0056 11.9235 27.7555C12.3893 27.3038 12.5052 26.5821 12.379 25.9456C12.2529 25.3092 11.9201 24.7357 11.5908 24.1768C11.2615 23.618 10.9253 23.0472 10.7906 22.4125C10.6578 21.7862 10.7297 21.1372 10.8063 20.5009L10.7928 20.5081C10.3873 21.5654 9.95843 22.6267 9.30081 23.5482C8.78222 24.2749 8.10207 24.913 7.30162 25.2917L6.6792 28.3748C6.94878 28.896 7.35261 29.3358 7.84898 29.6487C8.34601 29.9561 9.00997 30.1183 9.50338 29.8044C9.76377 29.6384 9.93405 29.3665 10.1288 29.1263ZM14.0629 13.5141C14.3304 13.9359 14.49 14.417 14.5274 14.9151C14.5526 15.3241 14.4936 15.7339 14.3541 16.1191C15.2349 16.0094 16.1292 16.1183 16.958 16.4361C17.7868 16.754 18.5245 17.271 19.1061 17.9415C19.3423 17.6415 19.5007 17.2879 19.5674 16.9119C19.6726 16.3487 19.6114 15.7712 19.5357 15.2018C18.5052 14.4477 16.4446 13.2451 14.0629 13.5141ZM31.5975 14.0774C31.5956 14.3434 31.6551 14.6062 31.7713 14.8455C31.8919 15.0897 32.0711 15.3094 32.135 15.5741C32.2399 16.0081 31.9983 16.4702 31.6414 16.7383C31.6298 16.7471 31.6175 16.754 31.6062 16.7623C32.6238 17.3686 33.2533 18.0875 33.6424 18.7632C33.9885 18.6756 34.2999 18.4851 34.5354 18.2167C34.9111 17.7911 35.0933 17.2257 35.1722 16.6635C35.2125 16.3805 35.2258 16.0942 35.212 15.8087C34.8404 15.7673 34.4668 15.7461 34.093 15.7451C33.3577 15.0568 32.5147 14.4934 31.5975 14.0774ZM20.9762 26.0988C20.5499 26.3114 20.1402 26.7623 20.2946 27.2129L20.3751 27.5649C20.7975 27.2117 21.5035 27.3914 21.8137 27.846C22.1239 28.3006 22.0897 28.9247 21.8567 29.4234C21.8039 29.5366 21.74 29.659 21.7712 29.78C21.8091 29.8711 21.8637 29.9543 21.9323 30.0252C22.0891 30.24 22.0977 30.5254 22.1001 30.7914L22.1376 34.8658C22.1405 35.1783 22.1414 35.5015 22.018 35.7886C21.7569 36.3964 21.0465 36.6485 20.4122 36.8358C21.0656 37.1187 21.7688 37.4078 22.4683 37.2746C22.7601 37.2191 23.0337 37.0919 23.3233 37.0253C23.7036 36.9373 24.0991 36.9569 24.4893 36.9707C25.9039 37.021 27.3202 36.9951 28.732 36.8929C28.8973 36.8942 29.0603 36.854 29.2061 36.7761C29.371 36.6692 29.4567 36.4776 29.5301 36.2953C29.781 35.6721 29.9859 34.9524 29.6948 34.3469C29.5235 33.9908 29.2041 33.7309 28.9724 33.411C28.3577 32.5617 28.4256 31.4117 28.1134 30.4109C27.757 29.2676 26.8976 28.3345 25.9054 27.6638C24.9133 26.993 23.7861 26.555 22.6695 26.1218C22.3764 26.0082 22.075 25.893 21.7606 25.892C21.4866 25.8991 21.2181 25.9699 20.9762 26.0988Z" fill="#F48A4E"/>
<path d="M3.84318 23.5286C3.84731 23.4374 3.85075 23.3466 3.85735 23.254C3.89251 22.7105 3.99297 22.1732 4.15655 21.6537C3.68645 21.3173 3.3744 20.7921 3.21046 20.2374C3.13612 19.9791 3.08604 19.7145 3.06086 19.447C3.04651 19.4751 3.03199 19.5026 3.01783 19.5312C2.39582 21.0424 2.07463 22.6604 2.07227 24.2946C2.29886 24.052 2.57309 23.8587 2.87781 23.7269C3.18253 23.5951 3.51117 23.5276 3.84318 23.5286ZM19.7649 8.0405C20.0047 7.91733 20.2688 7.8488 20.5382 7.83986C20.8076 7.83091 21.0756 7.88176 21.3231 7.98876C22.0299 8.30652 22.4884 9.07212 22.5149 9.84652C22.6733 9.14921 22.8284 8.39752 22.5522 7.73787C22.331 7.20987 21.8552 6.81941 21.3307 6.58956C20.9475 6.42165 20.5299 6.32661 20.1762 6.1023C20.0281 6.00829 19.8995 5.8867 19.7972 5.74414C19.4957 6.47782 19.4842 7.29863 19.7649 8.0405ZM29.3269 13.5029C29.4359 13.8868 29.4012 14.2983 29.3116 14.6871C29.1956 15.1851 28.9929 15.6587 28.7128 16.0863C29.327 16.0427 29.9441 16.111 30.5338 16.288C30.2507 15.4604 30.2177 14.6467 30.7515 14.2728C30.9251 14.1504 31.1085 14.0424 31.2998 13.95C30.6667 13.6891 29.9977 13.526 29.3157 13.466C29.3194 13.4788 29.3235 13.4909 29.3269 13.5029Z" fill="white"/>
<path d="M40.1732 25.6092C40.1619 25.603 40.1513 25.5957 40.1401 25.5891C39.6343 28.6463 37.8531 30.4942 37.8531 30.4942L36.7835 25.1977C36.2306 25.5352 35.6077 25.7772 34.9619 25.78C34.2636 25.7831 33.5399 25.4685 33.1742 24.8736L32.4934 25.9435C32.2434 26.3538 32.1349 26.8348 32.1844 27.3128C32.234 27.7907 32.439 28.2392 32.7678 28.5895C33.097 28.9239 33.5252 29.139 33.9061 29.4128C34.7051 29.9907 35.288 30.819 35.5624 31.7661C36.7405 30.8729 38.145 30.3269 39.6171 30.1899C39.6977 30.1825 39.779 30.1766 39.8603 30.1712C40.3464 29.5192 41.3752 27.9083 41.7542 25.5367C41.265 25.8026 40.6563 25.875 40.1732 25.6092ZM4.06593 26.1085C3.72024 26.7403 3.292 27.3233 2.79248 27.8421C3.19007 28.7474 3.75173 29.5713 4.44908 30.2722L3.66377 30.9248C3.66377 30.9248 3.69237 30.9429 3.74121 30.9776C3.8021 30.9248 3.86335 30.872 3.92601 30.8211C4.33494 30.4873 4.83302 30.202 5.35891 30.2472C5.57134 30.2654 5.8452 30.3033 5.98908 30.1873C5.0517 28.9882 4.39459 27.5946 4.06593 26.1085ZM5.1999 16.8719C5.5269 17.6415 5.66093 18.5008 5.67554 19.3752C6.28636 18.8825 7.00337 18.5387 7.76994 18.3707C7.90739 18.1063 8.05016 17.8453 8.19823 17.5875C8.48978 17.0823 8.80939 16.5433 8.95354 15.9883C7.63589 15.804 6.29696 16.1192 5.1999 16.8719ZM18.2322 41.9123C17.8665 41.3388 18.1951 40.4557 18.8467 40.2608C18.0803 40.1321 17.3218 39.6694 17.0611 38.9374C16.8003 38.2053 17.2313 37.2414 17.9998 37.1264L17.5932 37.1119C16.3569 37.0938 15.1323 37.3541 14.0102 37.8733C12.888 38.3925 11.897 39.1575 11.1105 40.1115C10.7458 40.5609 10.4241 41.0619 10.2921 41.6258C10.2611 41.7595 10.2425 41.8958 10.2365 42.0329H18.3202C18.2887 41.9943 18.2594 41.954 18.2322 41.9123ZM20.8484 4.27574C21.9123 5.38542 22.1768 7.14621 22.0209 8.71631C21.9645 9.28514 21.8656 9.85952 21.9532 10.4243C22.0409 10.9891 22.3604 11.5595 22.8953 11.7609C22.9017 11.7633 22.9082 11.7651 22.9146 11.7674C23.097 11.3039 23.523 10.7966 24.5015 10.641C24.5015 10.641 25.7915 11.0055 25.7354 12.0432C25.7354 12.0432 27.3621 10.248 25.0904 9.09849C24.5958 8.91533 24.052 8.91533 23.5574 9.09849C23.5574 9.09849 24.9221 6.93897 23.1552 4.33074L22.1103 2.22754C22.1103 2.22754 21.3884 3.62691 20.8484 4.27574ZM22.0677 19.3402C22.0975 20.0626 22.1271 20.8179 21.8213 21.473C21.5155 22.128 20.7541 22.6325 20.0713 22.3949L19.8595 22.7535C19.6089 23.1557 19.6942 23.6753 19.8142 24.1336C19.9532 24.6646 20.153 25.2228 20.6002 25.5416C21.1917 25.9627 21.9986 25.8259 22.708 25.6711C23.0833 25.5893 23.4715 25.5016 23.7784 25.2705C24.2346 24.9273 24.4216 24.3383 24.5552 23.7833C24.8369 22.5895 25.0078 21.3722 25.0656 20.1469C24.5341 20.3938 24.035 20.7053 23.5798 21.0745C23.7925 19.7381 24.3398 18.6593 25.0795 17.8503C25.0458 16.9164 24.968 15.9819 24.8595 15.0519C24.4239 15.434 24.0228 15.8537 23.6607 16.3061L23.744 13.5377C23.744 13.5377 23.772 12.9407 22.7904 12.6321C22.7753 12.4729 22.7814 12.3123 22.8086 12.1546C22.5594 12.1773 22.3267 12.2552 22.1703 12.4442C21.9774 12.6769 21.9652 13.0054 21.9633 13.3077C21.9504 15.3189 21.9852 17.3297 22.0677 19.3402ZM17.5936 32.9075C17.6703 32.1783 17.1232 31.4636 16.421 31.2525C15.7189 31.0414 14.9257 31.2885 14.3889 31.7879L14.0985 32.2814C14.4143 32.6129 14.6481 33.0136 14.7813 33.4517C14.9144 33.8897 14.9432 34.3529 14.8652 34.804C14.7873 35.2552 14.6048 35.6818 14.3324 36.0498C14.06 36.4177 13.7052 36.7168 13.2965 36.9231L15.9582 36.9307C15.8429 36.2765 15.9653 35.6025 16.3032 35.0306C16.7325 34.3101 17.5059 33.7417 17.5936 32.9075Z" fill="#F48A4E"/>
<path d="M38.7359 29.9405C38.571 29.9662 38.4035 29.9952 38.2376 30.031C38.1176 30.1921 37.9893 30.3468 37.8532 30.4946L37.7841 30.1525C37.4229 30.2583 37.0951 30.4553 36.8321 30.7245C36.3722 31.2236 36.2625 31.9423 35.9785 32.5585C35.6401 33.2851 35.057 33.8696 34.3311 34.2095C34.1094 34.3125 33.8743 34.3925 33.6741 34.5327C33.4739 34.673 33.3079 34.8915 33.3089 35.1361C33.3101 35.4061 33.5113 35.6569 33.4673 35.9235C33.4309 36.0721 33.3513 36.2065 33.2385 36.3098C32.9273 36.6331 32.5466 36.8812 32.1251 37.0352C31.7037 37.1893 31.2527 37.2454 30.8064 37.199L30.5906 37.3082C30.1497 37.9316 30.1418 38.7701 30.3196 39.5127C30.4973 40.2554 30.8369 40.9494 31.0442 41.6842C31.0766 41.7995 31.1058 41.9163 31.135 42.0332H36.4885L36.6863 36.9908C36.6863 36.9908 37.9992 37.1713 38.1356 35.4886C38.272 33.8059 38.3476 32.0671 40.3149 31.0855C40.3149 31.0855 40.2822 30.7209 39.5995 30.4965C39.774 30.295 39.9349 30.0822 40.0813 29.8595C39.6312 29.8294 39.1791 29.8566 38.7359 29.9405Z" fill="#F48A4E"/>
<path d="M20.0729 28.9242L20.4367 30.6292L15.7679 32.3044C15.7679 32.3044 11.1498 30.6379 10.4481 26.033C9.74641 21.4281 12.6848 19.7756 12.6848 19.7756C12.6848 19.7756 16.4564 18.2708 19.1754 20.4195L20.3157 21.1559L21.0861 25.5048L23.3856 25.5945L24.3505 20.8876C24.3505 20.8876 27.0316 18.0352 31.455 19.7756C31.455 19.7756 34.5735 20.7265 33.7379 25.0682L31.5866 30.7803C31.5866 30.7803 27.2889 33.6197 24.5697 30.462C24.5697 30.462 24.1233 29.2779 23.5571 27.6553L22.0479 26.0765L20.0729 28.9242Z" fill="#ED588E"/>
<path d="M32.525 20.4085C32.6493 21.0694 32.6729 21.7453 32.5948 22.4133C32.3484 24.4487 30.9608 26.3865 28.9984 26.9805C27.0361 27.5745 24.6321 26.5563 23.9524 24.6221C23.8585 24.3501 23.793 24.0691 23.757 23.7836L23.3861 25.5931L21.0865 25.5034L20.3161 21.1545L19.1754 20.4182C19.1673 20.4118 19.159 20.4058 19.1509 20.3994C19.5425 23.145 18.0652 26.1463 15.5288 27.339C14.0768 28.0219 12.3893 28.0583 10.8618 27.5806C12.2034 31.0163 15.7681 32.3036 15.7681 32.3036L20.4369 30.6288L20.073 28.9234L22.048 26.0757L23.5572 27.6545C24.1234 29.2771 24.5698 30.4612 24.5698 30.4612C27.289 33.6189 31.5867 30.7795 31.5867 30.7795L33.738 25.067C34.2343 22.4888 33.3362 21.1062 32.525 20.4085Z" fill="#B23669"/>
<path d="M19.7759 38.4448L22.0002 36.9912L24.3472 38.6139L22.4225 40.0599L19.7759 38.4448Z" fill="#F469A2"/>
<path d="M8.66162 38.7041L11.6827 36.9912L14.3491 38.7041L11.3047 40.369L8.66162 38.7041ZM32.2742 39.9839C33.1495 39.7388 34.0074 38.5255 34.0074 38.5255L32.3794 37.1825L29.9987 38.642L32.2742 39.9839Z" fill="#87DDAA"/>
<path d="M16.8738 39.6323C17.3863 39.6323 17.8017 39.2168 17.8017 38.7043C17.8017 38.1918 17.3863 37.7764 16.8738 37.7764C16.3613 37.7764 15.9458 38.1918 15.9458 38.7043C15.9458 39.2168 16.3613 39.6323 16.8738 39.6323Z" fill="white"/>
<path d="M36.9419 39.3906C37.3877 39.3906 37.749 39.0293 37.749 38.5835C37.749 38.1377 37.3877 37.7764 36.9419 37.7764C36.4961 37.7764 36.1348 38.1377 36.1348 38.5835C36.1348 39.0293 36.4961 39.3906 36.9419 39.3906Z" fill="white"/>
<path d="M27.1755 39.5805C27.7093 39.5805 28.142 39.1478 28.142 38.614C28.142 38.0802 27.7093 37.6475 27.1755 37.6475C26.6417 37.6475 26.209 38.0802 26.209 38.614C26.209 39.1478 26.6417 39.5805 27.1755 39.5805Z" fill="white"/>
<path d="M2.84263 27.6917L3.61228 29.5268C3.61228 29.5268 2.50832 29.9228 2.29888 29.0252C2.08944 28.1276 2.84263 27.6917 2.84263 27.6917ZM2.08953 24.1196L2.26183 26.2853C2.26183 26.2853 1.17063 26.2634 1.14362 25.2909C1.1166 24.3183 2.08953 24.1196 2.08953 24.1196ZM2.62263 20.4178L2.08927 22.4302C2.08927 22.4302 1.04664 22.1439 1.31337 21.075C1.5801 20.0062 2.62263 20.4178 2.62263 20.4178ZM4.5626 17.1638L3.36703 18.7205C3.20412 18.5132 3.10522 18.2628 3.08241 18.0001C3.05961 17.7374 3.1139 17.4738 3.23863 17.2415C3.66552 16.3929 4.5626 17.1638 4.5626 17.1638ZM7.93282 15.7625L6.25985 16.2232C6.25985 16.2232 6.0901 15.2048 7.25425 14.7441C7.25399 14.7441 8.05408 14.9138 7.93282 15.7625Z" fill="white"/>
<path d="M8.66147 27.5329C9.0702 27.5329 9.40155 27.2015 9.40155 26.7928C9.40155 26.3841 9.0702 26.0527 8.66147 26.0527C8.25273 26.0527 7.92139 26.3841 7.92139 26.7928C7.92139 27.2015 8.25273 27.5329 8.66147 27.5329Z" fill="white"/>
<path d="M7.52377 23.3532C7.93251 23.3532 8.26385 23.0219 8.26385 22.6131C8.26385 22.2044 7.93251 21.873 7.52377 21.873C7.11504 21.873 6.78369 22.2044 6.78369 22.6131C6.78369 23.0219 7.11504 23.3532 7.52377 23.3532Z" fill="white"/>
<path d="M8.19078 18.8542C8.67611 18.8542 9.06955 18.4608 9.06955 17.9754C9.06955 17.4901 8.67611 17.0967 8.19078 17.0967C7.70545 17.0967 7.31201 17.4901 7.31201 17.9754C7.31201 18.4608 7.70545 18.8542 8.19078 18.8542Z" fill="white"/>
<path d="M11.5287 15.1755C12.014 15.1755 12.4074 14.7821 12.4074 14.2967C12.4074 13.8114 12.014 13.418 11.5287 13.418C11.0433 13.418 10.6499 13.8114 10.6499 14.2967C10.6499 14.7821 11.0433 15.1755 11.5287 15.1755Z" fill="white"/>
<path d="M16.2723 14.4626C16.7577 14.4626 17.1511 14.0692 17.1511 13.5838C17.1511 13.0985 16.7577 12.7051 16.2723 12.7051C15.787 12.7051 15.3936 13.0985 15.3936 13.5838C15.3936 14.0692 15.787 14.4626 16.2723 14.4626Z" fill="white"/>
<path d="M22.0003 16.4607C22.4857 16.4607 22.8791 16.0672 22.8791 15.5819C22.8791 15.0966 22.4857 14.7031 22.0003 14.7031C21.515 14.7031 21.1216 15.0966 21.1216 15.5819C21.1216 16.0672 21.515 16.4607 22.0003 16.4607Z" fill="white"/>
<path d="M21.9648 20.6513C22.362 20.6513 22.6841 20.3293 22.6841 19.9321C22.6841 19.5349 22.362 19.2129 21.9648 19.2129C21.5676 19.2129 21.2456 19.5349 21.2456 19.9321C21.2456 20.3293 21.5676 20.6513 21.9648 20.6513Z" fill="white"/>
<path d="M21.9971 25.1269C22.3943 25.1269 22.7163 24.8049 22.7163 24.4077C22.7163 24.0105 22.3943 23.6885 21.9971 23.6885C21.5998 23.6885 21.2778 24.0105 21.2778 24.4077C21.2778 24.8049 21.5998 25.1269 21.9971 25.1269Z" fill="white"/>
<path d="M27.7397 14.5322C28.2146 14.5322 28.5996 14.1472 28.5996 13.6723C28.5996 13.1975 28.2146 12.8125 27.7397 12.8125C27.2648 12.8125 26.8799 13.1975 26.8799 13.6723C26.8799 14.1472 27.2648 14.5322 27.7397 14.5322Z" fill="white"/>
<path d="M32.4599 15.1562C32.9348 15.1562 33.3198 14.7713 33.3198 14.2964C33.3198 13.8215 32.9348 13.4365 32.4599 13.4365C31.9851 13.4365 31.6001 13.8215 31.6001 14.2964C31.6001 14.7713 31.9851 15.1562 32.4599 15.1562Z" fill="white"/>
<path d="M35.6933 18.8838C36.1682 18.8838 36.5532 18.4988 36.5532 18.0239C36.5532 17.549 36.1682 17.1641 35.6933 17.1641C35.2185 17.1641 34.8335 17.549 34.8335 18.0239C34.8335 18.4988 35.2185 18.8838 35.6933 18.8838Z" fill="white"/>
<path d="M36.2704 23.2888C36.6805 23.2888 37.0129 22.9564 37.0129 22.5463C37.0129 22.1362 36.6805 21.8037 36.2704 21.8037C35.8603 21.8037 35.5278 22.1362 35.5278 22.5463C35.5278 22.9564 35.8603 23.2888 36.2704 23.2888Z" fill="white"/>
<path d="M35.312 27.6182C35.7287 27.6182 36.0665 27.2805 36.0665 26.8638C36.0665 26.4471 35.7287 26.1094 35.312 26.1094C34.8954 26.1094 34.5576 26.4471 34.5576 26.8638C34.5576 27.2805 34.8954 27.6182 35.312 27.6182Z" fill="white"/>
<path d="M22.1104 39.7202V38.6254C22.1104 38.6254 23.5086 38.8397 22.8916 37.5654L24.3474 38.6136L22.1104 39.7202Z" fill="#B23669"/>
<path d="M32.5203 37.2994C32.5027 37.2957 32.4844 37.2913 32.4661 37.2888C32.4488 37.2848 32.4307 37.2864 32.4144 37.2935C32.4046 37.301 32.3966 37.3106 32.3909 37.3216C32.3852 37.3325 32.3819 37.3446 32.3813 37.3569C32.3641 37.4499 32.3539 37.544 32.3508 37.6385C32.3459 37.7841 32.3577 37.9301 32.3444 38.0751C32.3093 38.3708 32.1744 38.6457 31.962 38.8545C31.7496 39.0632 31.4724 39.1933 31.1761 39.2233C31.106 39.2289 31.0355 39.2255 30.9664 39.2134L32.2742 39.9846C32.3857 39.9523 32.4936 39.9084 32.5959 39.8536L33.3662 39.2665C33.5995 39.0374 33.8139 38.7898 34.0074 38.5262L32.5203 37.2994ZM13.042 39.4196L13.4479 39.1009C13.6028 38.9793 13.7647 38.8481 13.8332 38.6634C13.8485 38.6285 13.8533 38.5898 13.847 38.5522C13.8351 38.5148 13.8135 38.4812 13.7845 38.4548C13.1971 37.8319 12.268 37.6832 11.5558 37.208L11.5316 38.0818C11.5392 38.2195 11.5117 38.3568 11.4515 38.4808C11.312 38.7137 10.9931 38.7448 10.7217 38.7499L9.69508 38.7693L9.51318 38.8445C9.7462 39.1591 10.0044 39.4543 10.2852 39.7272L11.305 40.3696L13.042 39.4196Z" fill="#48A06C"/>
<path d="M38.7877 17.0967C38.813 17.4733 38.7208 17.8484 38.5237 18.1703C38.4079 18.3503 38.2485 18.4983 38.0603 18.6004C37.8722 18.7026 37.6613 18.7556 37.4472 18.7546C38.0196 19.0253 38.5319 19.4081 38.9537 19.8804C38.9707 19.7698 38.9952 19.6605 39.027 19.5533C39.1572 19.1192 39.4509 18.7094 39.8778 18.5569C40.0054 18.512 40.1399 18.4902 40.2752 18.4924C39.8499 17.9573 39.3488 17.4871 38.7877 17.0967ZM8.10209 34.3933C7.69967 33.1261 7.29249 31.8476 6.62624 30.6973C6.85355 31.4621 6.5202 32.3281 5.91071 32.8429C5.76577 32.9721 5.59348 33.0669 5.40674 33.1201C5.54699 33.4556 5.65189 33.8048 5.71975 34.162C5.80389 34.0931 5.89486 34.0331 5.99123 33.9828C6.33999 33.813 6.73451 33.7613 7.11527 33.8353C7.49603 33.9094 7.84239 34.1052 8.10209 34.3933ZM9.38179 37.3369C9.74118 37.2939 10.0978 37.2332 10.4518 37.1549C10.3474 37.0361 10.2732 36.8939 10.2355 36.7403C10.1979 36.5867 10.1979 36.4263 10.2357 36.2728C10.322 35.9351 10.5802 35.6735 10.7681 35.3799C10.9563 35.0811 11.0756 34.744 11.1172 34.3933C11.1589 34.0426 11.1219 33.687 11.0089 33.3524C10.8847 32.9934 10.6745 32.5931 10.8601 32.2618C10.9166 32.1828 10.9689 32.1009 11.0169 32.0165C11.12 31.777 10.9625 31.5149 10.8788 31.268C10.6385 30.5594 11.0191 29.8048 11.3877 29.1536L11.0181 29.0167C9.74479 29.7277 8.98931 31.1453 8.73895 32.582C8.48859 34.0186 8.67638 35.4923 8.88775 36.9352C8.90747 37.0698 8.93695 37.2202 9.04976 37.296C9.15213 37.3484 9.26975 37.3629 9.38179 37.3369Z" fill="white"/>
<path d="M25.1101 42.0338H27.4157C27.3273 41.9074 27.278 41.7579 27.274 41.6037C27.274 41.3884 27.2891 40.568 28.3353 40.3974L25.0301 40.2012L24.9463 40.2921C25.3147 40.4424 25.715 40.7038 25.7306 41.1017C25.7394 41.324 25.6195 41.532 25.4754 41.7014C25.3678 41.8268 25.2451 41.9384 25.1101 42.0338Z" fill="#F48A4E"/>
<path d="M11.2777 31.0258C11.4336 30.6553 10.8623 30.4582 10.7233 30.822C10.5613 31.187 11.1503 31.3959 11.2777 31.0258ZM27.0814 39.878C28.8002 39.9853 28.8173 37.3964 27.1266 37.3662C25.489 37.4594 25.6697 39.7739 27.0814 39.878ZM27.8246 38.4934C28.0346 39.5008 26.555 39.6454 26.5065 38.6474C26.467 37.8546 27.6145 37.5339 27.8246 38.4934ZM36.6947 36.6401C36.6771 36.6377 36.6915 36.6388 36.6947 36.6401V36.6401ZM33.2546 31.0823C33.449 30.7567 32.924 30.43 32.7301 30.7671C32.5373 31.0934 33.0597 31.4214 33.2546 31.0823Z" fill="#3A3245"/>
<path d="M42.5649 24.0432C42.4493 23.9707 42.3238 23.9153 42.1923 23.8787C42.1898 23.466 42.1599 23.0538 42.1027 22.645C43.5062 22.0378 43.006 19.9354 41.4635 20.1194C41.2824 19.6411 41.0611 19.1789 40.8019 18.7378C41.8834 17.5387 40.3873 15.7783 39.0762 16.759C38.727 16.4908 38.3492 16.2622 37.9498 16.0772C38.1991 14.462 35.9082 13.8524 35.4177 15.427C34.9934 15.3902 34.5671 15.3826 34.1417 15.4044C33.9372 15.197 33.7214 15.001 33.4953 14.8174C34.1708 13.5546 32.2721 12.4709 31.5318 13.6963C30.6852 13.3826 29.7885 13.2256 28.8856 13.2328C28.4373 11.9208 26.4356 12.2269 26.5138 13.6705C25.5873 14.0095 24.7221 14.518 24.0713 15.247C24.0326 14.1676 24.4585 12.8035 23.1164 12.3952C23.1623 11.9481 23.2853 11.47 23.6645 11.1914C24.5471 10.5941 25.6021 11.2366 25.32 12.2955C25.3634 12.5298 25.6678 12.544 25.7987 12.3898C27.5111 11.1584 26.262 8.38069 24.2363 8.70259C25.9475 6.10553 22.7807 4.23096 22.2739 1.86675C22.2232 1.59641 21.7792 1.59659 21.7283 1.86675C21.2191 4.22515 18.0474 6.09401 19.7428 8.69256C17.712 8.38385 16.473 11.1663 18.1862 12.3999C18.3243 12.5588 18.6401 12.5439 18.6851 12.2992C18.4151 11.2387 19.4331 10.6177 20.3145 11.2156C20.687 11.4967 20.7897 11.9704 20.8124 12.4124C19.5433 12.8415 19.9573 14.2244 19.929 15.2559C19.2778 14.5226 18.4101 14.0118 17.4805 13.6719C17.5493 12.2264 15.5603 11.9207 15.1065 13.2337C14.2032 13.2266 13.3062 13.3839 12.4593 13.6979C11.7308 12.4701 9.82496 13.556 10.4969 14.8186C10.2709 15.0021 10.0552 15.198 9.85083 15.4053C9.42534 15.3838 8.99885 15.3938 8.57483 15.435C8.08634 13.8369 5.76481 14.4746 6.0472 16.1066C5.65333 16.2909 5.27877 16.5139 4.92908 16.7724C3.63345 15.7692 2.11088 17.5167 3.18016 18.726C2.91237 19.1681 2.68378 19.6327 2.49702 20.1147C0.98034 19.9604 0.5091 22.056 1.88164 22.6424C1.83536 23.0521 1.81221 23.4642 1.81229 23.8765C0.352724 24.2653 0.640132 26.3895 2.11897 26.4612C2.21352 26.8527 2.33043 27.2386 2.46912 27.6168C1.25112 28.4372 2.17336 30.2304 3.54272 29.808C3.67644 30.0212 3.82824 30.2225 3.99645 30.4096C3.6463 30.5312 2.68402 30.8877 3.33337 31.2896C5.09267 31.9895 5.46104 33.8871 5.5383 35.5752C5.55986 36.3426 5.81664 37.1193 6.71662 37.1957C6.72727 37.302 6.73985 37.4081 6.74637 37.5147C5.62269 37.8891 5.62797 39.5726 6.84114 39.7832C6.83169 39.8634 6.81414 39.9425 6.78878 40.0192C6.78491 40.0155 6.74936 40.0591 6.72155 40.0954C6.39123 40.1376 6.07902 40.2703 5.81946 40.479C5.19976 40.9824 5.1562 42.1133 6.05785 42.2918C14.8016 42.2443 30.068 42.4541 37.691 42.2294C38.3197 42.1987 38.7629 41.5655 38.5383 40.9774C38.3326 40.4523 37.7973 40.1756 37.2772 40.1027C37.2384 40.0942 37.2036 40.073 37.1782 40.0424C37.1529 40.0119 37.1384 39.9738 37.1371 39.9341C37.1359 39.8944 37.1479 39.8555 37.1713 39.8234C37.1946 39.7913 37.228 39.768 37.2662 39.757C38.3825 39.4534 38.316 37.8655 37.2466 37.5145C37.2542 37.3873 37.2711 37.2606 37.2822 37.1336C38.581 36.9785 38.4072 35.7417 38.4919 34.7255C38.6435 33.286 39.2192 31.8444 40.6555 31.2748C41.2818 30.8821 40.324 30.5436 39.992 30.4225C40.1724 30.2352 40.3356 30.032 40.4795 29.8153C41.8435 30.2064 42.7268 28.4249 41.5233 27.6153C41.6616 27.2371 41.7799 26.8519 41.8776 26.4612C43.1304 26.4072 43.6341 24.7345 42.5649 24.0432ZM36.978 23.6516C37.8492 23.1672 37.7134 21.7702 36.7376 21.4956C36.7065 20.8005 36.6039 20.1104 36.4312 19.4364C36.4153 19.3757 36.4174 19.3118 36.4373 19.2523C36.4571 19.1928 36.4938 19.1404 36.5429 19.1014L36.5459 19.0989C36.5917 19.0629 36.6465 19.0402 36.7043 19.033C36.7621 19.0259 36.8208 19.0346 36.874 19.0583C41.2164 20.9517 40.1757 27.006 37.7427 30.1741C38.3642 28.014 38.0577 25.6668 36.9777 23.6516H36.978ZM35.3657 25.7866C34.3589 25.6869 33.9359 26.9218 34.6124 27.6146C34.4744 27.9381 34.3333 28.2646 34.2054 28.5958C33.2743 28.7024 34.4308 25.9586 34.3769 25.4623C34.7226 23.9207 34.9355 22.2789 34.6944 20.6997C34.6729 20.5709 34.6808 20.4388 34.7176 20.3135C34.7544 20.1882 34.8191 20.0728 34.9069 19.9761C34.9922 19.8745 35.1106 19.8061 35.2412 19.783C35.3719 19.7598 35.5065 19.7833 35.6215 19.8494C36.1635 20.1546 36.0989 20.885 36.1618 21.4258C34.9534 21.664 34.8234 23.3411 35.9702 23.7589C35.8175 24.4484 35.6155 25.126 35.3657 25.7866ZM35.7806 27.0765C35.4184 27.787 34.6289 27.1335 34.898 26.5531C35.2182 26.0331 36.0264 26.5691 35.7809 27.0765H35.7806ZM35.7596 22.3832C35.7786 22.2765 35.8353 22.18 35.9193 22.1114C36.3252 21.777 36.9423 22.1949 36.7769 22.6939C36.6295 23.1385 35.9879 23.3603 35.7775 22.6374C35.7517 22.5552 35.7456 22.4682 35.7596 22.3832ZM40.1205 17.0744C40.168 17.0947 40.2138 17.1188 40.2575 17.1465C40.3612 17.3389 40.3279 17.6474 40.1197 17.7655C39.9282 17.5345 39.7211 17.3167 39.5001 17.1137C39.7079 17.0261 39.8916 16.978 40.1205 17.0744ZM40.0207 18.5163C40.3775 19.0506 40.8911 19.7668 40.5543 20.4123C40.5134 20.4798 40.4578 20.5373 40.3917 20.5805C40.3256 20.6236 40.2506 20.6514 40.1724 20.6617C40.0941 20.672 40.0145 20.6646 39.9395 20.64C39.8644 20.6154 39.7959 20.5743 39.7389 20.5197C38.5825 17.7155 36.5909 18.0951 36.4881 16.1704C37.8841 16.5143 39.1361 17.2635 40.0207 18.5163ZM36.5756 15.0642C37.086 15.025 37.4167 15.3986 37.4124 15.854C36.9458 15.6859 36.4636 15.5647 35.9729 15.4922C36.127 15.306 36.2377 15.0902 36.5756 15.0642ZM35.047 17.8486C35.29 17.083 36.3663 17.2612 36.2933 18.0637C36.2161 18.8967 34.8905 18.7213 35.047 17.8486ZM31.9428 14.1428C32.0667 13.5721 32.986 13.6341 33.0673 14.1736C33.0314 14.5292 32.5312 14.9282 32.1681 14.7713C32.0751 14.6984 32.0047 14.6008 31.9648 14.4896C31.925 14.3784 31.9173 14.2582 31.9428 14.1428ZM27.0886 13.4359C27.2216 12.8639 27.9914 12.8589 28.303 13.2553C28.8357 14.4668 26.9532 14.7396 27.0886 13.4359ZM25.5168 15.0257C25.7484 14.56 26.1794 14.3144 26.6565 14.1655C27.1696 15.241 28.8193 14.9181 28.9357 13.7481C29.7667 13.749 30.5911 13.8966 31.371 14.1839C31.2674 15.1167 32.4182 15.8031 33.1607 15.2057C33.2441 15.2741 33.3256 15.3441 33.4054 15.4157C33.6617 15.6397 33.8541 15.9277 33.9629 16.2503C34.0779 16.6074 34.0738 16.9687 33.6707 17.119C33.2761 17.266 32.9491 17.0205 32.6258 16.811C30.7799 15.0723 27.9611 14.841 25.8139 16.1733C25.0529 16.2836 25.3089 15.3636 25.5168 15.0257ZM28.1513 16.6783C30.6323 16.0657 32.8599 18.009 33.7384 20.2032C30.8496 18.3992 26.6531 18.5501 23.9197 20.5854C24.5616 18.6924 26.2018 17.1596 28.1513 16.6783ZM30.7364 30.1032C29.7216 31.0934 28.0524 31.5552 26.714 31.1703C26.054 30.6944 25.4502 30.0496 24.6393 29.8824C24.7686 29.2949 24.7441 28.5875 24.3099 27.7497C24.2189 27.5713 24.1689 27.3748 24.1637 27.1747C24.0979 25.1252 24.2144 23.9128 24.8805 21.9359C25.3679 20.4261 26.8744 19.645 28.3932 19.5914C29.3253 19.4682 30.2652 19.5522 31.0907 20.0197C35.1845 22.2131 33.3221 27.4468 30.736 30.1032H30.7364ZM23.3113 31.2593C24.4807 30.7011 25.4401 32.4065 24.6382 32.2516C22.8732 31.2624 22.0774 33.1774 22.8894 34.5617C23.9404 35.9037 25.4364 34.3267 26.6923 34.2449C27.9436 34.0808 29.2419 34.5324 28.8249 35.9997C28.6563 36.357 28.2904 36.5453 27.9361 36.6157C26.5421 36.6153 25.1482 36.6151 23.7543 36.6149H21.0949C20.6666 36.4767 20.3197 36.2397 20.3101 35.7001C20.4773 34.6881 21.4904 34.8977 21.3968 33.2993C21.3714 32.6847 20.3403 31.7132 19.2774 32.2913C19.2433 32.3095 19.2047 32.3173 19.1662 32.3138C19.1277 32.3103 19.0911 32.2956 19.0609 32.2716C19.0307 32.2475 19.0082 32.2151 18.9962 32.1784C18.9842 32.1416 18.9832 32.1022 18.9933 32.0649C19.1589 31.4284 19.7998 30.9033 20.6825 31.2592C20.8972 31.3458 21.1165 31.2169 21.1235 31.0061C21.1374 30.5945 20.8792 30.3527 20.6175 30.0695C20.1835 29.6 20.279 29.0742 20.6911 28.6283C21.1999 28.078 21.6477 27.5566 21.9984 26.9275C22.3472 27.5571 22.7918 28.0815 23.3031 28.6283C23.6924 29.0446 23.8202 29.5633 23.4198 30.0253C23.1522 30.334 22.8559 30.5621 22.8709 31.0061C22.8738 31.0564 22.8893 31.1052 22.9158 31.1481C22.9423 31.1909 22.979 31.2265 23.0227 31.2516C23.0664 31.2767 23.1157 31.2906 23.166 31.2919C23.2164 31.2933 23.2663 31.282 23.3113 31.2593ZM11.8697 38.4371C11.8697 38.2557 11.8624 37.5659 11.8624 37.5659C11.8624 37.5659 13.0077 38.2542 13.2968 38.445C13.2822 38.4458 12.1654 38.4432 11.8697 38.4371ZM13.1971 38.8724C12.867 39.0836 11.8809 39.6464 11.8624 39.6533C11.8655 39.4541 11.8674 39.0718 11.8688 38.8722C12.2301 38.912 12.8393 38.8874 13.1971 38.8724ZM9.12105 36.6155C9.21344 36.2438 8.88028 35.7611 9.2292 35.4741C9.55541 35.2664 10.0414 35.3773 10.3168 35.0452C11.0866 34.2004 10.4612 32.8549 9.63039 32.8844C9.59571 32.881 9.56282 32.8673 9.5359 32.8452C9.50898 32.8231 9.48923 32.7934 9.47917 32.7601C9.4691 32.7267 9.46917 32.6911 9.47936 32.6578C9.48955 32.6244 9.5094 32.5949 9.5364 32.5729C9.66747 32.4669 9.81941 32.3898 9.9823 32.3466C10.1452 32.3034 10.3154 32.295 10.4817 32.3221C10.8487 32.3896 11.0062 31.8637 10.6379 31.7556C9.76538 31.3799 10.6089 30 11.0313 29.5372C11.5121 30.1532 12.3238 31.4895 11.4166 31.7557C11.0492 31.8636 11.2142 32.4261 11.5727 32.322C12.0491 32.1837 12.4758 32.3273 12.711 32.6257C12.731 32.6514 12.7435 32.682 12.7471 32.7143C12.7508 32.7466 12.7454 32.7792 12.7316 32.8086C12.7178 32.838 12.6962 32.8631 12.6691 32.8809C12.642 32.8988 12.6104 32.9088 12.5779 32.9099C12.0261 32.9242 11.3276 33.2355 11.4668 34.2432C11.5363 34.7462 11.8044 35.1859 12.3107 35.3151C14.7357 35.6263 15.726 33.2559 18.6015 34.6586C19.2413 35.169 19.0291 36.4134 18.2159 36.6153L9.12105 36.6155ZM6.06463 29.4276C6.07043 29.4583 6.06529 29.49 6.0501 29.5172C6.03492 29.5444 6.01066 29.5654 5.98156 29.5766C5.95245 29.5877 5.92036 29.5883 5.89088 29.5782C5.8614 29.5681 5.8364 29.5479 5.82025 29.5213C4.83624 27.8692 4.1244 26.0124 4.06703 24.0744C4.00437 22.0564 5.2098 19.823 7.12063 19.0501C7.17381 19.0283 7.23183 19.0211 7.28872 19.0292C7.34562 19.0373 7.39932 19.0604 7.44429 19.0962L7.44728 19.0986C7.49745 19.1393 7.53478 19.1935 7.55479 19.2549C7.57479 19.3163 7.5766 19.3821 7.56001 19.4445C7.38866 20.1159 7.28675 20.8032 7.25589 21.4955C6.28058 21.7706 6.14348 23.1675 7.01538 23.6515C6.06164 25.4316 5.71008 27.48 6.06463 29.4276ZM8.94223 27.2628C8.40138 27.7324 7.77262 26.7659 8.51983 26.3689C9.1221 26.184 9.34386 26.8775 8.9424 27.2631L8.94223 27.2628ZM9.38047 27.6143C10.0571 26.921 9.63567 25.6861 8.62745 25.7871C8.37762 25.1263 8.17552 24.4484 8.02272 23.7586C9.17015 23.3403 9.03903 21.6638 7.83114 21.4255C7.91131 20.8478 7.81644 20.0578 8.36011 19.6986C8.77793 19.4646 9.13372 19.8986 9.24011 20.2557C9.27699 20.3826 9.30247 20.5125 9.31623 20.6439C9.14023 21.7558 9.19672 22.9077 9.35222 24.0303C9.49425 24.8913 9.64544 25.7394 9.84502 26.5847C9.91868 26.8668 10.5217 28.7647 9.78712 28.5954C9.65978 28.2646 9.51872 27.9381 9.38091 27.6146L9.38047 27.6143ZM7.59785 21.9711C8.41018 22.194 8.14794 23.27 7.37882 23.2541C6.68943 22.9741 6.88866 22.0458 7.59785 21.9711ZM17.4865 38.6008C17.5081 39.5965 16.0002 39.5545 16.1544 38.5467C16.2649 37.7568 17.4901 37.7395 17.4865 38.6008ZM14.4599 39.878C14.7398 39.5207 14.8735 39.084 15.1099 38.7011C15.2673 38.4332 15.7574 37.878 15.5984 38.5826C15.5839 38.758 15.6081 38.9343 15.6693 39.0993C15.7304 39.2643 15.827 39.4138 15.9523 39.5373C16.0775 39.6609 16.2283 39.7555 16.3941 39.8144C16.5599 39.8733 16.7366 39.8951 16.9117 39.8783C17.8772 39.8193 18.3725 38.5847 17.7873 37.842C17.7605 37.8072 17.7435 37.7659 17.7378 37.7223C17.7321 37.6787 17.7381 37.6344 17.7551 37.5939C17.772 37.5534 17.7994 37.5181 17.8344 37.4915C17.8695 37.465 17.9109 37.4482 17.9545 37.4428C18.721 37.3521 19.6209 37.2805 20.3058 37.4164C20.328 37.4205 20.3485 37.431 20.3647 37.4467C20.3809 37.4624 20.3921 37.4825 20.3969 37.5045C20.4016 37.5266 20.3998 37.5495 20.3916 37.5705C20.3834 37.5915 20.3692 37.6096 20.3507 37.6226C19.9949 37.8733 19.2964 38.3646 19.2628 38.3831C19.2211 38.4084 19.1866 38.444 19.1627 38.4865C19.1388 38.5289 19.1262 38.5768 19.1262 38.6256C19.1262 38.6743 19.1388 38.7223 19.1627 38.7647C19.1866 38.8072 19.2211 38.8428 19.2628 38.868C19.7039 39.1344 21.6128 40.0203 21.7108 40.0683C19.2364 40.0683 16.762 40.067 14.2877 40.0643C14.35 40.0069 14.4076 39.9446 14.4599 39.878ZM20.4986 38.5461C20.4794 38.5424 20.4616 38.5332 20.4476 38.5196C20.4335 38.506 20.4237 38.4886 20.4194 38.4695C20.415 38.4504 20.4163 38.4305 20.4231 38.4122C20.4299 38.3938 20.4419 38.3778 20.4576 38.3662C20.9045 38.0284 21.369 37.7146 21.8491 37.426C21.8983 37.3983 21.9543 37.3848 22.0107 37.3872C22.0671 37.3895 22.1217 37.4076 22.1685 37.4393C22.5974 37.7311 23.1767 38.1723 23.6344 38.406C23.3576 38.4143 22.9618 38.4371 22.6989 38.4648C22.4672 38.4892 22.4564 38.8273 22.6989 38.8339C22.9414 38.8405 23.6792 38.8542 23.6792 38.8542C23.2967 39.0566 22.676 39.2473 22.2837 39.4312C22.2773 39.2542 22.2479 38.2778 22.1673 37.9812C22.1215 37.813 21.8322 37.7891 21.8023 37.9812L21.7924 38.7942C21.7924 38.7942 20.9365 38.6316 20.4986 38.5461ZM21.4897 24.4076C21.4931 23.7539 22.4863 23.7539 22.4897 24.4076C22.4866 25.0614 21.4934 25.0613 21.4897 24.4076ZM20.5921 10.7164C20.2162 10.4619 19.7563 10.3629 19.309 10.4402C18.5157 10.5758 18.1264 10.1498 18.6859 9.46265C19.2139 9.14145 19.9007 9.19865 20.4628 9.50665C20.7379 9.65721 21.0661 9.27785 20.8109 9.05556C18.4696 6.94646 21.0071 4.93971 21.9833 2.9194C23.0773 5.13806 24.2119 6.5956 23.1082 9.14233C23.0912 9.19813 23.0909 9.25767 23.1072 9.31368C23.1235 9.36968 23.1557 9.41973 23.2 9.4577C23.2443 9.49567 23.2987 9.51992 23.3565 9.52748C23.4143 9.53505 23.4731 9.52561 23.5257 9.50031C24.9434 8.63492 26.6434 10.0232 25.8665 11.5331C25.658 10.693 24.6922 10.197 23.7828 10.544C23.5188 10.6463 23.3187 10.808 23.0712 10.9404C22.9878 10.9856 22.894 11.0081 22.7992 11.0057C22.7043 11.0033 22.6118 10.976 22.5308 10.9267C22.4497 10.8774 22.3831 10.8076 22.3374 10.7245C22.2917 10.6413 22.2686 10.5477 22.2704 10.4528C22.2875 9.16389 22.2738 7.87249 22.2756 6.58285C22.2763 6.02677 22.3043 5.45169 22.2023 4.90504C22.1925 4.85594 22.166 4.81177 22.1272 4.78003C22.0885 4.7483 22.04 4.73095 21.9899 4.73095C21.9398 4.73095 21.8913 4.7483 21.8526 4.78003C21.8138 4.81177 21.7873 4.85594 21.7775 4.90504C21.6231 6.04798 21.7356 7.21697 21.7026 8.3681C21.7026 8.9335 21.6984 9.49864 21.7038 10.0634C21.7054 10.1943 21.6723 10.3232 21.608 10.4371C21.5437 10.551 21.4504 10.646 21.3376 10.7122C21.2248 10.7785 21.0965 10.8138 20.9656 10.8145C20.8348 10.8153 20.7061 10.7814 20.5926 10.7164H20.5921ZM20.6721 13.2776C21.0065 12.8975 21.5456 12.9004 22.0128 12.9127C22.6884 12.8364 23.5293 13.0815 23.5567 13.882C23.4523 17.1116 23.308 20.3403 23.0639 23.5624C23.0618 23.5915 23.0513 23.6194 23.0338 23.6427C23.0163 23.6661 22.9925 23.6839 22.9651 23.6941C22.9378 23.7043 22.9081 23.7064 22.8796 23.7002C22.8511 23.6941 22.8249 23.6798 22.8043 23.6592C22.6207 23.4744 22.3803 23.3566 22.1218 23.3248C21.8632 23.2931 21.6015 23.3491 21.3787 23.484C21.3376 23.5116 21.2905 23.529 21.2413 23.5345C21.1921 23.54 21.1423 23.5336 21.0961 23.5157C21.05 23.4978 21.0088 23.469 20.9762 23.4317C20.9436 23.3945 20.9205 23.3499 20.9088 23.3018C20.9063 23.2899 20.9045 23.2778 20.9035 23.2656C20.8425 22.4598 20.7923 21.6538 20.74 20.8487C20.5998 18.5455 20.503 16.2394 20.4369 13.9341C20.4362 13.6944 20.5196 13.4621 20.6725 13.2776H20.6721ZM20.2576 22.2008C20.3837 24.0567 20.5271 25.9129 20.7267 27.7624C19.9912 28.3966 19.3459 29.2893 19.991 30.2328C19.3363 30.131 18.7842 30.5037 18.2926 30.8848C16.9423 31.7152 15.1013 31.5629 13.7584 30.7628C12.5229 29.9158 11.8818 28.4352 11.3188 27.0979C10.6969 25.617 10.6135 23.9245 11.2324 22.4202C11.9587 20.688 13.7071 19.3823 15.5999 19.5914C17.199 19.7938 20.0308 20.3083 20.2577 22.201L20.2576 22.2008ZM20.0728 20.5845C17.3354 18.5487 13.1363 18.3977 10.2457 20.2089C10.9576 18.1262 13.2152 16.2587 15.536 16.6131C17.6089 16.9968 19.4052 18.5932 20.0729 20.5847L20.0728 20.5845ZM15.6872 13.2591C15.9682 12.8917 16.6632 12.8573 16.868 13.3247C16.9472 13.96 16.151 14.3279 15.6645 13.9338C15.6169 13.8269 15.5943 13.7107 15.5982 13.5939C15.6022 13.477 15.6327 13.3626 15.6873 13.2592L15.6872 13.2591ZM11.0202 13.9429C11.2963 13.6507 11.9015 13.6525 12.0397 14.1029C12.086 14.2592 12.0688 14.4275 11.9918 14.5713C11.9147 14.715 11.784 14.8225 11.6282 14.8703C11.0054 15.0376 10.7497 14.3332 11.0203 13.9431L11.0202 13.9429ZM10.8329 15.2054C11.5735 15.8026 12.7302 15.1163 12.621 14.1846C13.4005 13.8971 14.2247 13.7494 15.0556 13.7482C15.1725 14.9157 16.8232 15.242 17.3379 14.1659C17.8143 14.315 18.2455 14.5604 18.4767 15.026C18.6727 15.3544 18.9492 16.2554 18.2011 16.1778C16.157 14.9563 13.5717 15 11.7084 16.5282C11.198 16.8321 10.802 17.2756 10.2852 17.549C9.63681 17.8865 9.53561 17.0448 9.72112 16.5938C9.95229 16.0317 10.3577 15.5771 10.8329 15.2054ZM8.2795 17.3494C9.40942 17.4703 8.5787 19.2908 7.59072 18.3155C7.4435 17.8741 7.82172 17.3657 8.2795 17.3494ZM7.3555 15.063C7.41889 15.1523 7.44801 15.2614 7.43752 15.3704C7.42703 15.4794 7.37764 15.581 7.29839 15.6565C7.05551 15.7194 6.81598 15.7945 6.58075 15.8817C6.56359 15.4322 6.87088 15.0573 7.35594 15.063H7.3555ZM3.67499 17.1867C4.06219 17.5076 3.74988 17.9369 3.50392 18.233C3.27371 17.8724 3.33531 17.4388 3.67499 17.1867ZM6.09041 16.664C6.46973 16.4698 6.86854 16.3164 7.28017 16.2064C7.30636 16.1993 7.3339 16.1988 7.36032 16.205C7.38674 16.2112 7.41121 16.2238 7.43155 16.2418C7.45188 16.2597 7.46743 16.2825 7.47681 16.3079C7.48619 16.3334 7.48911 16.3608 7.4853 16.3876C7.2404 18.1511 5.0426 17.8515 3.97956 21.2264C3.83656 21.5494 3.70033 21.8754 3.55126 22.1887C3.41856 22.6207 2.66492 23.6981 2.41518 22.8311C2.72547 20.3892 3.80444 17.8433 6.09041 16.664ZM1.84116 20.8451C1.97544 20.7066 2.13745 20.6867 2.29876 20.6751C2.15513 21.127 2.04339 21.5885 1.96436 22.0561C1.86425 21.9942 1.77971 21.9102 1.71727 21.8105C1.65483 21.7108 1.61616 21.598 1.60425 21.4809C1.59234 21.3639 1.60751 21.2457 1.64859 21.1354C1.68967 21.0252 1.75556 20.9258 1.84116 20.8451ZM1.43187 24.8925C1.50808 24.6502 1.6663 24.5625 1.82901 24.4812C1.84045 24.9514 1.93928 25.415 1.97861 25.8746C1.55656 25.7646 1.27611 25.3863 1.43187 24.8925ZM2.44862 28.6931C2.42768 28.4567 2.55633 28.3147 2.68956 28.1802C2.85053 28.5637 3.03388 28.9375 3.23868 29.2996C2.84867 29.345 2.49051 29.1639 2.44862 28.6931ZM2.62048 25.2794C2.82112 24.844 3.22056 24.7583 3.48596 25.4262C3.63891 25.9039 5.18111 28.8839 4.42431 29.5358C4.38961 29.5635 4.34934 29.5835 4.30625 29.5942C4.26316 29.605 4.21826 29.6063 4.1746 29.5982C4.13093 29.5901 4.08954 29.5726 4.05322 29.547C4.01691 29.5215 3.98653 29.4884 3.96416 29.45C3.30048 28.3749 2.8249 27.1945 2.55783 25.9596C2.50508 25.732 2.52705 25.4935 2.62048 25.2794ZM6.136 35.7778C6.06753 34.0203 5.76824 31.954 4.07864 31.0065C5.23294 30.4952 6.4432 31.1095 6.89693 32.263C7.19437 32.9969 7.28906 33.7807 7.47333 34.5408C7.68286 35.2523 8.28188 35.8511 8.28082 36.6152C7.46251 36.5322 6.1367 36.9948 6.136 35.7782V35.7778ZM11.427 39.7202C11.2676 39.6451 10.2824 38.8608 10.2824 38.8608C10.2824 38.8608 10.9139 38.8872 11.0216 38.8476C11.1667 38.7948 11.2487 38.5484 11.0706 38.4723C10.944 38.4181 10.1389 38.4217 10.003 38.4195C10.0867 38.3486 11.2536 37.583 11.4267 37.5179C11.427 37.5185 11.4107 39.2016 11.427 39.7206V39.7202ZM22.4507 41.2902C22.3899 41.6204 22.0533 41.7528 21.7565 41.7654L11.646 41.7628C11.4651 40.0176 16.5388 40.786 17.7671 40.6253C19.0482 40.626 20.3293 40.6263 21.6104 40.6261C22.143 40.6259 22.5352 40.831 22.4507 41.2902ZM23.7825 39.6254C24.0025 39.3044 25.1831 38.7705 24.6134 38.3561C24.4218 38.2499 24.2311 38.1419 24.0414 38.0323C23.9838 37.9998 23.9357 37.9528 23.9018 37.8959C23.8679 37.8391 23.8495 37.7744 23.8483 37.7082C23.847 37.6421 23.8631 37.5768 23.8949 37.5187C23.9266 37.4607 23.973 37.4119 24.0294 37.3773C24.159 37.3029 25.9364 37.1376 28.1331 37.1945C29.22 37.2913 29.3151 40.121 28.0766 40.0554C27.6333 40.0822 27.1849 40.0588 26.7398 40.067C25.7713 40.0676 24.8027 40.0678 23.8342 40.0676C23.5919 39.9894 23.6311 39.7817 23.7825 39.6254ZM29.0765 41.535C28.7343 41.7687 28.3427 41.7058 27.9578 41.7667C26.7383 41.7661 25.5188 41.7657 24.2993 41.7654C23.6713 41.6956 23.6788 41.1502 24.0203 40.7622C24.2403 40.5938 24.5571 40.639 24.8217 40.6312C26.1769 40.6161 27.5343 40.6286 28.8902 40.6224C29.32 40.7804 29.512 41.2518 29.0765 41.5356V41.535ZM32.0363 37.7522C32.0371 37.8296 32.0423 38.0888 32.0548 38.1595C32.0876 38.3466 32.3998 38.3467 32.4327 38.1595C32.4491 37.9998 32.455 37.8391 32.4503 37.6785C32.4503 37.6785 33.4572 38.3572 33.5726 38.4563C33.0067 38.4674 32.2277 38.4956 31.6649 38.5405C31.417 38.5602 31.4092 38.9351 31.6649 38.9324C31.8049 38.931 31.9448 38.9303 32.0848 38.9302C32.0955 39.0514 32.076 39.6059 32.0749 39.6052C31.6216 39.397 30.5701 38.6999 30.5701 38.6999C30.5701 38.6999 31.5981 37.9658 32.0363 37.7526V37.7522ZM32.4804 39.1122C32.48 39.0882 32.4843 39.0644 32.4932 39.042C32.5021 39.0197 32.5153 38.9994 32.532 38.9822C32.5488 38.965 32.5688 38.9513 32.5909 38.9419C32.613 38.9325 32.6368 38.9276 32.6608 38.9274C32.9305 38.925 33.2802 38.9199 33.4954 38.9098C33.2469 39.1542 32.7872 39.502 32.4762 39.6058C32.485 39.494 32.4832 39.272 32.4804 39.1127V39.1122ZM36.0873 41.5268C35.7679 42.0196 31.8327 42.0196 31.8327 41.2232C31.8327 40.3201 34.218 40.6139 35.0904 40.6139C36.1223 40.6134 36.3353 41.143 36.0873 41.5268ZM36.1004 37.8044C35.9335 37.9923 35.8291 38.2275 35.8018 38.4774C35.7745 38.7273 35.8256 38.9795 35.9481 39.1991C35.9533 39.3712 35.9119 39.5415 35.8283 39.6921C35.7446 39.8426 35.6218 39.9677 35.4729 40.0542C34.9472 40.0559 33.0685 40.0596 32.6548 40.0603C33.3113 39.7804 33.8986 39.3603 34.3756 38.8296C34.6711 38.4846 34.081 38.2232 33.8851 38.0134C33.8845 37.9897 33.5181 37.1962 34.8633 37.1962C34.9531 37.1962 35.7028 37.1893 35.9878 37.1856C36.3456 37.2472 36.3078 37.5631 36.1004 37.8044ZM37.5172 38.5084C37.7228 39.3984 36.3851 39.5346 36.3468 38.6445C36.2904 37.8947 37.3694 37.7973 37.5173 38.5084H37.5172ZM38.0716 33.8708C37.9158 34.5764 37.9145 35.3007 37.8662 36.0166C37.7596 36.6404 37.2352 36.7191 36.6949 36.6404C35.1093 36.6209 33.5093 36.614 31.9196 36.6169C31.4914 36.5701 30.9751 36.5327 30.7359 36.1475C30.5563 35.7976 30.7375 35.4498 31.0776 35.3242C32.5024 35.4865 33.3591 32.8097 31.5468 32.9141C31.5199 32.9157 31.4931 32.9098 31.4694 32.897C31.4457 32.8842 31.426 32.8651 31.4126 32.8417C31.3991 32.8184 31.3925 32.7917 31.3933 32.7648C31.3942 32.7379 31.4025 32.7117 31.4174 32.6893C31.6887 32.2907 32.0751 32.2568 32.4206 32.3204C32.7853 32.3874 32.9417 31.8648 32.5758 31.7572C31.7103 31.4023 32.54 29.983 32.9551 29.5266C33.3789 29.9858 34.2361 31.3838 33.3555 31.7577C32.991 31.8647 33.1458 32.3867 33.5105 32.3197C33.8598 32.2554 34.3817 32.3253 34.5444 32.7385C34.5529 32.7611 34.5556 32.7854 34.5522 32.8093C34.5488 32.8332 34.5394 32.8559 34.525 32.8752C34.5106 32.8945 34.4915 32.91 34.4696 32.92C34.4477 32.9301 34.4236 32.9345 34.3995 32.9328C33.7986 32.8908 33.2526 33.1875 33.2483 33.9478C33.2973 35.5613 35.7177 35.5111 36.4001 34.3549C36.7279 33.8555 36.7442 33.2452 36.9226 32.6896C37.301 31.2963 38.571 30.3989 39.9586 31.0097C38.9298 31.6255 38.3201 32.6639 38.0715 33.8708H38.0716ZM41.1354 27.0573C40.9895 27.5096 40.8142 27.9518 40.6107 28.3812C40.3306 28.809 39.9603 29.1851 39.671 28.687C39.4709 28.2762 39.7433 27.7701 39.8391 27.3628C40.1326 26.5975 40.313 25.7934 40.3747 24.9761C40.5455 24.3361 40.1968 23.4453 40.7901 22.9857C42.2911 22.4008 41.3739 26.4204 41.1352 27.0572L41.1354 27.0573Z" fill="#3A3245"/>
<path d="M21.9901 16.7426C23.4445 16.7162 23.4443 14.5551 21.9901 14.5293C20.5357 14.5553 20.536 16.7167 21.9901 16.7426ZM21.421 15.5575C21.4552 15.1535 22.0538 14.8567 22.3084 15.2478C22.4228 15.4244 22.481 15.6125 22.3381 15.8474C22.0829 16.311 21.3501 16.0812 21.421 15.5575ZM21.9901 19.0524C20.7845 19.074 20.785 20.8652 21.9901 20.8866C23.1954 20.8649 23.1953 19.0738 21.9901 19.0524ZM22.1114 20.1037C21.9078 20.2576 21.5428 20.1549 21.5604 19.8837C21.5745 19.8165 21.6041 19.7536 21.6468 19.6999C21.6895 19.6461 21.7441 19.6031 21.8063 19.5742C21.8686 19.5453 21.9367 19.5313 22.0053 19.5333C22.0739 19.5353 22.141 19.5533 22.2015 19.5858C22.2299 19.6256 22.2502 19.6706 22.2611 19.7183C22.2719 19.766 22.2732 19.8154 22.2648 19.8636C22.2564 19.9118 22.2386 19.9578 22.2122 19.999C22.1859 20.0403 22.1516 20.0758 22.1114 20.1037ZM22.187 29.1941C21.8614 28.8801 21.3635 29.3458 21.6804 29.6796C22.0028 29.9861 22.4959 29.5231 22.187 29.1941Z" fill="#3A3245"/>
</svg>
