<svg width="44" height="44" viewBox="0 0 44 44" fill="none" xmlns="http://www.w3.org/2000/svg">
<path d="M21.9224 32.7383C22.6815 31.9844 23.9134 32.0015 24.6699 32.7579L28.7636 36.8517C28.7762 36.8642 28.785 36.8799 28.7893 36.8972C28.7935 36.9144 28.7929 36.9325 28.7876 36.9494C28.7823 36.9663 28.7724 36.9814 28.7591 36.9932C28.7458 37.0049 28.7295 37.0127 28.712 37.0158L26.7928 37.3589C26.7282 37.3704 26.6687 37.4015 26.6223 37.4479C26.5758 37.4943 26.5448 37.5538 26.5332 37.6184L26.1902 39.5376C26.1871 39.555 26.1793 39.5713 26.1676 39.5846C26.1558 39.5979 26.1407 39.6078 26.1238 39.6131C26.1068 39.6184 26.0888 39.619 26.0716 39.6148C26.0543 39.6106 26.0386 39.6017 26.026 39.5891L21.9175 35.4806C21.16 34.723 21.1616 33.4938 21.9224 32.7383Z" fill="url(#paint0_linear_5_6837)"/>
<path d="M24.5728 32.7383C23.8136 31.9844 22.5817 32.0015 21.8253 32.7579L17.7316 36.8517C17.719 36.8642 17.7101 36.8799 17.7059 36.8972C17.7017 36.9144 17.7023 36.9325 17.7076 36.9494C17.7129 36.9663 17.7228 36.9814 17.7361 36.9932C17.7494 37.0049 17.7657 37.0127 17.7831 37.0158L19.7023 37.3589C19.7669 37.3704 19.8264 37.4015 19.8728 37.4479C19.9192 37.4943 19.9503 37.5538 19.9618 37.6184L20.3049 39.5376C20.3187 39.6148 20.4136 39.6445 20.469 39.5891L24.5776 35.4806C25.3352 34.723 25.3335 33.4938 24.5728 32.7383Z" fill="url(#paint1_linear_5_6837)"/>
<path d="M39.6207 35.1602C40.9555 35.1043 42.03 32.6539 42.03 29.6372C42.03 26.6205 40.9555 24.1702 39.6207 24.1142V24.1113H4.42475C3.06921 24.1113 1.96973 26.5853 1.96973 29.6372C1.96973 32.6892 3.06921 35.1631 4.42475 35.1631H39.6207V35.1602Z" fill="url(#paint2_linear_5_6837)"/>
<path d="M39.6211 24.1142V24.1113H7.04581C6.91278 25.1089 6.83643 25.9519 6.83643 26.2333C6.83643 26.4201 6.98784 26.565 7.22207 26.6686L15.7166 35.1631H39.6211V35.1603C40.9558 35.1043 42.0304 32.654 42.0304 29.6373C42.0304 26.6205 40.9558 24.1702 39.6211 24.1142Z" fill="url(#paint3_linear_5_6837)"/>
<path d="M4.42475 35.1631C3.06921 35.1631 1.96973 32.6892 1.96973 29.6372C1.96973 26.5853 3.06921 24.1113 4.42475 24.1113C5.78142 24.1113 6.8809 26.5853 6.8809 29.6372C6.8809 32.6892 5.78133 35.1631 4.42475 35.1631Z" fill="url(#paint4_linear_5_6837)"/>
<path d="M4.42475 35.1628C3.06921 35.1628 1.96973 32.6889 1.96973 29.6369C1.96973 29.2895 1.98431 28.9497 2.01131 28.6198C2.02589 28.5298 2.04271 28.4427 2.06187 28.3572C2.08542 28.2533 2.1113 28.1526 2.13934 28.0556C2.15841 27.9915 2.17868 27.9289 2.19999 27.8685C2.21121 27.838 2.2213 27.8082 2.23252 27.7792C2.38747 27.3684 2.59418 27.0583 2.82885 26.898C2.92884 26.8294 3.03548 26.7874 3.14444 26.7767C3.16275 26.7751 3.18111 26.7744 3.19948 26.7744H6.52606C6.75063 27.6097 6.8809 28.5894 6.8809 29.637C6.8809 29.6614 6.8809 29.6866 6.87978 29.7111C6.86287 32.7286 5.77012 35.1628 4.42475 35.1628Z" fill="url(#paint5_linear_5_6837)"/>
<path d="M6.88009 29.7111H4.47105C4.47105 29.6867 4.47217 29.6623 4.47217 29.637C4.47217 28.0565 3.90276 26.7744 3.19971 26.7744H6.52628C6.75085 27.6097 6.88113 28.5894 6.88113 29.637C6.88121 29.6614 6.88121 29.6866 6.88009 29.7111Z" fill="url(#paint6_linear_5_6837)"/>
<path d="M24.5875 24.1142V24.1113H21.0034V24.1142C22.3382 24.1702 23.4127 26.6205 23.4127 29.6372C23.4127 32.6539 22.3382 35.1043 21.0034 35.1602V35.163H24.5875V35.1602C25.9223 35.1043 26.9968 32.6539 26.9968 29.6372C26.9967 26.6205 25.9223 24.1702 24.5875 24.1142Z" fill="url(#paint7_linear_5_6837)"/>
<path d="M24.5875 24.1142V24.1113H21.0034V24.1142C22.3382 24.1702 23.4127 26.6205 23.4127 29.6372C23.4127 32.6539 22.3382 35.1043 21.0034 35.1602V35.163H24.5875V35.1602C25.9223 35.1043 26.9968 32.6539 26.9968 29.6372C26.9967 26.6205 25.9223 24.1702 24.5875 24.1142Z" fill="url(#paint8_linear_5_6837)"/>
<path d="M8.09695 11.6533H35.9029C36.5956 11.6533 37.1571 12.2149 37.1571 12.9076V19.8216C37.1571 21.6694 36.0255 23.3287 34.3052 24.0033C26.3949 27.1051 17.605 27.1051 9.69466 24.0033C7.97444 23.3287 6.84277 21.6694 6.84277 19.8216V12.9076C6.84269 12.2149 7.40425 11.6533 8.09695 11.6533Z" fill="url(#paint9_linear_5_6837)"/>
<path d="M35.9029 11.6533H8.35938V23.1861C8.75314 23.5346 9.20515 23.8112 9.69473 24.0032C17.6051 27.105 26.395 27.105 34.3053 24.0032C36.0256 23.3286 37.1572 21.6694 37.1572 19.8215V12.9075C37.1572 12.2149 36.5956 11.6533 35.9029 11.6533Z" fill="url(#paint10_linear_5_6837)"/>
<path d="M35.903 11.6533H8.09703C7.40433 11.6533 6.84277 12.2149 6.84277 12.9076V13.5678L19.5112 26.2362C24.5476 26.6096 29.6035 25.8465 34.3053 24.0032C36.0256 23.3286 37.1572 21.6694 37.1572 19.8215V12.9075C37.1572 12.2149 36.5957 11.6533 35.903 11.6533Z" fill="url(#paint11_linear_5_6837)"/>
<path d="M43.9996 10.3626C44.004 10.2212 43.9232 10.0772 43.7558 10.0318L23.8245 4.62487C22.63 4.30083 21.3708 4.30083 20.1764 4.62487L0.245045 10.0319C0.0776724 10.0772 -0.00325312 10.2212 0.00114688 10.3626V11.4475C-0.00325312 11.5889 0.0775861 11.7329 0.245045 11.7783L20.1763 17.1852C21.3707 17.5093 22.6299 17.5093 23.8244 17.1852L43.7557 11.7783C43.9231 11.7329 44.004 11.5889 43.9995 11.4475V10.3626H43.9996Z" fill="url(#paint12_linear_5_6837)"/>
<path d="M20.1759 4.62481L0.244653 10.0318C-0.081551 10.1203 -0.081551 10.5831 0.244653 10.6716L20.1759 16.0785C21.3703 16.4026 22.6295 16.4026 23.824 16.0785L43.7552 10.6716C44.0814 10.5831 44.0814 10.1203 43.7552 10.0318L23.8241 4.62481C22.6296 4.30085 21.3704 4.30085 20.1759 4.62481Z" fill="url(#paint13_linear_5_6837)"/>
<path d="M20.369 5.86377L2.54836 10.6982C2.25667 10.7773 2.25667 11.191 2.54836 11.2702L20.3691 16.1046C21.437 16.3943 22.5629 16.3943 23.6308 16.1046L41.4515 11.2702C41.7432 11.1911 41.7432 10.7774 41.4515 10.6982L23.6308 5.86377C22.5628 5.57406 21.437 5.57406 20.369 5.86377Z" fill="url(#paint14_linear_5_6837)"/>
<path d="M22 7.65918C21.2461 7.65918 20.6218 8.20754 20.5002 8.92672L10.2093 11.7185C9.11868 12.0144 8.27431 12.8338 7.91748 13.8602L20.176 17.1856C21.3704 17.5097 22.6296 17.5097 23.8241 17.1856L30.3703 15.4097L23.1792 8.21867C22.8998 7.87737 22.4754 7.65918 22 7.65918Z" fill="url(#paint15_linear_5_6837)"/>
<path d="M8.32119 19.1367C8.24381 19.1367 8.16718 19.1215 8.09569 19.0919C8.0242 19.0623 7.95924 19.0189 7.90452 18.9641C7.8498 18.9094 7.8064 18.8445 7.77679 18.773C7.74717 18.7015 7.73193 18.6248 7.73193 18.5475V14.9575C7.73193 13.4461 8.75075 12.1142 10.2094 11.7185L21.9152 8.5429C22.2292 8.45844 22.5529 8.64333 22.6382 8.95728C22.6791 9.10811 22.6584 9.269 22.5807 9.40459C22.503 9.54017 22.3746 9.63936 22.2238 9.68035L10.5179 12.8559C9.57139 13.1127 8.91036 13.9768 8.91036 14.9575V18.5475C8.91036 18.7037 8.84829 18.8536 8.7378 18.9641C8.62731 19.0746 8.47745 19.1367 8.32119 19.1367Z" fill="url(#paint16_linear_5_6837)"/>
<path d="M23.5228 9.1821C23.5228 10.0232 20.4771 10.0232 20.4771 9.1821C20.4771 8.34101 21.1589 7.65918 22 7.65918C22.841 7.65918 23.5228 8.34101 23.5228 9.1821Z" fill="url(#paint17_linear_5_6837)"/>
<path d="M9.88266 26.2332C9.88266 27.0743 6.83691 27.0743 6.83691 26.2332C6.83691 25.3921 7.51874 19.5283 8.35983 19.5283C9.20084 19.5283 9.88266 25.3921 9.88266 26.2332Z" fill="url(#paint18_linear_5_6837)"/>
<path d="M9.8821 26.2325C9.8821 26.5133 9.5414 26.7008 9.08717 26.7939C8.6394 26.8861 8.0812 26.8861 7.63232 26.7939C7.56269 26.7008 7.52197 26.5871 7.52197 26.4511C7.52197 25.5887 7.89157 19.6225 8.349 19.5294C8.35219 19.5283 8.35651 19.5283 8.3597 19.5283C8.36289 19.5283 8.3672 19.5283 8.3704 19.5294C9.20717 19.5787 9.8821 25.3948 9.8821 26.2325Z" fill="url(#paint19_linear_5_6837)"/>
<path d="M9.37971 26.2325C9.37971 26.6332 8.91694 26.8432 8.43052 26.8625C8.38267 26.8636 8.33481 26.8636 8.28696 26.8625C7.55095 26.8497 6.83643 26.6397 6.83643 26.2325C6.83643 25.3958 7.51135 19.5893 8.34701 19.5294C8.35132 19.5283 8.35555 19.5283 8.35986 19.5283C8.36418 19.5283 8.3684 19.5283 8.37272 19.5294C8.93083 19.6193 9.37971 25.398 9.37971 26.2325Z" fill="url(#paint20_linear_5_6837)"/>
<path d="M8.35949 20.6184C9.17828 20.6184 9.84204 19.9546 9.84204 19.1359C9.84204 18.3171 9.17828 17.6533 8.35949 17.6533C7.54071 17.6533 6.87695 18.3171 6.87695 19.1359C6.87695 19.9546 7.54071 20.6184 8.35949 20.6184Z" fill="url(#paint21_linear_5_6837)"/>
<path d="M8.35933 20.3739C9.04265 20.3739 9.5966 19.82 9.5966 19.1367C9.5966 18.4534 9.04265 17.8994 8.35933 17.8994C7.67601 17.8994 7.12207 18.4534 7.12207 19.1367C7.12207 19.82 7.67601 20.3739 8.35933 20.3739Z" fill="url(#paint22_linear_5_6837)"/>
<path d="M9.02261 17.8096C9.12573 18.0154 9.17926 18.2425 9.17894 18.4728C9.17894 19.2915 8.51523 19.9553 7.6964 19.9553C7.45802 19.9553 7.23276 19.899 7.0332 19.799C7.27658 20.2848 7.77905 20.6183 8.35941 20.6183C9.17816 20.6183 9.84196 19.9546 9.84196 19.1358C9.84196 18.5554 9.50842 18.053 9.02261 17.8096Z" fill="url(#paint23_linear_5_6837)"/>
<defs>
<linearGradient id="paint0_linear_5_6837" x1="26.8073" y1="37.3336" x2="24.5354" y2="35.516" gradientUnits="userSpaceOnUse">
<stop stop-color="#FF7044"/>
<stop offset="1" stop-color="#F92814"/>
</linearGradient>
<linearGradient id="paint1_linear_5_6837" x1="21.7139" y1="33.3659" x2="20.7577" y2="40.6798" gradientUnits="userSpaceOnUse">
<stop stop-color="#FF7044"/>
<stop offset="1" stop-color="#F92814"/>
</linearGradient>
<linearGradient id="paint2_linear_5_6837" x1="21.9998" y1="26.7255" x2="21.9998" y2="34.4827" gradientUnits="userSpaceOnUse">
<stop stop-color="#F9F7FC"/>
<stop offset="1" stop-color="#F0DDFC"/>
</linearGradient>
<linearGradient id="paint3_linear_5_6837" x1="25.058" y1="30.5064" x2="22.6423" y2="18.3417" gradientUnits="userSpaceOnUse">
<stop stop-color="#F0DDFC" stop-opacity="0"/>
<stop offset="0.289" stop-color="#C8B7E0" stop-opacity="0.289"/>
<stop offset="0.592" stop-color="#A595C8" stop-opacity="0.592"/>
<stop offset="0.84" stop-color="#8F81B8" stop-opacity="0.84"/>
<stop offset="1" stop-color="#8779B3"/>
</linearGradient>
<linearGradient id="paint4_linear_5_6837" x1="0.00698127" y1="29.6372" x2="8.54246" y2="29.6372" gradientUnits="userSpaceOnUse">
<stop stop-color="#F0DDFC" stop-opacity="0"/>
<stop offset="0.289" stop-color="#C8B7E0" stop-opacity="0.289"/>
<stop offset="0.592" stop-color="#A595C8" stop-opacity="0.592"/>
<stop offset="0.84" stop-color="#8F81B8" stop-opacity="0.84"/>
<stop offset="1" stop-color="#8779B3"/>
</linearGradient>
<linearGradient id="paint5_linear_5_6837" x1="0.829781" y1="34.0769" x2="8.76531" y2="26.1414" gradientUnits="userSpaceOnUse">
<stop stop-color="#F0DDFC" stop-opacity="0"/>
<stop offset="0.289" stop-color="#C8B7E0" stop-opacity="0.289"/>
<stop offset="0.592" stop-color="#A595C8" stop-opacity="0.592"/>
<stop offset="0.84" stop-color="#8F81B8" stop-opacity="0.84"/>
<stop offset="1" stop-color="#8779B3"/>
</linearGradient>
<linearGradient id="paint6_linear_5_6837" x1="4.96333" y1="27.8108" x2="11.3951" y2="32.9998" gradientUnits="userSpaceOnUse">
<stop stop-color="#F9F7FC"/>
<stop offset="1" stop-color="#F0DDFC"/>
</linearGradient>
<linearGradient id="paint7_linear_5_6837" x1="24.0001" y1="29.7914" x2="24.0001" y2="35.0956" gradientUnits="userSpaceOnUse">
<stop stop-color="#FF7044"/>
<stop offset="1" stop-color="#F92814"/>
</linearGradient>
<linearGradient id="paint8_linear_5_6837" x1="24.0001" y1="28.4402" x2="24.0001" y2="25.0635" gradientUnits="userSpaceOnUse">
<stop stop-color="#F92814" stop-opacity="0"/>
<stop offset="1" stop-color="#C1272D"/>
</linearGradient>
<linearGradient id="paint9_linear_5_6837" x1="14.6183" y1="18.9914" x2="35.0557" y2="18.9914" gradientUnits="userSpaceOnUse">
<stop stop-color="#7E8595"/>
<stop offset="1" stop-color="#555A66"/>
</linearGradient>
<linearGradient id="paint10_linear_5_6837" x1="13.1396" y1="18.9914" x2="8.37939" y2="18.9914" gradientUnits="userSpaceOnUse">
<stop stop-color="#555A66" stop-opacity="0"/>
<stop offset="1" stop-color="#555A66"/>
</linearGradient>
<linearGradient id="paint11_linear_5_6837" x1="24.3927" y1="25.1875" x2="20.4793" y2="5.54069" gradientUnits="userSpaceOnUse">
<stop stop-color="#555A66" stop-opacity="0"/>
<stop offset="1" stop-color="#555A66"/>
</linearGradient>
<linearGradient id="paint12_linear_5_6837" x1="22.0004" y1="7.50816" x2="22.0004" y2="16.4868" gradientUnits="userSpaceOnUse">
<stop stop-color="#7E8595"/>
<stop offset="1" stop-color="#555A66"/>
</linearGradient>
<linearGradient id="paint13_linear_5_6837" x1="17.057" y1="3.62506" x2="27.5254" y2="17.8709" gradientUnits="userSpaceOnUse">
<stop stop-color="#7E8595"/>
<stop offset="1" stop-color="#555A66"/>
</linearGradient>
<linearGradient id="paint14_linear_5_6837" x1="21.967" y1="10.6503" x2="19.8016" y2="-11.3214" gradientUnits="userSpaceOnUse">
<stop stop-color="#BEC3D2" stop-opacity="0"/>
<stop offset="0.558" stop-color="#D4D9E4" stop-opacity="0.558"/>
<stop offset="1" stop-color="#E9EDF5"/>
</linearGradient>
<linearGradient id="paint15_linear_5_6837" x1="19.0282" y1="14.3344" x2="16.9339" y2="8.88911" gradientUnits="userSpaceOnUse">
<stop stop-color="#555A66" stop-opacity="0"/>
<stop offset="1" stop-color="#555A66"/>
</linearGradient>
<linearGradient id="paint16_linear_5_6837" x1="12.3066" y1="9.89845" x2="15.7035" y2="14.521" gradientUnits="userSpaceOnUse">
<stop stop-color="#FFDA45"/>
<stop offset="1" stop-color="#FFA425"/>
</linearGradient>
<linearGradient id="paint17_linear_5_6837" x1="21.1543" y1="8.09383" x2="22.7464" y2="9.68594" gradientUnits="userSpaceOnUse">
<stop stop-color="#7E8595"/>
<stop offset="1" stop-color="#555A66"/>
</linearGradient>
<linearGradient id="paint18_linear_5_6837" x1="7.55015" y1="23.2153" x2="11.7537" y2="23.1186" gradientUnits="userSpaceOnUse">
<stop stop-color="#FFDA45"/>
<stop offset="1" stop-color="#FFA425"/>
</linearGradient>
<linearGradient id="paint19_linear_5_6837" x1="9.15972" y1="22.9895" x2="6.32793" y2="24.2898" gradientUnits="userSpaceOnUse">
<stop stop-color="#FFDA45" stop-opacity="0"/>
<stop offset="1" stop-color="#FCEE21"/>
</linearGradient>
<linearGradient id="paint20_linear_5_6837" x1="7.4796" y1="23.5935" x2="12.4166" y2="21.6749" gradientUnits="userSpaceOnUse">
<stop stop-color="#FFDA45" stop-opacity="0"/>
<stop offset="1" stop-color="#B53759"/>
</linearGradient>
<linearGradient id="paint21_linear_5_6837" x1="7.80475" y1="18.5812" x2="9.72487" y2="20.5012" gradientUnits="userSpaceOnUse">
<stop stop-color="#FF7044"/>
<stop offset="1" stop-color="#F92814"/>
</linearGradient>
<linearGradient id="paint22_linear_5_6837" x1="8.50704" y1="19.2844" x2="7.16538" y2="17.9427" gradientUnits="userSpaceOnUse">
<stop stop-color="#FF7044" stop-opacity="0"/>
<stop offset="1" stop-color="#FFA425"/>
</linearGradient>
<linearGradient id="paint23_linear_5_6837" x1="8.41092" y1="19.704" x2="10.4487" y2="15.9139" gradientUnits="userSpaceOnUse">
<stop stop-color="#F92814" stop-opacity="0"/>
<stop offset="1" stop-color="#C1272D"/>
</linearGradient>
</defs>
</svg>
