<svg width="44" height="44" viewBox="0 0 44 44" fill="none" xmlns="http://www.w3.org/2000/svg">
<path d="M33.4833 29.8083C33.4772 29.8143 33.472 29.8212 33.4669 29.8273C33.4565 29.8393 33.4462 29.8523 33.4358 29.8643C33.1314 30.2232 32.8114 30.5733 32.4776 30.9114C29.7288 33.6991 26.0191 35.7199 21.9998 35.7199C17.4924 35.7199 13.3756 33.179 10.5638 29.8643C10.5535 29.8523 10.5431 29.8393 10.5328 29.8273C10.5276 29.8212 10.5224 29.8143 10.5164 29.8083C8.87244 27.8487 8.05392 25.3258 8.19537 22.7719L8.56884 16.0427C8.72754 12.5805 10.3094 8.56988 12.7391 5.42518C15.1688 2.27961 18.4471 0 21.9998 0C29.1052 0 35.1125 9.11844 35.4308 16.0427L35.8043 22.7719C35.9457 25.3258 35.1272 27.8487 33.4833 29.8083Z" fill="url(#paint0_linear_5_6811)"/>
<path d="M35.8043 22.7719L35.4308 16.0427C35.1125 9.11844 29.1052 0 21.9998 0C18.4471 0 15.1688 2.27961 12.7391 5.42518C10.3094 8.56988 8.72754 12.5805 8.56884 16.0427L8.19537 22.7719C8.05392 25.3258 8.87244 27.8487 10.5164 29.8083C10.5224 29.8143 10.5276 29.8212 10.5328 29.8273C10.5431 29.8393 10.5535 29.8523 10.5638 29.8643C13.3756 33.179 17.4924 35.7199 21.9998 35.7199C26.0191 35.7199 29.7288 33.6991 32.4776 30.9114C32.8114 30.5733 33.1314 30.2232 33.4358 29.8643C33.4462 29.8523 33.4565 29.8393 33.4669 29.8273C33.472 29.8212 33.4772 29.8143 33.4833 29.8083C35.1272 27.8487 35.9457 25.3258 35.8043 22.7719Z" fill="url(#paint1_linear_5_6811)"/>
<path d="M38.0545 43.9995H5.94556C5.18147 43.9995 4.56201 43.3801 4.56201 42.616C4.56201 35.2347 10.5457 29.251 17.927 29.251H26.073C33.4542 29.251 39.438 35.2347 39.438 42.616C39.438 43.3801 38.8186 43.9995 38.0545 43.9995Z" fill="url(#paint2_linear_5_6811)"/>
<path d="M17.9271 29.251C17.2269 29.251 16.5393 29.3051 15.8682 29.4089L30.4587 43.9995H38.0546C38.8186 43.9995 39.4381 43.3801 39.4381 42.616C39.4381 35.2347 33.4544 29.251 26.0731 29.251H17.9271Z" fill="url(#paint3_linear_5_6811)"/>
<path d="M22.0003 33.773C24.12 33.773 25.8384 32.0546 25.8384 29.9348C25.8384 27.8151 24.12 26.0967 22.0003 26.0967C19.8805 26.0967 18.1621 27.8151 18.1621 29.9348C18.1621 32.0546 19.8805 33.773 22.0003 33.773Z" fill="url(#paint4_linear_5_6811)"/>
<path d="M22.0003 33.773C24.12 33.773 25.8384 32.0546 25.8384 29.9348C25.8384 27.8151 24.12 26.0967 22.0003 26.0967C19.8805 26.0967 18.1621 27.8151 18.1621 29.9348C18.1621 32.0546 19.8805 33.773 22.0003 33.773Z" fill="url(#paint5_linear_5_6811)"/>
<path d="M22.9553 38.2543C22.3903 38.6961 22.38 39.0044 22.38 39.5386C22.38 39.7339 22.2773 39.9599 21.7737 39.9599C21.3526 39.9599 21.2087 39.8058 21.2087 39.2715C21.2087 38.3879 21.5991 37.9666 21.897 37.7097C22.2361 37.422 22.8115 37.1036 22.8115 36.5488C22.8115 36.0761 22.4004 35.85 21.8867 35.85C20.8388 35.85 21.0648 36.6412 20.5099 36.6412C20.2325 36.6412 19.8936 36.4563 19.8936 36.0555C19.8936 35.5008 20.5305 34.6787 21.9176 34.6787C23.2328 34.6787 24.1061 35.4082 24.1061 36.3741C24.106 37.3399 23.2328 38.0386 22.9553 38.2543ZM22.5752 41.4601C22.5752 41.8814 22.2258 42.2513 21.784 42.2513C21.3422 42.2513 21.0032 41.8814 21.0032 41.4601C21.0032 41.0286 21.3526 40.6689 21.784 40.6689C22.2155 40.6689 22.5752 41.0285 22.5752 41.4601Z" fill="white"/>
<path d="M39.4379 42.6161C39.4379 40.3219 38.8595 38.1628 37.8411 36.2764H6.15877C5.14032 38.1628 4.56201 40.3218 4.56201 42.6161C4.56201 43.3765 5.17569 43.9932 5.93478 43.999H38.0651C38.8242 43.9932 39.4379 43.3766 39.4379 42.6161Z" fill="url(#paint6_linear_5_6811)"/>
<path d="M22.0002 31.2292C16.2375 31.2292 11.5659 26.5576 11.5659 20.795V15.444C11.5659 9.68137 16.2375 5.00977 22.0002 5.00977C27.7629 5.00977 32.4345 9.68137 32.4345 15.444V20.795C32.4345 26.5576 27.7629 31.2292 22.0002 31.2292Z" fill="url(#paint7_linear_5_6811)"/>
<path d="M22.5764 24.2167H21.4236C20.4628 24.2167 19.7354 23.3485 19.9037 22.4026L20.4453 19.3578C20.4788 19.1699 20.5772 18.9997 20.7235 18.8772C20.8698 18.7546 21.0546 18.6875 21.2454 18.6875H22.7548C22.9456 18.6875 23.1304 18.7546 23.2767 18.8772C23.4229 18.9997 23.5214 19.1699 23.5549 19.3578L24.0965 22.4026C24.2646 23.3485 23.5373 24.2167 22.5764 24.2167Z" fill="url(#paint8_linear_5_6811)"/>
<path d="M24.9151 24.474L23.8496 23.6253C22.7592 22.7568 21.241 22.7568 20.1507 23.6253L19.0852 24.474C16.0107 26.9231 11.5511 24.7057 11.4775 20.7061C11.5534 26.6579 16.235 31.4588 22.0001 31.4588C27.765 31.4588 32.4464 26.6584 32.5227 20.7069C32.4486 24.7059 27.9894 26.9229 24.9151 24.474Z" fill="url(#paint9_linear_5_6811)"/>
<path d="M24.9151 24.474L23.8496 23.6253C22.7592 22.7568 21.241 22.7568 20.1507 23.6253L19.0852 24.474C16.0107 26.9231 11.5511 24.7057 11.4775 20.7061C11.5534 26.6579 16.235 31.4588 22.0001 31.4588C27.765 31.4588 32.4464 26.6584 32.5227 20.7069C32.4486 24.7059 27.9894 26.9229 24.9151 24.474Z" fill="url(#paint10_linear_5_6811)"/>
<path d="M27.7571 12.3086C25.2271 12.3086 23.0404 13.6131 22.0001 15.5063C20.9598 13.6131 18.7732 12.3086 16.2431 12.3086C12.7064 12.3086 9.83936 14.8571 9.83936 18.0009C9.83936 21.1446 12.7064 23.6932 16.2431 23.6932C18.0314 23.6932 19.6481 23.0415 20.8097 21.9909C21.1358 21.6955 21.5601 21.5319 22.0001 21.5319C22.4401 21.5319 22.8644 21.6955 23.1905 21.9909C24.3521 23.0416 25.9688 23.6932 27.757 23.6932C31.2937 23.6932 34.1608 21.1446 34.1608 18.0009C34.1608 14.8571 31.2938 12.3086 27.7571 12.3086Z" fill="url(#paint11_linear_5_6811)"/>
<path d="M27.7571 12.3086C25.2271 12.3086 23.0404 13.6131 22.0001 15.5063C20.9598 13.6131 18.7732 12.3086 16.2431 12.3086C12.7064 12.3086 9.83936 14.8571 9.83936 18.0009C9.83936 21.1446 12.7064 23.6932 16.2431 23.6932C18.0314 23.6932 19.6481 23.0415 20.8097 21.9909C21.1358 21.6955 21.5601 21.5319 22.0001 21.5319C22.4401 21.5319 22.8644 21.6955 23.1905 21.9909C24.3521 23.0416 25.9688 23.6932 27.757 23.6932C31.2937 23.6932 34.1608 21.1446 34.1608 18.0009C34.1608 14.8571 31.2938 12.3086 27.7571 12.3086Z" fill="url(#paint12_linear_5_6811)"/>
<path d="M24.1208 22.687C23.7898 22.484 23.4783 22.251 23.1901 21.9909C22.5139 21.3794 21.4858 21.3794 20.8096 21.9909C20.525 22.2479 20.2136 22.4817 19.879 22.687C19.8781 22.5938 19.8859 22.4989 19.9031 22.4032L20.4448 19.3577C20.5138 18.9704 20.851 18.6875 21.2452 18.6875H22.7546C23.1487 18.6875 23.486 18.9704 23.555 19.3577L24.0966 22.4032C24.1139 22.4989 24.1216 22.5938 24.1208 22.687Z" fill="url(#paint13_linear_5_6811)"/>
<path d="M24.1208 22.687C23.7898 22.484 23.4783 22.251 23.1901 21.9909C22.5139 21.3794 21.4858 21.3794 20.8096 21.9909C20.525 22.2479 20.2136 22.4817 19.879 22.687C19.8781 22.5938 19.8859 22.4989 19.9031 22.4032L20.4448 19.3577C20.5138 18.9704 20.851 18.6875 21.2452 18.6875H22.7546C23.1487 18.6875 23.486 18.9704 23.555 19.3577L24.0966 22.4032C24.1139 22.4989 24.1216 22.5938 24.1208 22.687Z" fill="url(#paint14_linear_5_6811)"/>
<path d="M35.8043 22.7719L35.4309 16.0427C35.2722 12.5805 33.6903 8.56988 31.2607 5.42518C28.831 2.27961 25.5526 0 21.9999 0C18.4472 0 15.1688 2.27961 12.7391 5.42518C10.3095 8.56988 8.72762 12.5805 8.56892 16.0427L8.19545 22.7719C8.05314 25.3345 8.8777 27.8651 10.5329 29.8273C10.5432 29.8393 10.5536 29.8523 10.5639 29.8643L10.8166 24.409C11.0814 17.4848 16.084 15.9624 21.9999 15.9624C27.9158 15.9624 32.9184 17.4848 33.1832 24.409L33.4359 29.8643C33.4462 29.8523 33.4566 29.8393 33.4669 29.8273C35.1221 27.8651 35.9467 25.3345 35.8043 22.7719Z" fill="url(#paint15_linear_5_6811)"/>
<path d="M16.523 21.828C18.095 21.828 19.3693 21.0556 19.3693 20.1029C19.3693 19.1502 18.095 18.3779 16.523 18.3779C14.9511 18.3779 13.6768 19.1502 13.6768 20.1029C13.6768 21.0556 14.9511 21.828 16.523 21.828Z" fill="url(#paint16_linear_5_6811)"/>
<path d="M27.4771 21.828C29.0491 21.828 30.3234 21.0556 30.3234 20.1029C30.3234 19.1502 29.0491 18.3779 27.4771 18.3779C25.9052 18.3779 24.6309 19.1502 24.6309 20.1029C24.6309 21.0556 25.9052 21.828 27.4771 21.828Z" fill="url(#paint17_linear_5_6811)"/>
<path d="M23.8129 23.5974C22.7376 22.767 21.2628 22.767 20.1875 23.5974C20.4668 23.9705 20.9122 24.2167 21.4237 24.2167H22.5766C23.0883 24.2166 23.5337 23.9704 23.8129 23.5974Z" fill="url(#paint18_linear_5_6811)"/>
<defs>
<linearGradient id="paint0_linear_5_6811" x1="8.17969" y1="0" x2="35.82" y2="0" gradientUnits="userSpaceOnUse">
<stop stop-color="#5A5A5A"/>
<stop offset="1" stop-color="#444444"/>
</linearGradient>
<linearGradient id="paint1_linear_5_6811" x1="8.17969" y1="0" x2="35.82" y2="0" gradientUnits="userSpaceOnUse">
<stop stop-color="#433F43" stop-opacity="0"/>
<stop offset="0.301" stop-color="#3C393C" stop-opacity="0.301"/>
<stop offset="0.737" stop-color="#6C016C" stop-opacity="0.737"/>
<stop offset="1" stop-color="#480000"/>
</linearGradient>
<linearGradient id="paint2_linear_5_6811" x1="4.56201" y1="29.251" x2="39.438" y2="29.251" gradientUnits="userSpaceOnUse">
<stop stop-color="#5A5A5A"/>
<stop offset="1" stop-color="#444444"/>
</linearGradient>
<linearGradient id="paint3_linear_5_6811" x1="15.8682" y1="29.251" x2="39.4381" y2="29.251" gradientUnits="userSpaceOnUse">
<stop stop-color="#433F43" stop-opacity="0"/>
<stop offset="0.301" stop-color="#3C393C" stop-opacity="0.301"/>
<stop offset="0.737" stop-color="#6C016C" stop-opacity="0.737"/>
<stop offset="1" stop-color="#480000"/>
</linearGradient>
<linearGradient id="paint4_linear_5_6811" x1="22.0003" y1="32.3648" x2="22.0003" y2="29.4856" gradientUnits="userSpaceOnUse">
<stop stop-color="#FFDFCF"/>
<stop offset="1" stop-color="#FFA78F"/>
</linearGradient>
<linearGradient id="paint5_linear_5_6811" x1="22.0003" y1="33.9886" x2="22.0003" y2="29.8466" gradientUnits="userSpaceOnUse">
<stop stop-color="#F89580" stop-opacity="0"/>
<stop offset="0.997" stop-color="#C5715A"/>
</linearGradient>
<linearGradient id="paint6_linear_5_6811" x1="4.56201" y1="36.2764" x2="39.4379" y2="36.2764" gradientUnits="userSpaceOnUse">
<stop stop-color="#433F43" stop-opacity="0"/>
<stop offset="0.301" stop-color="#3C393C" stop-opacity="0.301"/>
<stop offset="0.737" stop-color="#6C016C" stop-opacity="0.737"/>
<stop offset="1" stop-color="#480000"/>
</linearGradient>
<linearGradient id="paint7_linear_5_6811" x1="11.5659" y1="5.00977" x2="32.4345" y2="5.00977" gradientUnits="userSpaceOnUse">
<stop stop-color="#FFDFCF"/>
<stop offset="1" stop-color="#FFA78F"/>
</linearGradient>
<linearGradient id="paint8_linear_5_6811" x1="22" y1="21.1602" x2="22" y2="24.7866" gradientUnits="userSpaceOnUse">
<stop stop-color="#F89580" stop-opacity="0"/>
<stop offset="0.262" stop-color="#F1907B" stop-opacity="0.262"/>
<stop offset="0.636" stop-color="#DE826C" stop-opacity="0.638"/>
<stop offset="0.997" stop-color="#C5715A"/>
</linearGradient>
<linearGradient id="paint9_linear_5_6811" x1="11.4775" y1="20.7061" x2="32.5227" y2="20.7061" gradientUnits="userSpaceOnUse">
<stop stop-color="#5A5A5A"/>
<stop offset="1" stop-color="#444444"/>
</linearGradient>
<linearGradient id="paint10_linear_5_6811" x1="11.4775" y1="20.7061" x2="32.5227" y2="20.7061" gradientUnits="userSpaceOnUse">
<stop stop-color="#5A5A5A"/>
<stop offset="1" stop-color="#444444"/>
</linearGradient>
<linearGradient id="paint11_linear_5_6811" x1="9.83936" y1="12.3086" x2="34.1608" y2="12.3086" gradientUnits="userSpaceOnUse">
<stop stop-color="#5A5A5A"/>
<stop offset="1" stop-color="#444444"/>
</linearGradient>
<linearGradient id="paint12_linear_5_6811" x1="9.83936" y1="12.3086" x2="34.1608" y2="12.3086" gradientUnits="userSpaceOnUse">
<stop stop-color="#433F43" stop-opacity="0"/>
<stop offset="0.301" stop-color="#3C393C" stop-opacity="0.301"/>
<stop offset="0.737" stop-color="#6C016C" stop-opacity="0.737"/>
<stop offset="1" stop-color="#480000"/>
</linearGradient>
<linearGradient id="paint13_linear_5_6811" x1="19.8789" y1="18.6875" x2="24.1209" y2="18.6875" gradientUnits="userSpaceOnUse">
<stop stop-color="#433F43" stop-opacity="0"/>
<stop offset="0.301" stop-color="#3C393C" stop-opacity="0.301"/>
<stop offset="0.737" stop-color="#6C016C" stop-opacity="0.737"/>
<stop offset="1" stop-color="#480000"/>
</linearGradient>
<linearGradient id="paint14_linear_5_6811" x1="21.0023" y1="21.193" x2="18.9323" y2="21.8399" gradientUnits="userSpaceOnUse">
<stop stop-color="#FFDDCD" stop-opacity="0"/>
<stop offset="0.997" stop-color="#FFDDCD"/>
</linearGradient>
<linearGradient id="paint15_linear_5_6811" x1="8.17969" y1="0" x2="35.8201" y2="0" gradientUnits="userSpaceOnUse">
<stop stop-color="#5A5A5A"/>
<stop offset="1" stop-color="#444444"/>
</linearGradient>
<linearGradient id="paint16_linear_5_6811" x1="15.9535" y1="18.7009" x2="17.0748" y2="21.461" gradientUnits="userSpaceOnUse">
<stop stop-color="#EAF6FF"/>
<stop offset="1" stop-color="#B3DAFE"/>
</linearGradient>
<linearGradient id="paint17_linear_5_6811" x1="26.9076" y1="18.7009" x2="28.0289" y2="21.461" gradientUnits="userSpaceOnUse">
<stop stop-color="#EAF6FF"/>
<stop offset="1" stop-color="#B3DAFE"/>
</linearGradient>
<linearGradient id="paint18_linear_5_6811" x1="20.1875" y1="22.9746" x2="23.8129" y2="22.9746" gradientUnits="userSpaceOnUse">
<stop stop-color="#433F43" stop-opacity="0"/>
<stop offset="0.301" stop-color="#3C393C" stop-opacity="0.301"/>
<stop offset="0.737" stop-color="#6C016C" stop-opacity="0.737"/>
<stop offset="1" stop-color="#480000"/>
</linearGradient>
</defs>
</svg>
