<svg width="44" height="44" viewBox="0 0 44 44" fill="none" xmlns="http://www.w3.org/2000/svg">
<path d="M30.8379 17.3037C27.5529 17.3037 24.6471 18.926 22.8776 21.4131C21.4116 20.5331 19.6956 20.0266 17.861 20.0266C12.4693 20.0266 8.09863 24.3972 8.09863 29.7891C8.09863 35.1809 12.4692 39.5516 17.861 39.5516C21.146 39.5516 24.0518 37.9292 25.8211 35.4422C27.2874 36.3222 29.0033 36.8286 30.8379 36.8286C36.2296 36.8286 40.6004 32.4579 40.6004 27.0661C40.6004 21.6743 36.2296 17.3037 30.8379 17.3037ZM25.149 32.5653C23.7587 31.1466 22.9011 29.2041 22.9011 27.0607C22.9011 26.0814 23.0806 25.1439 23.4077 24.2792C24.7981 25.6977 25.6557 27.6403 25.6557 29.7837C25.6567 30.7339 25.485 31.6764 25.149 32.5653ZM17.7896 37.649C13.4461 37.649 9.92438 34.1279 9.92438 29.7837C9.92438 25.4394 13.4461 21.9184 17.7896 21.9184C19.3047 21.9184 20.7195 22.347 21.92 23.0892C21.3775 24.3039 21.0755 25.6497 21.0755 27.0661C21.0755 29.919 22.2994 32.4858 24.2504 34.2708C22.8294 36.3124 20.4659 37.649 17.7896 37.649ZM30.7665 34.926C29.3001 34.926 27.9276 34.5241 26.7524 33.8253C27.3117 32.5951 27.6235 31.2284 27.6235 29.789C27.6235 26.8916 26.361 24.2897 24.3564 22.5017C25.7823 20.5003 28.1221 19.1952 30.7665 19.1952C35.1108 19.1952 38.6326 22.7162 38.6326 27.0605C38.6326 31.4049 35.1107 34.926 30.7665 34.926Z" fill="#EDD7D5"/>
<path d="M14.7315 16.5957C14.3637 16.5957 14.0002 16.6138 13.6411 16.6498C12.0598 16.808 10.5791 17.3073 9.27371 18.0721C6.06996 19.949 3.91895 23.4277 3.91895 27.4084C3.91895 33.3802 8.75981 38.221 14.7315 38.221C20.7033 38.221 25.5442 33.3802 25.5442 27.4084C25.5442 21.4366 20.7034 16.5957 14.7315 16.5957ZM14.6586 35.4692C10.2036 35.4692 6.5916 31.8581 6.5916 27.4032C6.5916 22.9473 10.2036 19.3362 14.6586 19.3362C19.1136 19.3362 22.7255 22.9474 22.7255 27.4032C22.7254 31.8582 19.1136 35.4692 14.6586 35.4692Z" fill="#F6A8A4"/>
<path d="M13.6414 16.6499L13.2038 17.3185L11.9285 19.2676L9.80416 18.3111L9.27393 18.0722C10.6101 17.2887 12.1 16.8036 13.6414 16.6499ZM41.9732 21.068C41.9706 21.0482 41.9688 21.0293 41.9672 21.0104C41.9612 20.9649 41.9551 20.9185 41.9499 20.8729C41.6243 18.2664 40.452 15.8782 38.5873 14.0263C38.5683 14.0074 38.5485 13.9876 38.5288 13.9687C38.5038 13.9438 38.4781 13.9197 38.4531 13.8948C37.1899 12.6728 35.6344 11.7171 33.8486 11.1525C31.2928 10.3438 28.5145 10.4375 26.0249 11.4163C25.9432 11.4481 25.8642 11.4834 25.7834 11.5169C25.7619 11.5255 25.7404 11.5341 25.7189 11.5435C25.6424 11.5762 25.5667 11.6088 25.4912 11.6424C25.3855 11.6896 25.2806 11.7395 25.1767 11.7902C25.1406 11.8074 25.1045 11.8254 25.0692 11.8435C23.927 12.4115 22.8859 13.1634 21.9876 14.0692L21.9437 14.1131C21.8526 14.205 21.7632 14.3004 21.6747 14.3967C21.6352 14.4396 21.5956 14.4835 21.5561 14.5264C21.5415 14.5436 21.5269 14.5591 21.5123 14.5754C21.4624 14.6321 21.4135 14.6897 21.3645 14.7464C21.3128 14.8074 21.2622 14.8685 21.2123 14.9303C21.1865 14.9621 21.1607 14.9939 21.135 15.0266C20.7826 15.4674 20.4596 15.9332 20.1742 16.4231L20.1776 16.4248C19.9344 16.8416 19.7178 17.2721 19.5279 17.7138C20.4078 18.1496 21.2209 18.7021 21.9453 19.351C22.2745 18.4138 22.7607 17.5394 23.383 16.7651C23.3917 16.7548 23.3993 16.7445 23.407 16.735C23.4698 16.6577 23.5351 16.5812 23.6004 16.5056C23.6434 16.4574 23.6846 16.4093 23.7284 16.3621L23.7688 16.3165C25.5434 14.4026 28.1061 13.356 30.7074 13.4625C30.7358 13.4642 30.7641 13.4651 30.7916 13.4668C30.8784 13.4711 30.966 13.4771 31.0528 13.484C31.113 13.4892 31.174 13.4943 31.2341 13.5012C31.253 13.5029 31.2719 13.5055 31.2909 13.5072C33.05 13.7006 34.7687 14.4173 36.1936 15.6754C36.301 15.7699 36.4059 15.8671 36.5081 15.9667C36.5133 15.9719 36.5184 15.9771 36.5244 15.9822L36.6094 16.0673C37.9518 17.4208 38.8335 19.1808 39.1094 21.0706L39.1119 21.0912L39.1274 21.2046C39.1334 21.251 39.1395 21.2974 39.1446 21.3447C39.1446 21.3473 39.1446 21.3499 39.1455 21.3524C39.161 21.4968 39.1738 21.6429 39.1833 21.789C39.2056 22.1551 39.2065 22.5186 39.185 22.8787C39.1841 22.8977 39.1825 22.9174 39.1816 22.9363C39.1781 22.9818 39.1756 23.0266 39.1712 23.0721C39.167 23.1322 39.161 23.1916 39.155 23.2517C39.155 23.256 39.1541 23.2594 39.1541 23.2629C39.0922 23.8499 38.9719 24.4385 38.7871 25.0221C38.598 25.6193 38.3497 26.1874 38.0489 26.7211C37.7438 27.2587 37.3835 27.763 36.9738 28.2259C34.8167 30.6699 31.5186 31.6831 28.4488 31.036C28.4213 31.03 28.393 31.0232 28.3655 31.0171C28.3069 31.0043 28.2494 30.9896 28.191 30.9759C28.0029 30.9294 27.8146 30.8771 27.6273 30.8178C26.8021 30.5571 26.0199 30.176 25.306 29.6868C24.2508 28.9641 23.3699 28.0248 22.7151 26.9462C22.3428 26.3352 22.0453 25.6817 21.8291 24.9997C21.6349 24.3688 21.5112 23.7183 21.4604 23.0602C20.7705 21.9828 19.8352 21.0843 18.731 20.4382C18.6898 20.6875 18.6562 20.9384 18.6313 21.1902H18.6296C18.5351 22.1432 18.5608 23.1014 18.7001 24.0425V24.045C18.7112 24.118 18.7224 24.191 18.7352 24.2641C18.737 24.2788 18.7396 24.2925 18.7421 24.3071C18.7524 24.3664 18.7627 24.4257 18.7739 24.485C18.7791 24.5133 18.7842 24.5417 18.7902 24.5699C18.7988 24.6147 18.8074 24.6585 18.8169 24.7032C18.8255 24.7471 18.8349 24.7909 18.8444 24.8346C18.8512 24.8639 18.8572 24.8922 18.864 24.9206C18.8769 24.9808 18.8915 25.0409 18.9061 25.1011C18.9087 25.1132 18.9114 25.1252 18.9148 25.1372C19.2732 26.5991 19.9083 27.9887 20.7942 29.2133L20.7976 29.2107C21.1723 29.7298 21.5883 30.2153 22.0403 30.6648C22.7235 31.3411 23.4883 31.9332 24.3151 32.4247C24.3864 32.4677 24.4586 32.5089 24.5308 32.5503L24.5282 32.5545C25.5053 33.1097 26.558 33.5161 27.646 33.768C27.6486 33.7689 27.652 33.7697 27.6546 33.7697C27.7818 33.7998 27.9099 33.8273 28.0379 33.8522C28.0868 33.8617 28.135 33.8711 28.184 33.8796C28.2398 33.89 28.2958 33.8994 28.3515 33.9089C29.0024 34.0215 29.6616 34.0784 30.3221 34.079C31.7633 34.079 33.1951 33.8092 34.5563 33.2781C34.589 33.2653 34.6225 33.2524 34.6551 33.2395L34.8123 33.175C34.8759 33.1483 34.9404 33.1208 35.004 33.0934L35.1251 33.0393C35.2024 33.0049 35.279 32.9688 35.3554 32.9327C35.3872 32.9172 35.4181 32.9018 35.4491 32.8872C35.5196 32.8529 35.59 32.8175 35.6597 32.7815C35.6786 32.7721 35.6983 32.7625 35.7172 32.7532C35.725 32.7489 35.7335 32.7438 35.7413 32.7403C35.7756 32.7214 35.81 32.7033 35.8444 32.6845C37.8897 31.5914 39.5303 29.955 40.614 27.957C40.6476 27.8961 40.6793 27.835 40.712 27.774C40.7197 27.7585 40.7275 27.7431 40.736 27.7275C40.8459 27.5153 40.9508 27.3004 41.048 27.0822C41.5369 25.9771 41.8498 24.8005 41.9769 23.5879C41.9796 23.5613 41.9822 23.5347 41.9855 23.508C41.9915 23.4444 41.9976 23.3817 42.0028 23.319C42.0097 23.2356 42.0157 23.1522 42.0208 23.0698C42.0218 23.0543 42.0226 23.0397 42.0234 23.0243C42.0625 22.3666 42.0437 21.7117 41.9732 21.068Z" fill="#F66E6A"/>
<path d="M32.5242 14.583L32.2134 15.5663C34.7074 16.355 36.5857 18.4383 37.1153 21.0033L38.1252 20.7947C37.5201 17.8644 35.3739 15.4841 32.5242 14.583ZM37.9083 24.9493C38.1639 24.1436 38.2944 23.3035 38.295 22.4582L37.2638 22.4581C37.2631 23.1979 37.1489 23.9332 36.9251 24.6383L37.9083 24.9493Z" fill="#F6A8A4"/>
<path d="M4.99387 34.3654L4.16234 34.9754C5.41806 36.6875 7.08259 38.0898 8.97605 39.0307L9.43495 38.1072C7.68836 37.2393 6.15266 35.9454 4.99387 34.3654ZM3.85572 32.4805L2.92871 32.9323C3.15386 33.3939 3.40541 33.8421 3.68212 34.2748L4.5507 33.719C4.29546 33.3198 4.06342 32.9063 3.85572 32.4805Z" fill="#F66E6A"/>
<path d="M15.6194 12.2858C15.6078 12.2219 15.5831 12.161 15.5468 12.1071C15.5106 12.0531 15.4636 12.0072 15.4088 11.9723L13.0113 10.7697C12.7555 10.6414 12.4606 10.6146 12.1859 10.6948L7.11167 12.1762C6.8369 12.2564 6.60268 12.4376 6.45614 12.6835L5.08303 14.9869C5.05564 15.0458 5.04072 15.1098 5.03919 15.1748C5.03767 15.2398 5.04958 15.3044 5.07418 15.3646C5.11958 15.4751 5.2048 15.5646 5.313 15.6153L9.9617 17.7084L11.71 18.4961L11.7102 18.496L11.7104 18.4961L11.7104 18.4955L12.7599 16.8916L15.5527 12.625C15.617 12.5244 15.6408 12.4033 15.6194 12.2858Z" fill="#EF9A60"/>
<path d="M12.8229 13.1025L7.87071 14.5483L9.64902 11.4355L12.8229 13.1025ZM7.8708 14.5483L11.1241 17.8935C10.7271 17.9367 10.3258 17.8729 9.96174 17.7086L5.31304 15.6155C5.20481 15.5649 5.11957 15.4754 5.07422 15.3648L7.8708 14.5483ZM15.6194 12.286C15.6407 12.4034 15.6169 12.5245 15.5528 12.6251L12.76 16.8916C12.5416 17.2258 12.2379 17.4954 11.8802 17.6725L12.8227 13.1026L15.6194 12.286Z" fill="#F5ECDB"/>
<path d="M7.92232 4.54264L9.31235 8.97779L8.32846 9.28613L6.9385 4.85098L7.92232 4.54264ZM2.43211 7.85742L6.5511 10.0145L6.0726 10.9282L1.95361 8.77111L2.43211 7.85742ZM13.3268 4.45215L14.2404 4.93065L12.0834 9.04955L11.1698 8.57105L13.3268 4.45215Z" fill="#F66E6A"/>
</svg>
