<svg width="20" height="20" viewBox="0 0 20 20" fill="none" xmlns="http://www.w3.org/2000/svg">
<path d="M15.4903 10.1925C15.3343 9.7337 15.0436 9.33252 14.6562 9.04129C14.207 8.71351 13.6784 8.51157 13.125 8.45629V8.43879L13.2456 7.95661C13.5784 6.62567 13.6337 5.24047 13.4081 3.88723L13.3944 3.80567C13.2198 2.7588 12.6952 1.80216 11.9062 1.09223L11.8813 1.06973C11.3648 0.604875 10.6945 0.347656 9.99969 0.347656C9.30484 0.347656 8.63458 0.604875 8.11812 1.06973L8.09313 1.09223C7.30432 1.80221 6.77979 2.75885 6.60531 3.80567L6.38656 5.12254C6.29596 5.66578 6.25028 6.21556 6.25 6.76629V8.58286C5.92497 8.68531 5.61886 8.84016 5.34375 9.04129C4.95683 9.3327 4.66662 9.73386 4.51094 10.1925L2.8125 15.0013L4.09 18.8341C4.17297 19.083 4.33216 19.2995 4.54501 19.4529C4.75785 19.6063 5.01357 19.6888 5.27594 19.6888H14.7241C14.9867 19.6891 15.2428 19.6068 15.4559 19.4533C15.6691 19.2999 15.8285 19.0833 15.9116 18.8341L17.1875 15.0013L15.4903 10.1925ZM7.30781 17.0444L6.875 18.1263C6.875 18.1263 7.04469 18.2469 6.86562 18.2019L6.01281 17.9888L5.3125 17.8138L4.47906 15.0794L5.625 12.5013L5.695 12.9566C5.73732 13.2423 5.83657 13.5167 5.98687 13.7633C6.13717 14.01 6.33547 14.2239 6.57 14.3925L7.29656 16.0879C7.427 16.3926 7.43105 16.7367 7.30781 17.0444ZM14.6875 17.8138L13.9872 17.9888L13.1344 18.2019C12.9553 18.2469 13.125 18.1263 13.125 18.1263L12.6922 17.0444C12.5692 16.7366 12.5734 16.3925 12.7041 16.0879L13.4306 14.3925C13.6652 14.2239 13.8635 14.01 14.0138 13.7633C14.1641 13.5167 14.2633 13.2423 14.3056 12.9566L14.375 12.5013L15.5209 15.0794L14.6875 17.8138Z" fill="#F5B9B0"/>
<path d="M13.125 18.2034V18.125L12.8941 18.2634C12.3845 18.5695 11.8296 18.7927 11.25 18.9247L10.625 19.0313C9.39962 19.1686 8.16308 18.8991 7.10594 18.2644L6.875 18.125V18.2034C7.14327 18.2727 7.38092 18.4291 7.55062 18.6482C7.72031 18.8672 7.81243 19.1364 7.8125 19.4134V19.6875H12.1875V19.4134C12.1876 19.1364 12.2797 18.8672 12.4494 18.6482C12.6191 18.4291 12.8567 18.2727 13.125 18.2034Z" fill="#E66E5C"/>
<path d="M12.1875 8.4375H12.8125V11.5625H12.1875V8.4375Z" fill="#E65A45"/>
<path d="M6.875 11.3407C6.73317 11.4228 6.60269 11.5232 6.48687 11.6391L5.625 12.5007L5.695 12.956C5.75244 13.3296 5.90567 13.6819 6.13978 13.9786C6.37388 14.2753 6.68087 14.5063 7.03081 14.649C7.38076 14.7918 7.76172 14.8414 8.13656 14.7932C8.51141 14.7449 8.86735 14.6003 9.16969 14.3735L10 13.7507L10.8303 14.3735C11.1327 14.6003 11.4886 14.7449 11.8634 14.7932C12.2383 14.8414 12.6192 14.7918 12.9692 14.649C13.3191 14.5063 13.6261 14.2753 13.8602 13.9786C14.0943 13.6819 14.2476 13.3296 14.305 12.956L14.375 12.5007L13.5134 11.6391C13.3393 11.465 13.1326 11.3268 12.9051 11.2326C12.6776 11.1384 12.4338 11.0898 12.1875 11.0898C11.9412 11.0898 11.6974 11.1384 11.4699 11.2326C11.2424 11.3268 11.0357 11.465 10.8616 11.6391L10.3125 12.1882H9.6875L9.13844 11.6391C8.97592 11.476 8.7847 11.3444 8.57437 11.2507" fill="#E66E5C"/>
<path d="M13.4081 3.88723L13.3944 3.80567C13.2198 2.7588 12.6952 1.80216 11.9062 1.09223L11.8813 1.06973C11.3648 0.604875 10.6945 0.347656 9.99969 0.347656C9.30484 0.347656 8.63458 0.604875 8.11813 1.06973L8.09313 1.09223C7.30432 1.80221 6.77979 2.75885 6.60531 3.80567L6.38656 5.12254C6.29596 5.66578 6.25028 6.21556 6.25 6.76629V9.27911C6.25 9.7561 6.341 10.2287 6.51812 10.6716L7.5 13.1263H7.52625C7.7703 13.1264 8.00478 13.0313 8.17984 12.8613C8.3549 12.6912 8.45675 12.4596 8.46375 12.2157L8.75 8.43879L9.48 9.53254C9.53708 9.61814 9.6144 9.68833 9.70511 9.73687C9.79583 9.78541 9.89712 9.81081 10 9.81081C10.1029 9.81081 10.2042 9.78541 10.2949 9.73687C10.3856 9.68833 10.4629 9.61814 10.52 9.53254L11.25 8.43879H13.125L13.2456 7.95661C13.5783 6.62564 13.6336 5.24048 13.4081 3.88723Z" fill="#FCCD81"/>
<path d="M10.9375 6.5625L11.25 8.4375L10.52 9.53125C10.4629 9.61685 10.3856 9.68703 10.2949 9.73558C10.2042 9.78412 10.1029 9.80952 10 9.80952C9.89712 9.80952 9.79583 9.78412 9.70511 9.73558C9.6144 9.68703 9.53708 9.61685 9.48 9.53125L8.75 8.4375L9.0625 6.5625L10 7.15375L10.9375 6.5625Z" fill="#F5BEB5"/>
<path d="M7.97341 4.53719L8.12528 5.90375L9.10841 6.90375C9.22476 7.02224 9.36356 7.11635 9.51669 7.1806C9.66982 7.24484 9.83422 7.27793 10.0003 7.27793C10.1663 7.27793 10.3307 7.24484 10.4839 7.1806C10.637 7.11635 10.7758 7.02224 10.8922 6.90375L11.8753 5.90375L12.1878 4.34125L11.1878 4.19281C10.9138 4.15209 10.6522 4.05115 10.4218 3.89727C10.1915 3.74338 9.99811 3.54036 9.8556 3.30281L9.37528 2.5L9.17341 2.57625C8.7841 2.72354 8.45488 2.99619 8.23761 3.35123C8.02035 3.70626 7.9274 4.1235 7.97341 4.53719Z" fill="#F5C6BF"/>
<path d="M9.6875 17.1875H10.3125V17.8125H9.6875V17.1875Z" fill="#F5ADA2"/>
</svg>
