<svg width="20" height="20" viewBox="0 0 20 20" fill="none" xmlns="http://www.w3.org/2000/svg">
<g clip-path="url(#clip0_5_3270)">
<path d="M0.974609 13.0572C0.974609 10.371 2.8377 8.19727 5.14026 8.19727H5.83454C8.1371 8.19727 10.0002 10.371 10.0002 13.0572C10.0002 15.5496 7.97985 17.57 5.4874 17.57C2.99495 17.57 0.974609 15.5493 0.974609 13.0572Z" fill="#D13834"/>
<path d="M4.77803 16.449C4.75303 16.449 4.72735 16.4463 4.70201 16.4407C3.46758 16.1644 2.46366 15.2622 2.08181 14.0857C2.05341 13.9981 2.06097 13.9028 2.10283 13.8208C2.14469 13.7388 2.21742 13.6767 2.30502 13.6483C2.39262 13.6199 2.48792 13.6275 2.56994 13.6693C2.65197 13.7112 2.71401 13.7839 2.74241 13.8715C3.04408 14.8012 3.87304 15.5437 4.8537 15.7631C4.93714 15.7817 5.01078 15.8305 5.0605 15.9C5.11022 15.9695 5.13253 16.055 5.12315 16.14C5.11378 16.2249 5.07338 16.3035 5.00969 16.3605C4.94601 16.4175 4.86352 16.449 4.77803 16.449ZM2.338 12.5701C2.28653 12.5702 2.23568 12.5588 2.18914 12.5369C2.1426 12.5149 2.10153 12.4828 2.0689 12.443C2.03627 12.4032 2.01291 12.3567 2.00049 12.3067C1.98807 12.2568 1.98692 12.2047 1.99711 12.1542C2.08983 11.6897 2.26325 11.245 2.50948 10.8403C2.55998 10.7672 2.63652 10.7163 2.72341 10.6978C2.8103 10.6794 2.90096 10.6949 2.97679 10.7411C3.05262 10.7874 3.10788 10.8609 3.13123 10.9466C3.15459 11.0323 3.14427 11.1237 3.10239 11.202C2.89832 11.5376 2.75474 11.9065 2.67819 12.2917C2.66221 12.3702 2.61963 12.4407 2.55765 12.4915C2.49567 12.5422 2.41809 12.57 2.338 12.5701ZM10 15.4868C10 12.8006 11.8631 10.6268 14.1657 10.6268H14.86C17.1625 10.6268 19.0256 12.8006 19.0256 15.4868C19.0256 17.9792 17.0053 19.9996 14.5128 19.9996C12.0204 19.9996 10 17.9789 10 15.4868ZM8.26433 11.6682C7.11565 11.6682 6.18151 10.7341 6.18151 9.58542C6.18151 9.49335 6.21808 9.40506 6.28318 9.33996C6.34828 9.27485 6.43658 9.23828 6.52864 9.23828C6.62071 9.23828 6.70901 9.27485 6.77411 9.33996C6.83921 9.40506 6.87578 9.49335 6.87578 9.58542C6.87578 10.3512 7.49855 10.974 8.26433 10.974C8.3564 10.974 8.4447 11.0105 8.5098 11.0756C8.5749 11.1407 8.61147 11.229 8.61147 11.3211C8.61147 11.4132 8.5749 11.5015 8.5098 11.5666C8.4447 11.6317 8.3564 11.6682 8.26433 11.6682Z" fill="#ED3F32"/>
<path d="M16.5955 14.0979C15.4468 14.0979 14.5127 13.1638 14.5127 12.0151C14.5127 11.923 14.5493 11.8347 14.6144 11.7696C14.6795 11.7045 14.7678 11.668 14.8598 11.668C14.9519 11.668 15.0402 11.7045 15.1053 11.7696C15.1704 11.8347 15.207 11.923 15.207 12.0151C15.207 12.7809 15.8297 13.4037 16.5955 13.4037C16.6876 13.4037 16.7759 13.4402 16.841 13.5053C16.9061 13.5704 16.9427 13.6587 16.9427 13.7508C16.9427 13.8429 16.9061 13.9312 16.841 13.9963C16.7759 14.0614 16.6876 14.0979 16.5955 14.0979Z" fill="#ED7161"/>
<path d="M15.9014 12.7091C15.841 12.7091 15.7816 12.6932 15.7292 12.6632C15.6767 12.6332 15.633 12.5899 15.6024 12.5378C15.5718 12.4857 15.5553 12.4265 15.5546 12.3661C15.5539 12.3057 15.569 12.2461 15.5984 12.1933C17.0661 9.55157 16.8265 7.32746 14.5715 3.70195C14.022 7.52498 10.6072 10.6166 7.76901 10.6166C7.67695 10.6166 7.58865 10.58 7.52355 10.5149C7.45845 10.4498 7.42188 10.3615 7.42188 10.2695C7.42188 10.1774 7.45845 10.0891 7.52355 10.024C7.58865 9.95889 7.67695 9.92231 7.76901 9.92231C10.4951 9.92231 13.9536 6.49433 13.9536 2.64214C13.9536 2.56763 13.9776 2.49509 14.0219 2.43525C14.0663 2.37541 14.1288 2.33144 14.2001 2.30983C14.2714 2.28823 14.3478 2.29014 14.4179 2.31529C14.4881 2.34044 14.5482 2.38749 14.5896 2.44948C17.0824 6.18885 18.146 9.03711 16.2052 12.5307C16.175 12.5848 16.1309 12.6299 16.0775 12.6612C16.0241 12.6926 15.9633 12.7091 15.9014 12.7091Z" fill="#4C312C"/>
<path d="M14.166 2.46164C15.5587 3.48257 17.6888 2.94069 18.7097 1.54797C17.317 0.526691 15.1869 1.06892 14.166 2.46164Z" fill="#88C057"/>
<path d="M10.3477 0.0380961C10.6104 1.74497 12.4999 2.86762 14.2068 2.60483C13.9437 0.897957 12.0542 -0.224687 10.3477 0.0380961Z" fill="#659C35"/>
<path d="M13.7551 18.9977C13.7301 18.9977 13.7045 18.9949 13.6791 18.9893C12.4447 18.713 11.4408 17.8105 11.0589 16.634C11.0305 16.5464 11.0381 16.4511 11.0799 16.3691C11.1218 16.2871 11.1945 16.225 11.2821 16.1966C11.3697 16.1682 11.465 16.1758 11.5471 16.2176C11.6291 16.2595 11.6911 16.3322 11.7195 16.4198C12.0212 17.3495 12.8502 18.092 13.8308 18.3117C13.9137 18.331 13.9866 18.3799 14.0357 18.4493C14.0849 18.5187 14.1069 18.6038 14.0976 18.6883C14.0882 18.7728 14.0482 18.851 13.9851 18.908C13.922 18.9651 13.8402 18.9969 13.7551 18.9977Z" fill="#ED7161"/>
</g>
<defs>
<clipPath id="clip0_5_3270">
<rect width="20" height="20" fill="white"/>
</clipPath>
</defs>
</svg>
