<svg width="20" height="20" viewBox="0 0 20 20" fill="none" xmlns="http://www.w3.org/2000/svg">
<g clip-path="url(#clip0_5_3286)">
<path d="M10.3955 2.991C10.3955 2.991 10.943 1.73792 9.23415 0.593487C7.52527 -0.550943 5.02051 0.418506 5.02051 0.418506C5.02051 0.418506 5.99984 1.75485 7.77081 2.04131C9.54178 2.32777 10.1754 2.76945 10.3955 2.991Z" fill="#9DB24A"/>
<path d="M7.77081 2.04276C5.99984 1.75489 5.02051 0.419958 5.02051 0.419958C5.02051 0.419958 8.56387 0.165954 10.3955 2.99245C10.1754 2.77091 9.54178 2.33063 7.77081 2.04276Z" fill="#96A944"/>
<path d="M6.4124 1.05537L6.56198 0.97211L6.70874 0.874741C6.94863 0.931187 7.19982 1.00174 7.45664 1.09206L7.21675 1.31078L7.37197 1.25151L7.62739 1.15415C7.76427 1.20636 7.90256 1.2628 8.04085 1.32772C8.13116 1.36864 8.21865 1.41238 8.30473 1.45754L8.00557 1.62688L8.20313 1.6043L8.48254 1.5535C8.73936 1.69884 8.98067 1.85971 9.20645 2.0361C8.81133 1.92604 8.36541 1.83008 7.87152 1.75106C7.48628 1.68897 7.10668 1.57184 6.74402 1.40392C6.29387 1.19507 5.92697 0.93542 5.65039 0.701172C5.91427 0.725161 6.22472 0.768906 6.56198 0.840874L6.4124 1.05537Z" fill="#92A03C"/>
<path d="M6.36755 0.34021C6.33086 0.335977 6.29559 0.330332 6.26172 0.32751C6.29559 0.321865 6.33228 0.31481 6.36755 0.309165V0.34021ZM6.48044 0.292231C6.70623 0.259775 6.95035 0.237197 7.20577 0.234375L7.18883 0.237197L7.20859 0.506724C6.95741 0.440401 6.71751 0.392422 6.49738 0.359966L6.48044 0.292231ZM9.12914 0.958287L9.06282 0.772017L9.07975 1.36893C8.81446 1.17983 8.54211 1.0232 8.26976 0.893374L8.1611 0.471445L8.12018 0.368433L8.09055 0.811529C7.8436 0.704283 7.59947 0.619615 7.36381 0.550469L7.28902 0.234375C7.77022 0.237197 8.28105 0.313399 8.74672 0.529302C8.87373 0.587158 8.99508 0.656304 9.10656 0.731094C10.1127 1.40562 10.2341 2.10272 10.2058 2.48937C9.91938 2.09284 9.59482 1.76687 9.25332 1.50016L9.12914 0.958287Z" fill="#A9BC56"/>
<path d="M5.02051 0.419234C5.02051 0.419234 5.60331 0.3769 6.41894 0.516602L6.41471 0.234375L6.48385 0.527891C6.72939 0.571636 6.99468 0.632315 7.27127 0.715572L7.2374 0.234375L7.35735 0.742383C7.61276 0.822818 7.87523 0.923008 8.13911 1.04578V0.461568L8.25765 1.10363C8.55822 1.2518 8.85879 1.43243 9.14807 1.65115L9.09868 0.942764L9.24544 1.72735C9.66455 2.05897 10.0597 2.47384 10.3955 2.99314C10.3546 2.95222 10.2996 2.90283 10.2248 2.84921C9.79296 2.24524 9.28072 1.79509 8.74731 1.45924L8.19274 1.56084L8.62595 1.38445C8.37054 1.23205 8.1123 1.10504 7.85689 0.999209L7.36299 1.22076L7.74117 0.952642C7.4533 0.839751 7.16966 0.753672 6.90155 0.687349L6.53324 0.932886L6.83664 0.670415C5.98431 0.470034 5.29145 0.471445 5.06849 0.478501C5.03603 0.440401 5.02051 0.419234 5.02051 0.419234Z" fill="#79923B"/>
<path d="M11.0449 2.62823C11.0449 2.62823 11.0887 0.573615 14.1409 0.0895963C17.1932 -0.394423 20 2.50828 20 2.50828C20 2.50828 17.8212 3.71339 15.2233 2.98807C12.6254 2.26274 11.4838 2.46595 11.0449 2.62823Z" fill="#9DB24A"/>
<path d="M15.2233 2.98731C17.8212 3.71263 20 2.50752 20 2.50752C20 2.50752 15.3263 -0.0748525 11.0449 2.62747C11.4838 2.46519 12.6254 2.2634 15.2233 2.98731Z" fill="#96A944"/>
<path d="M17.7009 2.50101L17.5499 2.29357L17.4116 2.06779C17.049 1.993 16.6609 1.93232 16.2531 1.89281L16.4408 2.34296L16.2658 2.16516L15.9793 1.87165C15.7592 1.85612 15.5348 1.84766 15.3062 1.84766C15.1581 1.84766 15.0099 1.85189 14.8631 1.85895L15.1637 2.27805L14.9083 2.12424L14.5597 1.8787C14.1195 1.91398 13.6877 1.98171 13.2686 2.08049C13.8782 2.17927 14.5456 2.33026 15.2695 2.53206C15.8354 2.6901 16.4267 2.77054 17.0278 2.77054C17.7729 2.77054 18.4389 2.64777 18.9639 2.50242C18.5885 2.36978 18.1384 2.23148 17.6318 2.11718L17.7009 2.50101Z" fill="#89A045"/>
<path d="M18.2139 1.5518C18.2661 1.56733 18.3169 1.58426 18.3677 1.60119C18.324 1.57156 18.2802 1.54051 18.2351 1.50947L18.2139 1.5518ZM18.0897 1.41492C17.8033 1.22865 17.4829 1.04379 17.1372 0.878692L17.1598 0.892803L16.9636 1.24841C17.3489 1.31614 17.7059 1.40363 18.0262 1.49536L18.0897 1.41492ZM14.0567 0.65291L14.2656 0.44124L13.8662 1.24559C14.3474 1.15386 14.8173 1.11153 15.2703 1.1073L15.6852 0.600698L15.8065 0.484985L15.568 1.10871C15.9716 1.11858 16.3597 1.15527 16.7238 1.21031L17.0243 0.82648C16.3653 0.527319 15.6217 0.308594 14.8484 0.308594C14.6395 0.308594 14.4307 0.324116 14.2289 0.356572C12.4311 0.641621 11.8257 1.51652 11.6211 2.06263C12.2632 1.70279 12.9095 1.4629 13.5445 1.31332L14.0567 0.65291Z" fill="#A9BC56"/>
<path d="M20.0004 2.50942C20.0004 2.50942 19.2313 2.08466 18.0319 1.7601L18.2153 1.37769L17.9359 1.73611C17.5733 1.64157 17.1725 1.5569 16.7435 1.49622L17.0949 0.8598L16.6109 1.47788C16.2129 1.42708 15.791 1.39744 15.3521 1.39885L15.7219 0.601562L15.1546 1.40168C14.6508 1.41438 14.1273 1.47223 13.5939 1.58653L14.1075 0.650952L13.4118 1.62887C12.6301 1.81796 11.8299 2.13405 11.0439 2.63077C11.1258 2.59973 11.2316 2.56868 11.3685 2.54187C12.338 1.99153 13.3215 1.69942 14.2613 1.57666L14.9542 2.06491L14.4744 1.55126C14.9189 1.50469 15.3507 1.4934 15.7656 1.51033L16.299 2.12418L15.9519 1.5188C16.4161 1.54702 16.8564 1.6077 17.2642 1.68672L17.6142 2.25541L17.3658 1.70648C18.6556 1.97036 19.5996 2.41064 19.8988 2.56163C19.9651 2.52917 20.0004 2.50942 20.0004 2.50942Z" fill="#79923B"/>
<path d="M10.4341 2.89647C10.4341 2.89647 10.5625 1.95242 10.3339 1.45005C10.2111 1.18053 10.1025 0.819278 10.0291 0.542696C9.97265 0.332437 10.1307 0.125 10.3494 0.125H10.7234C10.9054 0.125 11.0536 0.271758 11.055 0.453794C11.055 0.710621 11.0762 1.06199 11.1721 1.29765C11.34 1.70829 11.0028 3.21962 11.0028 3.21962L10.4341 2.89647Z" fill="#564925"/>
<path d="M11.1717 1.29765C11.0758 1.06199 11.0546 0.710621 11.0546 0.453794C11.0546 0.271758 10.9064 0.125 10.723 0.125H10.3984C10.5805 0.125 10.7286 0.271758 10.7301 0.453794C10.7301 0.710621 10.7512 1.06199 10.8472 1.29765C10.9064 1.443 10.9022 1.72523 10.8726 2.02862C10.8542 2.22194 10.6496 2.33766 10.4718 2.25722L10.4676 2.25581C10.4718 2.60295 10.4323 2.89788 10.4323 2.89788L10.7103 3.05592L10.9996 3.22103C11.0024 3.22103 11.3397 1.7097 11.1717 1.29765Z" fill="#42351A"/>
<path d="M14.7338 2.08836C12.8542 1.60716 11.5164 2.22101 10.8631 2.62177C14.8368 5.7559 18.0951 13.1996 9.97266 19.966C9.98253 19.966 9.99241 19.9646 10.0023 19.9646C10.0122 19.9646 10.022 19.966 10.0319 19.966V19.9646C12.222 19.887 19.5712 16.1799 19.9762 10.2631C20.2753 5.86738 17.9978 2.92375 14.7338 2.08836Z" fill="#EE8730"/>
<path d="M12.0034 18.929C13.3327 17.7183 14.3614 16.4271 15.0698 15.0724C15.9588 13.3748 16.3356 11.6151 16.1888 9.84272C15.9532 6.9753 14.2796 4.24052 11.8496 2.65582C12.335 2.46955 12.8459 2.375 13.3793 2.375C13.7758 2.375 14.1879 2.42862 14.6013 2.53446C17.8766 3.37267 19.7449 6.32194 19.4768 10.2336C19.1762 14.6236 14.8426 17.7126 12.0034 18.929Z" fill="#F2994A"/>
<path d="M10.8615 2.62303C9.51672 1.91888 7.71611 1.46308 5.26638 2.08963C2.00243 2.92502 -0.27514 5.86864 0.0268428 10.2629C0.431838 16.1798 7.77961 19.8868 9.9711 19.9645V19.9659C19.1209 13.2926 15.7511 5.18142 10.8615 2.62303Z" fill="#F79338"/>
<path d="M10.8613 2.62205C9.92429 2.13097 8.76434 1.76125 7.31934 1.79512C8.60206 1.82476 9.64912 2.17189 10.5099 2.62205C15.391 5.1762 18.758 13.2662 9.66182 19.9338C9.7733 19.9508 9.87631 19.9606 9.97086 19.9635V19.9649C19.1206 13.2916 15.7509 5.18043 10.8613 2.62205Z" fill="#E87D2B"/>
<path d="M8.77436 19.229C6.35709 18.4218 0.867782 15.258 0.523466 10.2344C0.25535 6.32275 2.12369 3.37348 5.39893 2.53526C6.12567 2.34899 6.83123 2.25586 7.49729 2.25586C8.60503 2.25586 9.62528 2.50845 10.6159 3.02634C13.163 4.35845 14.7562 7.43613 14.6644 10.2965C14.4641 16.6127 9.03825 19.3165 8.77436 19.229Z" fill="#F6A34E"/>
<path d="M4.90347 13.5457C6.83548 13.5457 8.40168 11.5575 8.40168 9.1049C8.40168 6.65229 6.83548 4.66406 4.90347 4.66406C2.97147 4.66406 1.40527 6.65229 1.40527 9.1049C1.40527 11.5575 2.97147 13.5457 4.90347 13.5457Z" fill="#FBB778"/>
<path d="M15.3926 4.70705C16.2604 5.76963 16.9476 7.50815 17.196 9.52748C17.3131 10.4772 17.3188 11.3902 17.2327 12.2199C18.2755 11.4833 18.8851 9.97058 18.6833 8.31955C18.4293 6.24942 16.9886 4.7014 15.3926 4.70705Z" fill="#F6A34E"/>
<path d="M10.8096 5.34768C11.6774 6.41026 12.3646 8.14878 12.613 10.1681C12.7301 11.1178 12.7358 12.0308 12.6497 12.8606C13.6925 12.1239 14.3021 10.6112 14.1003 8.96018C13.8463 6.89005 12.4056 5.34062 10.8096 5.34768Z" fill="#FAAB62"/>
<path d="M10.3999 0.285156C10.3999 0.285156 10.1233 0.465781 10.2164 0.674629C10.3096 0.883477 10.5509 1.67089 10.5509 1.67089V0.767764C10.5509 0.372647 10.3999 0.285156 10.3999 0.285156Z" fill="#665833"/>
<path d="M14.7509 0.903776C14.9317 0.856122 15.061 0.75151 15.0395 0.670118C15.0181 0.588726 14.8541 0.561376 14.6732 0.609029C14.4923 0.656682 14.3631 0.761294 14.3845 0.842686C14.406 0.924078 14.57 0.951429 14.7509 0.903776Z" fill="#B8CC63"/>
<path d="M7.94338 0.443418C7.94737 0.38901 7.85231 0.337702 7.73105 0.328819C7.6098 0.319936 7.50827 0.356842 7.50429 0.41125C7.5003 0.465659 7.59537 0.516967 7.71662 0.52585C7.83787 0.534733 7.9394 0.497827 7.94338 0.443418Z" fill="#B8CC63"/>
</g>
<defs>
<clipPath id="clip0_5_3286">
<rect width="20" height="20" fill="white"/>
</clipPath>
</defs>
</svg>
