<svg width="40" height="54" viewBox="0 0 40 54" fill="none" xmlns="http://www.w3.org/2000/svg">
<path d="M33.0373 7.64692C32.774 7.54938 29.576 6.41252 25.4516 9.87736C22.4917 12.364 21.2259 16.4902 17.795 21.6704C12.445 29.7482 -3.97352 35.2444 0.889269 47.4483C2.77276 52.1752 9.56234 54.4494 13.1853 53.9264C22.9952 52.5101 27.544 44.7811 30.2706 39.946C34.7267 32.0439 38.0622 18.7891 37.2905 12.664C36.972 10.1358 35.3554 8.50574 33.0373 7.64692Z" fill="#4A148C"/>
<path d="M33.2475 7.20737C33.2369 7.24154 33.2168 7.27204 33.1894 7.29533C33.1621 7.31863 33.1286 7.33377 33.093 7.33901C33.0573 7.34424 33.0209 7.33936 32.9879 7.32493C32.9549 7.3105 32.9267 7.2871 32.9066 7.25744C32.5918 6.80184 31.6155 5.97789 28.731 6.2577C27.995 6.32904 26.328 5.4542 25.5458 5.01545C25.3918 4.92907 25.2131 5.08453 25.2656 5.2595C25.4185 5.7691 25.6676 6.53468 25.8622 6.82063C26.5423 7.81993 27.8474 8.20518 28.8166 8.35279C29.0195 8.38369 29.0403 8.6783 28.8449 8.74849C28.0191 9.04482 26.9463 9.60803 26.2609 10.6471C25.6463 11.5791 25.1485 13.2146 24.8932 14.165C24.879 14.2064 24.8794 14.2513 24.8944 14.2925C24.9093 14.3336 24.938 14.3685 24.9755 14.3914C25.0131 14.4143 25.0575 14.4238 25.1012 14.4185C25.145 14.4131 25.1856 14.3931 25.2165 14.3619C26.0226 13.5326 27.6601 11.9759 29.2143 11.2746C30.4304 10.7258 31.4486 10.5809 31.9221 10.5427C31.9544 10.5411 31.9866 10.5474 32.0159 10.5609C32.0452 10.5744 32.0708 10.5948 32.0904 10.6203C32.1101 10.6458 32.1232 10.6756 32.1286 10.7072C32.1341 10.7388 32.1317 10.7712 32.1217 10.8017C31.9582 11.3724 31.6336 12.7729 31.8281 14.3669C31.9394 15.2794 32.7212 16.4236 33.2289 17.0837C33.3498 17.2408 33.5945 17.1328 33.575 16.9308C33.5082 16.2357 33.4655 15.1003 33.7002 13.9206C33.9421 12.7055 34.4198 11.2744 34.6666 10.573C34.6773 10.5367 34.6988 10.5044 34.7282 10.4803C34.7576 10.4562 34.7937 10.4413 34.8316 10.4377C34.8696 10.4341 34.9079 10.4418 34.9414 10.4599C34.9749 10.478 35.0022 10.5056 35.0197 10.5392C35.4032 11.2621 36.3154 12.7524 37.489 13.1366C38.1604 13.3564 39.1086 13.3777 39.8068 13.3545C40.0179 13.3476 40.0732 13.0438 39.8787 12.9607C39.1473 12.6481 38.1529 12.1464 37.7622 11.5948C36.8842 10.3548 37.2614 8.863 35.9183 8.01485C35.5472 7.78052 35.1007 7.81965 34.7694 7.9047C34.6034 7.94726 34.4709 7.76588 34.5545 7.60904C34.9458 6.87589 35.6679 5.39761 35.9747 3.9563C36.5764 1.12872 36.4414 0.313231 35.8258 0.154344C35.1315 -0.0247696 33.8053 -0.17824 33.4541 0.48306C33.2242 0.915785 33.6788 1.54205 33.6185 3.9269C33.5685 5.90815 33.3914 6.80338 33.2475 7.20737Z" fill="#8EC63D"/>
<path d="M34.9744 1.4117C34.7993 1.4107 34.6249 1.39037 34.4543 1.35107C34.1607 1.28395 33.8784 1.17516 33.6161 1.02805C33.5508 0.989236 33.5037 0.926278 33.4852 0.853024C33.4667 0.77977 33.4782 0.70222 33.5174 0.637436C33.5565 0.572651 33.62 0.525938 33.6939 0.507572C33.7677 0.489207 33.8459 0.500694 33.9113 0.539506C34.1255 0.657565 34.3556 0.7448 34.5947 0.798588C35.0613 0.90011 35.4373 0.824729 35.7122 0.574268C35.7683 0.523173 35.8425 0.496261 35.9186 0.499453C35.9947 0.502646 36.0664 0.53568 36.1179 0.591289C36.1694 0.646899 36.1966 0.720528 36.1933 0.795979C36.1901 0.87143 36.1568 0.942523 36.1007 0.993618C35.7934 1.27132 35.3901 1.42103 34.9744 1.4117Z" fill="#9272BA"/>
<path d="M16.3855 50.8868C17.3383 51.9264 23.2695 47.6853 23.8947 46.4148C24.0579 46.0832 24.3082 45.7238 24.0006 45.2589C23.3362 44.2552 22.4432 45.4528 20.5508 46.876C17.4589 49.2013 15.3663 49.7748 16.3855 50.8868Z" fill="#9272BA"/>
<path d="M14.538 52.8982C15.2631 52.7244 15.7393 52.1257 15.6017 51.561C15.464 50.9962 14.7646 50.6794 14.0395 50.8532C13.3144 51.027 12.8382 51.6258 12.9758 52.1905C13.1135 52.7552 13.8129 53.0721 14.538 52.8982Z" fill="#9272BA"/>
<path d="M25.3089 11.6556C24.6052 11.3248 22.7979 14.0561 22.8051 14.7123C22.8071 14.8835 22.7741 15.0794 23.0323 15.244C23.59 15.5994 23.7278 14.9382 24.2877 14.0354C25.2023 12.5604 26.0617 12.0095 25.3089 11.6556Z" fill="#9272BA"/>
<path d="M28.2437 9.22663C28.1845 9.22667 28.1267 9.20853 28.0783 9.1747C28.0298 9.14087 27.9931 9.09301 27.9732 9.03769C27.9533 8.98236 27.9511 8.92227 27.9669 8.86566C27.9828 8.80906 28.0159 8.7587 28.0618 8.72151C28.1387 8.65922 29.9651 7.19946 31.8832 7.44848C31.9587 7.45829 32.0271 7.49745 32.0735 7.55733C32.1199 7.61722 32.1404 7.69292 32.1305 7.7678C32.1206 7.84268 32.0812 7.91059 32.0208 7.95659C31.9604 8.0026 31.884 8.02293 31.8085 8.01312C30.1395 7.79648 28.4419 9.14898 28.425 9.16263C28.3738 9.20407 28.3098 9.22668 28.2437 9.22663ZM1.47489 45.8141C1.41462 45.8141 1.35588 45.7953 1.307 45.7603C1.25812 45.7253 1.22158 45.676 1.20255 45.6193C0.603831 43.8381 1.20294 42.816 1.22875 42.7734C1.26768 42.7085 1.33102 42.6616 1.40483 42.643C1.47864 42.6244 1.55687 42.6357 1.62231 42.6743C1.68776 42.7129 1.73505 42.7757 1.75379 42.8489C1.77254 42.9221 1.76119 42.9997 1.72226 43.0646C1.69986 43.1033 1.23967 43.9289 1.74733 45.4392C1.76169 45.482 1.76559 45.5276 1.75871 45.5722C1.75183 45.6168 1.73437 45.6592 1.70776 45.6958C1.68115 45.7324 1.64616 45.7622 1.60567 45.7828C1.56517 45.8033 1.52039 45.8141 1.47489 45.8141ZM3.31653 43.2047C3.25318 43.2046 3.19163 43.1838 3.14146 43.1455C3.09129 43.1071 3.05531 43.0534 3.03912 42.9926C2.48983 40.9302 3.03645 40.233 3.10065 40.1603L3.5328 40.5353C3.53515 40.5329 3.53733 40.5303 3.53932 40.5275C3.5352 40.533 3.12801 41.0963 3.59433 42.8471C3.60553 42.8893 3.60683 42.9334 3.59812 42.9762C3.58941 43.0189 3.57093 43.0591 3.54409 43.0937C3.51726 43.1282 3.48278 43.1562 3.44333 43.1754C3.40388 43.1947 3.3605 43.2047 3.31653 43.2047ZM4.1439 48.908C4.10004 48.908 4.05675 48.8981 4.01736 48.879C3.97797 48.8599 3.94354 48.832 3.9167 48.7976C2.69641 47.2361 2.79215 46.0019 2.79683 45.9501C2.80415 45.8754 2.84088 45.8067 2.89903 45.7587C2.95718 45.7108 3.03206 45.6875 3.10741 45.694C3.18275 45.7004 3.25249 45.7361 3.30146 45.7933C3.35043 45.8504 3.37469 45.9244 3.36897 45.9992C3.36521 46.2369 3.39685 46.4738 3.46287 46.7023C3.56747 47.103 3.80988 47.7312 4.37065 48.4488C4.40353 48.4909 4.42386 48.5413 4.42932 48.5942C4.43478 48.6472 4.42515 48.7007 4.40153 48.7485C4.37791 48.7963 4.34125 48.8366 4.2957 48.8648C4.25015 48.893 4.19759 48.9079 4.1439 48.908Z" fill="#9272BA"/>
</svg>
