<svg width="20" height="20" viewBox="0 0 20 20" fill="none" xmlns="http://www.w3.org/2000/svg">
<g clip-path="url(#clip0_5_3221)">
<path d="M4.95581 1.76953C4.89573 1.76953 4.83581 1.77039 4.77612 1.77215C0.358234 1.9002 -1.63864 7.38234 1.59429 10.3961L5.20046 13.7578L5.59109 7.74773L5.20046 1.77492C5.11896 1.77152 5.03739 1.76972 4.95581 1.76953Z" fill="#FFD396"/>
<path d="M5.2002 1.77539V13.7582L9.99934 18.232L9.99984 18.2316L10.3905 10.2783L9.99984 4.44961C8.94844 2.89594 7.19805 1.85441 5.2002 1.77539Z" fill="#FFB64C"/>
<path d="M10 4.44965V18.2316L14.7995 13.7579L15.1901 7.99137L14.7995 1.77539C12.8016 1.85449 11.0513 2.89602 10 4.44965Z" fill="#B35324"/>
<path d="M15.2241 1.77215C15.1643 1.77041 15.1045 1.76954 15.0446 1.76953C14.9626 1.76953 14.8811 1.77172 14.7998 1.77496V13.7575L18.4058 10.3963C21.6389 7.38258 19.6421 1.90008 15.2241 1.77215Z" fill="#8A3000"/>
</g>
<defs>
<clipPath id="clip0_5_3221">
<rect width="20" height="20" fill="white"/>
</clipPath>
</defs>
</svg>
