<svg width="20" height="20" viewBox="0 0 20 20" fill="none" xmlns="http://www.w3.org/2000/svg">
<path d="M5 17.5865C7.76142 17.5865 10 14.19 10 10.0003C10 5.81052 7.76142 2.41406 5 2.41406C2.23858 2.41406 0 5.81052 0 10.0003C0 14.19 2.23858 17.5865 5 17.5865Z" fill="#ECF0F1"/>
<path d="M15 17.5865C17.7614 17.5865 20 14.19 20 10.0003C20 5.81052 17.7614 2.41406 15 2.41406C12.2386 2.41406 10 5.81052 10 10.0003C10 14.19 12.2386 17.5865 15 17.5865Z" fill="#ECF0F1"/>
<path d="M4.13773 15.173C6.04216 15.173 7.58601 12.8572 7.58601 10.0005C7.58601 7.14389 6.04216 4.82812 4.13773 4.82812C2.2333 4.82812 0.689453 7.14389 0.689453 10.0005C0.689453 12.8572 2.2333 15.173 4.13773 15.173Z" fill="#2FA8CC"/>
<path d="M14.1377 15.173C16.0422 15.173 17.586 12.8572 17.586 10.0005C17.586 7.14389 16.0422 4.82812 14.1377 4.82812C12.2333 4.82812 10.6895 7.14389 10.6895 10.0005C10.6895 12.8572 12.2333 15.173 14.1377 15.173Z" fill="#2FA8CC"/>
<path d="M3.7927 13.4473C5.1258 13.4473 6.20649 11.9035 6.20649 9.99906C6.20649 8.09463 5.1258 6.55078 3.7927 6.55078C2.4596 6.55078 1.37891 8.09463 1.37891 9.99906C1.37891 11.9035 2.4596 13.4473 3.7927 13.4473Z" fill="#35495E"/>
<path d="M13.7927 13.4473C15.1258 13.4473 16.2065 11.9035 16.2065 9.99906C16.2065 8.09463 15.1258 6.55078 13.7927 6.55078C12.4596 6.55078 11.3789 8.09463 11.3789 9.99906C11.3789 11.9035 12.4596 13.4473 13.7927 13.4473Z" fill="#35495E"/>
<path d="M5.5169 8.61975C6.08823 8.61975 6.55139 8.15659 6.55139 7.58526C6.55139 7.01393 6.08823 6.55078 5.5169 6.55078C4.94558 6.55078 4.48242 7.01393 4.48242 7.58526C4.48242 8.15659 4.94558 8.61975 5.5169 8.61975Z" fill="#ECF0F1"/>
<path d="M15.5169 8.61975C16.0882 8.61975 16.5514 8.15659 16.5514 7.58526C16.5514 7.01393 16.0882 6.55078 15.5169 6.55078C14.9456 6.55078 14.4824 7.01393 14.4824 7.58526C14.4824 8.15659 14.9456 8.61975 15.5169 8.61975Z" fill="#ECF0F1"/>
</svg>
