<svg width="20" height="20" viewBox="0 0 20 20" fill="none" xmlns="http://www.w3.org/2000/svg">
<g clip-path="url(#clip0_5_3253)">
<path d="M3.75 4.375L3.03625 4.96875C2.67266 5.27181 2.38017 5.65111 2.17949 6.0798C1.97881 6.50848 1.87486 6.97605 1.875 7.44937C1.87508 8.10387 1.9806 8.75407 2.1875 9.375L1.03469 11.6803C0.970664 11.8087 0.937392 11.9503 0.9375 12.0938C0.937488 12.2994 1.00622 12.4992 1.13277 12.6613C1.25932 12.8234 1.43643 12.9385 1.63594 12.9884L2.1875 13.125L2.60656 15.4291C2.66431 15.7471 2.83187 16.0348 3.08002 16.2419C3.32816 16.449 3.64114 16.5625 3.96438 16.5625C4.02972 16.5625 4.09498 16.5579 4.15969 16.5487L6.25 16.25C6.65753 16.8614 6.875 17.5796 6.875 18.3144V19.6875H12.5L12.2781 18.1353L3.75 4.375Z" fill="#E0AB85"/>
<path d="M19.375 17.8125C17.3667 17.5885 15.4222 16.9705 13.6531 15.9937L13.6563 15.9969C14.3856 16.9393 15.3457 17.6776 16.4438 18.1406L19.375 19.375H18.1C17.283 19.3758 16.4674 19.3057 15.6625 19.1656C14.8567 19.0258 14.0643 18.8177 13.2938 18.5438C11.2888 17.8275 9.4691 16.6725 7.96768 15.163C6.46626 13.6534 5.32103 11.8276 4.61563 9.81875L2.94063 5.05312C2.60509 5.35577 2.33686 5.7255 2.15329 6.1384C1.96972 6.55129 1.87491 6.99814 1.87501 7.45C1.87556 8.10425 1.98107 8.75418 2.18751 9.375L1.83751 10.0719C1.46319 9.77235 1.16007 9.39344 0.950009 8.9625C0.735028 8.52385 0.623828 8.04162 0.625009 7.55312C0.626829 5.71623 1.35734 3.95509 2.65622 2.65621C3.9551 1.35733 5.71624 0.62682 7.55313 0.625C9.47675 0.625836 11.3407 1.2928 12.8282 2.51252C14.3157 3.73224 15.3349 5.42944 15.7125 7.31563C16.0711 9.10359 16.5227 10.8716 17.0656 12.6125L17.2156 13.0906C17.605 14.3352 18.3569 15.4352 19.375 16.25C18.598 16.1528 17.854 15.8771 17.2012 15.4445C16.5485 15.0118 16.0047 14.434 15.6125 13.7563L13.4375 10L14.8156 13.0625C15.7425 15.124 17.3532 16.802 19.375 17.8125Z" fill="#542210"/>
<path d="M19.3753 16.25C18.3572 15.4352 17.6053 14.3352 17.2159 13.0906L17.0659 12.6125C16.523 10.8716 16.0714 9.10359 15.7128 7.31563C15.3352 5.42945 14.316 3.73224 12.8285 2.51253C11.341 1.29281 9.47706 0.62584 7.55344 0.625005C6.45015 0.623739 5.36272 0.887718 4.38281 1.39469C4.44564 4.99837 5.45304 8.52246 7.30436 11.6149C9.15569 14.7073 11.7861 17.2597 14.9328 19.0172C15.1749 19.0727 15.4183 19.1222 15.6628 19.1656C16.4677 19.3058 17.2833 19.3758 18.1003 19.375H19.3753L16.4441 18.1406C15.346 17.6776 14.3859 16.9393 13.6566 15.9969L13.6534 15.9938C15.4225 16.9705 17.367 17.5885 19.3753 17.8125C17.3535 16.802 15.7428 15.124 14.8159 13.0625L13.4378 10L15.6128 13.7563C16.005 14.434 16.5488 15.0118 17.2015 15.4445C17.8543 15.8771 18.5983 16.1528 19.3753 16.25Z" fill="#662814"/>
<path d="M5.625 3.75C5.88936 3.75 6.14556 3.84161 6.34999 4.00923C6.55442 4.17686 6.69445 4.41014 6.74625 4.66937L6.875 5.3125L7.00375 4.66937C7.05555 4.41014 7.19558 4.17686 7.40001 4.00923C7.60444 3.84161 7.86064 3.75 8.125 3.75C7.86064 3.75 7.60444 3.65839 7.40001 3.49077C7.19558 3.32314 7.05555 3.08986 7.00375 2.83062L6.875 2.1875L6.74625 2.83062C6.69445 3.08986 6.55442 3.32314 6.34999 3.49077C6.14556 3.65839 5.88936 3.75 5.625 3.75ZM16.875 8.4375C17.1394 8.4375 17.3956 8.52911 17.6 8.69674C17.8044 8.86436 17.9444 9.09764 17.9963 9.35687L18.125 10L18.2537 9.35687C18.3056 9.09764 18.4456 8.86436 18.65 8.69674C18.8544 8.52911 19.1106 8.4375 19.375 8.4375C19.1106 8.4375 18.8544 8.34589 18.65 8.17827C18.4456 8.01064 18.3056 7.77736 18.2537 7.51813L18.125 6.875L17.9963 7.51813C17.9444 7.77736 17.8044 8.01064 17.6 8.17827C17.3956 8.34589 17.1394 8.4375 16.875 8.4375ZM14.6875 2.1875C14.9519 2.1875 15.2081 2.27911 15.4125 2.44673C15.6169 2.61436 15.7569 2.84764 15.8088 3.10688L15.9375 3.75L16.0662 3.10688C16.1181 2.84764 16.2581 2.61436 16.4625 2.44673C16.6669 2.27911 16.9231 2.1875 17.1875 2.1875C16.9231 2.1875 16.6669 2.09589 16.4625 1.92827C16.2581 1.76064 16.1181 1.52736 16.0662 1.26813L15.9375 0.625L15.8088 1.26813C15.7569 1.52736 15.6169 1.76064 15.4125 1.92827C15.2081 2.09589 14.9519 2.1875 14.6875 2.1875Z" fill="#C9368A"/>
<path d="M12.685 15.0358C11.6594 13.5373 10.9266 11.8583 10.5253 10.0873L9.99406 7.74359L9.38406 7.88234L9.91531 10.2261C10.2168 11.5506 10.6963 12.8282 11.3409 14.0239C9.73798 12.6669 8.43893 10.9874 7.52844 9.09484L6.84375 7.67578L6.28125 7.94766L6.96563 9.36641C8.37151 12.292 10.6571 14.7047 13.5025 16.2667L13.8041 15.7192C13.4214 15.5077 13.048 15.2796 12.685 15.0358Z" fill="#87321B"/>
<path d="M4.2565 9.80797L2.68056 5.32422C2.16267 5.91171 1.8763 6.66761 1.87493 7.45078C1.87502 8.10527 1.98053 8.75548 2.18743 9.37641L1.03462 11.6817C0.972962 11.8052 0.939812 11.941 0.937617 12.0791C0.935422 12.2171 0.964237 12.3539 1.02194 12.4793C1.07964 12.6047 1.16476 12.7156 1.27101 12.8037C1.37727 12.8919 1.50195 12.9551 1.63587 12.9886L2.18743 13.1264L2.6065 15.4305C2.66425 15.7485 2.83181 16.0362 3.07995 16.2433C3.32809 16.4504 3.64107 16.5639 3.96431 16.5639C4.02965 16.5639 4.09492 16.5593 4.15962 16.5502L6.24993 16.2514C6.65746 16.8628 6.87493 17.581 6.87493 18.3158V19.6889H12.4999L12.3499 18.6377C10.4745 17.7888 8.79049 16.5687 7.39949 15.0512C6.00848 13.5336 4.93931 11.75 4.2565 9.80797Z" fill="#EFC5A5"/>
</g>
<defs>
<clipPath id="clip0_5_3253">
<rect width="20" height="20" fill="white"/>
</clipPath>
</defs>
</svg>
