<svg width="20" height="20" viewBox="0 0 20 20" fill="none" xmlns="http://www.w3.org/2000/svg">
<g clip-path="url(#clip0_5_3384)">
<path fill-rule="evenodd" clip-rule="evenodd" d="M7.03016 3.62695H12.9698C16.8357 3.62695 20 6.79309 20 10.6637V10.9685C20 14.8391 16.8356 18.0052 12.9698 18.0052H5.62594C5.47535 18.0052 5.49246 17.9995 5.35902 18.068L2.54719 19.5147C2.3966 19.5706 2.32359 19.5284 2.3316 19.3743L2.49473 16.3691C2.49816 16.3451 2.50387 16.3417 2.48789 16.328C0.968477 15.0344 0 13.1093 0 10.9685V10.6637C0 6.79309 3.16316 3.62695 7.03016 3.62695Z" fill="#8DCAFC"/>
<path fill-rule="evenodd" clip-rule="evenodd" d="M16.6007 1.82031L12.4941 10.467L13.6577 11.5379L15.1429 11.7275L19.2494 3.08082L16.6007 1.82031Z" fill="#FB8627"/>
<path fill-rule="evenodd" clip-rule="evenodd" d="M16.4102 2.22281L19.0589 3.48332L19.6566 2.22394C19.8733 1.76722 19.6372 1.19636 19.1319 0.955426L18.7269 0.76359L18.322 0.570621C17.8166 0.329723 17.2246 0.506676 17.0079 0.963395L16.4102 2.22281Z" fill="#FE636E"/>
<path fill-rule="evenodd" clip-rule="evenodd" d="M13.8222 12.9545L13.1982 12.2363L12.3781 12.2671L12.2617 14.0654C12.264 14.2139 12.3861 14.2721 12.5024 14.1807L13.8222 12.9545Z" fill="#9C9C9C"/>
<path fill-rule="evenodd" clip-rule="evenodd" d="M18.2637 0.542969C18.7302 0.798711 18.9413 1.34336 18.7325 1.78293L18.1348 3.04117L19.0587 3.48191L19.6565 2.22254C19.8732 1.76582 19.6371 1.19496 19.1318 0.954023L18.7268 0.762188L18.3218 0.569219C18.3027 0.559976 18.2833 0.551223 18.2637 0.542969Z" fill="#F92C3D"/>
<path fill-rule="evenodd" clip-rule="evenodd" d="M18.135 3.04297L14.2178 11.2888L15.1429 11.7284L19.0589 3.48367L18.135 3.04297Z" fill="#F2671F"/>
<path fill-rule="evenodd" clip-rule="evenodd" d="M13.8222 12.9552L12.8982 12.5156L12.3279 13.0454L12.2617 14.0661C12.264 14.2146 12.3861 14.2728 12.5024 14.1814L13.8222 12.9552Z" fill="#838383"/>
<path fill-rule="evenodd" clip-rule="evenodd" d="M15.143 11.7273L12.4943 10.4668L12.3779 12.2662L13.8221 12.9536L15.143 11.7273Z" fill="#FCD79F"/>
<path fill-rule="evenodd" clip-rule="evenodd" d="M15.1434 11.7286L14.2182 11.2891L12.8984 12.5153L13.8224 12.9549L15.1434 11.7286Z" fill="#FAC574"/>
<path fill-rule="evenodd" clip-rule="evenodd" d="M9.40625 3.62699C11.4755 3.62699 13.3417 4.53355 14.6318 5.96875L15.5159 4.10766C14.7254 3.79711 13.8664 3.62695 12.9698 3.62695L9.40625 3.62699Z" fill="#8AC9FE"/>
<path fill-rule="evenodd" clip-rule="evenodd" d="M17.9855 5.74414L16.3007 9.28934C16.3912 9.74158 16.4366 10.2017 16.4364 10.6629V10.9677C16.4364 14.8383 13.2732 18.0045 9.40625 18.0045H12.9698C16.8357 18.0045 20 14.8383 20 10.9677V10.6629C20 8.75387 19.23 7.01492 17.9855 5.74414Z" fill="#64B9FC"/>
<path d="M10.8874 12.2102H4.32719C4.24715 12.2102 4.17038 12.1784 4.11378 12.1218C4.05719 12.0652 4.02539 11.9884 4.02539 11.9084C4.02539 11.8283 4.05719 11.7516 4.11378 11.695C4.17038 11.6384 4.24715 11.6066 4.32719 11.6066H10.8874C10.9674 11.6066 11.0442 11.6384 11.1008 11.695C11.1574 11.7516 11.1892 11.8283 11.1892 11.9084C11.1892 11.9884 11.1574 12.0652 11.1008 12.1218C11.0442 12.1784 10.9674 12.2102 10.8874 12.2102ZM12.2619 14.367H4.32719C4.24715 14.367 4.17038 14.3352 4.11378 14.2786C4.05719 14.222 4.02539 14.1452 4.02539 14.0652C4.02539 13.9852 4.05719 13.9084 4.11378 13.8518C4.17038 13.7952 4.24715 13.7634 4.32719 13.7634H12.2619C12.342 13.7634 12.4187 13.7952 12.4753 13.8518C12.5319 13.9084 12.5637 13.9852 12.5637 14.0652C12.5637 14.1452 12.5319 14.222 12.4753 14.2786C12.4187 14.3352 12.342 14.367 12.2619 14.367ZM10.8874 10.0534H4.32719C4.24715 10.0534 4.17038 10.0216 4.11378 9.965C4.05719 9.90841 4.02539 9.83164 4.02539 9.7516C4.02539 9.67156 4.05719 9.5948 4.11378 9.5382C4.17038 9.4816 4.24715 9.4498 4.32719 9.4498H10.8874C10.9674 9.4498 11.0442 9.4816 11.1008 9.5382C11.1574 9.5948 11.1892 9.67156 11.1892 9.7516C11.1892 9.83164 11.1574 9.90841 11.1008 9.965C11.0442 10.0216 10.9674 10.0534 10.8874 10.0534ZM8.29453 7.89656H4.32719C4.24715 7.89656 4.17038 7.86477 4.11378 7.80817C4.05719 7.75157 4.02539 7.67481 4.02539 7.59477C4.02539 7.51472 4.05719 7.43796 4.11378 7.38136C4.17038 7.32477 4.24715 7.29297 4.32719 7.29297H8.29457C8.37461 7.29297 8.45137 7.32478 8.50797 7.38138C8.56456 7.43798 8.59635 7.51474 8.59635 7.59479C8.59634 7.67483 8.56454 7.75159 8.50794 7.80818C8.45134 7.86478 8.37457 7.89657 8.29453 7.89656Z" fill="#F8F6F6"/>
</g>
<defs>
<clipPath id="clip0_5_3384">
<rect width="20" height="20" fill="white"/>
</clipPath>
</defs>
</svg>
