<svg width="20" height="20" viewBox="0 0 20 20" fill="none" xmlns="http://www.w3.org/2000/svg">
<path d="M15.0796 11.4748C15.0796 10.6054 14.4741 9.87758 13.6618 9.68937C13.4836 9.64805 13.3611 9.48328 13.3611 9.30023V3.80859C13.3611 2.08273 11.962 0.683594 10.2361 0.683594H8.28777C6.56191 0.683594 5.16277 2.08273 5.16277 3.80859V9.30023C5.16277 9.48328 5.04035 9.64805 4.86207 9.68937C4.0498 9.87758 3.44434 10.6054 3.44434 11.4748C3.44434 12.4487 4.20379 13.2448 5.1627 13.3041V13.308H13.3611V13.3041C14.32 13.2448 15.0796 12.4487 15.0796 11.4748Z" fill="#995222"/>
<path d="M13.662 9.68937C13.4838 9.64805 13.3613 9.48328 13.3613 9.30023V3.80859C13.3613 2.08273 11.9622 0.683594 10.2363 0.683594H9.8457C11.5716 0.683594 12.9707 2.08273 12.9707 3.80859V9.30023C12.9707 9.48328 13.0931 9.64805 13.2714 9.68937C14.0837 9.87758 14.6891 10.6054 14.6891 11.4748C14.6891 12.4487 13.9297 13.2448 12.9708 13.3041V13.308H13.3614V13.3041C14.3203 13.2448 15.0798 12.4487 15.0798 11.4748C15.0798 10.6053 14.4743 9.87758 13.662 9.68937Z" fill="#8C3F0A"/>
<path d="M13.0121 5.67188C12.9589 5.67188 12.907 5.67703 12.8558 5.68453V7.04617C12.8558 7.29813 12.8296 7.54391 12.7803 7.78125C12.8564 7.79833 12.9341 7.80702 13.0121 7.80719C13.6018 7.80719 14.0798 7.32914 14.0798 6.73945C14.0798 6.14992 13.6018 5.67188 13.0121 5.67188Z" fill="#FFD2C0"/>
<path d="M13.6846 5.91016C13.8394 6.10011 13.9238 6.33771 13.9236 6.58273C13.9236 7.17242 13.4455 7.65047 12.8558 7.65047C12.8386 7.65047 12.8216 7.64906 12.8046 7.6482C12.7973 7.69257 12.7892 7.7368 12.7803 7.78086C12.8564 7.79791 12.9341 7.80658 13.0121 7.80672C13.6018 7.80672 14.0798 7.32867 14.0798 6.73898C14.0798 6.4043 13.9256 6.10586 13.6846 5.91016Z" fill="#FCC4AE"/>
<path d="M13.0119 6.19141C12.9575 6.19141 12.9052 6.19961 12.8557 6.21437V7.045C12.8557 7.11734 12.8529 7.18906 12.8486 7.26039C12.9305 7.28601 13.0173 7.292 13.1019 7.27788C13.1866 7.26375 13.2667 7.22991 13.3358 7.17909C13.405 7.12827 13.4612 7.0619 13.4999 6.98533C13.5386 6.90877 13.5588 6.82416 13.5588 6.73836C13.5588 6.66654 13.5447 6.59541 13.5172 6.52906C13.4897 6.4627 13.4494 6.4024 13.3986 6.35161C13.3479 6.30082 13.2876 6.26053 13.2212 6.23304C13.1549 6.20555 13.0837 6.19141 13.0119 6.19141Z" fill="#F2AD97"/>
<path d="M5.66832 7.04625V5.68453C5.61662 5.67651 5.56439 5.67228 5.51207 5.67188C4.92238 5.67188 4.44434 6.14992 4.44434 6.73961C4.44434 7.3293 4.92238 7.80734 5.51207 7.80734C5.59176 7.80734 5.6691 7.79797 5.74387 7.78141C5.69358 7.53959 5.66827 7.29324 5.66832 7.04625Z" fill="#FFD2C0"/>
<path d="M5.66809 7.04486V6.21424C5.58616 6.18979 5.49964 6.1849 5.41548 6.19994C5.33132 6.21499 5.25186 6.24955 5.18348 6.30087C5.11509 6.35219 5.05969 6.41882 5.02173 6.49542C4.98376 6.57203 4.96428 6.65646 4.96486 6.74196C4.96543 6.82745 4.98604 6.91162 5.02504 6.9877C5.06403 7.06379 5.12032 7.12967 5.18939 7.18007C5.25845 7.23046 5.33837 7.26395 5.42273 7.27787C5.50708 7.29178 5.59353 7.28572 5.67512 7.26018C5.6709 7.18893 5.66809 7.11721 5.66809 7.04486Z" fill="#F2AD97"/>
<path d="M15.0673 19.3159H3.3623C2.93082 19.3159 2.58105 18.9662 2.58105 18.5347V15.332C2.58105 13.6062 3.9802 12.207 5.70605 12.207H12.7236C14.4494 12.207 15.8486 13.6062 15.8486 15.332V18.5347C15.8486 18.9662 15.4988 19.3159 15.0673 19.3159Z" fill="#FCC4AE"/>
<path d="M14.5075 12.7656C14.8727 13.2888 15.0682 13.9115 15.0674 14.5495V17.7522C15.0674 18.1837 14.7176 18.5334 14.2861 18.5334H2.58105C2.58105 18.9649 2.93082 19.3147 3.3623 19.3147H15.0673C15.4988 19.3147 15.8486 18.9649 15.8486 18.5334V15.3308C15.8486 14.2683 15.3179 13.3302 14.5075 12.7656Z" fill="#F2AD97"/>
<path d="M14.7288 12.9355C15.2006 13.4972 15.4587 14.2075 15.4577 14.941V18.1437C15.4577 18.5752 15.108 18.9249 14.6765 18.9249H2.97148C2.86071 18.9249 2.75123 18.9012 2.65039 18.8553C2.77297 19.1265 3.04516 19.3155 3.36211 19.3155H15.0671C15.4986 19.3155 15.8484 18.9658 15.8484 18.5343V15.3316C15.8484 14.3693 15.413 13.5088 14.7288 12.9355Z" fill="#E59076"/>
<path d="M3.0498 18.2376C3.00836 18.2376 2.96862 18.2211 2.93932 18.1918C2.91002 18.1625 2.89355 18.1228 2.89355 18.0813V16.4407C2.89355 16.3993 2.91002 16.3595 2.93932 16.3302C2.96862 16.3009 3.00836 16.2845 3.0498 16.2845C3.09124 16.2845 3.13099 16.3009 3.16029 16.3302C3.18959 16.3595 3.20605 16.3993 3.20605 16.4407V18.0813C3.20605 18.1228 3.18959 18.1625 3.16029 18.1918C3.13099 18.2211 3.09124 18.2376 3.0498 18.2376ZM3.0498 15.972C3.00836 15.972 2.96862 15.9555 2.93932 15.9262C2.91002 15.8969 2.89355 15.8571 2.89355 15.8157V15.8008C2.89355 15.7593 2.91002 15.7196 2.93932 15.6903C2.96862 15.661 3.00836 15.6445 3.0498 15.6445C3.09124 15.6445 3.13099 15.661 3.16029 15.6903C3.18959 15.7196 3.20605 15.7593 3.20605 15.8008V15.8157C3.20605 15.8571 3.18959 15.8969 3.16029 15.9262C3.13099 15.9555 3.09124 15.972 3.0498 15.972Z" fill="#FFD2C0"/>
<path d="M6.11559 12.207H4.20605C3.12738 12.207 2.25293 13.0815 2.25293 14.1602V14.6352H6.11551L6.11559 12.207Z" fill="#D10028"/>
<path d="M2.40918 15.4442H6.11551V14.6348H2.25293V15.288C2.25293 15.3294 2.26939 15.3692 2.29869 15.3985C2.328 15.4278 2.36774 15.4442 2.40918 15.4442Z" fill="#B7022D"/>
<path d="M12.4092 12.207H14.3186C15.3973 12.207 16.2718 13.0815 16.2718 14.1602V14.6352H12.4092V12.207Z" fill="#D10028"/>
<path d="M16.1156 15.4442H12.4092V14.6348H16.2718V15.288C16.2718 15.3294 16.2553 15.3691 16.226 15.3984C16.1967 15.4277 16.157 15.4442 16.1156 15.4442Z" fill="#B7022D"/>
<path d="M11.3088 13.6836C10.4004 13.6836 9.61824 14.222 9.2627 14.9969C8.90707 14.222 8.12496 13.6836 7.2166 13.6836C5.97355 13.6836 4.96582 14.6912 4.96582 15.9343V19.3148H13.5596V15.9343C13.5595 14.6913 12.5518 13.6836 11.3088 13.6836Z" fill="#D10028"/>
<path d="M10.5251 12.2073V10.4102C10.1213 10.5618 9.69342 10.6393 9.26207 10.639C8.81754 10.639 8.39207 10.5577 7.99902 10.4102V12.2073L10.5251 12.2073Z" fill="#FCC4AE"/>
<path d="M9.26207 10.639C8.83072 10.6393 8.40284 10.5618 7.99902 10.4102V10.811C8.40434 10.956 8.83162 11.0299 9.26207 11.0296C9.70535 11.0296 10.1304 10.9522 10.5251 10.811V10.4102C10.1213 10.5618 9.69342 10.6393 9.26207 10.639Z" fill="#F2AD97"/>
<path d="M13.0508 8.67969C13.3744 8.67969 13.6367 8.41735 13.6367 8.09375C13.6367 7.77015 13.3744 7.50781 13.0508 7.50781C12.7272 7.50781 12.4648 7.77015 12.4648 8.09375C12.4648 8.41735 12.7272 8.67969 13.0508 8.67969Z" fill="#FFC91D"/>
<path d="M13.3802 7.60938C13.4566 7.72214 13.4913 7.858 13.4784 7.9936C13.4655 8.1292 13.4057 8.25606 13.3094 8.35238C13.2131 8.44869 13.0862 8.50844 12.9506 8.52136C12.815 8.53427 12.6792 8.49953 12.5664 8.42313C12.6148 8.49458 12.6784 8.55446 12.7527 8.59848C12.8269 8.64249 12.91 8.66956 12.9959 8.67774C13.0819 8.68592 13.1685 8.67502 13.2498 8.64581C13.331 8.6166 13.4048 8.5698 13.4658 8.50876C13.5268 8.44773 13.5736 8.37396 13.6028 8.29273C13.6321 8.21151 13.643 8.12483 13.6348 8.0389C13.6266 7.95297 13.5995 7.86991 13.5555 7.79566C13.5115 7.72141 13.4516 7.6578 13.3802 7.60938Z" fill="#FFA91A"/>
<path d="M5.47266 8.67969C5.79626 8.67969 6.05859 8.41735 6.05859 8.09375C6.05859 7.77015 5.79626 7.50781 5.47266 7.50781C5.14905 7.50781 4.88672 7.77015 4.88672 8.09375C4.88672 8.41735 5.14905 8.67969 5.47266 8.67969Z" fill="#FFC91D"/>
<path d="M5.80203 7.60938C5.87844 7.72214 5.91317 7.858 5.90026 7.9936C5.88735 8.1292 5.8276 8.25606 5.73128 8.35238C5.63497 8.44869 5.5081 8.50844 5.3725 8.52136C5.23691 8.53427 5.10104 8.49953 4.98828 8.42313C5.0367 8.49458 5.10031 8.55446 5.17457 8.59848C5.24882 8.64249 5.33188 8.66956 5.41781 8.67774C5.50374 8.68592 5.59041 8.67502 5.67164 8.64581C5.75287 8.6166 5.82663 8.5698 5.88767 8.50876C5.94871 8.44773 5.9955 8.37396 6.02471 8.29273C6.05393 8.21151 6.06483 8.12483 6.05665 8.0389C6.04847 7.95297 6.0214 7.86991 5.97738 7.79566C5.93337 7.72141 5.87349 7.6578 5.80203 7.60938Z" fill="#FFA91A"/>
<path d="M10.5118 2.81445H10.1602C9.63133 4.07875 8.18 4.98727 6.47039 4.98727C6.19945 4.98727 5.93539 4.96352 5.68 4.92C5.67201 4.99915 5.66799 5.07865 5.66797 5.1582V7.04484C5.66797 9.02961 7.27695 10.6386 9.26172 10.6386C11.2465 10.6386 12.8555 9.02961 12.8555 7.04484V5.1582C12.8555 3.86375 11.8062 2.81445 10.5118 2.81445Z" fill="#FFD2C0"/>
<path d="M11.9625 3.31641C12.2889 3.72916 12.4662 4.24016 12.4656 4.76641V6.65305C12.4656 8.63781 10.8566 10.2468 8.87184 10.2468C7.97887 10.2468 7.1627 9.92039 6.53418 9.38133C7.19332 10.1498 8.17066 10.6374 9.26246 10.6374C11.2472 10.6374 12.8562 9.02844 12.8562 7.04367V5.15703C12.8562 4.41023 12.5065 3.74555 11.9625 3.31641Z" fill="#FCC4AE"/>
<path d="M10.8246 6.62766C11.0529 6.62766 11.238 6.44255 11.238 6.21422C11.238 5.98588 11.0529 5.80078 10.8246 5.80078C10.5962 5.80078 10.4111 5.98588 10.4111 6.21422C10.4111 6.44255 10.5962 6.62766 10.8246 6.62766Z" fill="#995222"/>
<path d="M7.69957 6.62766C7.92791 6.62766 8.11301 6.44255 8.11301 6.21422C8.11301 5.98588 7.92791 5.80078 7.69957 5.80078C7.47124 5.80078 7.28613 5.98588 7.28613 6.21422C7.28613 6.44255 7.47124 6.62766 7.69957 6.62766Z" fill="#995222"/>
<path d="M9.26242 8.87969C9.75141 8.87969 10.1478 8.64328 10.1478 8.35156H8.37695C8.37703 8.64328 8.77344 8.87969 9.26242 8.87969Z" fill="#995222"/>
<path d="M17.1851 7.93049L17.2352 7.944C17.2745 7.95455 17.2745 8.01033 17.2352 8.02088L17.1851 8.03439C17.0294 8.07631 16.8874 8.15839 16.7734 8.2724C16.6594 8.38642 16.5773 8.52838 16.5354 8.68408L16.5219 8.73424C16.5113 8.77354 16.4555 8.77354 16.445 8.73424L16.4315 8.68408C16.3895 8.52838 16.3075 8.38642 16.1935 8.2724C16.0794 8.15839 15.9375 8.07631 15.7818 8.03439L15.7316 8.02088C15.6923 8.01033 15.6923 7.95455 15.7316 7.944L15.7818 7.93049C15.9375 7.88857 16.0794 7.80649 16.1935 7.69248C16.3075 7.57846 16.3895 7.4365 16.4315 7.2808L16.445 7.23064C16.4555 7.19135 16.5113 7.19135 16.5219 7.23064L16.5354 7.2808C16.5773 7.4365 16.6594 7.57846 16.7734 7.69248C16.8874 7.80649 17.0294 7.88857 17.1851 7.93049Z" fill="#FFA91A"/>
<path d="M16.7965 7.96027C16.8191 7.96637 16.8191 7.99848 16.7965 8.00457C16.7268 8.02335 16.6632 8.0601 16.6121 8.11116C16.5611 8.16222 16.5243 8.22579 16.5055 8.29551C16.4995 8.31816 16.4673 8.31816 16.4613 8.29551C16.4425 8.22579 16.4057 8.16222 16.3547 8.11116C16.3036 8.0601 16.24 8.02335 16.1703 8.00457C16.1477 7.99848 16.1477 7.96637 16.1703 7.96027C16.24 7.9415 16.3036 7.90474 16.3547 7.85369C16.4057 7.80263 16.4425 7.73906 16.4613 7.66934C16.4673 7.64668 16.4995 7.64668 16.5055 7.66934C16.5243 7.73906 16.5611 7.80263 16.6121 7.85369C16.6632 7.90474 16.7268 7.9415 16.7965 7.96027Z" fill="#FFC91D"/>
<path d="M3.99139 7.53076L4.08037 7.55475C4.15014 7.5735 4.15014 7.67248 4.08037 7.69123L3.99139 7.71521C3.71503 7.78961 3.46306 7.93528 3.26069 8.13765C3.05833 8.34002 2.91266 8.59199 2.83826 8.86834L2.81428 8.95732C2.79553 9.02709 2.69654 9.02709 2.67779 8.95732L2.65381 8.86834C2.57941 8.59199 2.43374 8.34002 2.23138 8.13765C2.02901 7.93528 1.77704 7.78961 1.50068 7.71521L1.4117 7.69123C1.34193 7.67248 1.34193 7.5735 1.4117 7.55475L1.50068 7.53076C1.77704 7.45637 2.02901 7.3107 2.23138 7.10833C2.43374 6.90596 2.57941 6.65399 2.65381 6.37764L2.67779 6.28865C2.69654 6.21889 2.79553 6.21889 2.81428 6.28865L2.83826 6.37764C2.91266 6.65399 3.05833 6.90596 3.26069 7.10833C3.46306 7.3107 3.71503 7.45637 3.99139 7.53076Z" fill="#FFA91A"/>
<path d="M3.30182 7.58369C3.34205 7.59455 3.34205 7.65158 3.30182 7.66236C3.17806 7.69568 3.06522 7.76092 2.97459 7.85154C2.88396 7.94217 2.81873 8.05501 2.78541 8.17877C2.77455 8.219 2.71752 8.219 2.70674 8.17877C2.67342 8.05501 2.60819 7.94217 2.51756 7.85154C2.42693 7.76092 2.31409 7.69568 2.19033 7.66236C2.1501 7.6515 2.1501 7.59447 2.19033 7.58369C2.31409 7.55037 2.42693 7.48514 2.51756 7.39451C2.60819 7.30388 2.67342 7.19104 2.70674 7.06729C2.7176 7.02705 2.77463 7.02705 2.78541 7.06729C2.81871 7.19105 2.88394 7.3039 2.97457 7.39453C3.0652 7.48516 3.17805 7.55039 3.30182 7.58369Z" fill="#FFC91D"/>
<path d="M16.0515 4.85762L16.1267 4.87785C16.1856 4.89371 16.1856 4.9773 16.1267 4.99324L16.0515 5.01348C15.8179 5.07635 15.605 5.19946 15.434 5.37049C15.2629 5.54151 15.1398 5.75446 15.077 5.98801L15.0567 6.06324C15.0409 6.12215 14.9573 6.12215 14.9413 6.06324L14.9211 5.98801C14.8582 5.75446 14.7351 5.54151 14.5641 5.37049C14.3931 5.19946 14.1801 5.07635 13.9466 5.01348L13.8713 4.99324C13.8124 4.97738 13.8124 4.89379 13.8713 4.87785L13.9466 4.85762C14.1801 4.79474 14.3931 4.67163 14.5641 4.50061C14.7351 4.32958 14.8582 4.11664 14.9211 3.88309L14.9413 3.80785C14.9572 3.74895 15.0408 3.74895 15.0567 3.80785L15.077 3.88309C15.1399 4.11663 15.263 4.32956 15.434 4.50058C15.605 4.6716 15.8179 4.79472 16.0515 4.85762Z" fill="#FFA91A"/>
<path d="M15.4687 4.9033C15.5027 4.91244 15.5027 4.96064 15.4687 4.96979C15.3641 4.99794 15.2687 5.05307 15.1922 5.12966C15.1156 5.20625 15.0604 5.3016 15.0323 5.40619C15.0231 5.44018 14.9749 5.44018 14.9658 5.40619C14.9376 5.3016 14.8825 5.20625 14.8059 5.12966C14.7293 5.05307 14.634 4.99794 14.5294 4.96979C14.4954 4.96064 14.4954 4.91244 14.5294 4.9033C14.634 4.87514 14.7293 4.82001 14.8059 4.74343C14.8825 4.66684 14.9376 4.57148 14.9658 4.46689C14.9749 4.43291 15.0231 4.43291 15.0323 4.46689C15.0604 4.57149 15.1156 4.66685 15.1921 4.74344C15.2687 4.82003 15.3641 4.87516 15.4687 4.9033Z" fill="#FFC91D"/>
<path d="M2.86627 11.8726L2.92893 11.8894C2.97807 11.9026 2.97807 11.9723 2.92893 11.9855L2.86627 12.0024C2.67164 12.0548 2.49418 12.1574 2.35166 12.2999C2.20914 12.4424 2.10655 12.6199 2.05416 12.8145L2.03729 12.8772C2.02408 12.9263 1.95439 12.9263 1.94119 12.8772L1.92432 12.8145C1.87193 12.6199 1.76934 12.4424 1.62681 12.2999C1.48429 12.1574 1.30684 12.0548 1.11221 12.0024L1.04955 11.9855C1.00041 11.9723 1.00041 11.9026 1.04955 11.8894L1.11221 11.8726C1.30684 11.8202 1.48429 11.7176 1.62681 11.5751C1.76934 11.4325 1.87193 11.2551 1.92432 11.0604L1.94119 10.9978C1.95439 10.9487 2.02408 10.9487 2.03729 10.9978L2.05416 11.0604C2.10658 11.2551 2.20918 11.4325 2.3517 11.575C2.49421 11.7175 2.67165 11.8201 2.86627 11.8726Z" fill="#FFA91A"/>
<path d="M2.38109 11.9083C2.40937 11.916 2.40937 11.9561 2.38109 11.9637C2.29393 11.9872 2.21446 12.0331 2.15064 12.0969C2.08681 12.1607 2.04087 12.2402 2.01742 12.3274C2.00977 12.3557 1.96961 12.3557 1.96203 12.3274C1.93858 12.2402 1.89264 12.1607 1.82882 12.0969C1.76499 12.0331 1.68552 11.9872 1.59836 11.9637C1.57008 11.9561 1.57008 11.9159 1.59836 11.9083C1.68552 11.8849 1.76499 11.8389 1.82882 11.7751C1.89264 11.7113 1.93858 11.6318 1.96203 11.5446C1.96969 11.5164 2.00984 11.5164 2.01742 11.5446C2.0409 11.6318 2.08685 11.7113 2.15067 11.7751C2.21449 11.8389 2.29395 11.8848 2.38109 11.9083Z" fill="#FFC91D"/>
<path d="M17.9127 9.58458L16.0935 10.3097L14.4648 9.22215C14.3089 9.11801 14.1013 9.23793 14.1134 9.42504L14.2409 11.3793L12.7034 12.5922C12.5562 12.7083 12.6061 12.9429 12.7878 12.9891L14.6858 13.4718L15.0705 16.537H16.1067L16.8133 13.6954L18.7701 13.6179C18.9574 13.6105 19.055 13.3915 18.9352 13.2472L17.6834 11.7412L18.2144 9.85622C18.2651 9.67559 18.0869 9.51512 17.9127 9.58458Z" fill="#F79219"/>
<path d="M17.6182 16.5371H13.5713C13.4677 16.5371 13.3683 16.5783 13.2951 16.6515C13.2218 16.7248 13.1807 16.8241 13.1807 16.9277V18.6226H18.0089V16.9277C18.0089 16.8241 17.9677 16.7248 17.8945 16.6515C17.8212 16.5783 17.7218 16.5371 17.6182 16.5371Z" fill="#7C3108"/>
<path d="M17.3998 16.9883H13.7891C13.7476 16.9883 13.7079 17.0047 13.6786 17.034C13.6493 17.0633 13.6328 17.1031 13.6328 17.1445V18.0124C13.6328 18.0539 13.6493 18.0936 13.6786 18.1229C13.7079 18.1522 13.7476 18.1687 13.7891 18.1687H17.3998C17.4412 18.1687 17.4809 18.1522 17.5103 18.1229C17.5396 18.0936 17.556 18.0539 17.556 18.0124V17.1445C17.556 17.1031 17.5396 17.0633 17.5103 17.034C17.4809 17.0047 17.4412 16.9883 17.3998 16.9883Z" fill="#995222"/>
<path d="M18.0987 19.3169H13.0895C13.0295 19.3169 12.972 19.293 12.9296 19.2506C12.8871 19.2082 12.8633 19.1506 12.8633 19.0906V18.8493C12.8633 18.7893 12.8871 18.7318 12.9296 18.6893C12.972 18.6469 13.0295 18.6231 13.0895 18.623H18.0987C18.1587 18.6231 18.2163 18.6469 18.2587 18.6893C18.3011 18.7318 18.325 18.7893 18.325 18.8493V19.0906C18.325 19.2156 18.2237 19.3169 18.0987 19.3169Z" fill="#725246"/>
<path d="M18.1688 19.3169H13.0195C12.9781 19.3169 12.9383 19.3004 12.909 19.2711C12.8797 19.2418 12.8633 19.2021 12.8633 19.1606V18.7793C12.8633 18.7379 12.8797 18.6981 12.909 18.6688C12.9383 18.6395 12.9781 18.623 13.0195 18.623H18.1688C18.2102 18.623 18.2499 18.6395 18.2792 18.6688C18.3085 18.6981 18.325 18.7379 18.325 18.7793V19.1606C18.325 19.2021 18.3085 19.2418 18.2792 19.2711C18.2499 19.3004 18.2102 19.3169 18.1688 19.3169Z" fill="#995222"/>
<path d="M14.7474 9.95491L16.0401 10.8181L17.484 10.2426C17.5537 10.2148 17.625 10.279 17.6047 10.3512L17.1832 11.8473L18.1768 13.0427C18.2247 13.1004 18.1857 13.188 18.1108 13.191L16.5576 13.2525L15.7811 16.5368H15.4036L15.0279 13.0917L13.5214 12.7086C13.4487 12.6901 13.4287 12.5962 13.4876 12.5498L14.708 11.5871L14.6069 10.036C14.602 9.96116 14.6851 9.91319 14.7474 9.95491Z" fill="#FFC91D"/>
</svg>
