<svg width="36" height="24" viewBox="0 0 36 24" fill="none" xmlns="http://www.w3.org/2000/svg">
<path d="M12 0C13.576 0 15.1363 0.307597 16.5921 0.905431C18.0479 1.50326 19.3709 2.37932 20.485 3.48417C21.5995 4.58859 22.4829 5.89999 23.0863 7.34361C23.6895 8.78733 24 10.3341 24 11.8961C24 16.7077 21.0762 21.0453 16.5921 22.8864C12.108 24.7275 6.94669 23.7099 3.51495 20.3077C0.0832133 16.9054 -0.943471 11.7889 0.913567 7.34361C2.77105 2.89836 7.14662 0 12 0ZM12 15.4644C12.4728 15.4649 12.9411 15.3732 13.3783 15.1942C13.8156 15.0153 14.2123 14.7522 14.5469 14.4206C14.8814 14.0889 15.1462 13.6954 15.3272 13.2623C15.5079 12.8288 15.6006 12.3645 15.6001 11.8957C15.6001 10.4521 14.7229 9.15091 13.3779 8.59848C12.0328 8.04605 10.4842 8.35142 9.45486 9.37215C8.42547 10.3929 8.11747 11.9277 8.67449 13.2614C9.23151 14.5951 10.5446 15.4644 12.0004 15.4644H12Z" fill="#00AEEF"/>
<path d="M25.4878 8.92197C28.5368 9.79182 32.1355 8.92197 32.1355 8.92197C31.0913 13.4426 27.7789 16.2738 23.003 16.6184C22.5427 17.678 21.9286 18.6656 21.1802 19.5502C20.4325 20.434 19.5585 21.2053 18.5856 21.8397C17.613 22.4736 16.5525 22.9638 15.4371 23.2945C14.3217 23.6253 13.164 23.7927 12 23.7922L15.6001 12.449C19.3007 0.789719 21.1978 0 29.9741 0H36C34.9922 4.40178 31.5177 7.7641 25.4882 8.92197H25.4878Z" fill="#008CCF"/>
</svg>
