<svg width="20" height="20" viewBox="0 0 20 20" fill="none" xmlns="http://www.w3.org/2000/svg">
<path d="M19.0739 9.9941C17.8316 13.5311 13.8506 17.1074 9.99961 18.6654C6.14861 17.1074 2.16761 13.5314 0.925277 9.9941C0.421277 8.55943 0.158277 7.02843 0.46261 5.55176C0.769944 4.0721 1.70194 2.65543 3.16628 1.90043C4.93494 0.992097 7.30261 1.20876 8.94128 2.29143C9.33107 2.55067 9.68674 2.85785 9.99994 3.20576C10.3131 2.85785 10.6688 2.55067 11.0586 2.29143C12.6973 1.20876 15.0649 0.992097 16.8336 1.90043C18.2979 2.65543 19.2296 4.0721 19.5373 5.55176C19.8416 7.02843 19.5786 8.55943 19.0746 9.9941H19.0739Z" fill="#D6253F"/>
<path d="M3.49611 5.64384C3.43711 6.26517 3.50311 6.88684 3.63145 7.49784C3.73545 8.00117 3.43345 8.49784 2.93711 8.62951L2.91645 8.63284C2.78662 8.66712 2.65104 8.67382 2.51847 8.65249C2.38589 8.63116 2.25925 8.58229 2.14673 8.50902C2.0342 8.43574 1.93827 8.3397 1.86514 8.22709C1.792 8.11447 1.74328 7.98778 1.72211 7.85517C1.58444 6.99674 1.70149 6.11677 2.05878 5.32417C2.52045 4.31751 3.37111 3.46684 4.42311 2.93917C4.54478 2.88017 4.65211 3.02951 4.56211 3.12651C3.89911 3.82784 3.58311 4.73084 3.49611 5.64384Z" fill="#F7525F"/>
<path d="M4 11.6641C4.55228 11.6641 5 11.2163 5 10.6641C5 10.1118 4.55228 9.66406 4 9.66406C3.44772 9.66406 3 10.1118 3 10.6641C3 11.2163 3.44772 11.6641 4 11.6641Z" fill="#F7525F"/>
</svg>
