<svg width="24" height="24" viewBox="0 0 24 24" fill="none" xmlns="http://www.w3.org/2000/svg">
<path d="M11.5 22C17.0228 22 21.5 17.5228 21.5 12C21.5 6.47715 17.0228 2 11.5 2C5.97715 2 1.5 6.47715 1.5 12C1.5 17.5228 5.97715 22 11.5 22Z" stroke="white" stroke-width="1.4" stroke-linecap="round" stroke-linejoin="round"/>
<path d="M7.75 9.36621C8.05376 9.36621 8.2998 9.61226 8.2998 9.91602C8.2998 10.2198 8.05376 10.4658 7.75 10.4658C7.44624 10.4658 7.2002 10.2198 7.2002 9.91602C7.2002 9.61226 7.44624 9.36621 7.75 9.36621Z" stroke="white" stroke-width="1.4"/>
<path d="M15.25 9.36621C15.5538 9.36621 15.7998 9.61226 15.7998 9.91602C15.7998 10.2198 15.5538 10.4658 15.25 10.4658C14.9462 10.4658 14.7002 10.2198 14.7002 9.91602C14.7002 9.61226 14.9462 9.36621 15.25 9.36621Z" stroke="white" stroke-width="1.4"/>
<path d="M15.8327 14.5C15.3922 15.259 14.76 15.8889 13.9995 16.3268C13.239 16.7647 12.3769 16.9952 11.4993 16.9952C10.6218 16.9952 9.75965 16.7647 8.99917 16.3268C8.23868 15.8889 7.60655 15.259 7.16602 14.5" stroke="white" stroke-width="1.4" stroke-linecap="round" stroke-linejoin="round"/>
</svg>
