<svg width="29" height="29" viewBox="0 0 29 29" fill="none" xmlns="http://www.w3.org/2000/svg">
<path d="M24.1787 0H4.82125C2.15855 0 0 2.15855 0 4.82125V24.1787C0 26.8414 2.15855 29 4.82125 29H24.1787C26.8414 29 29 26.8414 29 24.1787V4.82125C29 2.15855 26.8414 0 24.1787 0Z" fill="#4E4E4E"/>
<path d="M23.5391 12.1266V8.25947C18.4841 8.04602 18.3215 3.45245 18.3215 3.02081V2.98828H14.4143V18.0497C14.4139 18.7005 14.2082 19.3347 13.8266 19.8619C13.445 20.3891 12.9068 20.7825 12.2886 20.9862C11.6705 21.1899 11.0038 21.1935 10.3835 20.9964C9.76325 20.7994 9.22089 20.4117 8.83362 19.8886C8.44636 19.3655 8.23392 18.7336 8.22651 18.0828C8.21911 17.432 8.41713 16.7955 8.79239 16.2637C9.16766 15.7319 9.70106 15.3321 10.3167 15.1209C10.9324 14.9098 11.5989 14.8982 12.2215 15.0878V11.0994C11.9222 11.061 11.6207 11.0417 11.319 11.0418C9.93292 11.0418 8.57801 11.4528 7.42557 12.2228C6.27312 12.9929 5.3749 14.0873 4.84448 15.3679C4.31407 16.6484 4.17529 18.0575 4.44569 19.4169C4.7161 20.7763 5.38354 22.025 6.36361 23.005C7.34369 23.9851 8.59238 24.6526 9.95178 24.923C11.3112 25.1934 12.7202 25.0546 14.0008 24.5242C15.2813 23.9937 16.3758 23.0955 17.1458 21.9431C17.9159 20.7906 18.3269 19.4357 18.3269 18.0497C18.3269 17.9514 18.3269 17.8539 18.3201 17.757V10.3404C20.1192 11.9864 23.5391 12.1266 23.5391 12.1266Z" fill="#00F6EF"/>
<path d="M24.69 13.0818V9.21259C19.6343 8.99914 19.4723 4.40557 19.4723 3.97393V3.94141H15.5652V19.0028C15.5649 19.6537 15.3594 20.2879 14.9778 20.8152C14.5963 21.3425 14.0581 21.7361 13.44 21.9399C12.8219 22.1437 12.1552 22.1473 11.5348 21.9504C10.9145 21.7534 10.372 21.3658 9.9847 20.8427C9.59737 20.3196 9.38485 19.6877 9.37739 19.0369C9.36994 18.3861 9.56792 17.7495 9.94317 17.2177C10.3184 16.6858 10.8518 16.2859 11.4675 16.0748C12.0832 15.8636 12.7498 15.852 13.3724 16.0416V12.0525C13.0724 12.0149 12.7702 11.9966 12.4678 11.9976C11.0817 11.998 9.72692 12.4094 8.57469 13.1798C7.42245 13.9502 6.52454 15.045 5.99452 16.3257C5.4645 17.6065 5.32617 19.0156 5.59702 20.3749C5.86787 21.7343 6.53574 22.9828 7.51617 23.9625C8.49659 24.9423 9.74554 25.6093 11.1051 25.8793C12.4646 26.1492 13.8736 26.0099 15.154 25.479C16.4344 24.9481 17.5285 24.0495 18.2982 22.8967C19.0678 21.744 19.4783 20.3889 19.4778 19.0028C19.4778 18.9046 19.4778 18.807 19.471 18.7101V11.2936C21.2701 12.9395 24.69 13.0818 24.69 13.0818Z" fill="white"/>
<path d="M18.4182 3.94141C18.6066 4.96732 19.1568 6.57124 20.7607 7.50974C19.5349 6.082 19.4732 4.23956 19.4732 3.97393V3.94141H18.4182ZM24.6895 13.0818V9.21259C24.3025 9.19841 23.9173 9.15309 23.5376 9.07707V12.123C23.5376 12.123 20.1176 11.9827 18.3199 10.3368V17.7513C18.324 17.8482 18.3267 17.9457 18.3267 18.044C18.3265 19.3119 17.9824 20.556 17.331 21.6438C16.6796 22.7315 15.7453 23.6222 14.6277 24.221C13.5101 24.8197 12.251 25.104 10.9845 25.0437C9.71804 24.9833 8.49167 24.5806 7.43604 23.8783C8.40685 24.8809 9.65494 25.5707 11.0204 25.8595C12.3858 26.1482 13.8063 26.0226 15.0999 25.4989C16.3935 24.9751 17.5012 24.077 18.2811 22.9196C19.061 21.7623 19.4775 20.3984 19.4773 19.0028C19.4773 18.9046 19.4773 18.807 19.4705 18.7101V11.2936C21.2696 12.9395 24.6895 13.0818 24.6895 13.0818Z" fill="#FF004F"/>
<path d="M12.2219 15.0833C11.4758 14.8557 10.6714 14.9182 9.96936 15.2581C9.26736 15.5981 8.71952 16.1904 8.43539 16.9168C8.15126 17.6432 8.15176 18.4501 8.4368 19.1761C8.72185 19.9021 9.27042 20.4938 9.97285 20.8329C9.58899 20.3085 9.37984 19.6767 9.37503 19.0269C9.37023 18.3771 9.57001 17.7422 9.94607 17.2123C10.3221 16.6823 10.8554 16.2841 11.4704 16.0741C12.0853 15.8641 12.7508 15.8529 13.3725 16.0421V12.053C13.0724 12.0154 12.7702 11.9971 12.4678 11.9981C12.3845 11.9981 12.3025 11.9981 12.2198 12.0028L12.2219 15.0833Z" fill="#FF004F"/>
</svg>
