<svg width="24" height="24" viewBox="0 0 24 24" fill="none" xmlns="http://www.w3.org/2000/svg">
<path d="M18.1596 6.15738V8.57613C17.5988 8.26457 16.982 8.06643 16.3446 7.99301V6.15738C16.3446 5.00568 15.8871 3.90115 15.0728 3.08677C14.2584 2.27239 13.1539 1.81488 12.0021 1.81488C10.8504 1.81488 9.74591 2.27239 8.93154 3.08677C8.11716 3.90115 7.65965 5.00568 7.65965 6.15738V7.99301C7.02184 8.06609 6.40456 8.26356 5.84277 8.57426V6.15738C5.87095 4.54267 6.53217 3.00362 7.68404 1.87168C8.8359 0.739738 10.3863 0.105469 12.0012 0.105469C13.6162 0.105469 15.1665 0.739738 16.3184 1.87168C17.4703 3.00362 18.1315 4.54267 18.1596 6.15738Z" fill="white"/>
<path d="M18.8438 9.5284C18.242 8.9824 17.5072 8.60422 16.7131 8.43178C15.919 8.25933 15.0935 8.29869 14.3194 8.5459C13.2263 8.88902 12.3938 9.59215 12 10.4809C11.6063 9.59215 10.7757 8.88902 9.68067 8.5459C8.9069 8.29866 8.0817 8.25929 7.2879 8.43174C6.4941 8.60419 5.75962 8.98239 5.15817 9.5284C3.53255 10.9665 2.90817 13.0215 3.38067 15.3146C4.16442 19.0534 7.69317 22.6271 11.9438 23.9903C11.9624 23.9931 11.9814 23.9931 12 23.9903C12.0193 23.9931 12.0389 23.9931 12.0582 23.9903C16.3125 22.6196 19.8375 19.0534 20.625 15.3146C21.0994 13.0215 20.4694 10.9684 18.8438 9.5284ZM12.7107 16.4996L12.8494 18.0615C12.8518 18.0875 12.8487 18.1137 12.8403 18.1385C12.8319 18.1632 12.8185 18.1859 12.8008 18.2052C12.7832 18.2244 12.7617 18.2397 12.7378 18.2502C12.7139 18.2607 12.688 18.266 12.6619 18.2659H11.3382C11.3123 18.2656 11.2868 18.2599 11.2633 18.2493C11.2397 18.2386 11.2186 18.2232 11.2013 18.204C11.1838 18.1849 11.1704 18.1624 11.162 18.1379C11.1536 18.1134 11.1504 18.0874 11.1525 18.0615L11.2913 16.4996C11.0528 16.3463 10.8703 16.1199 10.7712 15.8542C10.6721 15.5885 10.6618 15.2978 10.7417 15.0257C10.8216 14.7537 10.9874 14.5148 11.2145 14.3448C11.4415 14.1749 11.7174 14.0831 12.001 14.0831C12.2846 14.0831 12.5605 14.1749 12.7875 14.3448C13.0145 14.5148 13.1804 14.7537 13.2603 15.0257C13.3402 15.2978 13.3298 15.5885 13.2308 15.8542C13.1317 16.1199 12.9492 16.3463 12.7107 16.4996Z" fill="white"/>
</svg>
