<svg width="20" height="24" viewBox="0 0 20 24" fill="none" xmlns="http://www.w3.org/2000/svg">
<path d="M10 11.6667C10.6875 11.6667 11.2762 11.438 11.7663 10.9807C12.2554 10.5241 12.5 9.975 12.5 9.33333C12.5 8.69167 12.2554 8.14217 11.7663 7.68483C11.2762 7.22828 10.6875 7 10 7C9.3125 7 8.72417 7.22828 8.235 7.68483C7.745 8.14217 7.5 8.69167 7.5 9.33333C7.5 9.975 7.745 10.5241 8.235 10.9807C8.72417 11.438 9.3125 11.6667 10 11.6667ZM10 23.3333C6.64583 20.6694 4.14083 18.1949 2.485 15.9098C0.828333 13.6255 0 11.5111 0 9.56667C0 6.65 1.00542 4.32639 3.01625 2.59583C5.02625 0.865278 7.35417 0 10 0C12.6458 0 14.9738 0.865278 16.9837 2.59583C18.9946 4.32639 20 6.65 20 9.56667C20 11.5111 19.1721 13.6255 17.5163 15.9098C15.8596 18.1949 13.3542 20.6694 10 23.3333Z" fill="#7F5AF0"/>
</svg>
