<svg width="20" height="20" viewBox="0 0 20 20" fill="none" xmlns="http://www.w3.org/2000/svg">
<g clip-path="url(#clip0_5_8695)">
<path d="M0.0627441 4.44375C0.188767 3.89155 0.498563 3.39852 0.941396 3.04539C1.38423 2.69225 1.93385 2.49996 2.50024 2.5H17.5002C18.0666 2.49996 18.6163 2.69225 19.0591 3.04539C19.5019 3.39852 19.8117 3.89155 19.9377 4.44375L10.0002 10.5175L0.0627441 4.44375ZM0.000244141 5.87125V14.7512L7.25399 10.3038L0.000244141 5.87125ZM8.45149 11.0375L0.238994 16.0713C0.441902 16.4991 0.762152 16.8605 1.16247 17.1135C1.56279 17.3664 2.02671 17.5005 2.50024 17.5H17.5002C17.9737 17.5001 18.4374 17.3658 18.8375 17.1126C19.2376 16.8595 19.5576 16.4979 19.7602 16.07L11.5477 11.0363L10.0002 11.9825L8.45149 11.0363V11.0375ZM12.7465 10.305L20.0002 14.7512V5.87125L12.7465 10.3038V10.305Z" fill="#FFC54D"/>
</g>
<defs>
<clipPath id="clip0_5_8695">
<rect width="20" height="20" fill="white"/>
</clipPath>
</defs>
</svg>
