<svg width="20" height="20" viewBox="0 0 20 20" fill="none" xmlns="http://www.w3.org/2000/svg">
<g clip-path="url(#clip0_5_8699)">
<path fill-rule="evenodd" clip-rule="evenodd" d="M2.35611 0.639178C2.57482 0.420789 2.83746 0.251376 3.1266 0.142165C3.41575 0.0329548 3.7248 -0.0135589 4.03328 0.00570636C4.34176 0.0249716 4.64262 0.109576 4.91594 0.253913C5.18924 0.39825 5.42876 0.599023 5.61861 0.842928L7.86236 3.72543C8.27361 4.25418 8.41861 4.94293 8.25611 5.59293L7.57236 8.33043C7.537 8.47221 7.53891 8.62073 7.5779 8.76157C7.61689 8.9024 7.69162 9.03076 7.79486 9.13418L10.8661 12.2054C10.9697 12.3089 11.0982 12.3837 11.2393 12.4227C11.3804 12.4617 11.5291 12.4635 11.6711 12.4279L14.4074 11.7442C14.7281 11.664 15.0629 11.6577 15.3865 11.726C15.71 11.7942 16.0138 11.935 16.2749 12.1379L19.1574 14.3804C20.1936 15.1867 20.2886 16.7179 19.3611 17.6442L18.0686 18.9367C17.1436 19.8617 15.7611 20.2679 14.4724 19.8142C11.1738 18.6536 8.17895 16.7652 5.70986 14.2892C3.23397 11.8204 1.34562 8.826 0.184856 5.52793C-0.267644 4.24043 0.138606 2.85668 1.06361 1.93168L2.35611 0.639178Z" fill="#FFC54D"/>
</g>
<defs>
<clipPath id="clip0_5_8699">
<rect width="20" height="20" fill="white"/>
</clipPath>
</defs>
</svg>
