<svg width="44" height="44" viewBox="0 0 44 44" fill="none" xmlns="http://www.w3.org/2000/svg">
<g clip-path="url(#clip0_5_6591)">
<path fill-rule="evenodd" clip-rule="evenodd" d="M19.6079 19.9358C19.4037 19.9358 19.1995 19.8554 19.0448 19.7007C15.3199 15.9758 11.4712 12.1271 11.4712 8.12369C11.4712 5.66103 13.476 3.65625 15.9386 3.65625C17.7083 3.65625 18.7787 4.40495 19.6079 5.61153C20.4432 4.40495 21.5075 3.65625 23.2771 3.65625C25.746 3.65625 27.7508 5.66103 27.7508 8.12369C27.7508 12.1271 23.8959 15.9758 20.1771 19.7007C20.0224 19.8554 19.8121 19.9358 19.6079 19.9358Z" fill="#EF5350"/>
<path fill-rule="evenodd" clip-rule="evenodd" d="M20.363 31.0734H20.2763L12.1335 30.863C11.6941 30.8506 11.3414 30.4856 11.3538 30.0401C11.36 29.8544 11.4281 29.6812 11.5395 29.5513C10.2029 28.1652 7.61652 25.6716 6.30475 24.4155C5.99537 24.6321 5.56223 24.6012 5.28379 24.3227C4.97441 24.0134 4.97441 23.506 5.28379 23.1904L6.10056 22.3798C7.33807 21.1423 8.96541 20.4617 10.6856 20.4617C12.5975 20.4617 15.2211 20.8144 17.5414 21.1237C18.5995 21.2661 19.6019 21.4022 20.4743 21.495C21.2292 21.5445 21.8913 21.8972 22.3554 22.4541L28.4625 16.6872C28.9823 16.1056 29.7248 15.79 30.5601 15.79C31.7296 15.79 32.8186 16.5573 33.2703 17.702C33.7096 18.8034 33.4435 19.9914 32.5835 20.8082L23.63 29.7554C22.7576 30.6341 21.6562 31.0734 20.363 31.0734Z" fill="#FFC39C"/>
<path fill-rule="evenodd" clip-rule="evenodd" d="M21.8733 22.0029C22.0527 22.1329 22.2136 22.2876 22.3559 22.4546L22.8385 22.0029V23.0734C22.8385 23.9149 22.3312 24.7564 21.5392 25.0782C21.2607 25.1957 20.9513 25.2329 20.6543 25.1957L13.5633 24.2614C13.2973 24.2305 13.1116 23.983 13.1488 23.7231C13.1797 23.4632 13.421 23.2776 13.6871 23.3085L20.7781 24.2428C21.403 24.3233 21.8733 23.6488 21.8733 23.0734V22.0029Z" fill="#FF9E7E"/>
<path fill-rule="evenodd" clip-rule="evenodd" d="M8.82359 35.8256C8.60703 35.8256 8.40284 35.739 8.25434 35.5905L0.235211 27.5713C-0.0803567 27.2558 -0.0803567 26.7546 0.235211 26.439L2.31424 24.36L4.3809 22.2933C4.69647 21.9777 5.20385 21.9777 5.51323 22.2933L13.5385 30.3124C13.8479 30.6218 13.8479 31.1292 13.5385 31.4448L9.38667 35.5905C9.23816 35.739 9.03397 35.8256 8.82359 35.8256Z" fill="#5C9CEE"/>
<path fill-rule="evenodd" clip-rule="evenodd" d="M1.97363 24.6998L2.31395 24.3595L2.64808 24.0254L7.2269 28.598C7.41253 28.7898 7.41253 29.093 7.2269 29.2787C7.03509 29.4705 6.73189 29.4705 6.54627 29.2787L1.97363 24.6998ZM9.02749 32.6633L10.8157 30.8751C10.9085 30.7822 11.057 30.7822 11.156 30.8751C11.2488 30.9679 11.2488 31.1226 11.156 31.2154L9.36781 33.0036C9.275 33.0964 9.12031 33.0964 9.02749 33.0036C8.93468 32.9108 8.93468 32.7561 9.02749 32.6633Z" fill="#4B7EC1"/>
<path d="M10.0921 33.0035C10.6799 33.0035 11.1564 32.527 11.1564 31.9393C11.1564 31.3515 10.6799 30.875 10.0921 30.875C9.50432 30.875 9.02783 31.3515 9.02783 31.9393C9.02783 32.527 9.50432 33.0035 10.0921 33.0035Z" fill="#538CD6"/>
<path d="M10.0917 32.3982C10.3446 32.3982 10.5496 32.1932 10.5496 31.9403C10.5496 31.6874 10.3446 31.4824 10.0917 31.4824C9.83879 31.4824 9.63379 31.6874 9.63379 31.9403C9.63379 32.1932 9.83879 32.3982 10.0917 32.3982Z" fill="#F5F5F5"/>
<path fill-rule="evenodd" clip-rule="evenodd" d="M32.2498 38.9628C32.2683 38.9443 32.2807 38.9257 32.2993 38.9071C32.3055 38.9071 32.3055 38.9071 32.3055 38.9009L37.9114 32.9918C38.2208 32.6762 38.2084 32.1688 37.8867 31.8656C37.7506 31.7357 37.5773 31.6615 37.404 31.6491C37.3731 29.7185 37.4412 26.1297 37.4783 24.3168C37.8496 24.2487 38.1342 23.9208 38.1342 23.531C38.1342 23.0854 37.7753 22.7266 37.336 22.7266H36.1789C34.434 22.7266 32.8005 23.3948 31.5815 24.6138C30.2326 25.9689 28.6238 28.0726 27.2007 29.9289C26.5572 30.7828 25.9446 31.581 25.3939 32.2678C24.8927 32.8371 24.6762 33.5549 24.7442 34.2788L16.3415 34.5139C15.568 34.4768 14.8193 34.7738 14.2315 35.3678C13.4024 36.1908 13.1734 37.5087 13.6622 38.6349C14.1325 39.7239 15.1596 40.3736 16.3415 40.3426H29.0013C30.2388 40.3426 31.334 39.8786 32.2498 38.9628Z" fill="#FFC39C"/>
<path fill-rule="evenodd" clip-rule="evenodd" d="M24.7632 33.6172C24.726 33.8338 24.7198 34.0565 24.7446 34.2793L24.0825 34.2978L24.8374 35.0527C25.4314 35.6467 26.3843 35.8881 27.1701 35.5539C27.4548 35.4364 27.6961 35.2507 27.8817 35.0094L32.2378 29.3354C32.3986 29.125 32.3615 28.8218 32.1511 28.6609C31.9408 28.5001 31.6376 28.5434 31.4767 28.7538L27.1206 34.4216C26.737 34.929 25.9264 34.7805 25.518 34.3783L24.7632 33.6172Z" fill="#FF9E7E"/>
<path fill-rule="evenodd" clip-rule="evenodd" d="M43.7655 34.1615C43.914 34.013 44.0007 33.8088 44.0007 33.5922V22.2503C44.0007 21.811 43.6418 21.4521 43.2025 21.4521H37.3366C36.8911 21.4521 36.5322 21.811 36.5322 22.2503V33.5922C36.5322 34.0377 36.8911 34.3966 37.3366 34.3966H43.2025C43.4128 34.3966 43.617 34.31 43.7655 34.1615Z" fill="#5C9CEE"/>
<path fill-rule="evenodd" clip-rule="evenodd" d="M40.7457 21.4521H39.7866V27.9244C39.7866 28.1904 40.0032 28.407 40.2693 28.407C40.5292 28.407 40.7457 28.1904 40.7457 27.9244V21.4521ZM41.383 32.0701H38.8585C38.7224 32.0701 38.6172 32.1753 38.6172 32.3114C38.6172 32.4413 38.7224 32.5527 38.8585 32.5527H41.383C41.513 32.5527 41.6244 32.4413 41.6244 32.3114C41.6244 32.1753 41.513 32.0701 41.383 32.0701Z" fill="#4B7EC1"/>
<path d="M40.8722 33.0625C40.4566 33.4782 39.7827 33.4782 39.367 33.0625C38.9514 32.6469 38.9514 31.973 39.367 31.5573C39.7827 31.1416 40.4566 31.1416 40.8722 31.5573C41.2879 31.973 41.2879 32.6469 40.8722 33.0625Z" fill="#538CD6"/>
<path d="M40.444 32.6341C40.2648 32.8132 39.9744 32.8132 39.7953 32.6341C39.6162 32.455 39.6162 32.1646 39.7953 31.9855C39.9744 31.8063 40.2648 31.8063 40.444 31.9855C40.6231 32.1646 40.6231 32.455 40.444 32.6341Z" fill="#F5F5F5"/>
</g>
<defs>
<clipPath id="clip0_5_6591">
<rect width="44" height="44" fill="white"/>
</clipPath>
</defs>
</svg>
