<svg width="44" height="43" viewBox="0 0 44 43" fill="none" xmlns="http://www.w3.org/2000/svg">
<path fill-rule="evenodd" clip-rule="evenodd" d="M17.8836 34.842L14.5816 22.5861L16.4212 37.3656L15.2276 37.5035L12.3265 14.1967L12.3272 14.1966C12.3098 14.0493 12.35 13.901 12.4399 13.7815C12.5297 13.662 12.6626 13.5803 12.8117 13.5526C12.9608 13.525 13.115 13.5536 13.2434 13.6326C13.3718 13.7116 13.4648 13.8353 13.5037 13.9786L19.0445 34.5436L17.8836 34.842ZM24.9545 34.5433L30.4952 13.9783C30.5339 13.8348 30.6268 13.7108 30.7553 13.6316C30.8837 13.5523 31.0382 13.5236 31.1875 13.5513C31.3367 13.5789 31.4697 13.6609 31.5596 13.7806C31.6495 13.9003 31.6895 14.0489 31.6717 14.1964L31.6725 14.1965L28.7714 37.5032L27.5777 37.3654L29.4174 22.5858L26.1153 34.8417L24.9545 34.5433Z" fill="#C7E0EC"/>
<path fill-rule="evenodd" clip-rule="evenodd" d="M18.793 27.1281C18.793 28.8587 20.2284 30.2614 21.9992 30.2614C23.7701 30.2614 25.2055 28.8587 25.2055 27.1281C25.2055 25.398 23.77 23.9951 21.9992 23.9951C20.2284 23.9951 18.793 25.398 18.793 27.1281Z" fill="#EFC7A4"/>
<path fill-rule="evenodd" clip-rule="evenodd" d="M21.375 32.0674H22.6245L23.708 39.9653H20.2915L21.375 32.0674Z" fill="#F76C82"/>
<path fill-rule="evenodd" clip-rule="evenodd" d="M23.2843 32.721L23.0425 33.4482C22.9729 33.6574 22.7816 33.7932 22.5566 33.7932H21.4421C21.2171 33.7932 21.0258 33.6574 20.9562 33.4482L20.7144 32.721C20.6622 32.5641 20.6878 32.4067 20.787 32.2732C20.8863 32.1397 21.0315 32.0674 21.2004 32.0674H22.7984C22.9673 32.0674 23.1125 32.1397 23.2118 32.2732C23.311 32.4067 23.3364 32.5641 23.2843 32.721Z" fill="#EB5463"/>
<path fill-rule="evenodd" clip-rule="evenodd" d="M28.9377 38.8465C28.9377 42.5905 15.0635 42.5905 15.0635 38.8465C15.0635 36.5175 16.2657 34.4632 18.0964 33.2427C18.1952 33.1768 18.3046 33.155 18.422 33.1777C18.5394 33.2005 18.6319 33.2614 18.6977 33.3591L19.9151 35.1709L21.6415 37.7401C21.7233 37.8619 21.8515 37.9295 22.0006 37.9295C22.1497 37.9295 22.2779 37.8619 22.3597 37.7401L24.0861 35.1709L25.3036 33.359C25.3693 33.2613 25.4619 33.2003 25.5793 33.1776C25.6967 33.155 25.8061 33.1767 25.9049 33.2426C27.7357 34.463 28.9377 36.5174 28.9377 38.8465Z" fill="#636C77"/>
<path fill-rule="evenodd" clip-rule="evenodd" d="M31.6318 17.1857C34.4291 15.8465 37.2526 14.5599 40.0676 13.2567L36.0947 3.95312L30.2512 6.73486C29.4062 7.13706 28.5432 7.20953 27.6405 6.95414L21.441 5.19987C19.4765 4.64398 17.044 5.66548 15.2162 6.35533L3.58709 10.7445C0.52471 11.9003 -0.212719 17.9064 7.01944 15.8315L15.3164 13.4513C15.5578 14.3057 16.243 15.0189 17.178 15.263L22.7991 16.7306C26.6303 19.3816 28.5795 18.647 31.6318 17.1857Z" fill="#EFC7A4"/>
<path fill-rule="evenodd" clip-rule="evenodd" d="M15.311 12.1084L27.8776 15.3893C28.252 14.0197 27.4116 12.5997 26.0102 12.2337L18.54 10.2834C17.1385 9.91745 15.6855 10.7387 15.311 12.1084Z" fill="#D5A889"/>
<path fill-rule="evenodd" clip-rule="evenodd" d="M32.8375 2.64983L35.8173 1.44054C36.4638 1.17818 37.21 1.47901 37.4791 2.11057L42.525 13.9517C42.797 14.59 42.4921 15.3122 41.8387 15.5774L38.8588 16.7867C38.2123 17.049 37.4661 16.7482 37.197 16.1166L32.1511 4.27552C31.8792 3.63724 32.1841 2.91497 32.8375 2.64983Z" fill="#E4E8EB"/>
</svg>
