<svg width="43" height="31" viewBox="0 0 43 31" fill="none" xmlns="http://www.w3.org/2000/svg">
<path d="M30.4826 23.5055L32.2102 20.543C32.5166 20.0175 32.9211 19.5763 33.3947 19.2512C33.8683 18.9261 34.399 18.7252 34.9487 18.663C35.4984 18.6008 36.0533 18.6789 36.5734 18.8916C37.0935 19.1043 37.5659 19.4463 37.9564 19.893C39.0259 21.1155 39.7761 22.6548 40.1227 24.3379L41.1024 24.4497C42.0449 22.1701 42.5337 19.6798 42.5336 17.1582C42.5336 11.7107 38.6717 7.29492 33.9073 7.29492C30.9654 7.29492 28.0923 8.27647 25.6374 10.1123L20.0791 22.4453L30.4826 23.5055Z" fill="#F8565B"/>
<path d="M20.0791 22.4446L24.4742 12.6915C26.7113 11.2789 29.225 10.5377 31.7806 10.5371C36.545 10.5371 40.407 14.9529 40.407 20.4004C40.407 21.6446 40.2865 22.8798 40.054 24.0843C39.69 22.5 38.9664 21.0538 37.9564 19.8922C37.5658 19.4457 37.0934 19.1039 36.5733 18.8913C36.0531 18.6788 35.4983 18.6008 34.9486 18.6631C34.399 18.7253 33.8682 18.9263 33.3947 19.2514C32.9212 19.5765 32.5166 20.0176 32.2102 20.5431L30.8988 22.7923C30.6708 22.9951 30.4643 23.2277 30.2835 23.4853L20.0791 22.4446Z" fill="#D93D47"/>
<path d="M12.051 23.5055L10.3234 20.543C10.0171 20.0175 9.61249 19.5763 9.13892 19.2512C8.66536 18.9261 8.13459 18.7252 7.5849 18.663C7.03522 18.6008 6.48031 18.6789 5.9602 18.8916C5.4401 19.1043 4.96776 19.4463 4.57725 19.893C3.50777 21.1155 2.75758 22.6548 2.41091 24.3379L1.43123 24.4497C0.488707 22.1701 -9.66092e-05 19.6798 1.43221e-08 17.1582C1.43221e-08 11.7107 3.86199 7.29492 8.62638 7.29492C11.5682 7.29492 14.4413 8.27647 16.8962 10.1123L22.4545 22.4453L12.051 23.5055Z" fill="#2B6BB2"/>
<path d="M22.4548 22.4446L18.0598 12.6915C15.8227 11.2789 13.3089 10.5377 10.7533 10.5371C5.98894 10.5371 2.12695 14.9529 2.12695 20.4004C2.12695 21.6446 2.24746 22.8798 2.47998 24.0843C2.84391 22.5 3.56753 21.0538 4.57756 19.8922C4.96818 19.4457 5.44057 19.1039 5.96069 18.8913C6.48081 18.6788 7.03569 18.6008 7.58534 18.6631C8.13499 18.7253 8.66571 18.9263 9.13925 19.2514C9.61278 19.5765 10.0173 20.0176 10.3238 20.5431L11.6352 22.7923C11.8613 22.9941 12.0683 23.2251 12.2505 23.4853L22.4548 22.4446Z" fill="#1D549C"/>
<path d="M33.3168 9.56423C33.3168 10.7395 33.1183 11.9067 32.7355 13.0009L32.4378 13.86C32.2676 13.8033 32.0833 13.779 31.899 13.779C31.743 13.779 31.5942 13.7952 31.4453 13.8357L30.5805 10.8854C30.1395 9.36857 29.2911 8.0496 28.1561 7.11644C27.7804 6.80033 27.3692 6.53286 26.9368 6.32212C26.9652 10.9664 27.2913 15.5865 27.908 20.1821L28.2128 22.4435L15.5947 21.9815V19.631C15.5947 16.9157 15.9066 14.2248 16.5092 11.623C16.6226 11.1448 16.7431 10.6747 16.8778 10.2045C17.452 8.10528 18.2247 6.08707 19.1888 4.15801C19.8338 2.86927 20.7483 1.8318 21.8329 1.11853C22.932 0.384489 24.1824 -0.00158566 25.4553 4.89476e-06C27.7237 4.89476e-06 29.8645 1.2239 31.2256 3.29885L31.7005 4.02022C32.7497 5.61696 33.3168 7.56223 33.3168 9.56423Z" fill="#6DB569"/>
<path d="M40.4059 29.1796C41.5805 29.1796 42.5326 28.0909 42.5326 26.748C42.5326 25.4051 41.5805 24.3164 40.4059 24.3164C39.2314 24.3164 38.2793 25.4051 38.2793 26.748C38.2793 28.0909 39.2314 29.1796 40.4059 29.1796Z" fill="#F9CB6E"/>
<path d="M40.4059 24.3164C40.8107 24.3164 41.1857 24.4526 41.5075 24.6779C41.7046 25.0459 41.8237 25.4747 41.8237 25.9375C41.8237 26.5824 41.5996 27.2008 41.2008 27.6568C40.802 28.1129 40.2611 28.369 39.6971 28.369C39.2923 28.369 38.9173 28.2329 38.5955 28.0076C38.3901 27.6293 38.2806 27.1932 38.2793 26.748C38.2793 26.1031 38.5034 25.4846 38.9022 25.0286C39.301 24.5726 39.8419 24.3164 40.4059 24.3164Z" fill="#FFD997"/>
<path d="M2.12664 29.1796C3.30116 29.1796 4.25329 28.0909 4.25329 26.748C4.25329 25.4051 3.30116 24.3164 2.12664 24.3164C0.952131 24.3164 0 25.4051 0 26.748C0 28.0909 0.952131 29.1796 2.12664 29.1796Z" fill="#F9CB6E"/>
<path d="M30.4822 23.5049V30.7997L29.4295 30.2842C26.8501 29.0197 24.0729 28.3676 21.2664 28.3676C18.4599 28.3676 15.6827 29.0197 13.1032 30.2842L12.0513 30.7997V23.5049L13.1032 22.9894C15.6827 21.7251 18.4599 21.0732 21.2664 21.0732C24.0728 21.0732 26.85 21.7251 29.4295 22.9894L30.4822 23.5049Z" fill="#F9CB6E"/>
<path d="M2.12675 24.3164C1.72198 24.3164 1.34698 24.4526 1.02515 24.6779C0.819748 25.0562 0.710291 25.4922 0.708984 25.9375C0.708984 26.5824 0.933041 27.2008 1.33186 27.6568C1.73069 28.1129 2.27161 28.369 2.83563 28.369C3.2404 28.369 3.6154 28.2329 3.93723 28.0076C4.1343 27.6396 4.25339 27.2108 4.25339 26.748C4.25339 26.1031 4.02934 25.4846 3.63051 25.0286C3.23169 24.5726 2.69077 24.3164 2.12675 24.3164Z" fill="#FFD997"/>
<path d="M33.3169 9.56423C33.3169 10.7395 33.1184 11.9067 32.7356 13.0009L32.4379 13.86C32.2677 13.8033 32.0834 13.779 31.8991 13.779C31.7432 13.779 31.5943 13.7952 31.4454 13.8357L30.5806 10.8854C30.1397 9.36857 29.2912 8.0496 28.1562 7.11644C27.0245 6.17843 25.6623 5.67346 24.2645 5.6737C22.7758 5.6737 21.3368 6.24107 20.1671 7.27854L16.8779 10.2045C17.4521 8.10528 18.2248 6.08707 19.1889 4.15801C19.834 2.86927 20.7484 1.8318 21.833 1.11853C22.9322 0.384489 24.1825 -0.00158566 25.4554 4.89476e-06C26.5896 4.89476e-06 27.6884 0.308005 28.6808 0.875375C29.6732 1.43464 30.5452 2.26138 31.2257 3.29885L31.7006 4.02022C32.7498 5.61696 33.3169 7.56223 33.3169 9.56423Z" fill="#A9D8A4"/>
<path d="M31.8996 18.6425C33.0741 18.6425 34.0262 17.5538 34.0262 16.2109C34.0262 14.868 33.0741 13.7793 31.8996 13.7793C30.7251 13.7793 29.7729 14.868 29.7729 16.2109C29.7729 17.5538 30.7251 18.6425 31.8996 18.6425Z" fill="#F9CB6E"/>
<path d="M31.9 13.7793C31.4952 13.7793 31.1202 13.9155 30.7984 14.1408C30.593 14.5191 30.4835 14.9551 30.4822 15.4004C30.4822 16.0452 30.7063 16.6637 31.1051 17.1197C31.5039 17.5758 32.0448 17.8319 32.6088 17.8319C33.0136 17.8319 33.3886 17.6958 33.7104 17.4704C33.9075 17.1025 34.0266 16.6737 34.0266 16.2109C34.0266 15.566 33.8025 14.9475 33.4037 14.4915C33.0049 14.0355 32.464 13.7793 31.9 13.7793ZM21.2667 24.3162C18.4603 24.3162 15.6829 24.9678 13.1032 26.2322L12.0513 26.7477V30.8004L13.1032 30.2849C15.6827 29.0205 18.4598 28.3685 21.2663 28.3683C24.0728 28.3682 26.85 29.0199 29.4295 30.2841L30.4822 30.8004V26.7477L29.4295 26.2314C26.85 24.9678 24.073 24.3162 21.2667 24.3162Z" fill="#FFD997"/>
</svg>
