<svg width="36" height="42" viewBox="0 0 36 42" fill="none" xmlns="http://www.w3.org/2000/svg">
<path d="M35.9333 20.7461C35.9333 28.5671 27.4983 35.057 18.636 40.9022C18.636 40.9022 18.5553 40.9387 18.5125 40.9616H18.5078C18.3417 41.0302 18.1565 41.0668 17.9619 41.0668C17.7673 41.0668 17.5822 41.0302 17.416 40.9616H17.4113C17.3686 40.9433 17.2879 40.9022 17.2879 40.9022C8.18824 35.057 0 28.5671 0 20.7461C0 15.7609 4.19618 11.7178 9.3702 11.7178C13.2151 11.7178 16.5236 13.7759 17.9667 16.8814C18.56 15.6099 19.4667 14.5123 20.5917 13.657C21.56 15.9072 23.4825 17.5629 25.4571 19.0173C25.984 19.4061 26.5252 19.7765 27.0758 20.1378C27.4318 20.3711 27.7593 20.6089 28.1818 20.7324C28.8131 20.9154 29.5441 20.865 30.1232 20.5403C30.6644 20.2385 31.1723 19.8497 31.6754 19.493C32.2925 19.0539 32.9049 18.6057 33.4935 18.1346C34.0109 17.723 34.5188 17.2747 34.9982 16.7991C35.5963 17.9928 35.9333 19.3329 35.9333 20.7461Z" fill="#FF2444"/>
<path d="M6.82894 21.1986C6.82894 21.0659 6.83369 20.9333 6.84319 20.8052C6.84793 20.7503 6.85268 20.6955 6.85743 20.6452C6.87167 20.4988 6.80996 20.9241 6.84319 20.7275C6.88116 20.5034 6.93337 20.2793 7.00458 20.0597C7.02356 20.0003 7.04255 19.9454 7.06628 19.8859C7.09951 19.7945 7.20394 19.6481 7.0378 19.9362C7.08527 19.8493 7.12325 19.7579 7.17071 19.6664C7.22768 19.5612 7.28938 19.4606 7.35584 19.3645C7.38432 19.3234 7.4128 19.2868 7.44128 19.2456C7.50774 19.1496 7.23717 19.4789 7.40331 19.2959C7.55046 19.1359 7.7071 18.9941 7.87324 18.8523C7.97767 18.7608 7.6359 19.0124 7.80204 18.9072C7.85425 18.8752 7.90172 18.8431 7.95394 18.8111C8.04887 18.7517 8.14856 18.7014 8.24824 18.6556C8.29571 18.6328 8.34318 18.6145 8.39064 18.5916C8.09634 18.7471 8.24824 18.651 8.34318 18.619C8.4571 18.5824 8.57102 18.5459 8.68495 18.523C8.90805 18.4727 8.68495 18.555 8.63273 18.5276C8.66121 18.5413 8.84159 18.523 8.87482 18.523C9.03621 18.5276 9.20235 18.5367 9.36374 18.5413C9.98557 18.5504 10.5789 18.0107 10.5504 17.3979C10.522 16.7713 10.0283 16.2636 9.36374 16.2545C8.92703 16.2499 8.51881 16.2224 8.0821 16.3139C7.75457 16.3825 7.43654 16.5152 7.12799 16.6478C6.59635 16.8811 6.09319 17.2515 5.71819 17.686C4.84953 18.6831 4.44605 19.9179 4.43655 21.2123C4.43181 21.8114 4.98718 22.3831 5.62326 22.3557C6.28781 22.3145 6.8242 21.8389 6.82894 21.1986ZM7.23242 26.8562C7.85425 26.8562 8.44761 26.3302 8.41912 25.7127C8.39064 25.0953 7.89698 24.5693 7.23242 24.5693C6.61059 24.5693 6.01724 25.0953 6.04572 25.7127C6.0742 26.3302 6.56312 26.8562 7.23242 26.8562Z" fill="white"/>
<path d="M35.7855 11.1688C35.7855 14.16 32.5577 16.6389 29.1732 18.8754C29.1732 18.8754 29.14 18.8891 29.1258 18.8983C29.0593 18.9257 28.9929 18.9394 28.9169 18.9394C28.841 18.9394 28.7745 18.9257 28.708 18.8983C28.6938 18.8891 28.6606 18.8754 28.6606 18.8754C25.1812 16.6389 22.0483 14.16 22.0483 11.1688C22.0483 9.26162 23.6527 7.71573 25.6321 7.71573C27.1036 7.71573 28.3663 8.50239 28.9169 9.69154C29.4675 8.50239 30.7302 7.71573 32.2017 7.71573C34.1811 7.71573 35.7855 9.26162 35.7855 11.1688ZM13.9882 3.05976C13.9882 4.80232 12.1085 6.24759 10.1338 7.55108L10.1053 7.5648C10.0673 7.57852 10.0246 7.58767 9.98189 7.58767C9.93917 7.58767 9.89645 7.57852 9.85848 7.5648L9.82999 7.55108C7.80311 6.24759 5.97559 4.80232 5.97559 3.05976C5.97559 1.94837 6.91071 1.04736 8.06418 1.04736C8.92335 1.04736 9.65911 1.50473 9.97715 2.19535C10.2999 1.50473 11.0357 1.04736 11.8901 1.04736C13.0531 1.04736 13.9882 1.94837 13.9882 3.05976ZM25.0578 1.13426C25.0578 2.11759 23.9992 2.92713 22.8885 3.66348C22.8885 3.66348 22.879 3.66806 22.8742 3.67263C22.8552 3.68178 22.8315 3.68635 22.8078 3.68635C22.784 3.68635 22.7603 3.68178 22.7413 3.67263C22.7366 3.66806 22.7271 3.66348 22.7271 3.66348C21.5831 2.9317 20.5578 2.11759 20.5578 1.13426C20.5578 0.507674 21.0847 0 21.735 0C22.2192 0 22.6321 0.256124 22.8125 0.649457C22.9929 0.260697 23.4059 0 23.89 0C24.5309 0 25.0578 0.507674 25.0578 1.13426Z" fill="#FF2444"/>
</svg>
