<svg width="42" height="42" viewBox="0 0 42 42" fill="none" xmlns="http://www.w3.org/2000/svg">
<path d="M41.0669 20.5335C41.0669 19.9387 40.5848 19.4565 39.9899 19.4565H38.2954L39.9086 17.8433C40.3292 17.4226 40.3292 16.7407 39.9086 16.3202C39.488 15.8996 38.8061 15.8995 38.3855 16.3202L35.2491 19.4566H33.655L35.2682 17.8433C35.6888 17.4227 35.6888 16.7408 35.2682 16.3202C34.8475 15.8996 34.1657 15.8996 33.7451 16.3202L30.6087 19.4566H23.1335L28.4193 14.1708H32.8548C33.4496 14.1708 33.9318 13.6887 33.9318 13.0938C33.9318 12.499 33.4496 12.0169 32.8548 12.0169H30.5733L31.7006 10.8896H36.1361C36.7309 10.8896 37.213 10.4075 37.213 9.81266C37.213 9.21784 36.7309 8.7357 36.1361 8.7357H33.8546L35.0529 7.53738C35.4735 7.11677 35.4735 6.43483 35.0529 6.0143C34.6323 5.59368 33.9504 5.59368 33.5298 6.0143L32.3315 7.21262V4.93084C32.3315 4.33601 31.8494 3.85387 31.2546 3.85387C30.6597 3.85387 30.1776 4.33601 30.1776 4.93084V9.3663L29.0503 10.4936V8.21218C29.0503 7.61735 28.5682 7.13521 27.9734 7.13521C27.3786 7.13521 26.8964 7.61735 26.8964 8.21218V12.6476L21.6106 17.9335V10.4583L24.747 7.32186C25.1676 6.90125 25.1676 6.21931 24.747 5.79878C24.3263 5.37816 23.6444 5.37816 23.2239 5.79878L21.6106 7.41201V5.81778L24.747 2.68138C25.1676 2.26077 25.1676 1.57883 24.747 1.1583C24.3263 0.73768 23.6444 0.73768 23.2239 1.1583L21.6106 2.77153V1.07696C21.6104 0.482135 21.1283 0 20.5335 0C19.9387 0 19.4565 0.482135 19.4565 1.07696V2.77153L17.8433 1.1583C17.4226 0.73768 16.7408 0.73768 16.3202 1.1583C15.8996 1.57891 15.8996 2.26085 16.3202 2.68138L19.4566 5.81778V7.41201L17.8433 5.79878C17.4227 5.37816 16.7409 5.37816 16.3202 5.79878C15.8996 6.21939 15.8996 6.90133 16.3202 7.32186L19.4566 10.4583V17.9335L14.1708 12.6476V8.2121C14.1708 7.61727 13.6887 7.13513 13.0938 7.13513C12.499 7.13513 12.0169 7.61727 12.0169 8.2121V10.4936L10.8896 9.3663V4.93076C10.8896 4.33593 10.4075 3.85379 9.81266 3.85379C9.21784 3.85379 8.7357 4.33593 8.7357 4.93076V7.21221L7.53722 6.01414C7.11661 5.59352 6.43467 5.59352 6.01414 6.01414C5.59352 6.43475 5.59352 7.11669 6.01414 7.53722L7.21246 8.73554H4.93084C4.33601 8.73554 3.85387 9.21768 3.85387 9.8125C3.85387 10.4073 4.33601 10.8895 4.93084 10.8895H9.3663L10.4936 12.0167H8.21218C7.61735 12.0167 7.13521 12.4989 7.13521 13.0937C7.13521 13.6885 7.61735 14.1706 8.21218 14.1706H12.6476L17.9335 19.4565H10.4583L7.32178 16.3201C6.90117 15.8995 6.21931 15.8995 5.7987 16.3201C5.37808 16.7407 5.37808 17.4226 5.7987 17.8432L7.41194 19.4564H5.81779L2.68138 16.3201C2.26077 15.8995 1.57891 15.8995 1.1583 16.3201C0.73768 16.7407 0.73768 17.4226 1.1583 17.8432L2.77153 19.4564H1.07696C0.482135 19.4564 0 19.9386 0 20.5334C0 21.1282 0.482135 21.6103 1.07696 21.6103H2.77162L1.15838 23.2237C0.737761 23.6443 0.737761 24.3262 1.15838 24.7467C1.36868 24.957 1.64428 25.0622 1.91988 25.0622C2.19548 25.0622 2.47115 24.957 2.68138 24.7467L5.81779 21.6103H7.41202L5.79878 23.2237C5.37816 23.6443 5.37816 24.3262 5.79878 24.7467C6.00908 24.957 6.28468 25.0622 6.56028 25.0622C6.83588 25.0622 7.11155 24.957 7.32178 24.7467L10.4582 21.6103H17.9334L12.6476 26.8962H8.2121C7.61727 26.8962 7.13513 27.3783 7.13513 27.9731C7.13513 28.568 7.61727 29.0501 8.2121 29.0501H10.4936L9.3663 30.1774H4.93076C4.33593 30.1774 3.85379 30.6595 3.85379 31.2543C3.85379 31.8491 4.33593 32.3313 4.93076 32.3313H7.21221L6.0139 33.5296C5.59328 33.9502 5.59328 34.6321 6.0139 35.0527C6.2242 35.263 6.4998 35.3681 6.7754 35.3681C7.051 35.3681 7.32667 35.263 7.5369 35.0527L8.73522 33.8544V36.1358C8.73522 36.7307 9.21735 37.2128 9.81218 37.2128C10.407 37.2128 10.8891 36.7307 10.8891 36.1358V31.7004L12.0164 30.5731V32.8546C12.0164 33.4494 12.4985 33.9315 13.0934 33.9315C13.6882 33.9315 14.1703 33.4494 14.1703 32.8546V28.4191L19.4562 23.1333V30.6085L16.3198 33.7449C15.8991 34.1655 15.8991 34.8474 16.3198 35.268C16.7404 35.6886 17.4223 35.6886 17.8428 35.268L19.4561 33.6547V35.2489L16.3197 38.3853C15.8991 38.8059 15.8991 39.4878 16.3197 39.9084C16.4196 40.0085 16.5383 40.088 16.669 40.1421C16.7996 40.1962 16.9397 40.224 17.0812 40.2238C17.3569 40.2238 17.6325 40.1187 17.8427 39.9084L19.4559 38.2951V39.9897C19.4559 40.5845 19.9381 41.0667 20.5329 41.0667C21.1277 41.0667 21.6099 40.5845 21.6099 39.9897V38.2951L23.2232 39.9085C23.6438 40.3291 24.3257 40.3291 24.7463 39.9085C25.1668 39.4878 25.1669 38.806 24.7463 38.3854L21.6099 35.249V33.6547L23.2232 35.2681C23.4335 35.4784 23.7092 35.5835 23.9847 35.5835C24.2602 35.5835 24.5359 35.4784 24.7462 35.2681C25.1668 34.8474 25.1668 34.1656 24.7462 33.745L21.6098 30.6086V23.1338L26.8956 28.4197V32.8551C26.8956 33.45 27.3777 33.9321 27.9726 33.9321C28.5674 33.9321 29.0495 33.45 29.0495 32.8551V30.5737L30.1768 31.7009V36.1364C30.1768 36.7312 30.6589 37.2134 31.2538 37.2134C31.8486 37.2134 32.3307 36.7312 32.3307 36.1364V33.8549L33.529 35.0532C33.6289 35.1534 33.7476 35.2328 33.8783 35.287C34.009 35.3411 34.1491 35.3689 34.2905 35.3687C34.5662 35.3687 34.8418 35.2636 35.052 35.0532C35.4727 34.6326 35.4727 33.9508 35.052 33.5302L33.8537 32.3318H36.1352C36.73 32.3318 37.2122 31.8497 37.2122 31.2549C37.2122 30.6601 36.73 30.1779 36.1352 30.1779H31.6997L30.5725 29.0507H32.8539C33.4488 29.0507 33.9309 28.5685 33.9309 27.9737C33.9309 27.3789 33.4488 26.8967 32.8539 26.8967H28.4185L23.1326 21.6109H30.6078L33.7442 24.7473C33.9546 24.9576 34.2302 25.0628 34.5057 25.0628C34.7813 25.0628 35.057 24.9576 35.2672 24.7473C35.6879 24.3267 35.6879 23.6448 35.2672 23.2242L33.6539 21.6109H35.2482L38.3846 24.7473C38.4845 24.8475 38.6032 24.9269 38.7338 24.981C38.8645 25.0352 39.0046 25.0629 39.1461 25.0628C39.4217 25.0628 39.6973 24.9576 39.9076 24.7473C40.3282 24.3267 40.3282 23.6448 39.9076 23.2242L38.2942 21.6109H39.9888C40.5847 21.6104 41.0669 21.1283 41.0669 20.5335Z" fill="#80C7EA"/>
</svg>
