<svg width="36" height="44" viewBox="0 0 36 44" fill="none" xmlns="http://www.w3.org/2000/svg">
<path d="M27.6282 14.0775C26.7112 13.0764 25.2857 11.7252 24.6792 14.7762C24.473 15.8135 23.9911 16.6132 23.5782 17.257C23.1331 15.0044 21.7941 12.6728 20.5323 11.1008C20.0602 10.5126 18.3849 8.17452 18.0631 4.26299C18.015 3.67922 17.3216 3.40508 16.8879 3.79884C12.7429 7.56153 10.4678 12.7365 10.3834 18.5625C10.3834 18.5625 8.6574 17.1076 7.71973 14.4011C7.46725 13.6723 6.49014 13.5332 6.06621 14.1777C5.98718 14.2978 5.91217 14.4205 5.84131 14.5457C2.64332 20.2004 1.10495 27.0672 2.52713 33.4558C4.90502 44.1548 20.6345 47.1459 28.9618 40.4214C37.1091 33.8423 34.5193 21.5972 27.6282 14.0775Z" fill="#ED694A"/>
<path d="M4.74094 34.1276C3.33526 27.6706 4.82318 20.737 7.94606 14.9937C7.86489 14.7986 7.78955 14.601 7.72013 14.4013C7.46765 13.6725 6.49054 13.5334 6.06661 14.1779C5.98761 14.298 5.91263 14.4207 5.8418 14.5458C2.64381 20.2005 1.10544 27.0674 2.52762 33.456C3.61224 38.336 7.47495 41.6114 12.1457 43.0938C8.50199 41.3287 5.64852 38.3029 4.74094 34.1276ZM12.6081 18.4553C12.7807 13.1678 14.6932 8.42666 18.1161 4.78446C18.0958 4.61274 18.0784 4.4407 18.0638 4.2684C18.0148 3.67965 17.3467 3.38437 16.9148 3.77469C12.9114 7.39421 10.4713 12.5169 10.3838 18.5624L11.1331 19.1443C11.5021 19.4309 12.0021 19.4184 12.3545 19.1559C12.5648 18.9776 12.5949 18.7087 12.6081 18.4553Z" fill="#D8553A"/>
<path d="M25.1141 21.8983C24.4369 21.1589 23.3839 20.1608 22.936 22.4144C22.7837 23.1805 22.4277 23.7712 22.1228 24.2468C21.7941 22.583 20.805 20.8608 19.8731 19.6997C19.5244 19.2653 18.287 17.5384 18.0492 14.6491C18.0137 14.2178 17.5016 14.0155 17.1813 14.3063C14.1197 17.0854 12.4392 20.9079 12.3769 25.211C12.3769 25.211 11.102 24.1364 10.4096 22.1373C10.2231 21.599 9.50129 21.4963 9.18822 21.9723C9.12985 22.0611 9.07445 22.1517 9.0221 22.2441C6.65994 26.4208 5.52367 31.4927 6.57409 36.2116C8.33048 44.114 19.9485 46.3234 26.0993 41.3565C32.1169 36.4971 30.2041 27.4526 25.1141 21.8983Z" fill="#F4A32C"/>
<path d="M8.76472 36.8315C7.8347 32.2187 8.79798 27.2691 10.8403 23.1476C10.6735 22.8212 10.5296 22.4837 10.4095 22.1375C10.223 21.5992 9.5012 21.4964 9.18813 21.9724C9.12974 22.0611 9.07434 22.1518 9.02202 22.2443C6.65994 26.4209 5.52376 31.4929 6.574 36.2116C7.39092 39.887 10.3412 42.33 13.8822 43.3932C11.3664 42.1315 9.38553 39.9149 8.76472 36.8315Z" fill="#E89528"/>
<path d="M22.819 29.0383C22.3606 28.5378 21.6477 27.8621 21.3445 29.3876C21.2414 29.9064 21.0004 30.3061 20.794 30.6281C20.5714 29.5017 19.9019 28.3359 19.271 27.55C19.035 27.2559 18.1974 26.0869 18.0363 24.131C18.0122 23.8391 17.6657 23.702 17.4488 23.899C15.3763 25.7803 14.2387 28.3679 14.1965 31.2808C14.1965 31.2808 13.3335 30.5533 12.8648 29.2001C12.7385 28.8358 12.25 28.7662 12.038 29.0884C11.9985 29.1485 11.961 29.2098 11.9255 29.2724C10.3266 32.0997 9.55737 35.5331 10.2684 38.7275C11.4574 44.077 19.3221 45.5726 23.4857 42.2103C24.9115 41.0589 25.7955 39.4365 25.9748 37.6419C26.2454 34.9237 25.1993 31.6358 22.819 29.0383Z" fill="#F4D44E"/>
<path d="M20.6887 35.6647C20.4333 35.3859 20.0361 35.0094 19.8672 35.8593C19.8098 36.1483 19.6756 36.371 19.5605 36.5504C19.4365 35.9229 19.0635 35.2734 18.712 34.8355C18.5805 34.6716 18.1138 34.0203 18.0241 32.9307C18.0107 32.768 17.8175 32.6918 17.6968 32.8014C16.5422 33.8495 15.9083 35.2912 15.8848 36.914C15.8848 36.914 15.404 36.5087 15.1429 35.7548C15.0725 35.5517 14.8003 35.513 14.6823 35.6926C14.6596 35.727 14.6387 35.7616 14.6198 35.7951C13.7289 37.3703 13.3004 39.2831 13.6965 41.0628C14.5987 45.1217 21.9935 44.9987 22.447 40.4579C22.5976 38.9436 22.0148 37.1117 20.6887 35.6647Z" fill="#EAE9E8"/>
<path d="M15.4135 41.8682C15.0173 40.2762 15.4459 38.5651 16.3367 37.1561C16.3556 37.1261 16.3767 37.0952 16.3993 37.0644C16.5173 36.9038 16.7895 36.9384 16.8598 37.12C17.121 37.7944 17.6018 38.157 17.6018 38.157C17.6211 36.9642 18.0532 35.8814 18.8469 35.0129C18.6694 34.7671 18.1264 34.1745 18.0241 32.9307C18.0107 32.768 17.8175 32.6918 17.6968 32.8014C16.5422 33.8495 15.9083 35.2912 15.8848 36.914C15.8848 36.914 15.404 36.5087 15.1429 35.7549C15.0726 35.5518 14.8003 35.513 14.6823 35.6927C14.6596 35.7271 14.6387 35.7617 14.6198 35.7952C13.7289 37.3703 13.3004 39.2832 13.6965 41.0629C14.0631 42.7125 15.5693 43.7038 17.2344 43.9431C16.3362 43.502 15.6459 42.8035 15.4135 41.8682Z" fill="#F7E7A1"/>
<path d="M11.3946 5.84762C13.253 4.33606 13.2489 1.50812 11.3946 0C9.53621 1.51147 9.54025 4.3395 11.3946 5.84762ZM33.6692 17.9792C35.5276 16.4677 35.5234 13.6397 33.6692 12.1316C32.8198 12.8224 31.8149 16.4711 33.6692 17.9792ZM0.754426 19.1302C2.09376 18.0408 2.09084 16.0028 0.754426 14.9157C0.142293 15.4136 -0.581988 18.0433 0.754426 19.1302ZM23.951 10.0621C25.2904 8.97265 25.2874 6.93464 23.951 5.84762C22.6117 6.93696 22.6147 8.97514 23.951 10.0621Z" fill="#D8553A"/>
<path d="M14.0853 24.5198C14.3929 20.8888 15.7795 17.6602 18.1077 15.1989C18.0836 15.0161 18.064 14.8328 18.0489 14.6491C18.0134 14.2178 17.5013 14.0155 17.1809 14.3063C14.7549 16.5085 13.1979 19.3664 12.6243 22.599L12.6234 22.5987C12.5735 22.8854 12.5306 23.1733 12.4948 23.4621C12.4949 23.4624 12.495 23.4626 12.4951 23.4628C12.4245 24.043 12.3849 24.6266 12.3765 25.211C12.4413 25.2237 13.908 25.9776 14.0853 24.5198Z" fill="#E89528"/>
<path d="M12.4116 39.4863C11.7795 36.5022 12.3179 33.3199 13.5684 30.5626C13.2702 30.1442 13.0333 29.6854 12.8648 29.2C12.7385 28.8357 12.25 28.7661 12.038 29.0883C11.9985 29.1484 11.961 29.2098 11.9255 29.2723C10.3266 32.0997 9.55737 35.533 10.2684 38.7274C10.8253 41.2327 12.8463 42.8926 15.2655 43.6043C13.8573 42.6695 12.7921 41.2858 12.4116 39.4863ZM16.4783 29.9767C16.6878 28.4793 17.3003 26.8294 18.2644 25.45C18.1594 25.0605 18.0768 24.6204 18.0365 24.131C18.0124 23.8391 17.6657 23.702 17.4489 23.899C16.1576 25.0713 15.2308 26.5183 14.7043 28.1467L14.7029 28.1464C14.62 28.4022 14.5029 28.826 14.4319 29.1606C14.4325 29.1604 14.4331 29.1604 14.4337 29.1602C14.2858 29.8576 14.2065 30.5678 14.1969 31.2807C15.3563 31.4254 16.3155 31.1383 16.4783 29.9767Z" fill="#E8C842"/>
</svg>
