<svg width="44" height="44" viewBox="0 0 44 44" fill="none" xmlns="http://www.w3.org/2000/svg">
<g clip-path="url(#clip0_5_6612)">
<path fill-rule="evenodd" clip-rule="evenodd" d="M26.0334 40.6488C22.6825 40.6488 19.9502 37.9165 19.9502 34.5656V9.408C19.9502 6.05709 22.6825 3.35059 26.0334 3.35059C29.3585 3.35059 32.0908 6.05709 32.0908 9.408C32.0908 9.79464 32.0392 10.1813 31.9877 10.5422C33.8178 11.2123 35.1066 12.9909 35.1066 15.0014C35.1066 15.3623 35.0551 15.6974 34.9777 16.0325C37.7873 16.5738 39.9268 19.0483 39.9268 21.9868C39.9268 24.9253 37.8647 27.374 35.0808 27.9411C35.0808 28.0958 35.1066 28.2246 35.1066 28.3793C35.1066 30.4672 33.7405 32.2457 31.833 32.8901C32.0135 33.4314 32.0908 33.9985 32.0908 34.5656C32.0908 37.9165 29.3585 40.6488 26.0334 40.6488Z" fill="#FFC06D"/>
<path fill-rule="evenodd" clip-rule="evenodd" d="M32.065 8.81522C32.065 9.02143 32.0908 9.22764 32.0908 9.40808C32.0908 9.79472 32.0392 10.1814 31.9877 10.5422C32.0908 10.5938 32.1939 10.6196 32.2712 10.6711L26.2911 16.3934L28.2759 19.9248C28.4821 20.2856 28.3532 20.7496 27.9924 20.9558C27.8635 21.0074 27.7346 21.0332 27.6057 21.0332C27.348 21.0332 27.0902 20.9043 26.9613 20.6723L24.7188 16.6512C24.5641 16.3677 24.6157 16.0068 24.8219 15.7748L32.065 8.81522ZM39.901 21.2651C39.9268 21.4971 39.9268 21.7549 39.9268 21.9869C39.9268 22.2446 39.9268 22.5024 39.8752 22.7602L32.2712 22.9664L32.529 25.2089C32.5805 25.5955 32.3486 25.9306 31.9877 26.0337L25.4921 27.6319H25.3116C24.9766 27.6319 24.6672 27.4257 24.5899 27.0648C24.4868 26.6781 24.7446 26.2657 25.1312 26.1626L30.9824 24.7449L30.6989 22.322C30.6731 22.1158 30.7504 21.9095 30.8793 21.7549C31.0082 21.6002 31.2144 21.4971 31.4206 21.4971L39.901 21.2651ZM19.9502 34.5914V32.0396C20.3368 31.8592 20.775 31.7303 21.2132 31.7303C22.7856 31.7303 24.0486 33.0191 24.0486 34.5657C24.0486 35.0039 23.7135 35.3647 23.2753 35.3647C22.8371 35.3647 22.4763 35.0039 22.4763 34.5657C22.4763 33.8697 21.9092 33.3026 21.2132 33.3026C20.5173 33.3026 19.9502 33.8697 19.9502 34.5657V34.5914ZM19.9502 11.6248V9.40808C19.9502 9.30497 19.9502 9.17609 19.976 9.07299C20.3368 8.89255 20.775 8.76367 21.2132 8.76367C22.7856 8.76367 24.0486 10.0525 24.0486 11.5991C24.0486 12.0373 23.7135 12.3981 23.2753 12.3981C22.8371 12.3981 22.4763 12.0373 22.4763 11.5991C22.4763 10.9031 21.9092 10.336 21.2132 10.336C20.5173 10.336 19.9502 10.9031 19.9502 11.5991V11.6248Z" fill="#FF995D"/>
<path fill-rule="evenodd" clip-rule="evenodd" d="M13.8933 40.623C10.5424 40.623 7.83587 37.9165 7.83587 34.5656C7.83587 33.9985 7.9132 33.4314 8.06785 32.8644C6.16041 32.2457 4.82005 30.4414 4.82005 28.3793C4.82005 28.2246 4.82005 28.07 4.84583 27.9411C2.06199 27.374 -0.0258789 24.9253 -0.0258789 21.9868C-0.0258789 19.0483 2.11355 16.5738 4.92315 16.0325C4.84583 15.6974 4.82005 15.3623 4.82005 15.0272C4.82005 12.9909 6.08308 11.2381 7.93897 10.5679C7.86164 10.1813 7.83587 9.79464 7.83587 9.43377C7.83587 6.08286 10.5424 3.35059 13.8933 3.35059C17.2184 3.35059 19.9507 6.08286 19.9507 9.43377V34.5656C19.9507 37.9165 17.2184 40.623 13.8933 40.623Z" fill="#FFB267"/>
<path fill-rule="evenodd" clip-rule="evenodd" d="M4.81921 28.6371V28.3793C4.81921 28.2246 4.81921 28.07 4.84499 27.9411C4.43257 27.8638 4.04593 27.7349 3.68506 27.5802C4.81921 26.2399 6.62355 25.647 8.35055 26.0594C8.76297 26.1883 9.02074 26.6007 8.91763 27.0132C8.81453 27.4513 8.40211 27.7091 7.96391 27.606C6.80398 27.2967 5.56672 27.7091 4.81921 28.6371ZM7.3195 10.8257C7.52571 10.7226 7.73192 10.6453 7.93813 10.5679C7.86081 10.1813 7.83503 9.79464 7.83503 9.43377V9.35645C9.53626 9.84619 10.7993 11.3154 11.0828 13.0682C11.1602 13.5064 10.8766 13.8931 10.4384 13.9704C10.3353 13.9962 10.2064 13.9704 10.1033 13.9446C9.8198 13.8673 9.58781 13.6353 9.53626 13.326C9.35583 12.1403 8.47943 11.1608 7.3195 10.8257ZM19.9499 13.8673V16.3676C19.9241 15.6716 19.3828 15.1303 18.6868 15.1303C17.9909 15.1303 17.4238 15.6974 17.4238 16.3934C17.4238 16.8315 17.0629 17.1924 16.6247 17.1924C16.2123 17.1924 15.8514 16.8315 15.8514 16.3934C15.8514 14.8468 17.1145 13.558 18.6868 13.558C19.1508 13.558 19.5632 13.6611 19.9499 13.8673ZM19.9499 27.1163V29.6423C19.9499 28.9464 19.3828 28.3793 18.6868 28.3793C17.9909 28.3793 17.4238 28.9464 17.4238 29.6423C17.4238 30.0805 17.0629 30.4156 16.6247 30.4156C16.2123 30.4156 15.8514 30.0805 15.8514 29.6423C15.8514 28.07 17.1145 26.8069 18.6868 26.8069C19.1508 26.8069 19.5632 26.91 19.9499 27.1163Z" fill="#FF995D"/>
<path fill-rule="evenodd" clip-rule="evenodd" d="M35.1066 8.04239C34.9003 8.04239 34.7199 7.96506 34.5653 7.8104C34.2817 7.52686 34.2817 7.03712 34.591 6.75358L36.1376 5.25856C36.4469 4.94924 36.9109 4.97502 37.1944 5.25856C37.5037 5.56787 37.478 6.03184 37.1944 6.31538L35.6221 7.83618C35.4674 7.96506 35.287 8.04239 35.1066 8.04239ZM39.6432 15.1308C39.3339 15.1308 39.0503 14.9504 38.9472 14.6411C38.7926 14.2545 38.973 13.8163 39.3596 13.6874L41.3959 12.8883C41.7826 12.7594 42.2208 12.9399 42.3754 13.3265C42.5043 13.7132 42.3239 14.1514 41.9372 14.2802L39.9009 15.0793C39.8236 15.1051 39.7205 15.1308 39.6432 15.1308ZM41.4991 31.6019C41.3959 31.6019 41.2928 31.5761 41.2155 31.5503L39.1792 30.6997C38.8183 30.545 38.6379 30.1068 38.7926 29.746C38.9472 29.3593 39.3854 29.1789 39.772 29.3335L41.7826 30.1584C42.1435 30.313 42.3497 30.7512 42.1692 31.1379C42.0661 31.4214 41.7826 31.6019 41.4991 31.6019ZM43.2518 22.7091H42.1435C41.731 22.7091 41.3959 22.374 41.3959 21.9615C41.3959 21.5491 41.731 21.214 42.1435 21.214H43.2518C43.6643 21.214 43.9993 21.5491 43.9993 21.9615C43.9993 22.374 43.6643 22.7091 43.2518 22.7091ZM36.4469 39.1801C36.2665 39.1801 36.0603 39.1027 35.9314 38.9481L34.3848 37.4273C34.0755 37.118 34.0755 36.654 34.3848 36.3705C34.6684 36.0611 35.1323 36.0611 35.4416 36.3705L36.9882 37.8912C37.2718 38.2006 37.2718 38.6645 36.9882 38.9481C36.8336 39.1027 36.6273 39.1801 36.4469 39.1801Z" fill="white"/>
</g>
<defs>
<clipPath id="clip0_5_6612">
<rect width="44" height="44" fill="white"/>
</clipPath>
</defs>
</svg>
