<svg width="43" height="36" viewBox="0 0 43 36" fill="none" xmlns="http://www.w3.org/2000/svg">
<path d="M20.0847 33.3766C37.0073 33.3766 44.2412 28.4262 37.6032 13.5715C31.2274 -0.69608 20.0847 0.278737 20.0847 0.278737C20.0847 0.278737 8.35464 -0.124195 2.56611 13.5715C-3.76899 28.5604 3.16199 33.3766 20.0847 33.3766Z" fill="#F8C700"/>
<path d="M37.6057 13.5715C31.2298 -0.69608 20.0871 0.278737 20.0871 0.278737C20.0871 0.278737 13.1653 0.0414279 7.33203 6.13963C12.852 1.29616 18.8126 1.5005 18.8126 1.5005C18.8126 1.5005 29.9553 0.525775 36.3312 14.7934C39.4746 21.8278 39.5068 26.6409 36.8728 29.7593C40.7286 26.7349 41.1932 21.5998 37.6057 13.5715Z" fill="#FFE75A"/>
<path d="M39.904 24.6639C39.904 24.6639 36.9938 32.1967 21.2193 31.4918C5.44454 30.7869 0.193557 20.5152 3.00635 12.582C2.85355 12.9093 2.70677 13.2394 2.56611 13.5722C-3.76899 28.561 3.16199 33.3773 20.0847 33.3773C31.7704 33.3773 38.8357 31.0162 39.9039 24.6639H39.904Z" fill="#F9A723"/>
<path d="M15.9731 4.99477C18.8749 4.09002 22.2979 4.65839 25.1996 6.69971C25.196 6.71448 24.743 3.87721 23.5356 2.29682C22.9404 1.46376 21.1195 1.06668 19.4419 1.69557C17.7558 2.24116 16.2129 3.81281 15.9731 4.99477ZM35.2981 6.37C33.1278 5.2808 30.3574 5.34997 27.8085 6.69971C27.8094 6.71232 28.531 4.41658 29.6856 3.24984C30.2617 2.62986 31.7476 2.51468 32.9887 3.23201C34.2473 3.88135 35.2612 5.36339 35.2981 6.37Z" fill="#60341B"/>
<path d="M13.5796 13.1107C13.5796 14.7597 14.2432 16.252 15.3143 17.3318C18.0364 17.33 19.8622 18.1982 20.8932 18.8989C23.4708 18.2604 25.3839 15.9116 25.3839 13.1107C25.3839 9.81987 22.7412 7.15137 19.4822 7.15137C16.2223 7.15137 13.5796 9.81987 13.5796 13.1107Z" fill="white"/>
<path d="M17.6963 14.5719C18.2149 14.1046 18.7549 15.0497 19.6237 15.4858C20.5067 15.8337 21.4046 15.5492 21.5229 16.2845C21.5919 16.9563 20.4429 17.8092 19.0761 17.2149C17.6777 16.6148 17.2498 15.0347 17.6963 14.5719Z" fill="#60341B"/>
<path d="M35.6604 14.3076C35.5755 15.7855 35.026 17.079 34.2074 17.976C32.2685 17.7946 30.9233 18.452 30.1528 19.0118C28.3497 18.2694 27.1079 16.038 27.2521 13.5279C27.4216 10.5786 29.4414 8.36161 31.7628 8.57695C34.0849 8.79219 35.8299 11.3584 35.6604 14.3075V14.3076Z" fill="white"/>
<path d="M32.6738 15.3255C32.3214 14.8632 31.8792 15.6911 31.2248 16.0315C30.5645 16.2901 29.9268 15.9693 29.8022 16.6339C29.7167 17.2436 30.5072 18.1013 31.5319 17.6498C32.58 17.1952 32.9741 15.7789 32.6738 15.3255Z" fill="#60341B"/>
<path d="M19.9806 29.6581C24.4321 29.4834 25.2705 32.4437 24.2912 34.7087C19.0718 35.6192 13.9585 33.936 13.8301 27.0103C17.3576 26.9635 19.2778 28.0217 19.9806 29.6581Z" fill="#EA4747"/>
<path d="M34.3713 23.8294C34.3713 23.8294 33.9859 25.22 33.1172 27.0086C22.7872 28.3072 14.142 23.4395 14.142 23.4395H14.1411C14.3034 22.5199 14.5309 21.5356 14.8306 20.4837C15.0134 20.408 15.2497 20.3324 15.5414 20.2783C15.5414 20.2783 16.9444 21.2141 22.8229 22.4866C28.7023 23.7583 34.3713 23.8294 34.3713 23.8294Z" fill="white"/>
<path d="M23.4716 23.8526C27.6109 24.6548 31.3227 24.9527 33.957 25.0525C34.2388 24.3032 34.3701 23.8294 34.3701 23.8294C34.3701 23.8294 28.7012 23.7583 22.8218 22.4866C16.9433 21.2141 15.5403 20.2783 15.5403 20.2783C15.2486 20.3324 15.0123 20.408 14.8294 20.4837C14.781 20.6545 14.7338 20.8256 14.688 20.9972C16.3186 21.8645 19.0991 23.0051 23.4716 23.8526Z" fill="#E2E2E2"/>
<path d="M33.1161 27.0086C31.7435 29.8365 29.1641 33.6623 24.9918 34.571C24.7581 34.6214 24.5244 34.6673 24.2907 34.7079C25.27 32.4428 24.4317 29.4825 19.9802 29.6573C19.2774 28.0208 17.3571 26.9626 13.8296 27.0095C13.81 25.9458 13.9072 24.7588 14.14 23.4395H14.1409C14.1409 23.4395 22.7861 28.3072 33.1161 27.0086Z" fill="#2D1200"/>
<path d="M33.7034 26.463C32.0763 26.2543 32.386 22.1081 36.4843 22.4016C36.5528 22.4056 36.6222 22.4116 36.6924 22.4194C38.6668 22.6262 40.0202 23.2918 40.8538 24.2522V24.2531C41.8333 25.3816 42.0942 26.9166 41.7985 28.5933C41.2517 31.697 39.1431 33.3259 38.7289 33.5959C36.0781 35.3247 33.7848 33.7794 32.5441 32.7964C31.5973 32.0462 31.8538 30.4813 32.7226 29.8972C31.7729 29.2866 31.7298 26.9369 33.7034 26.463Z" fill="#FFEDD9"/>
<path d="M38.8616 17.8393C41.2394 17.2742 42.38 18.2571 42.2749 18.9347C42.1696 19.6132 41.2272 20.2245 40.7343 21.3573C40.2474 22.4722 40.8351 24.2011 40.8533 24.2524C40.0197 23.292 38.6663 22.6265 36.6918 22.4197C36.6226 22.4119 36.5532 22.406 36.4836 22.4018V22.4009C35.9004 20.3613 36.484 18.4042 38.8616 17.8393Z" fill="#FFEDD9"/>
<path d="M16.0347 5.25104C18.9023 4.35719 22.2566 4.97617 25.0119 6.90744C25.0627 6.95238 25.1226 6.96661 25.175 6.96805C25.3462 6.97742 25.487 6.79964 25.442 6.63356C25.2704 5.71602 24.7823 3.51422 23.7351 2.13692C23.0189 1.13454 21.0059 0.815003 19.3371 1.43822C17.634 1.99165 15.9663 3.59338 15.6935 4.93871C15.6482 5.13234 15.8479 5.31552 16.0347 5.25104ZM19.5061 1.95094C21.0932 1.35014 22.7887 1.73218 23.3063 2.46005C24.0992 3.49792 24.5665 5.1454 24.7873 6.11202C22.1837 4.49957 19.2355 3.89941 16.3703 4.59603C16.8193 3.6158 18.0602 2.4189 19.5062 1.95094H19.5061ZM13.9969 17.123C13.6486 17.1654 13.6926 17.6837 14.047 17.6611C14.6952 17.6002 15.2611 17.5894 15.8755 17.615C19.8195 17.8003 21.6896 19.9194 21.7031 19.9442C21.9353 20.2088 22.3335 19.8734 22.1113 19.5948C22.0831 19.5612 21.8755 19.3205 21.4769 19.0004C27.9897 16.63 26.4169 7.00038 19.4658 6.8797C14.2879 6.85772 11.3935 13.0719 14.7068 17.0752C14.4753 17.0857 14.2402 17.1 13.9968 17.123H13.9969ZM13.8309 13.1092C13.8309 9.97221 16.3588 7.42006 19.4659 7.42006C26.0285 7.55407 27.2286 16.7691 20.9325 18.6039C20.5914 18.3781 20.1727 18.1407 19.6753 17.921C23.9908 18.05 23.9939 10.5612 19.8356 10.9291C16.6239 11.2651 16.128 15.8224 18.1312 17.3939C17.3483 17.197 16.444 17.0675 15.4103 17.0604C14.3909 15.9931 13.8309 14.5945 13.8309 13.1092ZM19.5715 15.5722C20.3355 15.8732 21.1123 15.627 21.2147 16.2631C21.2743 16.8444 20.2803 17.5823 19.0978 17.0681C17.8879 16.5489 17.5177 15.182 17.9041 14.7815C18.3527 14.3773 18.8199 15.1949 19.5715 15.5722ZM19.5004 12.7592C19.5524 13.3438 18.719 13.4557 18.6833 12.8541C18.6331 12.2665 19.463 12.1672 19.5004 12.7592ZM21.5019 12.964C22.5131 14.1275 21.4507 15.5354 20.3459 14.2283C19.2961 13.0348 20.4137 11.6619 21.5019 12.964Z" fill="black"/>
<path d="M29.6297 19.0649C29.3291 19.3267 29.1684 19.5291 29.1463 19.5575C28.9374 19.8431 29.3433 20.1642 29.5682 19.89C29.5933 19.8578 29.8176 19.5773 30.2487 19.2547C31.2411 18.4876 33.0858 17.9149 35.0411 18.3783C35.3873 18.4439 35.4958 17.9322 35.1519 17.8496C35.005 17.8186 34.8574 17.7916 34.7091 17.7685C37.1851 14.592 35.6676 8.68077 31.7705 8.30621C30.7495 8.21165 29.7257 8.56072 28.8872 9.28941C26.0353 11.6996 26.4333 17.3494 29.6297 19.0649ZM27.5025 13.5418C27.6271 11.1946 29.1056 8.88152 31.4313 8.83072C35.2543 8.88908 36.6249 14.8633 34.0812 17.6927C33.3837 17.6389 32.7629 17.6898 32.2159 17.8031C33.6744 16.4824 33.5349 12.4457 31.2882 11.9378C28.4558 11.3301 27.8657 17.8299 30.9697 18.2085C30.6663 18.3463 30.3755 18.5109 30.1006 18.7002C28.4336 17.928 27.3708 15.8334 27.5025 13.5418ZM30.0313 16.627C30.137 16.0638 30.6776 16.3357 31.2373 16.1164C31.7921 15.8279 32.1669 15.126 32.4656 15.5179C32.7203 15.9023 32.3862 17.103 31.4977 17.4883C30.629 17.871 29.9589 17.1441 30.0313 16.627ZM29.9965 13.6514C30.8386 12.5564 31.5641 13.8606 30.7549 14.8609C29.9006 15.9592 29.2164 14.6273 29.9965 13.6514ZM31.4327 13.6001C31.4898 13.072 32.0759 13.2158 32.0099 13.739C31.9535 14.2758 31.3655 14.1205 31.4327 13.6001Z" fill="black"/>
<path d="M41.8317 20.1562C42.1682 19.745 42.4588 19.3898 42.5234 18.9746C42.5738 18.6508 42.4316 18.305 42.1336 18.0259C41.5568 17.486 40.539 17.2876 39.3459 17.4659C38.09 13.4082 35.9177 8.97927 32.9652 5.94836C33.7374 6.0477 34.4795 6.26726 35.1621 6.60986C35.2037 6.63073 35.2499 6.64032 35.2962 6.63771C35.3426 6.63509 35.3874 6.62035 35.4264 6.59494C35.4654 6.56952 35.4972 6.5343 35.5186 6.49274C35.5401 6.45117 35.5504 6.40469 35.5487 6.35786C35.506 5.19824 34.3848 3.65847 33.0992 2.99229C31.8778 2.2891 30.2783 2.29909 29.543 2.9931C26.6844 1.02347 23.4358 -0.0962532 20.0636 0.00650622C16.8104 -0.101567 11.0913 1.8215 7.54428 5.52183C2.31024 10.3159 -2.40962 23.2342 1.36027 28.0031C3.16852 31.4861 9.5565 33.1495 16.3581 33.5771C18.1852 35.0111 20.86 35.5454 24.2712 34.9761C24.305 34.9781 24.3387 34.9702 24.37 34.9587C25.9703 34.7151 27.4268 34.0908 28.7948 33.0382C29.9201 32.8561 30.954 32.6391 31.8673 32.3927C31.9849 32.6321 32.1543 32.8419 32.3628 33.0065C33.8327 34.2581 36.3951 35.4916 38.8584 33.821C38.9633 33.7526 41.4352 32.1052 42.0462 28.6383C42.3591 26.8121 42.0527 25.2816 41.0751 24.1142C40.9863 23.8361 40.5597 22.3891 40.9632 21.4634C41.1928 20.9371 41.5322 20.5223 41.8317 20.1562ZM31.157 3.00355C31.686 3.00292 32.2932 3.14648 32.8501 3.47052C33.8814 4.00269 34.6765 5.07045 34.9296 5.91116C32.9121 5.07837 30.4986 5.1705 28.2741 6.16279C28.5824 5.38161 29.1415 4.16272 29.8639 3.4326C30.1136 3.16386 30.5929 3.00355 31.157 3.00355ZM1.80658 27.7052C-1.79456 23.159 2.86616 10.5261 7.90577 5.9208C13.6276 0.205631 22.4118 -1.37539 29.1879 3.38316C28.3356 4.43327 27.7726 5.92719 27.5432 6.59707C27.4451 6.82996 27.7179 7.06853 27.9337 6.92741C29.3153 6.19954 30.7956 5.85181 32.2086 5.89009C34.8174 8.42296 37.4601 13.0668 38.8165 17.5673C36.5821 18.0518 35.6166 19.901 36.1211 22.1154C34.7938 22.1161 33.729 22.5174 33.0176 23.5084C30.9951 23.4082 26.9622 23.1076 22.8632 22.2205C19.3803 21.4669 17.477 20.8294 16.5182 20.4443C16.5737 20.4186 16.6187 20.3745 16.6459 20.3194C16.6731 20.2642 16.6807 20.2014 16.6676 20.1412C16.6545 20.0811 16.6214 20.0273 16.5738 19.9888C16.5262 19.9503 16.467 19.9294 16.406 19.9296C16.0679 19.9296 15.7727 19.9598 15.514 20.0059C15.4929 20.0068 15.4727 20.0106 15.4531 20.0166C15.1645 20.072 14.926 20.1473 14.7354 20.2249C14.7309 20.2263 14.7265 20.2284 14.722 20.23C14.341 20.3871 14.1533 20.5494 14.1386 20.5625C13.9258 20.7493 14.1225 21.1051 14.3896 21.0228C14.1749 21.8356 14.001 22.6185 13.868 23.37C13.864 23.3849 13.8613 23.4 13.8599 23.4154C13.0636 27.6509 13.7426 30.9594 15.6937 32.9787C8.30097 32.5233 3.84181 30.8169 1.80658 27.7052ZM32.4885 26.802C25.5269 27.5207 18.8162 25.5302 14.4254 23.2926C14.5782 22.4636 14.7814 21.595 15.0355 20.6883C15.1805 20.6363 15.3289 20.5943 15.4796 20.5628C15.8928 20.7931 17.6569 21.6467 22.7511 22.7489C26.7114 23.6059 30.6097 23.9203 32.7262 24.0343C32.3712 24.8008 32.4292 25.9298 33.0053 26.425C32.8158 26.5247 32.6417 26.6517 32.4885 26.802ZM15.9575 32.4968C14.6892 31.1304 14.171 29.2565 14.092 27.2769C16.9539 27.3281 18.8488 27.9193 19.725 29.7727C20.0532 30.538 20.1038 31.462 19.8727 32.5329C19.8061 32.8814 20.3106 32.9955 20.3956 32.6479C20.6141 31.6353 20.5946 30.7132 20.3456 29.9184C23.3256 29.8542 25.1173 31.7256 24.0847 34.4644C20.5959 35.0404 17.6642 34.3403 15.9575 32.4969V32.4968ZM24.9202 34.3051C24.8444 34.3216 24.7692 34.3365 24.6938 34.3519C25.517 31.4979 23.8946 29.3076 20.1312 29.3806C19.0925 27.4345 17.1294 26.7982 14.0809 26.7368C14.08 25.7757 14.1741 24.7987 14.3295 23.8502C18.5261 26.0751 25.9422 27.9988 32.0589 27.3935C31.8321 27.8529 31.7698 28.3032 31.8213 28.7807C30.4656 30.9637 28.2065 33.5891 24.9202 34.305V34.3051ZM29.5642 32.3944C30.4449 31.5923 31.2663 30.6148 32.0157 29.4728C32.0901 29.6295 32.1834 29.7703 32.2931 29.8909C31.7894 30.3977 31.5637 31.1666 31.7044 31.9104C31.0135 32.1013 30.2979 32.2609 29.5642 32.3944ZM41.5193 28.5436C40.9486 31.7815 38.6649 33.3039 38.568 33.367C37.4182 34.1169 35.5582 34.8511 32.693 32.5813C31.6965 31.8027 32.2909 29.765 33.6313 29.9564C35.1012 30.2036 36.2738 31.1382 36.2853 31.1475C36.3407 31.1923 36.4114 31.213 36.482 31.2052C36.5525 31.1973 36.617 31.1615 36.6614 31.1056C36.7058 31.0497 36.7264 30.9782 36.7186 30.907C36.7108 30.8358 36.6753 30.7706 36.6199 30.7258C36.568 30.6839 35.3309 29.6944 33.7191 29.4235C33.3709 29.3652 33.0324 29.4212 32.7325 29.5725C32.3868 29.2423 32.2419 28.5606 32.4108 27.9593C32.6413 27.1396 33.3635 26.6614 34.3922 26.6472C36.8056 26.6121 37.2486 27.7054 37.265 27.7483C37.3887 28.0816 37.8782 27.9104 37.7704 27.5706C37.7492 27.5093 37.2188 26.0672 34.3849 26.1069C34.1238 26.1105 33.89 26.1384 33.6794 26.1839C33.1793 26.0878 32.983 25.4615 33.05 24.874C33.1575 23.9323 34.0365 22.4107 36.6483 22.6858C38.5933 22.8898 39.995 23.5502 40.8146 24.6488C41.5507 25.6357 41.7945 26.9824 41.5193 28.5436ZM40.4734 21.2456C40.1767 21.9261 40.2391 22.7905 40.356 23.4331C39.4492 22.737 38.2046 22.3002 36.6777 22.146C36.4175 21.1097 36.4966 20.1585 36.9062 19.4516C37.2965 18.7776 37.9698 18.323 38.9072 18.1002C40.838 17.6399 41.996 18.2511 41.9947 18.8908C41.9528 19.1597 41.7056 19.462 41.4192 19.812C41.0975 20.2051 40.7329 20.6507 40.4734 21.2456Z" fill="#242424"/>
</svg>
