<svg width="19" height="19" viewBox="0 0 19 19" fill="none" xmlns="http://www.w3.org/2000/svg">
<path d="M13.4312 1.58008H5.53046C3.34985 1.58008 1.58008 3.34195 1.58008 5.51466V10.2393V11.0294C1.58008 13.2021 3.34985 14.964 5.53046 14.964H6.71557C6.92889 14.964 7.21332 15.1062 7.34764 15.28L8.53275 16.8523C9.0542 17.5475 9.90748 17.5475 10.4289 16.8523L11.614 15.28C11.7642 15.0825 12.0012 14.964 12.2461 14.964H13.4312C15.6118 14.964 17.3816 13.2021 17.3816 11.0294V5.51466C17.3816 3.34195 15.6118 1.58008 13.4312 1.58008ZM6.32054 9.48084C5.87809 9.48084 5.53046 9.12531 5.53046 8.69077C5.53046 8.25622 5.88599 7.90069 6.32054 7.90069C6.75508 7.90069 7.11061 8.25622 7.11061 8.69077C7.11061 9.12531 6.76298 9.48084 6.32054 9.48084ZM9.48084 9.48084C9.0384 9.48084 8.69077 9.12531 8.69077 8.69077C8.69077 8.25622 9.0463 7.90069 9.48084 7.90069C9.91538 7.90069 10.2709 8.25622 10.2709 8.69077C10.2709 9.12531 9.92328 9.48084 9.48084 9.48084ZM12.6411 9.48084C12.1987 9.48084 11.8511 9.12531 11.8511 8.69077C11.8511 8.25622 12.2066 7.90069 12.6411 7.90069C13.0757 7.90069 13.4312 8.25622 13.4312 8.69077C13.4312 9.12531 13.0836 9.48084 12.6411 9.48084Z" fill="white"/>
</svg>
