<svg width="42" height="48" viewBox="0 0 42 48" fill="none" xmlns="http://www.w3.org/2000/svg">
<path d="M35.329 26.435C22.3355 28.572 20.0255 31.2865 18.293 47.11C18.235 47.63 17.484 47.63 17.4265 47.11C15.694 31.2865 13.384 28.63 0.39 26.435C-0.13 26.3775 -0.13 25.627 0.39 25.569C13.384 23.4325 15.694 20.776 17.4265 4.952C17.484 4.432 18.235 4.432 18.293 4.952C20.025 20.776 22.335 23.375 35.329 25.569C35.791 25.627 35.791 26.3195 35.329 26.435ZM40.8735 8.186C36.83 8.995 35.675 10.323 34.9825 15.0585C34.925 15.5785 34.174 15.5785 34.1165 15.0585C33.4235 10.323 32.2685 8.9945 28.226 8.1285C28.1276 8.10644 28.0396 8.05151 27.9765 7.97276C27.9135 7.89401 27.8791 7.79613 27.8791 7.69525C27.8791 7.59437 27.9135 7.49649 27.9765 7.41774C28.0396 7.33899 28.1276 7.28406 28.226 7.262C32.211 6.4535 33.4235 5.1255 34.116 0.39C34.174 -0.13 34.925 -0.13 34.9825 0.39C35.6755 5.125 36.8305 6.4535 40.8735 7.32C41.3355 7.435 41.3355 8.1285 40.8735 8.186Z" fill="white"/>
</svg>
