<svg width="40" height="40" viewBox="0 0 40 40" fill="none" xmlns="http://www.w3.org/2000/svg">
<path fill-rule="evenodd" clip-rule="evenodd" d="M19.9997 37.9163C10.1046 37.9163 2.08301 29.8948 2.08301 19.9997C2.08301 10.1046 10.1046 2.08301 19.9997 2.08301C29.8948 2.08301 37.9163 10.1046 37.9163 19.9997C37.9163 29.8948 29.8948 37.9163 19.9997 37.9163ZM21.6663 13.333C21.6663 12.4125 20.9202 11.6663 19.9997 11.6663C19.0792 11.6663 18.333 12.4125 18.333 13.333V18.333H13.333C12.4125 18.333 11.6663 19.0792 11.6663 19.9997C11.6663 20.9202 12.4125 21.6663 13.333 21.6663H18.333V26.6663C18.333 27.5868 19.0792 28.333 19.9997 28.333C20.9202 28.333 21.6663 27.5868 21.6663 26.6663V21.6663H26.6663C27.5868 21.6663 28.333 20.9202 28.333 19.9997C28.333 19.0792 27.5868 18.333 26.6663 18.333H21.6663V13.333Z" fill="#FFC54D"/>
</svg>
