<svg width="24" height="24" viewBox="0 0 24 24" fill="none" xmlns="http://www.w3.org/2000/svg">
<g clip-path="url(#clip0_5_2904)">
<path d="M5.99647 21.0667C6.00464 21.4998 8.6817 21.8082 11.9737 21.7514C15.2658 21.6945 17.9307 21.2935 17.9234 20.8599C17.916 20.4233 15.2382 20.1146 11.9462 20.1715C8.65482 20.2285 5.98915 20.6294 5.99647 21.0667Z" fill="#DBA660"/>
<path d="M9.99502 20.9842C10.0009 21.3099 10.8836 21.4985 11.9678 21.48C13.0514 21.4612 13.9274 21.2424 13.9224 20.9161C13.9163 20.5873 13.0322 20.3354 11.948 20.354C10.8645 20.3727 9.98911 20.6547 9.99502 20.9842Z" fill="#8A4852"/>
<path d="M8.02042 17.8018C8.0487 19.4597 9.81116 20.771 11.9571 20.7337C14.103 20.6964 15.8193 19.3249 15.791 17.667C15.769 16.3996 14.7243 14.9392 13.2687 14.0829C12.4065 13.5767 12.369 12.3054 13.2286 11.7586C14.6538 10.8528 15.647 9.35722 15.6251 8.08978C15.5969 6.43121 13.8345 5.11991 11.6886 5.1572C9.54196 5.19435 7.82637 6.56603 7.85465 8.22388C7.87646 9.49204 8.92121 10.9524 10.3769 11.808C11.239 12.3149 11.2765 13.5862 10.417 14.1323C8.99186 15.0381 7.99861 16.5337 8.02042 17.8018Z" fill="#E9E7FC"/>
<path d="M14.9603 9.21262C15.5373 7.85608 12.9398 8.03866 11.684 9.13178C10.9874 9.73798 9.92675 9.94143 8.55625 9.32308C11.0379 10.748 13.3322 11.3838 14.9603 9.21262Z" fill="#F3A250"/>
<path d="M14.9605 9.21265C14.6248 10.2225 13.8869 10.7944 12.9807 11.3705C11.9871 12.0017 12.1639 13.0215 12.1482 13.0924C12.1587 13.7098 11.5109 13.7209 11.5011 13.1037C11.4769 13.0099 11.644 12.0197 10.6096 11.4109C9.6838 10.8668 8.92663 10.3208 8.5564 9.32312C7.88567 7.79383 10.507 8.25125 11.7394 9.08508C12.5268 9.61706 13.5639 9.90179 14.9605 9.21265Z" fill="#F9CF6B"/>
<path d="M10.2903 20.887C10.2944 21.122 11.0434 21.2379 11.9647 21.2223C12.8853 21.2065 13.6304 21.0645 13.6265 20.8288L13.5339 20.4471C13.0541 20.623 12.5195 20.7242 11.9558 20.7336C11.3922 20.743 10.8557 20.6615 10.3696 20.502L10.2903 20.887Z" fill="#DEDFFB"/>
<path d="M11.3924 14.6212C11.3945 14.7428 11.4447 14.8585 11.5319 14.9432C11.6191 15.0279 11.7363 15.0746 11.8578 15.0732C11.9794 15.0711 12.0951 15.0209 12.1798 14.9337C12.2645 14.8465 12.3112 14.7293 12.3098 14.6078C12.3063 14.3773 12.0352 14.2244 11.883 13.9479C11.8791 13.94 11.8731 13.9334 11.8656 13.9288C11.8581 13.9242 11.8495 13.9218 11.8407 13.9219C11.8319 13.922 11.8234 13.9246 11.816 13.9293C11.8086 13.9341 11.8028 13.9409 11.7991 13.9488C11.6552 14.2306 11.3889 14.3908 11.3924 14.6212ZM11.7896 16.1914C11.7986 16.1761 11.8114 16.1634 11.8268 16.1544C11.8421 16.1455 11.8595 16.1407 11.8772 16.1404C11.895 16.14 11.9125 16.1443 11.9282 16.1527C11.9438 16.1611 11.957 16.1733 11.9666 16.1883C12.4955 17.008 14.1535 16.8901 14.8569 17.7528L14.8704 18.5294C12.5724 18.8194 9.81044 18.8386 8.84558 17.664C9.23305 16.7839 11.2118 17.1371 11.7896 16.1914Z" fill="#F3A250"/>
<path d="M13.5807 17.2611C12.4446 17.4561 11.0633 18.3247 8.84511 17.6641C8.68065 18.1597 8.6127 18.6101 8.93688 19.0196C9.5385 19.7835 10.6701 20.2954 11.9473 20.2732C13.153 20.2522 14.2113 19.7681 14.8101 19.0579C15.1671 18.6335 15.1446 17.9908 14.7393 17.6124C14.5861 17.4688 14.4018 17.3625 14.2009 17.3017C13.9999 17.2409 13.7878 17.2265 13.5807 17.2611Z" fill="#F9CF6B"/>
<path d="M6.41333 19.832C6.41572 19.9755 6.87487 20.0845 7.4385 20.0751C8.00142 20.0655 8.45635 19.9402 8.45396 19.7967C8.45185 19.6518 7.99285 19.5421 7.42907 19.5522C6.86615 19.5618 6.41051 19.6869 6.41333 19.832Z" fill="#BF7D5A"/>
<path d="M6.8835 19.8232C6.88548 19.9058 7.13192 19.9692 7.43505 19.964C7.73818 19.9588 7.9828 19.8871 7.98154 19.8046C7.97971 19.7213 7.73255 19.6578 7.43013 19.6631C7.12701 19.6683 6.88167 19.7399 6.8835 19.8232Z" fill="#8A4852"/>
<path d="M8.45393 19.7967C8.45632 19.9402 8.00139 20.0655 7.43847 20.075C6.87484 20.0845 6.41569 19.9755 6.41259 19.8318L6.43258 20.946C6.43497 21.0895 6.89397 21.1992 7.45775 21.1891C8.02067 21.1795 8.47559 21.0542 8.4732 20.9107L8.45393 19.7967Z" fill="#AA6256"/>
<path d="M19.1706 22.8683C19.1798 23.389 15.9747 23.9555 12.0139 24.0244C8.05318 24.0927 4.83038 23.6371 4.82123 23.1164L5.99733 21.0667C6.0055 21.4997 8.68256 21.8082 11.9746 21.7514C15.2666 21.6945 17.9316 21.2934 17.9243 20.8598L19.1706 22.8683Z" fill="#BF7D5A"/>
<path d="M15.0247 21.5869C15.6899 21.5222 16.2698 21.4434 16.7332 21.3538L17.3688 23.5654C16.798 23.6698 16.1158 23.7637 15.3476 23.8389L15.0247 21.5869ZM10.8547 21.7563C11.5693 21.7624 12.2838 21.751 12.9978 21.7222L13.0371 23.9952C12.3231 24.0244 11.6085 24.0358 10.894 24.0294L10.8547 21.7563ZM8.80172 23.9618C8.18497 23.925 7.62267 23.8754 7.12253 23.8153L7.39585 21.547C7.82843 21.6077 8.35224 21.657 8.93421 21.6935L8.80172 23.9618Z" fill="#AA6256"/>
<path d="M6.77335 6.09363L7.01046 19.8204C7.01131 19.8643 7.20187 19.9047 7.43691 19.9006C7.67124 19.8964 7.85327 19.8498 7.85243 19.8059L7.61603 6.07928C7.61673 6.1313 7.4347 6.17787 7.20051 6.18138C6.96604 6.18632 6.7749 6.14508 6.77321 6.09434L6.77335 6.09363Z" fill="#DBA660"/>
<path d="M6.16057 5.13575L6.17985 6.24976C6.1821 6.39399 6.6401 6.50496 7.20317 6.49468C7.76837 6.48483 8.22187 6.35924 8.21962 6.21502L8.20049 5.10029C8.19824 4.95607 7.73981 4.84723 7.17446 4.85779C6.61168 4.86665 6.15833 4.99153 6.16043 5.13646L6.16057 5.13575Z" fill="#AA6256"/>
<path d="M17.4647 19.6412C17.4672 19.784 17.0123 19.9093 16.4485 19.9194C15.8856 19.929 15.4266 19.8193 15.4241 19.6765C15.4213 19.5314 15.8762 19.4061 16.4398 19.3967C17.0029 19.3864 17.4619 19.4961 17.4647 19.6412Z" fill="#BF7D5A"/>
<path d="M15.8951 19.6678C15.8965 19.7496 16.1436 19.8138 16.4461 19.8078C16.7491 19.8033 16.9944 19.7317 16.9926 19.6484C16.9908 19.5651 16.7442 19.5024 16.4412 19.5069C16.1379 19.5128 15.8933 19.5845 15.8951 19.6678Z" fill="#8A4852"/>
<path d="M15.4232 19.6765C15.4257 19.8193 15.884 19.9289 16.4478 19.9188C17.0114 19.9093 17.4663 19.784 17.464 19.6405L17.4831 20.7552C17.4855 20.8987 17.0306 21.0241 16.4669 21.0335C15.9039 21.0438 15.4449 20.9341 15.4425 20.7906L15.4232 19.6765Z" fill="#AA6256"/>
<path d="M15.783 5.93809L16.0202 19.6642C16.0211 19.7155 16.2153 19.7484 16.4437 19.7445C16.681 19.7401 16.8646 19.7005 16.8638 19.6492L16.6265 5.92317C16.6272 5.9752 16.4438 6.02148 16.2064 6.02585C15.9781 6.02979 15.7838 5.9894 15.783 5.93809Z" fill="#DBA660"/>
<path d="M17.2103 4.94454L17.2294 6.05927C17.2317 6.20349 16.7782 6.32908 16.2144 6.33922C15.6493 6.34836 15.1919 6.23823 15.1889 6.09387L15.1704 4.98C15.1674 4.83563 15.6215 4.71089 16.1866 4.70176C16.7496 4.69148 17.2073 4.80018 17.2103 4.94454Z" fill="#AA6256"/>
<path d="M5.82591 5.1763C5.16506 4.78973 4.48652 3.79553 4.47372 3.02284C4.46457 2.50215 7.66964 1.93571 11.6305 1.86675C15.5913 1.79779 18.814 2.25405 18.8231 2.77474C18.8366 3.54758 18.2491 4.51585 17.6018 4.92435C17.5942 4.49218 14.9618 4.08294 11.6697 4.13979C8.37769 4.19664 5.81846 4.74341 5.82591 5.1763Z" fill="#BF7D5A"/>
<path d="M18.8218 2.76649C18.7942 3.28575 15.6036 3.8462 11.666 3.91388C7.72844 3.98157 4.5199 3.53257 4.47383 3.01487C4.5016 2.4949 7.69326 1.93615 11.6301 1.86833C15.567 1.8005 18.7759 2.24807 18.8218 2.76649Z" fill="#DBA660"/>
<path d="M18.2216 2.77175C18.1939 3.10642 15.2693 3.48591 11.6597 3.54811C8.05011 3.61031 5.11034 3.33669 5.07108 3.00343C5.09938 2.66962 8.0266 2.29511 11.6371 2.23235C15.2475 2.16958 18.1823 2.43849 18.2222 2.77261L18.2216 2.77175Z" fill="#AA6256"/>
<path d="M5.07293 3.00478C5.0836 3.10328 5.35967 3.20526 5.83587 3.28133C6.89226 3.04368 9.14924 2.83665 11.7592 2.79147C14.273 2.74927 16.4645 2.86194 17.5718 3.05846C17.9762 2.96376 18.2119 2.86789 18.222 2.77282C18.1892 2.44084 15.245 2.16708 11.6355 2.23227C8.02531 2.29732 5.09952 2.6684 5.07293 3.00478Z" fill="#BF7D5A"/>
<path d="M8.01782 17.8012C8.04667 19.4599 9.80913 20.7712 11.955 20.7339C12.8929 20.7179 13.7496 20.4484 14.413 20.0082C11.9992 20.6242 9.38684 19.282 9.35195 17.2241C9.32943 15.9558 10.3232 14.4611 11.7484 13.5553C12.5952 13.017 12.5833 11.7434 11.7081 11.2316C10.2526 10.3754 9.20785 8.91501 9.18618 7.64614C9.16985 6.71337 9.70641 5.86982 10.5629 5.30528C8.97267 5.70289 7.82912 6.86815 7.85262 8.22411C7.87457 9.49156 8.91918 10.9526 10.374 11.8088C11.2367 12.3128 11.2753 13.5858 10.4141 14.1331C8.98968 15.0391 7.99587 16.5338 8.01782 17.8012Z" fill="#55697C" fill-opacity="0.0745098"/>
<path d="M17.6466 4.82433C17.6391 4.39145 14.9613 4.08283 11.6693 4.13968C8.37724 4.19653 5.71228 4.5976 5.7196 5.0312C5.72706 5.46779 8.40483 5.77641 11.6969 5.71956C14.9889 5.66271 17.6539 5.26164 17.6466 4.82433Z" fill="#BF7D5A"/>
<path opacity="0.8" d="M14.1198 15.8033C14.52 16.2547 14.7401 16.6916 14.9317 16.5232C15.1201 16.3556 14.9537 15.8435 14.5534 15.3921C14.1527 14.9398 13.6878 14.7964 13.4994 14.9639C13.3084 15.1332 13.7183 15.3509 14.1198 15.8033ZM12.7866 14.504C12.7303 14.6187 12.8048 14.7685 12.9506 14.84C13.0958 14.9105 13.2574 14.8769 13.3144 14.7624C13.3689 14.6495 13.2964 14.5009 13.1513 14.4296C13.0063 14.3583 12.8418 14.3913 12.7866 14.504Z" fill="white"/>
<path d="M10.0151 9.58387C9.66012 9.3542 9.32911 9.14934 9.31201 9.17185C9.29946 9.19379 9.60709 9.43029 9.94564 9.68631C9.95303 9.69208 9.95863 9.69983 9.96179 9.70865C9.96494 9.71748 9.96552 9.72702 9.96346 9.73617C9.96139 9.74531 9.95677 9.75368 9.95013 9.76029C9.94349 9.76691 9.9351 9.7715 9.92595 9.77353C9.71645 9.82051 9.546 9.86494 9.54728 9.87705C9.54941 9.8923 9.72713 9.87082 9.94005 9.84008C9.9791 9.83382 10.0103 9.88157 9.98692 9.91691C9.75796 10.2757 9.55752 10.6106 9.57561 10.6238C9.59813 10.6409 9.83462 10.3296 10.0901 9.98648C10.1135 9.95484 10.1673 9.96711 10.1773 10.0062C10.2234 10.2125 10.2686 10.3868 10.2801 10.3847C10.2953 10.3826 10.2746 10.2087 10.2431 9.99193C10.2374 9.95373 10.2853 9.92182 10.3207 9.9452C10.6749 10.1747 11.0105 10.379 11.0237 10.3572C11.0363 10.3353 10.7279 10.0949 10.3901 9.84275C10.3586 9.81495 10.367 9.7655 10.4098 9.75554C10.6193 9.70855 10.7899 9.66342 10.7877 9.64817C10.7865 9.63605 10.6079 9.6581 10.395 9.68513C10.3858 9.68641 10.3765 9.68503 10.3682 9.68115C10.3598 9.67728 10.3527 9.67107 10.3478 9.66328C10.3429 9.65549 10.3403 9.64645 10.3404 9.63723C10.3405 9.62801 10.3432 9.61901 10.3483 9.6113C10.5779 9.25265 10.7782 8.91851 10.7564 8.90525C10.7376 8.88814 10.4973 9.20019 10.2458 9.54188C10.2399 9.549 10.2321 9.55436 10.2234 9.55734C10.2146 9.56033 10.2052 9.56083 10.1962 9.55879C10.1871 9.55675 10.1788 9.55226 10.1722 9.54579C10.1656 9.53933 10.1609 9.53116 10.1586 9.52219C10.1123 9.31654 10.0672 9.14223 10.0558 9.14366C10.0397 9.14636 10.0613 9.31966 10.092 9.53258C10.0983 9.57533 10.0505 9.60653 10.0151 9.58387Z" fill="white"/>
</g>
<defs>
<clipPath id="clip0_5_2904">
<rect width="24" height="24" fill="white"/>
</clipPath>
</defs>
</svg>
