<svg width="32" height="32" viewBox="0 0 32 32" fill="none" xmlns="http://www.w3.org/2000/svg">
<path d="M30.7914 13.218L17.7389 13.2174C17.1625 13.2174 16.6953 13.6845 16.6953 14.2609V18.4306C16.6953 19.0068 17.1625 19.4741 17.7388 19.4741H25.0892C24.2843 21.5629 22.7821 23.3122 20.8654 24.4237L23.9996 29.8493C29.0272 26.9416 31.9996 21.8398 31.9996 16.1287C31.9996 15.3155 31.9397 14.7342 31.8198 14.0796C31.7287 13.5823 31.2969 13.218 30.7914 13.218Z" fill="#167EE6"/>
<path d="M15.9997 25.7391C12.4026 25.7391 9.26233 23.7737 7.57577 20.8654L2.15039 23.9925C4.91133 28.7777 10.0835 32 15.9997 32C18.902 32 21.6406 31.2185 23.9997 29.8567V29.8493L20.8655 24.4237C19.4319 25.2552 17.7729 25.7391 15.9997 25.7391Z" fill="#12B347"/>
<path d="M24 29.8568V29.8493L20.8658 24.4237C19.4322 25.2551 17.7733 25.7391 16 25.7391V32C18.9023 32 21.641 31.2186 24 29.8568Z" fill="#0F993E"/>
<path d="M6.26088 16C6.26088 14.2269 6.74475 12.5681 7.57606 11.1346L2.15069 8.00745C0.781375 10.3591 0 13.0903 0 16C0 18.9098 0.781375 21.6409 2.15069 23.9926L7.57606 20.8654C6.74475 19.4319 6.26088 17.7731 6.26088 16Z" fill="#FFD500"/>
<path d="M15.9997 6.26088C18.3454 6.26088 20.5 7.09437 22.183 8.48081C22.5981 8.82281 23.2016 8.79813 23.5819 8.41781L26.5363 5.46344C26.9678 5.03194 26.937 4.32562 26.4761 3.92575C23.6564 1.47956 19.9876 0 15.9997 0C10.0835 0 4.91133 3.22231 2.15039 8.00744L7.57577 11.1346C9.26233 8.22625 12.4026 6.26088 15.9997 6.26088Z" fill="#FF4B26"/>
<path d="M22.1833 8.48081C22.5984 8.82281 23.2019 8.79813 23.5822 8.41781L26.5366 5.46344C26.968 5.03194 26.9373 4.32562 26.4764 3.92575C23.6567 1.4795 19.9879 0 16 0V6.26088C18.3456 6.26088 20.5003 7.09437 22.1833 8.48081Z" fill="#D93F21"/>
</svg>
