<svg width="18" height="18" viewBox="0 0 18 18" fill="none" xmlns="http://www.w3.org/2000/svg">
<path fill-rule="evenodd" clip-rule="evenodd" d="M0.751084 17.249C0.336272 16.8342 0.336272 16.1616 0.751084 15.7468L15.7467 0.751145C16.1616 0.336333 16.8341 0.336333 17.2489 0.751145C17.6637 1.16596 17.6637 1.8385 17.2489 2.25331L2.25325 17.249C1.83844 17.6638 1.1659 17.6638 0.751084 17.249Z" fill="white"/>
<path fill-rule="evenodd" clip-rule="evenodd" d="M3.58154 13.4213C7.88892 16.0024 13.7575 15.1641 17.1408 10.9679C17.8511 10.0868 17.8511 8.80053 17.1408 7.91948C15.8515 6.32045 14.2014 5.20902 12.4142 4.5886L10.3676 6.63529C11.4061 7.14295 12.1215 8.20977 12.1215 9.44367C12.1215 11.1691 10.7228 12.5678 8.99738 12.5678C7.76348 12.5678 6.69666 11.8524 6.189 10.8139L3.58154 13.4213ZM9.94801 4.05051C6.55241 3.72378 3.03553 5.02986 0.74887 7.98926C0.0869652 8.8459 0.0869654 10.0414 0.74887 10.8981C1.09545 11.3466 1.47029 11.7572 1.86869 12.1298L9.94801 4.05051Z" fill="white"/>
</svg>
