<svg width="70" height="70" viewBox="0 0 70 70" fill="none" xmlns="http://www.w3.org/2000/svg">
<g clip-path="url(#clip0_5_8966)">
<path d="M66.7625 40.3082H21.6784C19.9303 40.3082 18.5093 41.7294 18.5093 43.4774V53.8043C18.5093 55.5551 19.9304 56.9777 21.6784 56.9777H26.7639C27.3068 56.9777 27.746 57.4182 27.746 57.9611V63.3595L34.0464 57.2555C34.2291 57.0773 34.4743 56.9776 34.7296 56.9777H66.7625C68.5106 56.9777 69.9316 55.5551 69.9316 53.8043V43.4774C69.9316 41.7294 68.5105 40.3082 66.7625 40.3082ZM35.3961 49.9995C35.866 50.2702 36.0259 50.8722 35.7552 51.3407C35.6691 51.4904 35.545 51.6148 35.3955 51.7013C35.246 51.7877 35.0763 51.8332 34.9036 51.8332C34.7317 51.8328 34.5629 51.7873 34.414 51.7013L32.0614 50.3419V53.0607C32.0614 53.6036 31.6222 54.0441 31.0793 54.0441C30.5364 54.0441 30.0973 53.6036 30.0973 53.0607V50.3419L27.7446 51.7013C27.5957 51.7871 27.4269 51.8326 27.255 51.8332C27.0823 51.8334 26.9125 51.7879 26.763 51.7015C26.6135 51.615 26.4894 51.4906 26.4034 51.3407C26.1312 50.8722 26.2925 50.2704 26.7626 49.9995L29.1152 48.6415L26.7626 47.2821C26.6508 47.2178 26.5528 47.132 26.4742 47.0297C26.3956 46.9274 26.338 46.8106 26.3046 46.686C26.2712 46.5615 26.2628 46.4315 26.2797 46.3036C26.2967 46.1758 26.3387 46.0525 26.4034 45.9409C26.4677 45.8291 26.5535 45.7311 26.6558 45.6525C26.7581 45.5739 26.8749 45.5163 26.9995 45.4829C27.1241 45.4496 27.254 45.4411 27.3819 45.4581C27.5097 45.475 27.633 45.5171 27.7446 45.5817L30.0973 46.9398V44.2251C30.0973 43.6822 30.5364 43.243 31.0793 43.243C31.6222 43.243 32.0614 43.6822 32.0614 44.2251V46.9398L34.414 45.5817C34.5256 45.5171 34.6489 45.475 34.7768 45.4581C34.9046 45.4411 35.0346 45.4496 35.1592 45.4829C35.2838 45.5163 35.4006 45.5739 35.5028 45.6525C35.6051 45.7311 35.6909 45.8291 35.7552 45.9409C36.0259 46.4109 35.8661 47.0113 35.3961 47.2821L33.0434 48.6415L35.3961 49.9995ZM48.5358 49.9995C48.7613 50.1301 48.9258 50.3448 48.9931 50.5965C49.0605 50.8482 49.0252 51.1164 48.895 51.3421C48.8086 51.4914 48.6844 51.6154 48.5349 51.7016C48.3854 51.7878 48.2159 51.8331 48.0434 51.8331C47.871 51.8325 47.7018 51.787 47.5524 51.7011L45.2011 50.3417V53.0605C45.2011 53.6034 44.7606 54.0439 44.2191 54.0439C43.9583 54.0439 43.7082 53.9402 43.5238 53.7558C43.3394 53.5714 43.2357 53.3213 43.2357 53.0605V50.3445L40.8886 51.7011C40.7392 51.787 40.57 51.8324 40.3977 51.8331C40.2251 51.8331 40.0556 51.7877 39.9062 51.7015C39.7567 51.6154 39.6325 51.4914 39.546 51.3421C39.4159 51.1164 39.3805 50.8482 39.4479 50.5965C39.5152 50.3448 39.6797 50.1301 39.9052 49.9995L42.2565 48.6415L39.9052 47.2821C39.4352 47.0114 39.2753 46.4109 39.546 45.9409C39.8182 45.4709 40.4187 45.3095 40.8886 45.5817L43.2357 46.9369V44.2251C43.2357 43.6822 43.6762 43.243 44.2191 43.243C44.4795 43.2431 44.7293 43.3465 44.9135 43.5307C45.0976 43.7149 45.2011 43.9646 45.2011 44.2251V46.9398L47.5524 45.5817C48.0225 45.3095 48.6228 45.4709 48.895 45.9409C49.1657 46.4109 49.0059 47.0113 48.5358 47.2821L46.1846 48.6415L48.5358 49.9995ZM61.6783 49.9995C62.1484 50.2702 62.3097 50.8722 62.0375 51.3407C61.9515 51.4906 61.8274 51.615 61.6779 51.7015C61.5284 51.788 61.3586 51.8334 61.1859 51.8332C61.014 51.8328 60.8451 51.7873 60.6963 51.7013L58.3436 50.3419V53.0607C58.3436 53.6036 57.9045 54.0441 57.3616 54.0441C56.8187 54.0441 56.3795 53.6036 56.3795 53.0607V50.3419L54.0269 51.7013C53.878 51.7872 53.7092 51.8327 53.5373 51.8332C53.3645 51.8334 53.1948 51.7879 53.0453 51.7015C52.8957 51.615 52.7717 51.4906 52.6857 51.3407C52.4135 50.8722 52.5748 50.2704 53.0448 49.9995L55.3975 48.6415L53.0448 47.2821C52.933 47.2178 52.835 47.132 52.7564 47.0297C52.6779 46.9274 52.6202 46.8106 52.5869 46.686C52.5535 46.5615 52.545 46.4315 52.562 46.3036C52.579 46.1758 52.621 46.0525 52.6857 45.9409C52.75 45.8291 52.8358 45.7311 52.9381 45.6525C53.0403 45.5739 53.1571 45.5163 53.2817 45.4829C53.4063 45.4496 53.5363 45.4411 53.6641 45.4581C53.792 45.475 53.9153 45.5171 54.0269 45.5817L56.3795 46.9398V44.2251C56.3795 43.6822 56.8187 43.243 57.3616 43.243C57.9045 43.243 58.3436 43.6822 58.3436 44.2251V46.9398L60.6963 45.5817C60.8079 45.5171 60.9312 45.475 61.059 45.4581C61.1869 45.4411 61.3168 45.4496 61.4414 45.4829C61.566 45.5163 61.6828 45.5739 61.7851 45.6525C61.8874 45.7311 61.9732 45.8291 62.0375 45.9409C62.1022 46.0525 62.1442 46.1758 62.1612 46.3036C62.1781 46.4315 62.1697 46.5615 62.1363 46.686C62.1029 46.8106 62.0453 46.9274 61.9667 47.0297C61.8881 47.132 61.7901 47.2178 61.6783 47.2821L59.3257 48.6415L61.6783 49.9995ZM27.4486 66.3855C27.2649 66.5629 27.0194 66.662 26.7641 66.6618C26.6324 66.6621 26.5021 66.6353 26.3811 66.5832C26.2034 66.5083 26.0518 66.3826 25.9452 66.2219C25.8387 66.0612 25.7819 65.8726 25.782 65.6798V58.943H21.6785C18.8475 58.943 16.5438 56.638 16.5438 53.8041V43.4772C16.5438 40.6462 18.8474 38.3426 21.6785 38.3426H50.9532C50.2994 35.5087 47.7559 33.4155 44.7593 33.4155H41.8875V23.3581C41.8875 16.6073 36.3951 11.1148 29.6442 11.1148C22.8892 11.1148 17.3953 16.6072 17.3953 23.3581V33.4155H14.5235C11.0205 33.4155 8.16826 36.2691 8.16826 39.775V62.7253C8.16826 66.2283 11.0204 69.079 14.5235 69.079H44.7591C48.2636 69.079 51.1144 66.2283 51.1144 62.7253V58.943H35.1281L27.4486 66.3855ZM23.1613 23.3582C23.1613 19.7865 26.0695 16.8809 29.6442 16.8809C33.216 16.8809 36.1214 19.7863 36.1214 23.3582V33.4157H23.1613V23.3582ZM2.03287 30.493C2.03287 30.7536 1.92938 31.0034 1.74518 31.1876C1.56097 31.3718 1.31113 31.4753 1.05062 31.4753C0.790105 31.4753 0.540264 31.3718 0.356055 31.1876C0.171847 31.0034 0.0683594 30.7536 0.0683594 30.493C0.0683594 14.1874 13.3339 0.921875 29.6395 0.921875C43.4666 0.921875 55.469 10.5637 58.4869 23.9628H64.118C64.3058 23.9628 64.4898 24.0167 64.648 24.1182C64.8061 24.2196 64.9318 24.3643 65.0102 24.5351C65.0887 24.7057 65.1167 24.8952 65.0908 25.0812C65.065 25.2672 64.9864 25.4419 64.8643 25.5846L58.784 32.6862C58.6919 32.7941 58.5775 32.8808 58.4486 32.9401C58.3198 32.9995 58.1795 33.0301 58.0377 33.0299C57.8959 33.0299 57.7559 32.9993 57.6271 32.9402C57.4983 32.8811 57.3837 32.7949 57.2913 32.6875L51.2069 25.5846C51.0848 25.4419 51.0062 25.2672 50.9804 25.0812C50.9545 24.8952 50.9825 24.7057 51.061 24.5351C51.1394 24.3643 51.2651 24.2196 51.4232 24.1182C51.5814 24.0167 51.7654 23.9628 51.9533 23.9628H56.4706C53.4956 11.68 42.3995 2.88625 29.6395 2.88625C14.4173 2.88639 2.03287 15.2708 2.03287 30.493Z" fill="url(#paint0_linear_5_8966)"/>
</g>
<defs>
<linearGradient id="paint0_linear_5_8966" x1="35" y1="0.921875" x2="35" y2="69.079" gradientUnits="userSpaceOnUse">
<stop stop-color="#FFC54D"/>
<stop offset="1" stop-color="#FFE2A5"/>
</linearGradient>
<clipPath id="clip0_5_8966">
<rect width="70" height="70" fill="white"/>
</clipPath>
</defs>
</svg>
