<svg preserveAspectRatio="none" width="100%" height="100%" overflow="visible" style="display: block;" viewBox="0 0 23.0832 26.6" fill="none" xmlns="http://www.w3.org/2000/svg">
<g id="Group">
<path id="Vector" d="M19.7842 14.8036C12.5079 16.0003 11.2143 17.5204 10.2441 26.3816C10.2116 26.6728 9.79104 26.6728 9.75884 26.3816C8.78864 17.5204 7.49504 16.0328 0.2184 14.8036C-0.0728 14.7714 -0.0728 14.3511 0.2184 14.3186C7.49504 13.1222 8.78864 11.6346 9.75884 2.77312C9.79104 2.48192 10.2116 2.48192 10.2441 2.77312C11.214 11.6346 12.5076 13.09 19.7842 14.3186C20.043 14.3511 20.043 14.7389 19.7842 14.8036ZM22.8892 4.58416C20.6248 5.0372 19.978 5.78088 19.5902 8.43276C19.558 8.72396 19.1374 8.72396 19.1052 8.43276C18.7172 5.78088 18.0704 5.03692 15.8066 4.55196C15.7514 4.5396 15.7022 4.50884 15.6668 4.46474C15.6315 4.42064 15.6123 4.36583 15.6123 4.30934C15.6123 4.25285 15.6315 4.19804 15.6668 4.15394C15.7022 4.10984 15.7514 4.07908 15.8066 4.06672C18.0382 3.61396 18.7172 2.87028 19.105 0.2184C19.1374 -0.0728 19.558 -0.0728 19.5902 0.2184C19.9783 2.87 20.6251 3.61396 22.8892 4.0992C23.1479 4.1636 23.1479 4.55196 22.8892 4.58416Z" fill="var(--fill-0, white)"/>
</g>
</svg>
