<svg width="22" height="22" viewBox="0 0 22 22" fill="none" xmlns="http://www.w3.org/2000/svg">
<g clip-path="url(#clip0_313_9186)">
<path d="M10.9999 0C14.0376 0 16.7878 1.2314 18.7781 3.22162C20.7695 5.21185 21.9997 7.96215 21.9997 10.9999C21.9997 14.0376 20.7695 16.7879 18.7781 18.7781C16.7878 20.7683 14.0376 21.9997 10.9999 21.9997C7.96215 21.9997 5.2131 20.7683 3.22162 18.7781C1.2314 16.7879 0 14.0376 0 10.9999C0 7.96215 1.2314 5.21189 3.22167 3.22162C5.2131 1.23144 7.96215 0 10.9999 0Z" fill="#FFB703"/>
<path d="M11 2.16406C13.4397 2.16406 15.6491 3.15307 17.2484 4.75233C18.8464 6.35038 19.8354 8.55983 19.8354 10.9995C19.8354 13.4392 18.8464 15.6487 17.2484 17.2467C15.6491 18.8459 13.4397 19.835 11 19.835C8.56032 19.835 6.35207 18.8459 4.75282 17.2467C3.15356 15.6487 2.16455 13.4392 2.16455 10.9995C2.16455 8.55983 3.15356 6.35038 4.75282 4.75233C6.35207 3.15307 8.56032 2.16406 11 2.16406Z" fill="#FCD227"/>
<path fill-rule="evenodd" clip-rule="evenodd" d="M11 2.16442C13.4397 2.16442 15.6491 3.15343 17.2484 4.75269L18.7782 3.22167C16.788 1.23144 14.0377 0 11 0V2.16442Z" fill="#FFB703"/>
<path fill-rule="evenodd" clip-rule="evenodd" d="M17.248 4.75177C18.8461 6.34982 19.8351 8.55927 19.8351 10.9989H21.9995C21.9995 7.96123 20.7693 5.21097 18.7779 3.2207L17.248 4.75177Z" fill="#FF9831"/>
<path fill-rule="evenodd" clip-rule="evenodd" d="M19.8351 11C19.8351 13.4397 18.8461 15.6492 17.248 17.2472L18.7779 18.7782C20.7693 16.788 21.9995 14.0378 21.9995 11H19.8351V11Z" fill="#FFB703"/>
<path fill-rule="evenodd" clip-rule="evenodd" d="M17.2484 17.2461C15.6491 18.8453 13.4397 19.8344 11 19.8344V21.9987C14.0377 21.9987 16.788 20.7673 18.7782 18.7771L17.2484 17.2461Z" fill="#FF9831"/>
<path fill-rule="evenodd" clip-rule="evenodd" d="M10.9999 19.8344C8.5602 19.8344 6.35195 18.8453 4.7527 17.2461L3.22168 18.7772C5.21311 20.7674 7.96216 21.9988 10.9999 21.9988V19.8344H10.9999Z" fill="#FFB703"/>
<path fill-rule="evenodd" clip-rule="evenodd" d="M4.75269 17.2472C3.15343 15.6492 2.16442 13.4397 2.16442 11H0C0 14.0377 1.2314 16.788 3.22167 18.7782L4.75269 17.2472Z" fill="#FF9831"/>
<path fill-rule="evenodd" clip-rule="evenodd" d="M2.16442 10.9989C2.16442 8.55927 3.15343 6.34982 4.75269 4.75177L3.22167 3.2207C1.2314 5.21097 0 7.96123 0 10.9989H2.16442Z" fill="#FFB703"/>
<path fill-rule="evenodd" clip-rule="evenodd" d="M4.75274 4.75269C6.352 3.15343 8.56025 2.16442 10.9999 2.16442V0C7.96221 0 5.21315 1.2314 3.22168 3.22162L4.75274 4.75269Z" fill="#FF9831"/>
<path d="M12.0399 6.18948L12.7488 8.38677C12.7769 8.47202 12.828 8.54266 12.895 8.59139C12.9632 8.64011 13.0461 8.66813 13.1374 8.66813L15.4456 8.66323C15.7233 8.66323 15.9596 8.75703 16.1423 8.90807C16.3042 9.04325 16.4212 9.2223 16.4857 9.4172C16.5491 9.61451 16.5588 9.82768 16.5077 10.0311C16.4492 10.2613 16.3128 10.4781 16.0874 10.64L14.2178 11.9933C14.1435 12.0468 14.0923 12.1187 14.0667 12.1967C14.0412 12.2746 14.0412 12.3623 14.0692 12.45L14.7866 14.6437C14.8731 14.9056 14.856 15.1601 14.7671 15.3806C14.69 15.5748 14.559 15.743 14.3896 15.8653C14.2239 15.9859 14.023 16.0627 13.8122 16.0761C13.5759 16.0907 13.3299 16.0286 13.1058 15.8653L11.241 14.5048C11.1679 14.4512 11.0839 14.4257 10.9998 14.4257C10.9158 14.4257 10.8317 14.4512 10.7599 14.5048L8.89515 15.8653C8.67102 16.0285 8.42378 16.0907 8.1887 16.0761C7.97678 16.0627 7.77701 15.9859 7.61137 15.8653C7.44448 15.746 7.31175 15.5779 7.23256 15.3806C7.14486 15.1601 7.1278 14.9056 7.21309 14.6437L7.9305 12.45C7.95972 12.3623 7.95851 12.2746 7.93295 12.1967C7.90859 12.1187 7.85621 12.0468 7.78312 11.9933L5.91226 10.64C5.68693 10.4781 5.55175 10.2613 5.49327 10.0311C5.44089 9.82768 5.45185 9.61451 5.51518 9.4172C5.57852 9.2223 5.69668 9.04325 5.85867 8.90807C6.04013 8.75703 6.27646 8.66323 6.55537 8.66323L8.86352 8.66813C8.95367 8.66813 9.03768 8.64011 9.10471 8.59139C9.17169 8.54266 9.22407 8.47202 9.25209 8.38677L9.96099 6.18948C10.0462 5.92638 10.2095 5.73152 10.4092 5.60484C10.5883 5.49158 10.7954 5.43555 11 5.43555C11.2046 5.43555 11.4117 5.49158 11.5907 5.60484C11.7915 5.73152 11.9547 5.92638 12.0399 6.18948Z" fill="#FB8500"/>
</g>
<defs>
<clipPath id="clip0_313_9186">
<rect width="22" height="22" fill="white"/>
</clipPath>
</defs>
</svg>
