<svg width="20" height="20" viewBox="0 0 20 20" fill="none" xmlns="http://www.w3.org/2000/svg">
<path d="M14.9757 4.49392H13.9777C13.7018 4.49392 13.4786 4.71711 13.4786 4.99296C13.4786 5.26878 13.7018 5.492 13.9777 5.492H14.9757C15.2515 5.492 15.4748 5.26881 15.4748 4.99296C15.4747 4.71711 15.2515 4.49392 14.9757 4.49392ZM9.93284 2.77364L9.43383 1.77559C9.30958 1.52899 9.01082 1.43008 8.76422 1.5524C8.51762 1.67568 8.41772 1.9754 8.54103 2.222L9.04007 3.22005C9.16319 3.46566 9.46142 3.56656 9.70968 3.44324C9.95621 3.31996 10.0561 3.02024 9.93284 2.77364ZM13.2028 1.5524C12.9572 1.43008 12.6565 1.52902 12.5332 1.77559L12.0342 2.77364C11.9109 3.02024 12.0108 3.31993 12.2573 3.44324C12.3758 3.50235 12.5128 3.51204 12.6383 3.47019C12.7639 3.42834 12.8677 3.33838 12.927 3.22005L13.426 2.222C13.5493 1.9754 13.4494 1.67568 13.2028 1.5524ZM7.98933 4.49392H6.99128C6.71546 4.49392 6.49224 4.71711 6.49224 4.99296C6.49224 5.26878 6.71543 5.492 6.99128 5.492H7.98933C8.26515 5.492 8.48837 5.26881 8.48837 4.99296C8.48837 4.71711 8.26515 4.49392 7.98933 4.49392ZM4.99518 9.51748H2.99904C2.72346 9.51748 2.5 9.7409 2.5 10.0165V18.0009C2.5 18.2765 2.72342 18.5 2.99904 18.5H4.99514C5.27073 18.5 5.49419 18.2765 5.49419 18.0009V10.0165C5.49419 9.7409 5.2708 9.51748 4.99518 9.51748ZM17.4609 10.8403C17.3729 10.0662 16.6498 9.51748 15.8707 9.51748H11.9801C12.3107 8.92543 12.4882 7.2509 12.4803 6.56685C12.4673 5.43456 11.5296 4.52719 10.3973 4.52719H9.9855C9.70968 4.52719 9.48646 4.75038 9.48646 5.02623C9.48646 6.1802 9.03712 8.2631 8.18968 9.11057C7.61928 9.68097 7.13166 9.88766 6.49227 10.2072V17.6951C7.4712 18.0214 8.71412 18.5 10.6086 18.5H13.873C14.9486 18.5 15.7863 17.5038 15.3695 16.4513C16.0045 16.2783 16.4728 15.6959 16.4728 15.0068C16.4728 14.8123 16.4353 14.6262 16.3676 14.4551C17.4377 14.1636 17.8315 12.8423 17.0888 12.0126C17.3617 11.7078 17.5122 11.2908 17.4609 10.8403Z" fill="white"/>
</svg>
