<svg width="60" height="60" viewBox="0 0 60 60" fill="none" xmlns="http://www.w3.org/2000/svg">
<path d="M45.3981 15.3935V21.4403C43.9959 20.6614 42.4541 20.1661 40.8606 19.9825V15.3935C40.8606 12.5142 39.7169 9.75287 37.6809 7.71693C35.645 5.68099 32.8837 4.53721 30.0044 4.53721C27.1251 4.53721 24.3638 5.68099 22.3279 7.71693C20.2919 9.75287 19.1481 12.5142 19.1481 15.3935V19.9825C17.5536 20.1652 16.0104 20.6589 14.606 21.4356V15.3935C14.6764 11.3567 16.3295 7.50905 19.2091 4.6792C22.0888 1.84935 25.9647 0.263672 30.002 0.263672C34.0394 0.263672 37.9153 1.84935 40.795 4.6792C43.6747 7.50905 45.3277 11.3567 45.3981 15.3935Z" fill="white"/>
<path d="M47.1093 23.822C45.6047 22.457 43.7677 21.5115 41.7824 21.0804C39.7972 20.6493 37.7335 20.7477 35.7983 21.3657C33.0655 22.2235 30.9843 23.9813 29.9999 26.2032C29.0155 23.9813 26.9389 22.2235 24.2014 21.3657C22.267 20.7476 20.204 20.6492 18.2195 21.0803C16.235 21.5115 14.3988 22.457 12.8952 23.822C8.83113 27.4173 7.27019 32.5548 8.45144 38.2876C10.4108 47.6345 19.2327 56.5688 29.8593 59.9767C29.9059 59.9837 29.9533 59.9837 29.9999 59.9767C30.0481 59.9838 30.097 59.9838 30.1452 59.9767C40.7811 56.5501 49.5936 47.6345 51.5624 38.2876C52.7483 32.5548 51.1733 27.422 47.1093 23.822ZM31.7764 41.2501L32.1233 45.1548C32.1292 45.2198 32.1214 45.2853 32.1005 45.3471C32.0796 45.409 32.046 45.4658 32.0019 45.5139C31.9578 45.562 31.9041 45.6003 31.8443 45.6265C31.7845 45.6526 31.7198 45.666 31.6546 45.6657H28.3452C28.2806 45.6649 28.2168 45.6508 28.1579 45.6241C28.099 45.5975 28.0463 45.559 28.003 45.511C27.9592 45.4633 27.9257 45.407 27.9047 45.3457C27.8837 45.2844 27.8757 45.2194 27.8811 45.1548L28.228 41.2501C27.6317 40.8668 27.1755 40.3006 26.9278 39.6364C26.6801 38.9721 26.6542 38.2455 26.8539 37.5653C27.0537 36.8851 27.4684 36.2879 28.0359 35.8631C28.6034 35.4382 29.2933 35.2086 30.0022 35.2086C30.7111 35.2086 31.401 35.4382 31.9685 35.8631C32.5361 36.2879 32.9508 36.8851 33.1505 37.5653C33.3503 38.2455 33.3244 38.9721 33.0767 39.6364C32.829 40.3006 32.3728 40.8668 31.7764 41.2501Z" fill="white"/>
</svg>
